<svg width="24" height="24" viewBox="0 0 24 24" fill="none" xmlns="http://www.w3.org/2000/svg">
<path d="M5.16 17.79C5.42 18.37 5.72999 18.95 6.08999 19.51C6.84999 20.68 7.86999 21.99 9.19999 22C9.74999 22.01 10.12 21.84 10.52 21.66C10.98 21.46 11.47 21.23 12.33 21.23C13.19 21.22 13.68 21.45 14.13 21.66C14.52 21.84 14.88 22 15.42 22C16.75 21.99 17.83 20.53 18.59 19.37C19.14 18.53 19.34 18.11 19.76 17.17C16.68 16 16.18 11.61 19.23 9.92999C18.3 8.75999 16.99 8.09 15.76 8.09C14.87 8.09 14.26 8.32 13.71 8.53C13.25 8.71 12.82 8.87 12.31 8.87C11.75 8.87 11.26 8.69001 10.74 8.51001C10.17 8.31001 9.57999 8.09 8.83999 8.09C7.44999 8.09 5.97999 8.94 5.03999 10.38C4.58999 11.08 4.31999 12 4.23999 13.03M15.41 2C15.57 3.1 15.12 4.19001 14.53 4.95001C13.9 5.77001 12.8 6.41 11.74 6.37C11.55 5.31 12.04 4.21999 12.64 3.48999C13.31 2.68999 14.44 2.07 15.41 2Z" stroke="#171717" stroke-width="1.5" stroke-miterlimit="10" stroke-linecap="round" stroke-linejoin="round"/>
</svg>
