<svg width="24" height="24" viewBox="0 0 24 24" fill="none" xmlns="http://www.w3.org/2000/svg">
<path d="M7.5 6.97998L16.5 6.99997L15.5 16L12 17L8.5 16L8 14" stroke="#171717" stroke-width="1.5" stroke-miterlimit="10" stroke-linecap="round" stroke-linejoin="round"/>
<path d="M8 11H16.06" stroke="#171717" stroke-width="1.5" stroke-miterlimit="10" stroke-linecap="round" stroke-linejoin="round"/>
<path d="M3.31996 4.91L3.11996 3.10999C3.04996 2.51999 3.51996 2 4.10996 2H19.88C20.48 2 20.94 2.51999 20.87 3.10999L19.07 19.33C19.03 19.73 18.74 20.07 18.35 20.18L12.27 21.92C12.09 21.97 11.9 21.97 11.72 21.92L5.63996 20.18C5.24996 20.07 4.96996 19.73 4.91996 19.33L3.81996 9.41" stroke="#171717" stroke-width="1.5" stroke-miterlimit="10" stroke-linecap="round" stroke-linejoin="round"/>
</svg>
