<svg width="24" height="24" viewBox="0 0 24 24" fill="none" xmlns="http://www.w3.org/2000/svg">
<path d="M10.62 7.01001V15.99L7.5 15.09" stroke="#171717" stroke-width="1.5" stroke-miterlimit="10" stroke-linecap="round" stroke-linejoin="round"/>
<path d="M16.4999 7L13.3499 7.45V12.4L16.4999 11.95V15.1L12.8999 16" stroke="#171717" stroke-width="1.5" stroke-miterlimit="10" stroke-linecap="round" stroke-linejoin="round"/>
<path d="M3.31997 4.91L3.11996 3.11C3.04996 2.52 3.51995 2 4.10995 2H19.88C20.48 2 20.94 2.52 20.87 3.11L19.07 19.33C19.03 19.73 18.7399 20.07 18.3499 20.18L12.27 21.92C12.09 21.97 11.8999 21.97 11.7199 21.92L5.63998 20.18C5.24998 20.07 4.96995 19.73 4.91995 19.33L3.81997 9.41" stroke="#171717" stroke-width="1.5" stroke-miterlimit="10" stroke-linecap="round" stroke-linejoin="round"/>
</svg>
