<svg width="24" height="24" viewBox="0 0 24 24" fill="none" xmlns="http://www.w3.org/2000/svg">
<path d="M5.52979 15.98C5.69979 17.77 6.63978 18.5 8.68978 18.5H11.4198C13.6998 18.5 14.6098 17.59 14.6098 15.31V12.58C14.6098 10.31 13.6998 9.39999 11.4198 9.39999H8.68978C6.61978 9.39999 5.67979 10.15 5.52979 12" stroke="#171717" stroke-width="1.5" stroke-linecap="round" stroke-linejoin="round"/>
<path d="M18.4999 8.68V11.41C18.4999 13.69 17.5899 14.6 15.3099 14.6H14.5999V12.58C14.5999 10.31 13.6899 9.4 11.4099 9.4H9.3999V8.68C9.3999 6.4 10.3099 5.5 12.5899 5.5H15.3199C17.5899 5.5 18.4999 6.41 18.4999 8.68Z" stroke="#171717" stroke-width="1.5" stroke-linecap="round" stroke-linejoin="round"/>
<path d="M22 15C22 18.87 18.87 22 15 22L16.05 20.25" stroke="#171717" stroke-width="1.5" stroke-linecap="round" stroke-linejoin="round"/>
<path d="M2 9C2 5.13 5.13 2 9 2L7.95 3.75" stroke="#171717" stroke-width="1.5" stroke-linecap="round" stroke-linejoin="round"/>
</svg>
