<svg width="24" height="24" viewBox="0 0 24 24" fill="none" xmlns="http://www.w3.org/2000/svg">
<path d="M2.00195 9V7C2.00195 4 4.00195 2 7.00195 2H17.002C20.002 2 22.002 4 22.002 7V9" stroke="#171717" stroke-width="1.5" stroke-miterlimit="10" stroke-linecap="round" stroke-linejoin="round"/>
<path d="M2.00195 15V17C2.00195 20 4.00195 22 7.00195 22H17.002C20.002 22 22.002 20 22.002 17V15" stroke="#171717" stroke-width="1.5" stroke-miterlimit="10" stroke-linecap="round" stroke-linejoin="round"/>
<path d="M6.70215 9.26001L12.0022 12.33L17.2621 9.28003" stroke="#171717" stroke-width="1.5" stroke-linecap="round" stroke-linejoin="round"/>
<path d="M12.002 17.7701V12.3201" stroke="#171717" stroke-width="1.5" stroke-linecap="round" stroke-linejoin="round"/>
<path d="M10.7622 6.29006L7.56218 8.07009C6.84218 8.47009 6.24219 9.48008 6.24219 10.3101V13.7001C6.24219 14.5301 6.83218 15.5401 7.56218 15.9401L10.7622 17.7201C11.4422 18.1001 12.5622 18.1001 13.2522 17.7201L16.4522 15.9401C17.1722 15.5401 17.7722 14.5301 17.7722 13.7001V10.3101C17.7722 9.48008 17.1822 8.47009 16.4522 8.07009L13.2522 6.29006C12.5622 5.90006 11.4422 5.90006 10.7622 6.29006Z" stroke="#171717" stroke-width="1.5" stroke-linecap="round" stroke-linejoin="round"/>
</svg>
