<svg width="25" height="24" viewBox="0 0 25 24" fill="none" xmlns="http://www.w3.org/2000/svg">
<path d="M6.71558 9.26001L12.0156 12.33L17.2756 9.28001" stroke="#171717" stroke-width="1.5" stroke-linecap="round" stroke-linejoin="round"/>
<path d="M12.0156 17.7701V12.3201" stroke="#171717" stroke-width="1.5" stroke-linecap="round" stroke-linejoin="round"/>
<path d="M10.7756 6.28998L7.57562 8.06998C6.85562 8.46998 6.25562 9.47998 6.25562 10.31V13.7C6.25562 14.53 6.84562 15.54 7.57562 15.94L10.7756 17.72C11.4556 18.1 12.5756 18.1 13.2656 17.72L16.4656 15.94C17.1856 15.54 17.7856 14.53 17.7856 13.7V10.3C17.7856 9.46998 17.1956 8.45998 16.4656 8.05998L13.2656 6.27998C12.5756 5.89998 11.4556 5.89998 10.7756 6.28998Z" stroke="#171717" stroke-width="1.5" stroke-linecap="round" stroke-linejoin="round"/>
<path d="M22.0156 15C22.0156 18.87 18.8856 22 15.0156 22L16.0656 20.25" stroke="#171717" stroke-width="1.5" stroke-linecap="round" stroke-linejoin="round"/>
<path d="M2.01562 9C2.01562 5.13 5.14563 2 9.01562 2L7.96564 3.75" stroke="#171717" stroke-width="1.5" stroke-linecap="round" stroke-linejoin="round"/>
</svg>
