<svg width="24" height="24" viewBox="0 0 24 24" fill="none" xmlns="http://www.w3.org/2000/svg">
<path d="M9.03097 21.69L11.361 19.73C11.711 19.43 12.291 19.43 12.641 19.73L14.971 21.69C15.511 21.96 16.171 21.69 16.371 21.11L16.811 19.78C16.921 19.46 16.811 18.99 16.571 18.75L14.301 16.47C14.131 16.31 14.001 15.99 14.001 15.76V12.91C14.001 12.49 14.311 12.29 14.701 12.45L19.611 14.57C20.381 14.9 21.011 14.49 21.011 13.65V12.36C21.011 11.69 20.511 10.92 19.891 10.66L14.301 8.25C14.141 8.18 14.001 7.97 14.001 7.79V4.79C14.001 3.85 13.311 2.74 12.471 2.31C12.171 2.16 11.821 2.16 11.521 2.31C10.681 2.74 9.99097 3.86 9.99097 4.8V7.8C9.99097 7.98 9.85097 8.19 9.69097 8.26L4.11097 10.67C3.49097 10.92 2.99097 11.69 2.99097 12.36V13.65C2.99097 14.49 3.62097 14.9 4.39097 14.57L9.30097 12.45C9.68097 12.28 10.001 12.49 10.001 12.91V15.76C10.001 15.99 9.87097 16.31 9.71097 16.47L7.44097 18.75C7.20097 18.99 7.09097 19.45 7.20097 19.78L7.64097 21.11C7.82097 21.69 8.48097 21.97 9.03097 21.69Z" stroke="#171717" stroke-width="1.5" stroke-linecap="round" stroke-linejoin="round"/>
</svg>
