<svg width="24" height="24" viewBox="0 0 24 24" fill="none" xmlns="http://www.w3.org/2000/svg">
<path d="M9.861 19L11.541 17.58C11.791 17.37 12.211 17.37 12.471 17.58L14.141 19C14.531 19.2 15.011 19 15.151 18.58L15.471 17.62C15.551 17.39 15.471 17.05 15.301 16.88L13.661 15.23C13.541 15.11 13.451 14.88 13.451 14.72V12.87C13.451 12.45 13.761 12.25 14.151 12.41L17.501 13.85C18.051 14.09 18.511 13.79 18.511 13.19V12.26C18.511 11.78 18.151 11.22 17.701 11.03L13.761 9.33C13.591 9.26 13.461 9.05 13.461 8.87V6.8C13.461 6.12 12.961 5.32 12.361 5.01C12.141 4.9 11.891 4.9 11.671 5.01C11.061 5.31 10.571 6.12 10.571 6.8V8.87C10.571 9.05 10.431 9.26 10.271 9.33L6.331 11.03C5.891 11.22 5.521 11.78 5.521 12.26V13.19C5.521 13.79 5.971 14.09 6.531 13.85L9.881 12.41C10.261 12.24 10.581 12.45 10.581 12.87V14.72C10.581 14.89 10.481 15.12 10.371 15.23L8.701 16.87C8.531 17.04 8.451 17.38 8.531 17.61L8.851 18.57C8.991 19 9.461 19.2 9.861 19Z" stroke="#171717" stroke-width="1.5" stroke-linecap="round" stroke-linejoin="round"/>
<path d="M9.00098 22H15.001C20.001 22 22.001 20 22.001 15V9C22.001 4 20.001 2 15.001 2H9.00098C4.00098 2 2.00098 4 2.00098 9V15C2.00098 20 4.00098 22 9.00098 22Z" stroke="#171717" stroke-width="1.5" stroke-linecap="round" stroke-linejoin="round"/>
</svg>
