<svg width="25" height="24" viewBox="0 0 25 24" fill="none" xmlns="http://www.w3.org/2000/svg">
<path d="M22.5 15V9C22.5 4 20.5 2 15.5 2H9.5C4.5 2 2.5 4 2.5 9V15C2.5 20 4.5 22 9.5 22H15.5C20.5 22 22.5 20 22.5 15Z" stroke="#171717" stroke-width="1.5" stroke-linecap="round" stroke-linejoin="round"/>
<path d="M10.12 17.3C11.2908 17.3 12.24 16.3509 12.24 15.1801C12.24 14.0092 11.2908 13.0601 10.12 13.0601C8.94915 13.0601 8 14.0092 8 15.1801C8 16.3509 8.94915 17.3 10.12 17.3Z" stroke="#171717" stroke-width="1.5" stroke-linecap="round" stroke-linejoin="round"/>
<path d="M12.24 15.18V7.77002" stroke="#171717" stroke-width="1.5" stroke-linecap="round" stroke-linejoin="round"/>
<path d="M13.63 6.7701L15.97 7.55006C16.54 7.74006 17 8.38006 17 8.98006V9.60005C17 10.4101 16.37 10.8601 15.61 10.6001L13.27 9.82008C12.7 9.63008 12.24 8.99009 12.24 8.39009V7.7701C12.24 6.9701 12.86 6.5101 13.63 6.7701Z" stroke="#171717" stroke-width="1.5" stroke-linecap="round" stroke-linejoin="round"/>
</svg>
