<svg width="25" height="24" viewBox="0 0 25 24" fill="none" xmlns="http://www.w3.org/2000/svg">
<path d="M16.46 10.8301H13.4L12.64 13.1201H14.93C15.77 13.1201 16.46 13.8001 16.46 14.6501C16.46 15.4901 15.78 16.1801 14.93 16.1801H12.64" stroke="#171717" stroke-width="1.5" stroke-linecap="round" stroke-linejoin="round"/>
<path d="M10.04 16.17V10.8301L8.54004 12.5001" stroke="#171717" stroke-width="1.5" stroke-linecap="round" stroke-linejoin="round"/>
<path d="M10.52 4.46997L12.5 2" stroke="#171717" stroke-width="1.5" stroke-linecap="round" stroke-linejoin="round"/>
<path d="M5.40997 7.79999C4.29997 9.27999 3.60999 11.11 3.60999 13.11C3.60999 18.02 7.59 22 12.5 22C17.41 22 21.39 18.02 21.39 13.11C21.39 8.19999 17.41 4.21997 12.5 4.21997C11.82 4.21997 11.16 4.31002 10.52 4.46002" stroke="#171717" stroke-width="1.5" stroke-linecap="round" stroke-linejoin="round"/>
</svg>
