<svg width="25" height="24" viewBox="0 0 25 24" fill="none" xmlns="http://www.w3.org/2000/svg">
<path d="M22.0156 4.66994V16.74C22.0156 17.7 21.2356 18.5999 20.2756 18.7199L19.9456 18.76C17.7656 19.05 14.4056 20.1599 12.4856 21.2199C12.2256 21.3699 11.7956 21.3699 11.5256 21.2199L11.4856 21.2C9.5656 20.15 6.21565 19.05 4.04565 18.76L3.75562 18.7199C2.79562 18.5999 2.01562 17.7 2.01562 16.74V4.65993C2.01562 3.46993 2.9856 2.56994 4.1756 2.66994C6.2756 2.83994 9.4556 3.89997 11.2356 5.00997L11.4856 5.15993C11.7756 5.33994 12.2557 5.33994 12.5457 5.15993L12.7156 5.04995C13.3456 4.65995 14.1456 4.26994 15.0156 3.91994V7.99996L17.0156 6.66994L19.0156 7.99996V2.77999C19.2856 2.72999 19.5456 2.69995 19.7856 2.67995H19.8456C21.0356 2.57995 22.0156 3.46994 22.0156 4.66994Z" stroke="#171717" stroke-width="1.5" stroke-linecap="round" stroke-linejoin="round"/>
<path d="M12.0156 5.48999V20.49" stroke="#171717" stroke-width="1.5" stroke-linecap="round" stroke-linejoin="round"/>
<path d="M19.0156 2.78003V8L17.0156 6.66998L15.0156 8V3.91998C16.3256 3.39998 17.7856 2.98003 19.0156 2.78003Z" stroke="#171717" stroke-width="1.5" stroke-linecap="round" stroke-linejoin="round"/>
</svg>
