<svg width="24" height="24" viewBox="0 0 24 24" fill="none" xmlns="http://www.w3.org/2000/svg">
<path d="M3.1748 7.43994L12.0048 12.5499L20.7748 7.46991" stroke="#171717" stroke-width="1.5" stroke-linecap="round" stroke-linejoin="round"/>
<path d="M12.0049 21.6099V12.5399" stroke="#171717" stroke-width="1.5" stroke-linecap="round" stroke-linejoin="round"/>
<path d="M21.615 9.17V14.83C21.615 14.88 21.615 14.92 21.605 14.97C20.905 14.36 20.005 14 19.005 14C18.065 14 17.195 14.33 16.505 14.88C15.585 15.61 15.005 16.74 15.005 18C15.005 18.75 15.215 19.46 15.585 20.06C15.675 20.22 15.785 20.37 15.905 20.51L14.075 21.52C12.935 22.16 11.075 22.16 9.935 21.52L4.595 18.56C3.385 17.89 2.39502 16.21 2.39502 14.83V9.17C2.39502 7.79 3.385 6.11002 4.595 5.44002L9.935 2.48C11.075 1.84 12.935 1.84 14.075 2.48L19.415 5.44002C20.625 6.11002 21.615 7.79 21.615 9.17Z" stroke="#171717" stroke-width="1.5" stroke-linecap="round" stroke-linejoin="round"/>
<path d="M23.0049 18C23.0049 18.75 22.7949 19.46 22.4249 20.06C22.2149 20.42 21.9449 20.74 21.6349 21C20.9349 21.63 20.0149 22 19.0049 22C17.5449 22 16.2749 21.22 15.5849 20.06C15.2149 19.46 15.0049 18.75 15.0049 18C15.0049 16.74 15.5849 15.61 16.5049 14.88C17.1949 14.33 18.0649 14 19.0049 14C21.2149 14 23.0049 15.79 23.0049 18Z" stroke="#171717" stroke-width="1.5" stroke-miterlimit="10" stroke-linecap="round" stroke-linejoin="round"/>
<path d="M20.0751 19.0399L17.9551 16.9299" stroke="#171717" stroke-width="1.5" stroke-miterlimit="10" stroke-linecap="round" stroke-linejoin="round"/>
<path d="M20.0551 16.96L17.9351 19.0699" stroke="#171717" stroke-width="1.5" stroke-miterlimit="10" stroke-linecap="round" stroke-linejoin="round"/>
</svg>
