<svg width="24" height="24" viewBox="0 0 24 24" fill="none" xmlns="http://www.w3.org/2000/svg">
<path d="M3.17871 7.43994L12.0087 12.5499L20.7787 7.46991" stroke="#171717" stroke-width="1.5" stroke-linecap="round" stroke-linejoin="round"/>
<path d="M12.0088 21.6099V12.5399" stroke="#171717" stroke-width="1.5" stroke-linecap="round" stroke-linejoin="round"/>
<path d="M21.6189 12.83V9.17C21.6189 7.79 20.6289 6.11002 19.4189 5.44002L14.0789 2.48C12.9389 1.84 11.0789 1.84 9.9389 2.48L4.59891 5.44002C3.38891 6.11002 2.39893 7.79 2.39893 9.17V14.83C2.39893 16.21 3.38891 17.89 4.59891 18.56L9.9389 21.52C10.5089 21.84 11.2589 22 12.0089 22C12.7589 22 13.5089 21.84 14.0789 21.52" stroke="#171717" stroke-width="1.5" stroke-linecap="round" stroke-linejoin="round"/>
<path d="M19.2088 21.4C20.9761 21.4 22.4088 19.9673 22.4088 18.2C22.4088 16.4327 20.9761 15 19.2088 15C17.4415 15 16.0088 16.4327 16.0088 18.2C16.0088 19.9673 17.4415 21.4 19.2088 21.4Z" stroke="#171717" stroke-width="1.5" stroke-linecap="round" stroke-linejoin="round"/>
<path d="M23.0088 22L22.0088 21" stroke="#171717" stroke-width="1.5" stroke-linecap="round" stroke-linejoin="round"/>
</svg>
