<svg width="24" height="24" viewBox="0 0 24 24" fill="none" xmlns="http://www.w3.org/2000/svg">
<path d="M3.17773 7.43994L12.0077 12.5499L20.7777 7.46991" stroke="#171717" stroke-width="1.5" stroke-linecap="round" stroke-linejoin="round"/>
<path d="M12.0078 21.6099V12.5399" stroke="#171717" stroke-width="1.5" stroke-linecap="round" stroke-linejoin="round"/>
<path d="M9.93793 2.48L4.59793 5.45003C3.38793 6.12003 2.39795 7.80001 2.39795 9.18001V14.83C2.39795 16.21 3.38793 17.89 4.59793 18.56L9.93793 21.53C11.0779 22.16 12.9479 22.16 14.0879 21.53L19.4279 18.56C20.6379 17.89 21.6279 16.21 21.6279 14.83V9.18001C21.6279 7.80001 20.6379 6.12003 19.4279 5.45003L14.0879 2.48C12.9379 1.84 11.0779 1.84 9.93793 2.48Z" stroke="#171717" stroke-width="1.5" stroke-linecap="round" stroke-linejoin="round"/>
<path d="M17.0076 13.24V9.58002L7.51758 4.09998" stroke="#171717" stroke-width="1.5" stroke-linecap="round" stroke-linejoin="round"/>
</svg>
