<svg width="24" height="24" viewBox="0 0 24 24" fill="none" xmlns="http://www.w3.org/2000/svg">
<path d="M16.901 22H7.10098C5.40098 22 4.00098 20.61 4.00098 18.9V5.10001C4.00098 3.40001 5.39098 2 7.10098 2H16.901C18.601 2 20.001 3.39001 20.001 5.10001V18.9C20.001 20.61 18.611 22 16.901 22Z" stroke="#171717" stroke-width="1.5" stroke-linecap="round" stroke-linejoin="round"/>
<path d="M18.501 13H5.50098C4.67098 13 4.00098 12.33 4.00098 11.5V9.5C4.00098 8.67 4.67098 8 5.50098 8H18.501C19.331 8 20.001 8.67 20.001 9.5V11.5C20.001 12.33 19.331 13 18.501 13Z" stroke="#171717" stroke-width="1.5" stroke-linecap="round" stroke-linejoin="round"/>
<path d="M8.49548 17.7H8.50447" stroke="#171717" stroke-width="1.5" stroke-linecap="round" stroke-linejoin="round"/>
<path d="M15.4955 17.7H15.5045" stroke="#171717" stroke-width="1.5" stroke-linecap="round" stroke-linejoin="round"/>
<path d="M9.50098 5H14.501" stroke="#171717" stroke-width="1.5" stroke-linecap="round" stroke-linejoin="round"/>
</svg>
