<svg width="24" height="24" viewBox="0 0 24 24" fill="none" xmlns="http://www.w3.org/2000/svg">
<path d="M10.3208 18.97C10.4608 19.08 10.6008 19.18 10.7508 19.29C11.8908 20.12 13.0408 20.78 14.1908 21.27C15.3408 21.76 16.4308 22 17.4508 22C18.1508 22 18.8008 21.87 19.4008 21.62C20.0108 21.37 20.5508 20.98 21.0408 20.44C21.3308 20.12 21.5508 19.78 21.7208 19.42C21.8908 19.06 21.9708 18.69 21.9708 18.33C21.9708 18.05 21.9108 17.8 21.8108 17.55C21.7008 17.3 21.5208 17.09 21.2608 16.91L17.9508 14.56C17.7008 14.39 17.4708 14.26 17.2508 14.17C17.0308 14.08 16.8308 14.04 16.6408 14.04C16.3908 14.04 16.1608 14.11 15.9308 14.25C15.7008 14.37 15.4608 14.56 15.2108 14.81L14.4508 15.56C14.3408 15.67 14.2108 15.73 14.0408 15.73C13.9508 15.73 13.8708 15.72 13.7908 15.69C13.7208 15.66 13.6608 15.63 13.6108 15.61C13.4208 15.51 13.2008 15.37 12.9608 15.19" stroke="#171717" stroke-width="1.5" stroke-miterlimit="10" stroke-linecap="round" stroke-linejoin="round"/>
<path d="M10.731 13.22C10.211 12.69 9.73098 12.16 9.28098 11.64C8.84098 11.12 8.53098 10.69 8.35098 10.36C8.33098 10.3 8.30098 10.24 8.27098 10.16C8.25098 10.08 8.24098 10.01 8.24098 9.93C8.24098 9.77 8.29098 9.64 8.40098 9.53L9.16098 8.74C9.40098 8.5 9.59098 8.26 9.72098 8.03C9.86098 7.8 9.93098 7.56 9.93098 7.32C9.93098 7.13 9.88098 6.92 9.79098 6.71C9.70098 6.49 9.57098 6.26 9.39098 6.01L7.07098 2.74C6.89098 2.48 6.66098 2.3 6.40098 2.18C6.15098 2.06 5.87098 2 5.59098 2C4.85098 2 4.15098 2.31 3.51098 2.94C2.98098 3.44 2.60098 4 2.36098 4.61C2.12098 5.21 2.00098 5.86 2.00098 6.54C2.00098 7.58 2.24098 8.67 2.72098 9.81C3.20098 10.94 3.86098 12.08 4.68098 13.22C5.51098 14.36 6.44098 15.45 7.47098 16.49" stroke="#171717" stroke-width="1.5" stroke-miterlimit="10" stroke-linecap="round" stroke-linejoin="round"/>
<path d="M22.001 2L2.00098 22" stroke="#171717" stroke-width="1.5" stroke-linecap="round" stroke-linejoin="round"/>
</svg>
