<svg width="25" height="24" viewBox="0 0 25 24" fill="none" xmlns="http://www.w3.org/2000/svg">
<path d="M6.5 10H9.5" stroke="#171717" stroke-width="1.5" stroke-linecap="round" stroke-linejoin="round"/>
<path d="M7.26001 22H17.74C20.5 22 21.6 20.31 21.73 18.25L22.25 9.99001C22.31 9.06001 22.02 8.19001 21.51 7.51001" stroke="#171717" stroke-width="1.5" stroke-linecap="round" stroke-linejoin="round"/>
<path d="M18.5 6C17.89 6 17.33 5.65 17.05 5.11L16.33 3.66C15.87 2.75 14.67 2 13.65 2H11.36C10.33 2 9.13005 2.75 8.67005 3.66L7.95005 5.11C7.67005 5.65 7.11005 6 6.50005 6C4.33005 6 2.61005 7.83 2.75005 9.99L3.27005 18.25C3.32005 19.07 3.53005 19.84 3.94005 20.46" stroke="#171717" stroke-width="1.5" stroke-linecap="round" stroke-linejoin="round"/>
<path d="M10.5 17.31C11.05 17.74 11.75 18 12.5 18C14.29 18 15.75 16.54 15.75 14.75C15.75 14.11 15.57 13.52 15.25 13.02" stroke="#171717" stroke-width="1.5" stroke-linecap="round" stroke-linejoin="round"/>
<path d="M22.5 2L2.5 22" stroke="#171717" stroke-width="1.5" stroke-linecap="round" stroke-linejoin="round"/>
</svg>
