<svg width="25" height="24" viewBox="0 0 25 24" fill="none" xmlns="http://www.w3.org/2000/svg">
<path d="M22.0156 17.5H15.0156" stroke="#171717" stroke-width="1.5" stroke-miterlimit="10" stroke-linecap="round" stroke-linejoin="round"/>
<path d="M5.01562 17.5H2.01562" stroke="#171717" stroke-width="1.5" stroke-miterlimit="10" stroke-linecap="round" stroke-linejoin="round"/>
<path d="M22.0156 6.5H19.0156" stroke="#171717" stroke-width="1.5" stroke-miterlimit="10" stroke-linecap="round" stroke-linejoin="round"/>
<path d="M9.01562 6.5H2.01562" stroke="#171717" stroke-width="1.5" stroke-miterlimit="10" stroke-linecap="round" stroke-linejoin="round"/>
<path d="M7.01562 14.5H13.0156C14.1156 14.5 15.0156 15 15.0156 16.5V18.5C15.0156 20 14.1156 20.5 13.0156 20.5H7.01562C5.91562 20.5 5.01562 20 5.01562 18.5V16.5C5.01562 15 5.91562 14.5 7.01562 14.5Z" stroke="#171717" stroke-width="1.5" stroke-miterlimit="10" stroke-linecap="round" stroke-linejoin="round"/>
<path d="M11.0156 3.5H17.0156C18.1156 3.5 19.0156 4 19.0156 5.5V7.5C19.0156 9 18.1156 9.5 17.0156 9.5H11.0156C9.91562 9.5 9.01562 9 9.01562 7.5V5.5C9.01562 4 9.91562 3.5 11.0156 3.5Z" stroke="#171717" stroke-width="1.5" stroke-miterlimit="10" stroke-linecap="round" stroke-linejoin="round"/>
</svg>
