<svg width="25" height="24" viewBox="0 0 25 24" fill="none" xmlns="http://www.w3.org/2000/svg">
<path d="M2.04858 12.61H19.0486" stroke="#171717" stroke-width="1.5" stroke-miterlimit="10" stroke-linecap="round" stroke-linejoin="round"/>
<path d="M19.0486 10.28V17.43C19.0186 20.28 18.2386 21 15.2686 21H5.82861C2.80861 21 2.04858 20.2501 2.04858 17.2701V10.28C2.04858 7.58005 2.67858 6.71005 5.04858 6.57005C5.28858 6.56005 5.54861 6.55005 5.82861 6.55005H15.2686C18.2886 6.55005 19.0486 7.30005 19.0486 10.28Z" stroke="#171717" stroke-width="1.5" stroke-linecap="round" stroke-linejoin="round"/>
<path d="M22.0486 6.73V13.72C22.0486 16.42 21.4186 17.29 19.0486 17.43V10.28C19.0486 7.3 18.2886 6.55 15.2686 6.55H5.82861C5.54861 6.55 5.28858 6.56 5.04858 6.57C5.07858 3.72 5.85861 3 8.82861 3H18.2686C21.2886 3 22.0486 3.75 22.0486 6.73Z" stroke="#171717" stroke-width="1.5" stroke-linecap="round" stroke-linejoin="round"/>
<path d="M5.29858 17.8101H7.01855" stroke="#171717" stroke-width="1.5" stroke-miterlimit="10" stroke-linecap="round" stroke-linejoin="round"/>
<path d="M9.15869 17.8101H12.5987" stroke="#171717" stroke-width="1.5" stroke-miterlimit="10" stroke-linecap="round" stroke-linejoin="round"/>
</svg>
