<svg width="25" height="24" viewBox="0 0 25 24" fill="none" xmlns="http://www.w3.org/2000/svg">
<path d="M1.94531 10.0303H21.9453" stroke="#171717" stroke-width="1.5" stroke-miterlimit="10" stroke-linecap="round" stroke-linejoin="round"/>
<path d="M11.5053 20.53H6.39526C2.84526 20.53 1.94531 19.65 1.94531 16.14V7.92004C1.94531 4.74004 2.68528 3.72004 5.47528 3.56004C5.75528 3.55004 6.06526 3.54004 6.39526 3.54004H17.5053C21.0553 3.54004 21.9553 4.42004 21.9553 7.93004V12.34" stroke="#171717" stroke-width="1.5" stroke-linecap="round" stroke-linejoin="round"/>
<path d="M17.9453 22.0303C20.1545 22.0303 21.9453 20.2394 21.9453 18.0303C21.9453 15.8211 20.1545 14.0303 17.9453 14.0303C15.7362 14.0303 13.9453 15.8211 13.9453 18.0303C13.9453 20.2394 15.7362 22.0303 17.9453 22.0303Z" stroke="#171717" stroke-width="1.5" stroke-miterlimit="10" stroke-linecap="round" stroke-linejoin="round"/>
<path d="M19.0162 19.1503L16.9062 17.0303" stroke="#171717" stroke-width="1.5" stroke-miterlimit="10" stroke-linecap="round" stroke-linejoin="round"/>
<path d="M18.995 17.0603L16.875 19.1703" stroke="#171717" stroke-width="1.5" stroke-miterlimit="10" stroke-linecap="round" stroke-linejoin="round"/>
<path d="M5.94531 16.0303H9.94531" stroke="#171717" stroke-width="1.5" stroke-miterlimit="10" stroke-linecap="round" stroke-linejoin="round"/>
</svg>
