<svg width="25" height="24" viewBox="0 0 25 24" fill="none" xmlns="http://www.w3.org/2000/svg">
<path d="M2.03125 8.5H11.5312" stroke="#171717" stroke-width="1.5" stroke-miterlimit="10" stroke-linecap="round" stroke-linejoin="round"/>
<path d="M6.03125 16.5H8.03125" stroke="#171717" stroke-width="1.5" stroke-miterlimit="10" stroke-linecap="round" stroke-linejoin="round"/>
<path d="M10.5312 16.5H14.5312" stroke="#171717" stroke-width="1.5" stroke-miterlimit="10" stroke-linecap="round" stroke-linejoin="round"/>
<path d="M22.0312 12.03V16.11C22.0312 19.62 21.1412 20.5 17.5912 20.5H6.47125C2.92125 20.5 2.03125 19.62 2.03125 16.11V7.89C2.03125 4.38 2.92125 3.5 6.47125 3.5H14.5312" stroke="#171717" stroke-width="1.5" stroke-linecap="round" stroke-linejoin="round"/>
<path d="M19.1115 4.12994L15.4015 7.83994C15.2615 7.97994 15.1215 8.25994 15.0915 8.45994L14.8915 9.87994C14.8215 10.3899 15.1815 10.7499 15.6915 10.6799L17.1115 10.4799C17.3115 10.4499 17.5915 10.3099 17.7315 10.1699L21.4415 6.45994C22.0815 5.81994 22.3815 5.07994 21.4415 4.13994C20.4915 3.18994 19.7515 3.48994 19.1115 4.12994Z" stroke="#171717" stroke-width="1.5" stroke-miterlimit="10" stroke-linecap="round" stroke-linejoin="round"/>
<path d="M18.5811 4.66003C18.9011 5.79003 19.7811 6.67003 20.9011 6.98003" stroke="#171717" stroke-width="1.5" stroke-miterlimit="10" stroke-linecap="round" stroke-linejoin="round"/>
</svg>
