<svg width="25" height="24" viewBox="0 0 25 24" fill="none" xmlns="http://www.w3.org/2000/svg">
<path d="M3.01562 22H21.0156" stroke="#171717" stroke-width="1.5" stroke-linecap="round" stroke-linejoin="round"/>
<path d="M5.6156 8.38H4.01562C3.46562 8.38 3.01562 8.83 3.01562 9.38V18C3.01562 18.55 3.46562 19 4.01562 19H5.6156C6.1656 19 6.6156 18.55 6.6156 18V9.38C6.6156 8.83 6.1656 8.38 5.6156 8.38Z" stroke="#171717" stroke-width="1.5" stroke-linecap="round" stroke-linejoin="round"/>
<path d="M12.8156 5.18994H11.2156C10.6656 5.18994 10.2156 5.63994 10.2156 6.18994V17.9999C10.2156 18.5499 10.6656 18.9999 11.2156 18.9999H12.8156C13.3656 18.9999 13.8156 18.5499 13.8156 17.9999V6.18994C13.8156 5.63994 13.3656 5.18994 12.8156 5.18994Z" stroke="#171717" stroke-width="1.5" stroke-linecap="round" stroke-linejoin="round"/>
<path d="M20.0155 2H18.4155C17.8655 2 17.4155 2.45 17.4155 3V18C17.4155 18.55 17.8655 19 18.4155 19H20.0155C20.5655 19 21.0155 18.55 21.0155 18V3C21.0155 2.45 20.5655 2 20.0155 2Z" stroke="#171717" stroke-width="1.5" stroke-linecap="round" stroke-linejoin="round"/>
</svg>
