<svg width="25" height="24" viewBox="0 0 25 24" fill="none" xmlns="http://www.w3.org/2000/svg">
<path d="M22.0156 13V9C22.0156 4 20.0156 2 15.0156 2H9.01562C4.01562 2 2.01562 4 2.01562 9V15C2.01562 20 4.01562 22 9.01562 22H13.0156" stroke="#171717" stroke-width="1.5" stroke-linecap="round" stroke-linejoin="round"/>
<path d="M22.0156 13V9C22.0156 4 20.0156 2 15.0156 2H9.01562C4.01562 2 2.01562 4 2.01562 9V15C2.01562 20 4.01562 22 9.01562 22H13.0156" stroke="#171717" stroke-width="1.5" stroke-linecap="round" stroke-linejoin="round"/>
<path d="M22.0156 13V9C22.0156 4 20.0156 2 15.0156 2H9.01562C4.01562 2 2.01562 4 2.01562 9V15C2.01562 20 4.01562 22 9.01562 22H13.0156" stroke="#171717" stroke-width="1.5" stroke-linecap="round" stroke-linejoin="round"/>
<path d="M16.0156 19.43L17.5956 21L21.0156 17" stroke="#171717" stroke-width="1.5" stroke-linecap="round" stroke-linejoin="round"/>
<path d="M7.01562 10.5V13.5" stroke="#171717" stroke-width="1.5" stroke-linecap="round" stroke-linejoin="round"/>
<path d="M12.0156 10.5V13.5" stroke="#171717" stroke-width="1.5" stroke-linecap="round" stroke-linejoin="round"/>
<path d="M17.0156 10.5V13.5" stroke="#171717" stroke-width="1.5" stroke-linecap="round" stroke-linejoin="round"/>
</svg>
