<svg width="25" height="24" viewBox="0 0 25 24" fill="none" xmlns="http://www.w3.org/2000/svg">
<path d="M8.01855 11.4C8.01855 12.17 8.61855 12.8 9.34855 12.8H10.8486C11.4886 12.8 12.0086 12.25 12.0086 11.58C12.0086 10.85 11.6886 10.59 11.2186 10.42L8.81855 9.57995C8.33855 9.40995 8.01855 9.14995 8.01855 8.41995C8.01855 7.74995 8.53855 7.19995 9.17855 7.19995H10.6786C11.4186 7.20995 12.0186 7.82995 12.0186 8.59995" stroke="#171717" stroke-width="1.5" stroke-linecap="round" stroke-linejoin="round"/>
<path d="M10.0186 12.85V13.59" stroke="#171717" stroke-width="1.5" stroke-linecap="round" stroke-linejoin="round"/>
<path d="M10.0186 6.41003V7.19003" stroke="#171717" stroke-width="1.5" stroke-linecap="round" stroke-linejoin="round"/>
<path d="M10.0086 17.98C14.4213 17.98 17.9986 14.4028 17.9986 9.99C17.9986 5.57724 14.4213 2 10.0086 2C5.5958 2 2.01855 5.57724 2.01855 9.99C2.01855 14.4028 5.5958 17.98 10.0086 17.98Z" stroke="#171717" stroke-width="1.5" stroke-linecap="round" stroke-linejoin="round"/>
<path d="M12.9985 19.88C13.8985 21.15 15.3685 21.98 17.0485 21.98C19.7785 21.98 21.9985 19.76 21.9985 17.03C21.9985 15.37 21.1785 13.9 19.9285 13" stroke="#171717" stroke-width="1.5" stroke-linecap="round" stroke-linejoin="round"/>
</svg>
