<svg width="25" height="24" viewBox="0 0 25 24" fill="none" xmlns="http://www.w3.org/2000/svg">
<path d="M18.5283 12.65V16.35C18.5283 19.47 15.6183 22 12.0283 22C8.43832 22 5.52832 19.47 5.52832 16.35V12.65C5.52832 15.77 8.43832 18 12.0283 18C15.6183 18 18.5283 15.77 18.5283 12.65Z" stroke="#171717" stroke-width="1.5" stroke-linecap="round" stroke-linejoin="round"/>
<path d="M18.5283 7.65C18.5283 8.56 18.2783 9.4 17.8383 10.12C16.7683 11.88 14.5683 13 12.0283 13C9.48832 13 7.28832 11.88 6.21832 10.12C5.77832 9.4 5.52832 8.56 5.52832 7.65C5.52832 6.09 6.25831 4.68 7.42831 3.66C8.60831 2.63 10.2283 2 12.0283 2C13.8283 2 15.4483 2.63 16.6283 3.65C17.7983 4.68 18.5283 6.09 18.5283 7.65Z" stroke="#171717" stroke-width="1.5" stroke-linecap="round" stroke-linejoin="round"/>
<path d="M18.5283 7.65V12.65C18.5283 15.77 15.6183 18 12.0283 18C8.43832 18 5.52832 15.77 5.52832 12.65V7.65C5.52832 4.53 8.43832 2 12.0283 2C13.8283 2 15.4483 2.63 16.6283 3.65C17.7983 4.68 18.5283 6.09 18.5283 7.65Z" stroke="#171717" stroke-width="1.5" stroke-linecap="round" stroke-linejoin="round"/>
</svg>
