<svg width="24" height="24" viewBox="0 0 24 24" fill="none" xmlns="http://www.w3.org/2000/svg">
<path d="M22.0029 15C22.0029 18.87 18.8729 22 15.0029 22L16.0529 20.25" stroke="#171717" stroke-width="1.5" stroke-linecap="round" stroke-linejoin="round"/>
<path d="M2.00293 9C2.00293 5.13 5.13293 2 9.00293 2L7.95293 3.75" stroke="#171717" stroke-width="1.5" stroke-linecap="round" stroke-linejoin="round"/>
<path d="M13.7031 4.44995L17.6831 6.74994L21.6231 4.45996" stroke="#171717" stroke-width="1.5" stroke-linecap="round" stroke-linejoin="round"/>
<path d="M17.6831 10.82V6.73999" stroke="#171717" stroke-width="1.5" stroke-linecap="round" stroke-linejoin="round"/>
<path d="M16.743 2.21L14.343 3.53996C13.803 3.83996 13.353 4.59995 13.353 5.21995V7.75999C13.353 8.37999 13.793 9.13998 14.343 9.43998L16.743 10.77C17.253 11.06 18.093 11.06 18.613 10.77L21.013 9.43998C21.553 9.13998 22.003 8.37999 22.003 7.75999V5.21995C22.003 4.59995 21.563 3.83996 21.013 3.53996L18.613 2.21C18.103 1.93 17.263 1.93 16.743 2.21Z" stroke="#171717" stroke-width="1.5" stroke-linecap="round" stroke-linejoin="round"/>
<path d="M2.35303 15.45L6.32303 17.7499L10.273 15.46" stroke="#171717" stroke-width="1.5" stroke-linecap="round" stroke-linejoin="round"/>
<path d="M6.32324 21.82V17.74" stroke="#171717" stroke-width="1.5" stroke-linecap="round" stroke-linejoin="round"/>
<path d="M5.39293 13.21L2.99294 14.54C2.45294 14.84 2.00293 15.5999 2.00293 16.2199V18.76C2.00293 19.38 2.44294 20.14 2.99294 20.44L5.39293 21.77C5.90293 22.06 6.74292 22.06 7.26292 21.77L9.66293 20.44C10.2029 20.14 10.6529 19.38 10.6529 18.76V16.2199C10.6529 15.5999 10.2129 14.84 9.66293 14.54L7.26292 13.21C6.74292 12.93 5.90293 12.93 5.39293 13.21Z" stroke="#171717" stroke-width="1.5" stroke-linecap="round" stroke-linejoin="round"/>
</svg>
