<svg width="25" height="24" viewBox="0 0 25 24" fill="none" xmlns="http://www.w3.org/2000/svg">
<path d="M12.5 22C6.98 22 2.5 17.52 2.5 12C2.5 6.48 6.98 2 12.5 2C18.02 2 22.5 6.48 22.5 12C22.5 17.52 18.02 22 12.5 22Z" stroke="#171717" stroke-width="1.5" stroke-linecap="round" stroke-linejoin="round"/>
<path d="M11.3801 14.15C10.8701 14.59 10.2101 14.87 9.49011 14.87C7.91011 14.87 6.62012 13.59 6.62012 12C6.62012 10.41 7.90011 9.13 9.49011 9.13C10.2201 9.13 10.8801 9.39998 11.3801 9.84998" stroke="#171717" stroke-width="1.5" stroke-linecap="round" stroke-linejoin="round"/>
<path d="M18.3801 14.15C17.8701 14.59 17.2101 14.87 16.4901 14.87C14.9101 14.87 13.6201 13.59 13.6201 12C13.6201 10.41 14.9001 9.13 16.4901 9.13C17.2201 9.13 17.8801 9.39998 18.3801 9.84998" stroke="#171717" stroke-width="1.5" stroke-linecap="round" stroke-linejoin="round"/>
</svg>
