<svg width="25" height="24" viewBox="0 0 25 24" fill="none" xmlns="http://www.w3.org/2000/svg">
<path d="M16.22 9.69002C18.28 11.75 18.28 15.08 16.22 17.13C14.16 19.19 10.83 19.19 8.77999 17.13C6.71999 15.07 6.71999 11.74 8.77999 9.69002C10.83 7.63002 14.17 7.63002 16.22 9.69002Z" stroke="#171717" stroke-width="1.5" stroke-linecap="round" stroke-linejoin="round"/>
<path d="M12.5 13.4099L10.91 14.9999" stroke="#171717" stroke-width="1.5" stroke-linecap="round" stroke-linejoin="round"/>
<path d="M19.5701 6.33997C19.7201 6.48997 19.7201 6.73997 19.5701 6.89997C19.4201 7.04997 19.1701 7.04997 19.0101 6.89997C18.8501 6.74997 18.8601 6.49997 19.0101 6.33997C19.1601 6.17997 19.4201 6.17997 19.5701 6.33997Z" stroke="#171717" stroke-width="1.5" stroke-miterlimit="10"/>
<path d="M19.5701 6.33997C19.7201 6.48997 19.7201 6.73997 19.5701 6.89997C19.4201 7.04997 19.1701 7.04997 19.0101 6.89997C18.8501 6.74997 18.8601 6.49997 19.0101 6.33997C19.1601 6.17997 19.4201 6.17997 19.5701 6.33997Z" stroke="#171717" stroke-width="1.5" stroke-linecap="round" stroke-linejoin="round"/>
<path d="M5.99 19.92C6.14 20.07 6.14 20.32 5.99 20.48C5.84 20.64 5.59 20.63 5.43 20.48C5.28 20.33 5.28 20.08 5.43 19.92C5.58 19.76 5.84 19.76 5.99 19.92Z" stroke="#171717" stroke-width="1.5" stroke-miterlimit="10"/>
<path d="M5.99 19.92C6.14 20.07 6.14 20.32 5.99 20.48C5.84 20.64 5.59 20.63 5.43 20.48C5.28 20.33 5.28 20.08 5.43 19.92C5.58 19.76 5.84 19.76 5.99 19.92Z" stroke="#171717" stroke-width="1.5" stroke-linecap="round" stroke-linejoin="round"/>
<path d="M22.38 13.13C22.53 13.28 22.53 13.53 22.38 13.69C22.23 13.84 21.98 13.84 21.82 13.69C21.66 13.54 21.67 13.29 21.82 13.13C21.97 12.97 22.23 12.97 22.38 13.13Z" stroke="#171717" stroke-width="1.5" stroke-miterlimit="10"/>
<path d="M22.38 13.13C22.53 13.28 22.53 13.53 22.38 13.69C22.23 13.84 21.98 13.84 21.82 13.69C21.66 13.54 21.67 13.29 21.82 13.13C21.97 12.97 22.23 12.97 22.38 13.13Z" stroke="#171717" stroke-width="1.5" stroke-linecap="round" stroke-linejoin="round"/>
<path d="M3.17009 13.13C3.32009 13.28 3.32009 13.53 3.17009 13.69C3.02009 13.85 2.77006 13.84 2.61006 13.69C2.46006 13.54 2.46006 13.29 2.61006 13.13C2.77006 12.97 3.02009 12.97 3.17009 13.13Z" stroke="#171717" stroke-width="1.5" stroke-miterlimit="10"/>
<path d="M3.17009 13.13C3.32009 13.28 3.32009 13.53 3.17009 13.69C3.02009 13.85 2.77006 13.84 2.61006 13.69C2.46006 13.54 2.46006 13.29 2.61006 13.13C2.77006 12.97 3.02009 12.97 3.17009 13.13Z" stroke="#171717" stroke-width="1.5" stroke-linecap="round" stroke-linejoin="round"/>
<path d="M19.5701 19.92C19.7201 20.07 19.7201 20.32 19.5701 20.48C19.4201 20.63 19.1701 20.63 19.0101 20.48C18.8501 20.33 18.8601 20.08 19.0101 19.92C19.1701 19.76 19.4201 19.76 19.5701 19.92Z" stroke="#171717" stroke-width="1.5" stroke-miterlimit="10"/>
<path d="M19.5701 19.92C19.7201 20.07 19.7201 20.32 19.5701 20.48C19.4201 20.63 19.1701 20.63 19.0101 20.48C18.8501 20.33 18.8601 20.08 19.0101 19.92C19.1701 19.76 19.4201 19.76 19.5701 19.92Z" stroke="#171717" stroke-width="1.5" stroke-linecap="round" stroke-linejoin="round"/>
<path d="M5.99 6.33997C6.14 6.48997 6.14 6.73997 5.99 6.89997C5.84 7.05997 5.59 7.04997 5.43 6.89997C5.28 6.74997 5.28 6.49997 5.43 6.33997C5.58 6.17997 5.84 6.17997 5.99 6.33997Z" stroke="#171717" stroke-width="1.5" stroke-miterlimit="10"/>
<path d="M5.99 6.33997C6.14 6.48997 6.14 6.73997 5.99 6.89997C5.84 7.05997 5.59 7.04997 5.43 6.89997C5.28 6.74997 5.28 6.49997 5.43 6.33997C5.58 6.17997 5.84 6.17997 5.99 6.33997Z" stroke="#171717" stroke-width="1.5" stroke-linecap="round" stroke-linejoin="round"/>
<path d="M12.78 3.52009C12.93 3.67009 12.93 3.92009 12.78 4.08009C12.63 4.24009 12.38 4.23009 12.22 4.08009C12.06 3.93009 12.07 3.68009 12.22 3.52009C12.37 3.36009 12.63 3.37009 12.78 3.52009Z" stroke="#171717" stroke-width="1.5" stroke-miterlimit="10"/>
<path d="M12.78 3.52009C12.93 3.67009 12.93 3.92009 12.78 4.08009C12.63 4.24009 12.38 4.23009 12.22 4.08009C12.06 3.93009 12.07 3.68009 12.22 3.52009C12.37 3.36009 12.63 3.37009 12.78 3.52009Z" stroke="#171717" stroke-width="1.5" stroke-linecap="round" stroke-linejoin="round"/>
</svg>
