<svg width="25" height="24" viewBox="0 0 25 24" fill="none" xmlns="http://www.w3.org/2000/svg">
<path d="M21.5 7V17C21.5 20 20 22 16.5 22H8.5C5 22 3.5 20 3.5 17V7C3.5 4 5 2 8.5 2H16.5C20 2 21.5 4 21.5 7Z" stroke="#171717" stroke-width="1.5" stroke-miterlimit="10" stroke-linecap="round" stroke-linejoin="round"/>
<path d="M15 4.5V6.5C15 7.6 15.9 8.5 17 8.5H19" stroke="#171717" stroke-width="1.5" stroke-miterlimit="10" stroke-linecap="round" stroke-linejoin="round"/>
<path d="M7.98014 15.49C7.65014 14.46 8.04011 13.19 9.11011 12.84C9.68011 12.66 10.3801 12.81 10.7701 13.36C11.1401 12.79 11.8701 12.66 12.4301 12.84C13.5101 13.19 13.8901 14.46 13.5701 15.49C13.0601 17.12 11.2701 17.9699 10.7701 17.9699C10.2801 17.9599 8.51014 17.13 7.98014 15.49Z" stroke="#171717" stroke-width="1.5" stroke-linecap="round" stroke-linejoin="round"/>
</svg>
