<svg width="25" height="24" viewBox="0 0 25 24" fill="none" xmlns="http://www.w3.org/2000/svg">
<path d="M22.5 10V15C22.5 20 20.5 22 15.5 22H9.5C4.5 22 2.5 20 2.5 15V9C2.5 4 4.5 2 9.5 2H14.5" stroke="#171717" stroke-width="1.5" stroke-linecap="round" stroke-linejoin="round"/>
<path d="M22.5 10H18.5C15.5 10 14.5 9 14.5 6V2L22.5 10Z" stroke="#171717" stroke-width="1.5" stroke-linecap="round" stroke-linejoin="round"/>
<path d="M7.12003 15.73C6.79003 14.7 7.18003 13.43 8.25003 13.08C8.82003 12.9 9.52003 13.05 9.91003 13.6C10.28 13.03 11.01 12.9 11.57 13.08C12.65 13.43 13.03 14.7 12.71 15.73C12.2 17.36 10.41 18.21 9.91003 18.21C9.42003 18.2 7.65003 17.37 7.12003 15.73Z" stroke="#171717" stroke-width="1.5" stroke-linecap="round" stroke-linejoin="round"/>
</svg>
