<svg width="25" height="24" viewBox="0 0 25 24" fill="none" xmlns="http://www.w3.org/2000/svg">
<path d="M14.5 2H9.5C4.5 2 2.5 4 2.5 9V15C2.5 20 4.5 22 9.5 22" stroke="#171717" stroke-width="1.5" stroke-linecap="round" stroke-linejoin="round"/>
<path d="M22.5 10V13" stroke="#171717" stroke-width="1.5" stroke-linecap="round" stroke-linejoin="round"/>
<path d="M22.5 10H18.5C15.5 10 14.5 9 14.5 6V2L22.5 10Z" stroke="#171717" stroke-width="1.5" stroke-linecap="round" stroke-linejoin="round"/>
<path d="M14.2601 18.2601C11.9101 18.4301 11.9101 21.8301 14.2601 22.0001H19.8201C20.4901 22.0001 21.1501 21.7501 21.6401 21.3001C23.2901 19.8601 22.4101 16.9801 20.2401 16.7101C19.4601 12.0201 12.6801 13.8001 14.2801 18.2701" stroke="#171717" stroke-width="1.5" stroke-miterlimit="10" stroke-linecap="round" stroke-linejoin="round"/>
</svg>
