<svg width="25" height="24" viewBox="0 0 25 24" fill="none" xmlns="http://www.w3.org/2000/svg">
<path d="M8.71094 14.3298C8.71094 15.6198 9.70094 16.6598 10.9309 16.6598H13.4409C14.5109 16.6598 15.3809 15.7498 15.3809 14.6298C15.3809 13.4098 14.8509 12.9798 14.0609 12.6998L10.0309 11.2998C9.24094 11.0198 8.71094 10.5898 8.71094 9.36984C8.71094 8.24984 9.58094 7.33984 10.6509 7.33984H13.1609C14.3909 7.33984 15.3809 8.37984 15.3809 9.66984" stroke="#171717" stroke-width="1.5" stroke-linecap="round" stroke-linejoin="round"/>
<path d="M12.0391 6V18" stroke="#171717" stroke-width="1.5" stroke-linecap="round" stroke-linejoin="round"/>
<path d="M15.0391 22H9.03906C4.03906 22 2.03906 20 2.03906 15V9C2.03906 4 4.03906 2 9.03906 2H15.0391C20.0391 2 22.0391 4 22.0391 9V15C22.0391 20 20.0391 22 15.0391 22Z" stroke="#171717" stroke-width="1.5" stroke-linecap="round" stroke-linejoin="round"/>
</svg>
