<svg width="25" height="24" viewBox="0 0 25 24" fill="none" xmlns="http://www.w3.org/2000/svg">
<path d="M8.71289 14.3298C8.71289 15.6198 9.70289 16.6598 10.9329 16.6598H13.4429C14.5129 16.6598 15.3829 15.7498 15.3829 14.6298C15.3829 13.4098 14.8529 12.9798 14.0629 12.6998L10.0329 11.2998C9.24289 11.0198 8.71289 10.5898 8.71289 9.36984C8.71289 8.24984 9.58289 7.33984 10.6529 7.33984H13.1629C14.3929 7.33984 15.3829 8.37984 15.3829 9.66984" stroke="#171717" stroke-width="1.5" stroke-linecap="round" stroke-linejoin="round"/>
<path d="M12.041 6V18" stroke="#171717" stroke-width="1.5" stroke-linecap="round" stroke-linejoin="round"/>
<path d="M12.041 22C17.5639 22 22.041 17.5228 22.041 12C22.041 6.47715 17.5639 2 12.041 2C6.51817 2 2.04102 6.47715 2.04102 12C2.04102 17.5228 6.51817 22 12.041 22Z" stroke="#171717" stroke-width="1.5" stroke-linecap="round" stroke-linejoin="round"/>
</svg>
