<svg width="24" height="24" viewBox="0 0 24 24" fill="none" xmlns="http://www.w3.org/2000/svg">
<path d="M14.5509 2H9.45093C7.65093 2 7.25094 2.90001 7.02094 4.01001L6.20093 7.92999H17.8009L16.9809 4.01001C16.7509 2.90001 16.3509 2 14.5509 2Z" stroke="#171717" stroke-width="1.5" stroke-linecap="round" stroke-linejoin="round"/>
<path d="M19.241 14.32C19.321 15.17 18.641 15.9 17.771 15.9H16.411C15.631 15.9 15.521 15.57 15.381 15.15L15.231 14.72C15.031 14.13 14.901 13.73 13.851 13.73H10.141C9.10103 13.73 8.94102 14.18 8.76102 14.72L8.61103 15.15C8.47103 15.56 8.36103 15.9 7.58103 15.9H6.22103C5.35103 15.9 4.67103 15.17 4.75103 14.32L5.16103 9.90002C5.26103 8.81002 5.47103 7.91998 7.37103 7.91998H16.621C18.521 7.91998 18.731 8.81002 18.831 9.90002L19.241 14.32Z" stroke="#171717" stroke-width="1.5" stroke-linecap="round" stroke-linejoin="round"/>
<path d="M6.20094 5.75H5.47095" stroke="#171717" stroke-width="1.5" stroke-linecap="round" stroke-linejoin="round"/>
<path d="M18.531 5.75H17.801" stroke="#171717" stroke-width="1.5" stroke-linecap="round" stroke-linejoin="round"/>
<path d="M7.65112 10.83H9.82114" stroke="#171717" stroke-width="1.5" stroke-linecap="round" stroke-linejoin="round"/>
<path d="M14.1812 10.83H16.3512" stroke="#171717" stroke-width="1.5" stroke-linecap="round" stroke-linejoin="round"/>
<path d="M12.001 17V18" stroke="#171717" stroke-width="1.5" stroke-linecap="round" stroke-linejoin="round"/>
<path d="M12.001 21V22" stroke="#171717" stroke-width="1.5" stroke-linecap="round" stroke-linejoin="round"/>
<path d="M3.00098 18L2.00098 22" stroke="#171717" stroke-width="1.5" stroke-linecap="round" stroke-linejoin="round"/>
<path d="M21.001 18L22.001 22" stroke="#171717" stroke-width="1.5" stroke-linecap="round" stroke-linejoin="round"/>
</svg>
