<svg width="24" height="24" viewBox="0 0 24 24" fill="none" xmlns="http://www.w3.org/2000/svg">
<path d="M18.0459 13.55C17.6259 13.96 17.3859 14.55 17.4459 15.18C17.5359 16.26 18.5259 17.05 19.6059 17.05H21.5059V18.24C21.5059 20.31 19.8159 22 17.7459 22H7.63586C7.94586 21.74 8.21586 21.42 8.42586 21.06C8.79586 20.46 9.00586 19.75 9.00586 19C9.00586 16.79 7.21586 15 5.00586 15C4.06586 15 3.19586 15.33 2.50586 15.88V11.51C2.50586 9.44001 4.19585 7.75 6.26585 7.75H17.7459C19.8159 7.75 21.5059 9.44001 21.5059 11.51V12.95H19.4859C18.9259 12.95 18.4159 13.17 18.0459 13.55Z" stroke="#171717" stroke-width="1.5" stroke-linecap="round" stroke-linejoin="round"/>
<path d="M2.50586 12.4101V7.8401C2.50586 6.6501 3.23586 5.59006 4.34586 5.17006L12.2859 2.17006C13.5259 1.70006 14.8559 2.62009 14.8559 3.95009V7.75008" stroke="#171717" stroke-width="1.5" stroke-linecap="round" stroke-linejoin="round"/>
<path d="M22.5647 13.9702V16.0302C22.5647 16.5802 22.1247 17.0302 21.5647 17.0502H19.6047C18.5247 17.0502 17.5347 16.2602 17.4447 15.1802C17.3847 14.5502 17.6247 13.9602 18.0447 13.5502C18.4147 13.1702 18.9247 12.9502 19.4847 12.9502H21.5647C22.1247 12.9702 22.5647 13.4202 22.5647 13.9702Z" stroke="#171717" stroke-width="1.5" stroke-linecap="round" stroke-linejoin="round"/>
<path d="M7.00586 12H14.0059" stroke="#171717" stroke-width="1.5" stroke-linecap="round" stroke-linejoin="round"/>
<path d="M9.00586 19C9.00586 19.75 8.79586 20.46 8.42586 21.06C8.21586 21.42 7.94586 21.74 7.63586 22C6.93586 22.63 6.01586 23 5.00586 23C3.54586 23 2.27586 22.22 1.58586 21.06C1.21586 20.46 1.00586 19.75 1.00586 19C1.00586 17.74 1.58586 16.61 2.50586 15.88C3.19586 15.33 4.06586 15 5.00586 15C7.21586 15 9.00586 16.79 9.00586 19Z" stroke="#171717" stroke-width="1.5" stroke-miterlimit="10" stroke-linecap="round" stroke-linejoin="round"/>
<path d="M3.44727 18.9995L4.43726 19.9895L6.56726 18.0195" stroke="#171717" stroke-width="1.5" stroke-linecap="round" stroke-linejoin="round"/>
</svg>
