<svg width="25" height="24" viewBox="0 0 25 24" fill="none" xmlns="http://www.w3.org/2000/svg">
<path d="M22.0156 13V9C22.0156 4 20.0156 2 15.0156 2H9.01562C4.01562 2 2.01562 4 2.01562 9V15C2.01562 20 4.01562 22 9.01562 22H13.0156" stroke="#171717" stroke-width="1.5" stroke-linecap="round" stroke-linejoin="round"/>
<path d="M7.3457 14.49L9.72571 11.4C10.0657 10.96 10.6957 10.88 11.1357 11.22L12.9657 12.66C13.4057 13 14.0357 12.92 14.3757 12.49L16.6857 9.51001" stroke="#171717" stroke-width="1.5" stroke-linecap="round" stroke-linejoin="round"/>
<path d="M19.4956 15.8199L19.7756 16.3899C19.9156 16.6699 20.2656 16.9299 20.5756 16.9899L20.9556 17.0499C22.0956 17.2399 22.3656 18.0799 21.5456 18.9099L21.1956 19.2599C20.9656 19.4999 20.8356 19.9599 20.9056 20.2799L20.9556 20.4899C21.2656 21.8699 20.5356 22.3999 19.3356 21.6799L19.0756 21.5299C18.7656 21.3499 18.2656 21.3499 17.9556 21.5299L17.6956 21.6799C16.4856 22.4099 15.7556 21.8699 16.0756 20.4899L16.1256 20.2799C16.1956 19.9599 16.0656 19.4999 15.8356 19.2599L15.4856 18.9099C14.6656 18.0799 14.9356 17.2399 16.0756 17.0499L16.4556 16.9899C16.7556 16.9399 17.1156 16.6699 17.2556 16.3899L17.5356 15.8199C18.0756 14.7299 18.9556 14.7299 19.4956 15.8199Z" stroke="#171717" stroke-width="1.5" stroke-linecap="round" stroke-linejoin="round"/>
</svg>
