<svg width="25" height="24" viewBox="0 0 25 24" fill="none" xmlns="http://www.w3.org/2000/svg">
<path d="M14.48 4.46997L12.5 2" stroke="#171717" stroke-width="1.5" stroke-linecap="round" stroke-linejoin="round"/>
<path d="M19.59 7.79999C20.7 9.27999 21.39 11.11 21.39 13.11C21.39 18.02 17.41 22 12.5 22C7.59 22 3.60999 18.02 3.60999 13.11C3.60999 8.19999 7.59 4.21997 12.5 4.21997C13.18 4.21997 13.84 4.31002 14.48 4.46002" stroke="#171717" stroke-width="1.5" stroke-linecap="round" stroke-linejoin="round"/>
<path d="M10.04 15.92V10.5801L8.54004 12.2501" stroke="#171717" stroke-width="1.5" stroke-linecap="round" stroke-linejoin="round"/>
<path d="M14.5 10.5801C15.6 10.5801 16.5 11.4801 16.5 12.5801V13.9301C16.5 15.0301 15.6 15.9301 14.5 15.9301C13.4 15.9301 12.5 15.0301 12.5 13.9301V12.5801C12.5 11.4701 13.4 10.5801 14.5 10.5801Z" stroke="#171717" stroke-width="1.5" stroke-linecap="round" stroke-linejoin="round"/>
</svg>
