<svg width="25" height="24" viewBox="0 0 25 24" fill="none" xmlns="http://www.w3.org/2000/svg">
<path d="M9.5 10C10.6046 10 11.5 9.10457 11.5 8C11.5 6.89543 10.6046 6 9.5 6C8.39543 6 7.5 6.89543 7.5 8C7.5 9.10457 8.39543 10 9.5 10Z" stroke="#171717" stroke-width="1.5" stroke-linecap="round" stroke-linejoin="round"/>
<path d="M12.5 2H9.5C4.5 2 2.5 4 2.5 9V15C2.5 20 4.5 22 9.5 22H15.5C20.5 22 22.5 20 22.5 15V11" stroke="#171717" stroke-width="1.5" stroke-linecap="round" stroke-linejoin="round"/>
<path d="M16.62 5.1099C16.29 4.0699 16.68 2.7799 17.76 2.4299C18.33 2.2499 19.04 2.3999 19.44 2.9499C19.82 2.3799 20.55 2.2399 21.12 2.4299C22.21 2.7799 22.6 4.0699 22.27 5.1099C21.75 6.7499 19.95 7.6099 19.45 7.6099C18.94 7.6099 17.15 6.7699 16.62 5.1099Z" stroke="#171717" stroke-width="1.5" stroke-linecap="round" stroke-linejoin="round"/>
<path d="M3.17001 18.9501L8.10001 15.6401C8.89001 15.1101 10.03 15.1701 10.74 15.7801L11.07 16.0701C11.85 16.7401 13.11 16.7401 13.89 16.0701L18.05 12.5001C18.83 11.8301 20.09 11.8301 20.87 12.5001L22.5 13.9001" stroke="#171717" stroke-width="1.5" stroke-linecap="round" stroke-linejoin="round"/>
</svg>
