<svg width="25" height="24" viewBox="0 0 25 24" fill="none" xmlns="http://www.w3.org/2000/svg">
<path d="M3.87 20.1C2.93 18.97 2.5 17.31 2.5 15V9C2.5 4 4.5 2 9.5 2H15.5C17.69 2 19.3 2.38 20.42 3.23" stroke="#171717" stroke-width="1.5" stroke-linecap="round" stroke-linejoin="round"/>
<path d="M22.47 7.98999C22.49 8.30999 22.5 8.64999 22.5 8.99999V15C22.5 20 20.5 22 15.5 22H9.49999C8.75999 22 8.07999 21.96 7.45999 21.86" stroke="#171717" stroke-width="1.5" stroke-linecap="round" stroke-linejoin="round"/>
<path d="M8.5 10C9.60457 10 10.5 9.10457 10.5 8C10.5 6.89543 9.60457 6 8.5 6C7.39543 6 6.5 6.89543 6.5 8C6.5 9.10457 7.39543 10 8.5 10Z" stroke="#171717" stroke-width="1.5" stroke-linecap="round" stroke-linejoin="round"/>
<path d="M22.5 2L2.5 22" stroke="#171717" stroke-width="1.5" stroke-linecap="round" stroke-linejoin="round"/>
<path d="M11.93 16.45C12.23 16.75 12.72 16.75 13.02 16.45L18.05 11.41C18.83 10.63 20.09 10.63 20.87 11.41L22.5 13.05" stroke="#171717" stroke-width="1.5" stroke-linecap="round" stroke-linejoin="round"/>
</svg>
