<svg width="25" height="24" viewBox="0 0 25 24" fill="none" xmlns="http://www.w3.org/2000/svg">
<path d="M9.5 10C10.6046 10 11.5 9.10457 11.5 8C11.5 6.89543 10.6046 6 9.5 6C8.39543 6 7.5 6.89543 7.5 8C7.5 9.10457 8.39543 10 9.5 10Z" stroke="#171717" stroke-width="1.5" stroke-linecap="round" stroke-linejoin="round"/>
<path d="M13.5 2H9.5C4.5 2 2.5 4 2.5 9V15C2.5 20 4.5 22 9.5 22H15.5C20.5 22 22.5 20 22.5 15V10" stroke="#171717" stroke-width="1.5" stroke-linecap="round" stroke-linejoin="round"/>
<path d="M19.64 2.58991L16.01 6.21991C15.87 6.35991 15.73 6.62991 15.71 6.82991L15.51 8.21991C15.44 8.71991 15.79 9.06991 16.29 8.99991L17.68 8.79991C17.87 8.76991 18.15 8.63991 18.29 8.49991L21.92 4.86991C22.55 4.23991 22.84 3.51991 21.92 2.59991C20.99 1.65991 20.27 1.95991 19.64 2.58991Z" stroke="#171717" stroke-width="1.5" stroke-miterlimit="10" stroke-linecap="round" stroke-linejoin="round"/>
<path d="M19.12 3.11011C19.43 4.21011 20.29 5.07011 21.39 5.38011" stroke="#171717" stroke-width="1.5" stroke-miterlimit="10" stroke-linecap="round" stroke-linejoin="round"/>
<path d="M3.17 18.9501L8.1 15.6401C8.89 15.1101 10.03 15.1701 10.74 15.7801L11.07 16.0701C11.85 16.7401 13.11 16.7401 13.89 16.0701L18.05 12.5001C18.83 11.8301 20.09 11.8301 20.87 12.5001L22.5 13.9001" stroke="#171717" stroke-width="1.5" stroke-linecap="round" stroke-linejoin="round"/>
</svg>
