<svg width="24" height="24" viewBox="0 0 24 24" fill="none" xmlns="http://www.w3.org/2000/svg">
<path d="M3.50098 22V5C3.50098 3 4.84098 2 6.50098 2H14.501C16.161 2 17.501 3 17.501 5V22H3.50098Z" stroke="#171717" stroke-width="1.5" stroke-linecap="round" stroke-linejoin="round"/>
<path d="M2.00098 22H19.001" stroke="#171717" stroke-width="1.5" stroke-linecap="round" stroke-linejoin="round"/>
<path d="M8.39098 10H12.621C13.661 10 14.511 9.5 14.511 8.11V6.88C14.511 5.49 13.661 4.99001 12.621 4.99001H8.39098C7.35098 4.99001 6.50098 5.49 6.50098 6.88V8.11C6.50098 9.5 7.35098 10 8.39098 10Z" stroke="#171717" stroke-width="1.5" stroke-linecap="round" stroke-linejoin="round"/>
<path d="M6.50098 13H9.50098" stroke="#171717" stroke-width="1.5" stroke-linecap="round" stroke-linejoin="round"/>
<path d="M17.501 16.01L22.001 16V10L20.001 9" stroke="#171717" stroke-width="1.5" stroke-linecap="round" stroke-linejoin="round"/>
</svg>
