<svg width="25" height="24" viewBox="0 0 25 24" fill="none" xmlns="http://www.w3.org/2000/svg">
<path d="M8.9856 22H14.9856C19.9856 22 21.9856 20 21.9856 15V9C21.9856 4 19.9856 2 14.9856 2H8.9856C3.9856 2 1.9856 4 1.9856 9V15C1.9856 20 3.9856 22 8.9856 22Z" stroke="#171717" stroke-width="1.5" stroke-linecap="round" stroke-linejoin="round"/>
<path d="M1.9856 12.7L7.9856 12.68C8.7356 12.68 9.5756 13.25 9.8556 13.95L10.9956 16.83C11.2556 17.48 11.6656 17.48 11.9256 16.83L14.2156 11.02C14.4356 10.46 14.8456 10.44 15.1256 10.97L16.1656 12.94C16.4756 13.53 17.2756 14.01 17.9356 14.01H21.9956" stroke="#171717" stroke-width="1.5" stroke-linecap="round" stroke-linejoin="round"/>
</svg>
