<svg width="25" height="24" viewBox="0 0 25 24" fill="none" xmlns="http://www.w3.org/2000/svg">
<path d="M22.0156 17.2C22.0156 18.1 21.7657 18.95 21.3157 19.67C20.4857 21.06 18.9656 22 17.2156 22C15.4656 22 13.9356 21.06 13.1156 19.67C12.6756 18.95 12.4156 18.1 12.4156 17.2C12.4156 14.55 14.5656 12.4 17.2156 12.4C19.8656 12.4 22.0156 14.55 22.0156 17.2Z" stroke="#171717" stroke-width="1.5" stroke-miterlimit="10" stroke-linecap="round" stroke-linejoin="round"/>
<path d="M15.3456 17.2L16.5256 18.38L19.0856 16.02" stroke="#171717" stroke-width="1.5" stroke-linecap="round" stroke-linejoin="round"/>
<path d="M22.0156 8.69C22.0156 10.66 21.5056 12.4 20.7056 13.91C19.8256 12.98 18.5856 12.4 17.2156 12.4C14.5656 12.4 12.4156 14.55 12.4156 17.2C12.4156 18.43 12.8856 19.55 13.6456 20.4C13.2756 20.57 12.9356 20.71 12.6356 20.81C12.2956 20.93 11.7356 20.93 11.3956 20.81C8.49563 19.82 2.01562 15.69 2.01562 8.69C2.01562 5.6 4.50563 3.09998 7.57563 3.09998C9.38563 3.09998 11.0056 3.98002 12.0156 5.33002C13.0256 3.98002 14.6456 3.09998 16.4556 3.09998C19.5256 3.09998 22.0156 5.6 22.0156 8.69Z" stroke="#171717" stroke-width="1.5" stroke-linecap="round" stroke-linejoin="round"/>
</svg>
