<svg width="25" height="24" viewBox="0 0 25 24" fill="none" xmlns="http://www.w3.org/2000/svg">
<path d="M6.12561 17.5001C3.91561 15.4301 2.01562 12.4801 2.01562 8.68005C2.01562 5.59005 4.50562 3.09009 7.57562 3.09009C9.39562 3.09009 11.0056 3.97008 12.0156 5.33008C13.0256 3.97008 14.6456 3.09009 16.4556 3.09009C17.6056 3.09009 18.6756 3.44005 19.5656 4.05005" stroke="#171717" stroke-width="1.5" stroke-linecap="round" stroke-linejoin="round"/>
<path d="M21.7556 7C21.9256 7.53 22.0156 8.1 22.0156 8.69C22.0156 15.69 15.5356 19.82 12.6356 20.82C12.2956 20.94 11.7356 20.94 11.3956 20.82C10.7456 20.6 9.92564 20.22 9.03564 19.69" stroke="#171717" stroke-width="1.5" stroke-linecap="round" stroke-linejoin="round"/>
<path d="M22.0156 2L2.01562 22" stroke="#171717" stroke-width="1.5" stroke-linecap="round" stroke-linejoin="round"/>
</svg>
