<svg width="25" height="24" viewBox="0 0 25 24" fill="none" xmlns="http://www.w3.org/2000/svg">
<path d="M21.5056 12C21.8256 10.98 22.0156 9.88 22.0156 8.69C22.0156 5.6 19.5256 3.09998 16.4556 3.09998C14.6356 3.09998 13.0256 3.98003 12.0156 5.34003C11.0056 3.98003 9.38562 3.09998 7.57562 3.09998C4.50562 3.09998 2.01562 5.6 2.01562 8.69C2.01562 15.69 8.49562 19.82 11.3956 20.82C11.5656 20.88 11.7856 20.91 12.0156 20.91" stroke="#171717" stroke-width="1.5" stroke-linecap="round" stroke-linejoin="round"/>
<path d="M17.7556 21C19.5229 21 20.9556 19.5673 20.9556 17.8C20.9556 16.0327 19.5229 14.6 17.7556 14.6C15.9883 14.6 14.5556 16.0327 14.5556 17.8C14.5556 19.5673 15.9883 21 17.7556 21Z" stroke="#171717" stroke-width="1.5" stroke-linecap="round" stroke-linejoin="round"/>
<path d="M21.5556 21.6L20.5556 20.6" stroke="#171717" stroke-width="1.5" stroke-linecap="round" stroke-linejoin="round"/>
</svg>
