<svg width="25" height="24" viewBox="0 0 25 24" fill="none" xmlns="http://www.w3.org/2000/svg">
<path d="M12.0156 22C17.5385 22 22.0156 17.5228 22.0156 12C22.0156 6.47715 17.5385 2 12.0156 2C6.49278 2 2.01562 6.47715 2.01562 12C2.01562 17.5228 6.49278 22 12.0156 22Z" stroke="#171717" stroke-width="1.5" stroke-linecap="round" stroke-linejoin="round"/>
<path d="M12.3456 17.45C12.1656 17.51 11.8556 17.51 11.6756 17.45C10.1156 16.92 6.6156 14.69 6.6156 10.91C6.6156 9.24 7.9556 7.89001 9.6156 7.89001C10.5956 7.89001 11.4656 8.36001 12.0156 9.10001C12.5556 8.37001 13.4356 7.89001 14.4156 7.89001C16.0756 7.89001 17.4156 9.24 17.4156 10.91C17.4156 14.69 13.9156 16.92 12.3456 17.45Z" stroke="#171717" stroke-width="1.5" stroke-linecap="round" stroke-linejoin="round"/>
</svg>
