<svg width="25" height="24" viewBox="0 0 25 24" fill="none" xmlns="http://www.w3.org/2000/svg">
<path d="M9.03563 2.84004L3.64563 7.04004C2.74563 7.74004 2.01562 9.23004 2.01562 10.36V17.77C2.01562 20.09 3.90563 21.99 6.22563 21.99H17.8056C20.1256 21.99 22.0156 20.09 22.0156 17.78V10.5C22.0156 9.29004 21.2056 7.74004 20.2156 7.05004L14.0356 2.72004C12.6356 1.74004 10.3856 1.79004 9.03563 2.84004Z" stroke="#171717" stroke-width="1.5" stroke-linecap="round" stroke-linejoin="round"/>
<path d="M10.5156 18H13.5156C15.1656 18 16.5156 16.65 16.5156 15V12C16.5156 10.35 15.1656 9 13.5156 9H10.5156C8.86563 9 7.51562 10.35 7.51562 12V15C7.51562 16.65 8.86563 18 10.5156 18Z" stroke="#171717" stroke-width="1.5" stroke-linecap="round" stroke-linejoin="round"/>
<path d="M12.0156 9V18" stroke="#171717" stroke-width="1.5" stroke-linecap="round" stroke-linejoin="round"/>
<path d="M7.51562 13.5H16.5156" stroke="#171717" stroke-width="1.5" stroke-linecap="round" stroke-linejoin="round"/>
</svg>
