<svg width="24" height="24" viewBox="0 0 24 24" fill="none" xmlns="http://www.w3.org/2000/svg">
<path d="M16.1999 10C16.1999 10 15.9999 11 12.9999 15C10.0999 18.8 14.2999 21.6 14.7999 22H14.8999C15.4999 21.5 23.0999 16.7 16.1999 10Z" stroke="#171717" stroke-width="1.5" stroke-miterlimit="10" stroke-linecap="round" stroke-linejoin="round"/>
<path d="M13.8001 7.80007C13.8001 5.50007 12.9001 3.40007 12.0001 2.20007C11.7001 1.90007 11.2001 2.00007 11.1001 2.40007C10.7001 3.90007 9.50005 7.10007 6.60005 10.9001C2.90005 15.7001 6.30005 20.9001 9.80005 21.9001C11.7001 22.4001 9.30005 20.9001 9.00005 17.8001C8.70005 13.9001 13.8001 11.0001 13.8001 7.80007Z" stroke="#171717" stroke-width="1.5" stroke-miterlimit="10" stroke-linecap="round" stroke-linejoin="round"/>
</svg>
