<svg width="25" height="24" viewBox="0 0 25 24" fill="none" xmlns="http://www.w3.org/2000/svg">
<path d="M22.18 16.9599L19.05 9.64988C17.99 7.16988 16.04 7.06988 14.73 9.42988L12.84 12.8399C11.88 14.5699 10.09 14.7199 8.84999 13.1699L8.62999 12.8899C7.33999 11.2699 5.51999 11.4699 4.58999 13.3199L2.86999 16.7699C1.65999 19.1699 3.40999 21.9999 6.08999 21.9999H18.85C21.45 21.9999 23.2 19.3499 22.18 16.9599Z" stroke="#171717" stroke-width="1.5" stroke-linecap="round" stroke-linejoin="round"/>
<path d="M7.47 8C9.12686 8 10.47 6.65685 10.47 5C10.47 3.34315 9.12686 2 7.47 2C5.81315 2 4.47 3.34315 4.47 5C4.47 6.65685 5.81315 8 7.47 8Z" stroke="#171717" stroke-width="1.5" stroke-linecap="round" stroke-linejoin="round"/>
</svg>
