<svg width="25" height="24" viewBox="0 0 25 24" fill="none" xmlns="http://www.w3.org/2000/svg">
<path d="M20.0456 2.47998L4.19556 18.33" stroke="#171717" stroke-width="1.5" stroke-linecap="round" stroke-linejoin="round"/>
<path d="M5.2657 13.0001C4.8457 12.0301 4.5957 10.9801 4.5957 9.90005C4.5957 4.99005 8.8157 1.12005 13.6157 2.17005C15.0757 2.49005 16.3757 3.27005 17.3757 4.35005" stroke="#171717" stroke-width="1.5" stroke-linecap="round" stroke-linejoin="round"/>
<path d="M19.0755 7.30005C20.2955 11.18 18.3255 15.08 15.5355 16.87V18.03C15.5355 18.32 15.6355 18.99 14.6355 18.99H9.43554C8.40554 18.99 8.53554 18.56 8.53554 18.03V16.87C8.05554 16.57 7.60554 16.2 7.17554 15.77" stroke="#171717" stroke-width="1.5" stroke-linecap="round" stroke-linejoin="round"/>
<path d="M8.51562 22C10.8056 21.35 13.2256 21.35 15.5156 22" stroke="#171717" stroke-width="1.5" stroke-linecap="round" stroke-linejoin="round"/>
</svg>
