<svg width="25" height="24" viewBox="0 0 25 24" fill="none" xmlns="http://www.w3.org/2000/svg">
<path d="M18.0156 18.86H17.2556C16.4556 18.86 15.6956 19.17 15.1356 19.73L13.4256 21.42C12.6456 22.19 11.3756 22.19 10.5956 21.42L8.88562 19.73C8.32562 19.17 7.55563 18.86 6.76562 18.86H6.01562C4.35563 18.86 3.01562 17.53 3.01562 15.89V4.97998C3.01562 3.33998 4.35563 2.01001 6.01562 2.01001H18.0156C19.6756 2.01001 21.0156 3.33998 21.0156 4.97998V15.89C21.0156 17.52 19.6756 18.86 18.0156 18.86Z" stroke="#171717" stroke-width="1.5" stroke-miterlimit="10" stroke-linecap="round" stroke-linejoin="round"/>
<path d="M12.2956 14.96C12.1456 15.01 11.8956 15.01 11.7356 14.96C10.4356 14.51 7.51562 12.66 7.51562 9.51001C7.51562 8.12001 8.63563 7 10.0156 7C10.8356 7 11.5556 7.39 12.0156 8C12.4756 7.39 13.1956 7 14.0156 7C15.3956 7 16.5156 8.12001 16.5156 9.51001C16.5056 12.66 13.5956 14.51 12.2956 14.96Z" stroke="#171717" stroke-width="1.5" stroke-linecap="round" stroke-linejoin="round"/>
</svg>
