<svg width="25" height="24" viewBox="0 0 25 24" fill="none" xmlns="http://www.w3.org/2000/svg">
<path d="M4.93561 20.28L6.70561 21.65C6.93561 21.88 7.44561 21.99 7.79561 21.99H9.96561C10.6556 21.99 11.3956 21.48 11.5656 20.79L12.9356 16.62C13.2256 15.82 12.7056 15.13 11.8456 15.13H9.55561C9.21561 15.13 8.92561 14.8399 8.98561 14.4399L9.27561 12.61C9.38561 12.1 9.04561 11.52 8.53561 11.35C8.07561 11.18 7.50561 11.41 7.27561 11.75L4.93561 15.24" stroke="#171717" stroke-width="1.5" stroke-miterlimit="10"/>
<path d="M2.01562 20.28V14.6801C2.01562 13.8801 2.35562 13.59 3.15562 13.59H3.72562C4.52562 13.59 4.86562 13.8801 4.86562 14.6801V20.28C4.86562 21.08 4.52562 21.37 3.72562 21.37H3.15562C2.35562 21.37 2.01562 21.09 2.01562 20.28Z" stroke="#171717" stroke-width="1.5" stroke-linecap="round" stroke-linejoin="round"/>
<path d="M19.0956 3.71997L17.3256 2.34998C17.0956 2.11998 16.5856 2.01001 16.2356 2.01001H14.0656C13.3756 2.01001 12.6356 2.51996 12.4656 3.20996L11.0956 7.38C10.8056 8.18 11.3256 8.87 12.1856 8.87H14.4756C14.8156 8.87 15.1056 9.16006 15.0456 9.56006L14.7556 11.39C14.6456 11.9 14.9856 12.48 15.4956 12.65C15.9556 12.82 16.5256 12.59 16.7556 12.25L19.0956 8.76001" stroke="#171717" stroke-width="1.5" stroke-miterlimit="10"/>
<path d="M22.0156 3.71997V9.31995C22.0156 10.1199 21.6756 10.41 20.8756 10.41H20.3056C19.5056 10.41 19.1656 10.1199 19.1656 9.31995V3.71997C19.1656 2.91997 19.5056 2.63 20.3056 2.63H20.8756C21.6756 2.63 22.0156 2.90997 22.0156 3.71997Z" stroke="#171717" stroke-width="1.5" stroke-linecap="round" stroke-linejoin="round"/>
</svg>
