<svg width="25" height="24" viewBox="0 0 25 24" fill="none" xmlns="http://www.w3.org/2000/svg">
<path d="M9.66562 13.8L11.2756 15.05C11.4856 15.26 11.9556 15.3599 12.2656 15.3599H14.2456C14.8656 15.3599 15.5456 14.89 15.7056 14.27L16.9556 10.4799C17.2156 9.74994 16.7456 9.12996 15.9656 9.12996H13.8856C13.5756 9.12996 13.3156 8.86996 13.3656 8.50996L13.6256 6.84993C13.7256 6.37993 13.4156 5.85992 12.9456 5.70992C12.5256 5.54992 12.0056 5.7599 11.8056 6.0699L9.67563 9.23995" stroke="#171717" stroke-width="1.5" stroke-miterlimit="10"/>
<path d="M7.01562 13.8V8.70996C7.01562 7.97996 7.32562 7.71997 8.05562 7.71997H8.57562C9.30562 7.71997 9.61563 7.97996 9.61563 8.70996V13.8C9.61563 14.53 9.30562 14.79 8.57562 14.79H8.05562C7.32562 14.79 7.01562 14.53 7.01562 13.8Z" stroke="#171717" stroke-width="1.5" stroke-linecap="round" stroke-linejoin="round"/>
<path d="M18.0156 18.86H17.2556C16.4556 18.86 15.6956 19.17 15.1356 19.73L13.4256 21.42C12.6456 22.19 11.3756 22.19 10.5956 21.42L8.88562 19.73C8.32562 19.17 7.55563 18.86 6.76562 18.86H6.01562C4.35563 18.86 3.01562 17.53 3.01562 15.89V4.97998C3.01562 3.33998 4.35563 2.01001 6.01562 2.01001H18.0156C19.6756 2.01001 21.0156 3.33998 21.0156 4.97998V15.89C21.0156 17.52 19.6756 18.86 18.0156 18.86Z" stroke="#171717" stroke-width="1.5" stroke-miterlimit="10" stroke-linecap="round" stroke-linejoin="round"/>
</svg>
