<svg width="25" height="24" viewBox="0 0 25 24" fill="none" xmlns="http://www.w3.org/2000/svg">
<path d="M10.7656 2.44995C11.4556 1.85995 12.5856 1.85995 13.2856 2.44995L14.8656 3.81005C15.1656 4.07005 15.7256 4.28002 16.1256 4.28002H17.8256C18.8856 4.28002 19.7556 5.14996 19.7556 6.20996V7.91003C19.7556 8.30003 19.9656 8.87004 20.2256 9.17004L21.5856 10.75C22.1756 11.44 22.1756 12.57 21.5856 13.27L20.2256 14.85C19.9656 15.15 19.7556 15.71 19.7556 16.11V17.8101C19.7556 18.8701 18.8856 19.74 17.8256 19.74H16.1256C15.7356 19.74 15.1656 19.95 14.8656 20.21L13.2856 21.5699C12.5956 22.1599 11.4656 22.1599 10.7656 21.5699L9.18564 20.21C8.88564 19.95 8.32563 19.74 7.92563 19.74H6.19562C5.13562 19.74 4.26563 18.8701 4.26563 17.8101V16.1C4.26563 15.71 4.05564 15.15 3.80564 14.85L2.45563 13.26C1.87563 12.57 1.87563 11.45 2.45563 10.76L3.80564 9.17004C4.05564 8.87004 4.26563 8.31004 4.26563 7.92004V6.20996C4.26563 5.14996 5.13562 4.28002 6.19562 4.28002H7.92563C8.31563 4.28002 8.88564 4.07005 9.18564 3.81005L10.7656 2.44995Z" stroke="#171717" stroke-width="1.5" stroke-linecap="round" stroke-linejoin="round"/>
<path d="M9.90564 14.82L11.3556 15.94C11.5456 16.13 11.9656 16.22 12.2456 16.22H14.0156C14.5756 16.22 15.1856 15.8 15.3256 15.24L16.4456 11.82C16.6756 11.17 16.2556 10.6 15.5556 10.6H13.6856C13.4056 10.6 13.1756 10.3701 13.2156 10.0401L13.4456 8.54008C13.5356 8.12008 13.2556 7.65005 12.8356 7.51005C12.4656 7.37005 11.9956 7.56 11.8056 7.84L9.88562 10.69" stroke="#171717" stroke-width="1.5" stroke-miterlimit="10"/>
<path d="M7.51562 14.8199V10.24C7.51562 9.57999 7.79563 9.34998 8.45563 9.34998H8.92563C9.57563 9.34998 9.86563 9.57999 9.86563 10.24V14.8199C9.86563 15.4699 9.58563 15.71 8.92563 15.71H8.45563C7.79563 15.71 7.51562 15.4799 7.51562 14.8199Z" stroke="#171717" stroke-width="1.5" stroke-linecap="round" stroke-linejoin="round"/>
</svg>
