<svg width="25" height="24" viewBox="0 0 25 24" fill="none" xmlns="http://www.w3.org/2000/svg">
<path d="M19.8756 8.08997C19.8756 8.50997 19.8456 8.91997 19.7956 9.30997C19.3356 9.10997 18.8356 8.99997 18.3056 8.99997C17.0856 8.99997 16.0056 9.58996 15.3356 10.49C14.6556 9.58996 13.5756 8.99997 12.3556 8.99997C10.3056 8.99997 8.64563 10.67 8.64563 12.74C8.64563 15.42 10.0656 17.47 11.6456 18.86C11.5956 18.89 11.5456 18.9 11.4956 18.92C11.1956 19.03 10.6956 19.03 10.3956 18.92C7.80563 18.03 2.01562 14.35 2.01562 8.08997C2.01562 5.32997 4.23562 3.09998 6.97562 3.09998C8.60562 3.09998 10.0456 3.87997 10.9456 5.08997C11.8556 3.87997 13.2956 3.09998 14.9156 3.09998C17.6556 3.09998 19.8756 5.32997 19.8756 8.08997Z" stroke="#171717" stroke-width="1.5" stroke-linecap="round" stroke-linejoin="round"/>
<path d="M22.0156 12.74C22.0156 17.42 17.6856 20.18 15.7456 20.84C15.5156 20.92 15.1456 20.92 14.9156 20.84C14.0856 20.56 12.8156 19.89 11.6456 18.86C10.0656 17.47 8.64563 15.42 8.64563 12.74C8.64563 10.67 10.3056 9 12.3556 9C13.5756 9 14.6556 9.58999 15.3356 10.49C16.0056 9.58999 17.0856 9 18.3056 9C18.8356 9 19.3356 9.11 19.7956 9.31C21.1056 9.89 22.0156 11.2 22.0156 12.74Z" stroke="#171717" stroke-width="1.5" stroke-linecap="round" stroke-linejoin="round"/>
</svg>
