<svg width="25" height="24" viewBox="0 0 25 24" fill="none" xmlns="http://www.w3.org/2000/svg">
<path d="M19.0156 9C19.0156 10.45 18.5856 11.78 17.8456 12.89C16.7656 14.49 15.0556 15.62 13.0656 15.91C12.7256 15.97 12.3756 16 12.0156 16C11.6556 16 11.3056 15.97 10.9656 15.91C8.97562 15.62 7.26563 14.49 6.18563 12.89C5.44563 11.78 5.01562 10.45 5.01562 9C5.01562 5.13 8.14563 2 12.0156 2C15.8856 2 19.0156 5.13 19.0156 9Z" stroke="#171717" stroke-width="1.5" stroke-linecap="round" stroke-linejoin="round"/>
<path d="M21.2656 18.47L19.6156 18.86C19.2456 18.95 18.9556 19.23 18.8756 19.6L18.5256 21.07C18.3356 21.87 17.3156 22.11 16.7856 21.48L12.0156 16L7.24563 21.49C6.71563 22.12 5.69563 21.88 5.50563 21.08L5.15563 19.61C5.06563 19.24 4.77563 18.95 4.41563 18.87L2.76563 18.48C2.00563 18.3 1.73563 17.35 2.28563 16.8L6.18563 12.9C7.26563 14.5 8.97563 15.63 10.9656 15.92C11.3056 15.98 11.6556 16.01 12.0156 16.01C12.3756 16.01 12.7256 15.98 13.0656 15.92C15.0556 15.63 16.7656 14.5 17.8456 12.9L21.7456 16.8C22.2956 17.34 22.0256 18.29 21.2656 18.47Z" stroke="#171717" stroke-width="1.5" stroke-linecap="round" stroke-linejoin="round"/>
<path d="M12.5956 5.98L13.1856 7.15999C13.2656 7.31999 13.4756 7.48 13.6656 7.51L14.7356 7.68999C15.4156 7.79999 15.5756 8.3 15.0856 8.79L14.2556 9.61998C14.1156 9.75998 14.0356 10.03 14.0856 10.23L14.3256 11.26C14.5156 12.07 14.0856 12.39 13.3656 11.96L12.3656 11.37C12.1856 11.26 11.8856 11.26 11.7056 11.37L10.7056 11.96C9.98563 12.38 9.55563 12.07 9.74563 11.26L9.98563 10.23C10.0256 10.04 9.95563 9.75998 9.81563 9.61998L8.98563 8.79C8.49563 8.3 8.65563 7.80999 9.33563 7.68999L10.4056 7.51C10.5856 7.48 10.7956 7.31999 10.8756 7.15999L11.4656 5.98C11.7556 5.34 12.2756 5.34 12.5956 5.98Z" stroke="#171717" stroke-width="1.5" stroke-linecap="round" stroke-linejoin="round"/>
</svg>
