<svg width="25" height="24" viewBox="0 0 25 24" fill="none" xmlns="http://www.w3.org/2000/svg">
<path d="M17.5557 8.31001C18.9143 8.31001 20.0157 7.20863 20.0157 5.85001C20.0157 4.49139 18.9143 3.39001 17.5557 3.39001C16.1971 3.39001 15.0957 4.49139 15.0957 5.85001C15.0957 7.20863 16.1971 8.31001 17.5557 8.31001Z" stroke="#171717" stroke-width="1.5" stroke-miterlimit="10" stroke-linecap="round" stroke-linejoin="round"/>
<path d="M6.47563 8.31001C7.83425 8.31001 8.93562 7.20863 8.93562 5.85001C8.93562 4.49139 7.83425 3.39001 6.47563 3.39001C5.11701 3.39001 4.01562 4.49139 4.01562 5.85001C4.01562 7.20863 5.11701 8.31001 6.47563 8.31001Z" stroke="#171717" stroke-width="1.5" stroke-miterlimit="10" stroke-linecap="round" stroke-linejoin="round"/>
<path d="M17.5557 20.6101C18.9143 20.6101 20.0157 19.5087 20.0157 18.1501C20.0157 16.7914 18.9143 15.6901 17.5557 15.6901C16.1971 15.6901 15.0957 16.7914 15.0957 18.1501C15.0957 19.5087 16.1971 20.6101 17.5557 20.6101Z" stroke="#171717" stroke-width="1.5" stroke-miterlimit="10" stroke-linecap="round" stroke-linejoin="round"/>
<path d="M6.47563 20.6101C7.83425 20.6101 8.93562 19.5087 8.93562 18.1501C8.93562 16.7914 7.83425 15.6901 6.47563 15.6901C5.11701 15.6901 4.01562 16.7914 4.01562 18.1501C4.01562 19.5087 5.11701 20.6101 6.47563 20.6101Z" stroke="#171717" stroke-width="1.5" stroke-miterlimit="10" stroke-linecap="round" stroke-linejoin="round"/>
</svg>
