<svg width="24" height="24" viewBox="0 0 24 24" fill="none" xmlns="http://www.w3.org/2000/svg">
<path d="M15.0301 10.77L20.6901 6.98001C21.2601 6.60001 21.4101 5.82001 21.0301 5.26001L19.2101 2.54999C18.8301 1.97999 18.0501 1.82999 17.4901 2.20999L11.8301 6L15.0301 10.77Z" stroke="#171717" stroke-width="1.5" stroke-linecap="round" stroke-linejoin="round"/>
<path d="M12.1739 6.47923L7.39624 9.67911L9.95614 13.5013L14.7338 10.3014L12.1739 6.47923Z" stroke="#171717" stroke-width="1.5" stroke-linecap="round" stroke-linejoin="round"/>
<path d="M5.83004 15.9L9.78004 13.26L7.54004 9.92001L3.59004 12.56C3.13004 12.87 3.01004 13.49 3.32004 13.95L4.45004 15.63C4.75004 16.08 5.37004 16.2 5.83004 15.9Z" stroke="#171717" stroke-width="1.5" stroke-linecap="round" stroke-linejoin="round"/>
<path d="M12.0501 12.2L7.56006 22" stroke="#171717" stroke-width="1.5" stroke-linecap="round" stroke-linejoin="round"/>
<path d="M12 12.2L16.44 22" stroke="#171717" stroke-width="1.5" stroke-linecap="round" stroke-linejoin="round"/>
</svg>
