<svg width="25" height="24" viewBox="0 0 25 24" fill="none" xmlns="http://www.w3.org/2000/svg">
<path d="M16.5 6.3V6C16.5 3.79 14.71 2 12.5 2C10.29 2 8.5 3.79 8.5 6V11" stroke="#171717" stroke-width="1.5" stroke-linecap="round" stroke-linejoin="round"/>
<path d="M9.54004 14.19C10.27 15 11.33 15.5 12.5 15.5C14.71 15.5 16.5 13.71 16.5 11.5V11" stroke="#171717" stroke-width="1.5" stroke-linecap="round" stroke-linejoin="round"/>
<path d="M7.28003 16.9499C8.65003 18.2199 10.48 18.9999 12.5 18.9999C16.72 18.9999 20.15 15.5699 20.15 11.3499V9.6499" stroke="#171717" stroke-width="1.5" stroke-linecap="round" stroke-linejoin="round"/>
<path d="M4.84998 9.6499V11.3499C4.84998 12.4099 5.05998 13.4099 5.44998 14.3299" stroke="#171717" stroke-width="1.5" stroke-linecap="round" stroke-linejoin="round"/>
<path d="M20.5701 2.84009L4.43005 18.9901" stroke="#171717" stroke-width="1.5" stroke-linecap="round" stroke-linejoin="round"/>
<path d="M11.5 3V6" stroke="#171717" stroke-width="1.5" stroke-linecap="round" stroke-linejoin="round"/>
<path d="M12.5 19V22" stroke="#171717" stroke-width="1.5" stroke-linecap="round" stroke-linejoin="round"/>
</svg>
