<svg width="25" height="24" viewBox="0 0 25 24" fill="none" xmlns="http://www.w3.org/2000/svg">
<path d="M22.5 10V9C22.5 4 20.5 2 15.5 2H9.5C4.5 2 2.5 4 2.5 9V15C2.5 20 4.5 22 9.5 22H11.5" stroke="#171717" stroke-width="1.5" stroke-linecap="round" stroke-linejoin="round"/>
<path d="M15.77 22.0001C16.5653 22.0001 17.21 21.3554 17.21 20.5601C17.21 19.7648 16.5653 19.1201 15.77 19.1201C14.9747 19.1201 14.33 19.7648 14.33 20.5601C14.33 21.3554 14.9747 22.0001 15.77 22.0001Z" stroke="#171717" stroke-width="1.5" stroke-linecap="round" stroke-linejoin="round"/>
<path d="M22.5 19.6001V13.9601C22.5 12.7601 21.75 12.5901 20.98 12.8001L18.09 13.5901C17.57 13.7301 17.2 14.1501 17.2 14.7501V15.7601V16.4401V20.5701" stroke="#171717" stroke-width="1.5" stroke-linecap="round" stroke-linejoin="round"/>
<path d="M21.06 21.0402C21.8553 21.0402 22.5 20.3954 22.5 19.6002C22.5 18.8049 21.8553 18.1602 21.06 18.1602C20.2647 18.1602 19.62 18.8049 19.62 19.6002C19.62 20.3954 20.2647 21.0402 21.06 21.0402Z" stroke="#171717" stroke-width="1.5" stroke-linecap="round" stroke-linejoin="round"/>
<path d="M17.21 16.43L22.5 14.99" stroke="#171717" stroke-width="1.5" stroke-linecap="round" stroke-linejoin="round"/>
</svg>
