<svg width="25" height="24" viewBox="0 0 25 24" fill="none" xmlns="http://www.w3.org/2000/svg">
<path d="M12.0371 14.5C13.4178 14.5 14.5371 13.3807 14.5371 12C14.5371 10.6193 13.4178 9.5 12.0371 9.5C10.6564 9.5 9.53711 10.6193 9.53711 12C9.53711 13.3807 10.6564 14.5 12.0371 14.5Z" stroke="#171717" stroke-width="1.5" stroke-miterlimit="10" stroke-linecap="round" stroke-linejoin="round"/>
<path d="M18.5371 9.5V14.5" stroke="#171717" stroke-width="1.5" stroke-miterlimit="10" stroke-linecap="round" stroke-linejoin="round"/>
<path d="M9.03711 18C9.03711 18.75 8.82712 19.46 8.45712 20.06C7.76712 21.22 6.49711 22 5.03711 22C3.57711 22 2.3071 21.22 1.6171 20.06C1.2471 19.46 1.03711 18.75 1.03711 18C1.03711 15.79 2.82711 14 5.03711 14C7.24711 14 9.03711 15.79 9.03711 18Z" stroke="#171717" stroke-width="1.5" stroke-miterlimit="10" stroke-linecap="round" stroke-linejoin="round"/>
<path d="M6.52881 17.9795H3.54883" stroke="#171717" stroke-width="1.5" stroke-miterlimit="10" stroke-linecap="round" stroke-linejoin="round"/>
<path d="M5.03711 16.5195V19.5095" stroke="#171717" stroke-width="1.5" stroke-miterlimit="10" stroke-linecap="round" stroke-linejoin="round"/>
<path d="M2.03711 15.3V9C2.03711 5.5 4.03711 4 7.03711 4H17.0371C20.0371 4 22.0371 5.5 22.0371 9V15C22.0371 18.5 20.0371 20 17.0371 20H8.53711" stroke="#171717" stroke-width="1.5" stroke-miterlimit="10" stroke-linecap="round" stroke-linejoin="round"/>
</svg>
