<svg width="25" height="24" viewBox="0 0 25 24" fill="none" xmlns="http://www.w3.org/2000/svg">
<path d="M9.51172 13.75C9.51172 14.72 10.2617 15.5 11.1817 15.5H13.0617C13.8617 15.5 14.5117 14.82 14.5117 13.97C14.5117 13.06 14.1117 12.73 13.5217 12.52L10.5117 11.47C9.92172 11.26 9.52173 10.94 9.52173 10.02C9.52173 9.17999 10.1717 8.48999 10.9717 8.48999H12.8517C13.7717 8.48999 14.5217 9.26999 14.5217 10.24" stroke="#171717" stroke-width="1.5" stroke-linecap="round" stroke-linejoin="round"/>
<path d="M12.0117 7.5V16.5" stroke="#171717" stroke-width="1.5" stroke-linecap="round" stroke-linejoin="round"/>
<path d="M22.0117 12C22.0117 17.52 17.5317 22 12.0117 22C6.49172 22 2.01172 17.52 2.01172 12C2.01172 6.48 6.49172 2 12.0117 2" stroke="#171717" stroke-width="1.5" stroke-linecap="round" stroke-linejoin="round"/>
<path d="M17.0117 3V7H21.0117" stroke="#171717" stroke-width="1.5" stroke-linecap="round" stroke-linejoin="round"/>
<path d="M22.0117 2L17.0117 7" stroke="#171717" stroke-width="1.5" stroke-linecap="round" stroke-linejoin="round"/>
</svg>
