<svg width="25" height="24" viewBox="0 0 25 24" fill="none" xmlns="http://www.w3.org/2000/svg">
<path d="M17.0107 20.5H7.01074C4.01074 20.5 2.01074 19 2.01074 15.5V8.5C2.01074 5 4.01074 3.5 7.01074 3.5H17.0107C20.0107 3.5 22.0107 5 22.0107 8.5V15.5C22.0107 19 20.0107 20.5 17.0107 20.5Z" stroke="#171717" stroke-width="1.5" stroke-miterlimit="10" stroke-linecap="round" stroke-linejoin="round"/>
<path d="M12.0107 15C13.6676 15 15.0107 13.6569 15.0107 12C15.0107 10.3431 13.6676 9 12.0107 9C10.3539 9 9.01074 10.3431 9.01074 12C9.01074 13.6569 10.3539 15 12.0107 15Z" stroke="#171717" stroke-width="1.5" stroke-miterlimit="10" stroke-linecap="round" stroke-linejoin="round"/>
<path d="M2.01074 9H3.01074C6.01074 9 7.01074 8 7.01074 5V4" stroke="#171717" stroke-width="1.5" stroke-miterlimit="10" stroke-linecap="round" stroke-linejoin="round"/>
<path d="M22.0107 9H21.0107C18.0107 9 17.0107 8 17.0107 5V4" stroke="#171717" stroke-width="1.5" stroke-miterlimit="10" stroke-linecap="round" stroke-linejoin="round"/>
<path d="M2.01074 15H3.01074C6.01074 15 7.01074 16 7.01074 19V20" stroke="#171717" stroke-width="1.5" stroke-miterlimit="10" stroke-linecap="round" stroke-linejoin="round"/>
<path d="M22.0107 15H21.0107C18.0107 15 17.0107 16 17.0107 19V20" stroke="#171717" stroke-width="1.5" stroke-miterlimit="10" stroke-linecap="round" stroke-linejoin="round"/>
</svg>
