<svg width="25" height="24" viewBox="0 0 25 24" fill="none" xmlns="http://www.w3.org/2000/svg">
<path d="M17.0146 20.5H7.01465C4.01465 20.5 2.01465 19 2.01465 15.5V8.5C2.01465 5 4.01465 3.5 7.01465 3.5H17.0146C20.0146 3.5 22.0146 5 22.0146 8.5V15.5C22.0146 19 20.0146 20.5 17.0146 20.5Z" stroke="#171717" stroke-width="1.5" stroke-miterlimit="10" stroke-linecap="round" stroke-linejoin="round"/>
<path d="M12.0146 15C13.6715 15 15.0146 13.6569 15.0146 12C15.0146 10.3431 13.6715 9 12.0146 9C10.3578 9 9.01465 10.3431 9.01465 12C9.01465 13.6569 10.3578 15 12.0146 15Z" stroke="#171717" stroke-width="1.5" stroke-miterlimit="10" stroke-linecap="round" stroke-linejoin="round"/>
<path d="M19.0146 7H16.0146" stroke="#171717" stroke-width="1.5" stroke-miterlimit="10" stroke-linecap="round" stroke-linejoin="round"/>
<path d="M8.01465 17H5.01465" stroke="#171717" stroke-width="1.5" stroke-miterlimit="10" stroke-linecap="round" stroke-linejoin="round"/>
</svg>
