<svg width="25" height="24" viewBox="0 0 25 24" fill="none" xmlns="http://www.w3.org/2000/svg">
<path d="M17.0127 20.5H7.0127C4.0127 20.5 2.0127 19 2.0127 15.5V8.5C2.0127 5 4.0127 3.5 7.0127 3.5H17.0127C20.0127 3.5 22.0127 5 22.0127 8.5V15.5C22.0127 19 20.0127 20.5 17.0127 20.5Z" stroke="#171717" stroke-width="1.5" stroke-miterlimit="10" stroke-linecap="round" stroke-linejoin="round"/>
<path d="M12.0127 15C13.6695 15 15.0127 13.6569 15.0127 12C15.0127 10.3431 13.6695 9 12.0127 9C10.3558 9 9.0127 10.3431 9.0127 12C9.0127 13.6569 10.3558 15 12.0127 15Z" stroke="#171717" stroke-width="1.5" stroke-miterlimit="10" stroke-linecap="round" stroke-linejoin="round"/>
<path d="M8.5127 6H7.0127C5.6327 6 4.5127 7.12 4.5127 8.5V10" stroke="#171717" stroke-width="1.5" stroke-miterlimit="10" stroke-linecap="round" stroke-linejoin="round"/>
<path d="M15.5127 6H17.0127C18.3927 6 19.5127 7.12 19.5127 8.5V10" stroke="#171717" stroke-width="1.5" stroke-miterlimit="10" stroke-linecap="round" stroke-linejoin="round"/>
<path d="M8.5127 18H7.0127C5.6327 18 4.5127 16.88 4.5127 15.5V14" stroke="#171717" stroke-width="1.5" stroke-miterlimit="10" stroke-linecap="round" stroke-linejoin="round"/>
<path d="M15.5127 18H17.0127C18.3927 18 19.5127 16.88 19.5127 15.5V14" stroke="#171717" stroke-width="1.5" stroke-miterlimit="10" stroke-linecap="round" stroke-linejoin="round"/>
</svg>
