<svg width="25" height="24" viewBox="0 0 25 24" fill="none" xmlns="http://www.w3.org/2000/svg">
<path d="M2.0437 15.3V9C2.0437 5.5 4.0437 4 7.0437 4H17.0437C20.0437 4 22.0437 5.5 22.0437 9V15C22.0437 18.5 20.0437 20 17.0437 20H8.5437" stroke="#171717" stroke-width="1.5" stroke-miterlimit="10" stroke-linecap="round" stroke-linejoin="round"/>
<path d="M12.0437 14.5C13.4244 14.5 14.5437 13.3807 14.5437 12C14.5437 10.6193 13.4244 9.5 12.0437 9.5C10.663 9.5 9.5437 10.6193 9.5437 12C9.5437 13.3807 10.663 14.5 12.0437 14.5Z" stroke="#171717" stroke-width="1.5" stroke-miterlimit="10" stroke-linecap="round" stroke-linejoin="round"/>
<path d="M18.5437 9.5V14.5" stroke="#171717" stroke-width="1.5" stroke-miterlimit="10" stroke-linecap="round" stroke-linejoin="round"/>
<path d="M9.0437 18C9.0437 18.75 8.83368 19.46 8.46368 20.06C7.77368 21.22 6.5037 22 5.0437 22C3.5837 22 2.31372 21.22 1.62372 20.06C1.25372 19.46 1.0437 18.75 1.0437 18C1.0437 15.79 2.8337 14 5.0437 14C7.2537 14 9.0437 15.79 9.0437 18Z" stroke="#171717" stroke-width="1.5" stroke-miterlimit="10" stroke-linecap="round" stroke-linejoin="round"/>
<path d="M6.11487 19.0399L4.00488 16.9299" stroke="#171717" stroke-width="1.5" stroke-miterlimit="10" stroke-linecap="round" stroke-linejoin="round"/>
<path d="M6.08362 16.96L3.97363 19.0699" stroke="#171717" stroke-width="1.5" stroke-miterlimit="10" stroke-linecap="round" stroke-linejoin="round"/>
</svg>
