<svg width="25" height="24" viewBox="0 0 25 24" fill="none" xmlns="http://www.w3.org/2000/svg">
<path d="M9.5127 13.75C9.5127 14.72 10.2627 15.5 11.1827 15.5H13.0627C13.8627 15.5 14.5127 14.82 14.5127 13.97C14.5127 13.06 14.1127 12.73 13.5227 12.52L10.5127 11.47C9.9227 11.26 9.52271 10.94 9.52271 10.02C9.52271 9.17999 10.1727 8.48999 10.9727 8.48999H12.8527C13.7727 8.48999 14.5227 9.26999 14.5227 10.24" stroke="#171717" stroke-width="1.5" stroke-linecap="round" stroke-linejoin="round"/>
<path d="M12.0127 7.5V16.5" stroke="#171717" stroke-width="1.5" stroke-linecap="round" stroke-linejoin="round"/>
<path d="M22.0127 12C22.0127 17.52 17.5327 22 12.0127 22C6.4927 22 2.0127 17.52 2.0127 12C2.0127 6.48 6.4927 2 12.0127 2" stroke="#171717" stroke-width="1.5" stroke-linecap="round" stroke-linejoin="round"/>
<path d="M22.0127 6V2H18.0127" stroke="#171717" stroke-width="1.5" stroke-linecap="round" stroke-linejoin="round"/>
<path d="M17.0127 7L22.0127 2" stroke="#171717" stroke-width="1.5" stroke-linecap="round" stroke-linejoin="round"/>
</svg>
