<svg width="24" height="24" viewBox="0 0 24 24" fill="none" xmlns="http://www.w3.org/2000/svg">
<path d="M17.0098 20.5H7.00977C4.00977 20.5 2.00977 19 2.00977 15.5V8.5C2.00977 5 4.00977 3.5 7.00977 3.5H17.0098C20.0098 3.5 22.0098 5 22.0098 8.5V15.5C22.0098 19 20.0098 20.5 17.0098 20.5Z" stroke="#171717" stroke-width="1.5" stroke-miterlimit="10" stroke-linecap="round" stroke-linejoin="round"/>
<path d="M12.0098 15C13.6666 15 15.0098 13.6569 15.0098 12C15.0098 10.3431 13.6666 9 12.0098 9C10.3529 9 9.00977 10.3431 9.00977 12C9.00977 13.6569 10.3529 15 12.0098 15Z" stroke="#171717" stroke-width="1.5" stroke-miterlimit="10" stroke-linecap="round" stroke-linejoin="round"/>
<path d="M5.50977 9.5V14.5" stroke="#171717" stroke-width="1.5" stroke-miterlimit="10" stroke-linecap="round" stroke-linejoin="round"/>
<path d="M18.5098 9.5V14.5" stroke="#171717" stroke-width="1.5" stroke-miterlimit="10" stroke-linecap="round" stroke-linejoin="round"/>
</svg>
