<svg width="24" height="24" viewBox="0 0 24 24" fill="none" xmlns="http://www.w3.org/2000/svg">
<path d="M12.0039 14.5C13.3846 14.5 14.5039 13.3807 14.5039 12C14.5039 10.6193 13.3846 9.5 12.0039 9.5C10.6232 9.5 9.50391 10.6193 9.50391 12C9.50391 13.3807 10.6232 14.5 12.0039 14.5Z" stroke="#171717" stroke-width="1.5" stroke-miterlimit="10" stroke-linecap="round" stroke-linejoin="round"/>
<path d="M18.5039 9.5V14.5" stroke="#171717" stroke-width="1.5" stroke-miterlimit="10" stroke-linecap="round" stroke-linejoin="round"/>
<path d="M5.00391 22C7.21305 22 9.00391 20.2091 9.00391 18C9.00391 15.7909 7.21305 14 5.00391 14C2.79477 14 1.00391 15.7909 1.00391 18C1.00391 20.2091 2.79477 22 5.00391 22Z" stroke="#171717" stroke-width="1.5" stroke-miterlimit="10" stroke-linecap="round" stroke-linejoin="round"/>
<path d="M5.25391 16.75V17.68C5.25391 18.03 5.07392 18.36 4.76392 18.54L4.00391 19" stroke="#171717" stroke-width="1.5" stroke-miterlimit="10" stroke-linecap="round" stroke-linejoin="round"/>
<path d="M2.00391 15.2V9C2.00391 5.5 4.00391 4 7.00391 4H17.0039C20.0039 4 22.0039 5.5 22.0039 9V15C22.0039 18.5 20.0039 20 17.0039 20H8.50391" stroke="#171717" stroke-width="1.5" stroke-miterlimit="10" stroke-linecap="round" stroke-linejoin="round"/>
</svg>
