<svg width="25" height="24" viewBox="0 0 25 24" fill="none" xmlns="http://www.w3.org/2000/svg">
<path d="M2.05029 15.2V9C2.05029 5.5 4.05029 4 7.05029 4H17.0503C20.0503 4 22.0503 5.5 22.0503 9V15C22.0503 18.5 20.0503 20 17.0503 20H8.55029" stroke="#171717" stroke-width="1.5" stroke-miterlimit="10" stroke-linecap="round" stroke-linejoin="round"/>
<path d="M12.0503 14.5C13.431 14.5 14.5503 13.3807 14.5503 12C14.5503 10.6193 13.431 9.5 12.0503 9.5C10.6696 9.5 9.55029 10.6193 9.55029 12C9.55029 13.3807 10.6696 14.5 12.0503 14.5Z" stroke="#171717" stroke-width="1.5" stroke-miterlimit="10" stroke-linecap="round" stroke-linejoin="round"/>
<path d="M18.5503 9.5V14.5" stroke="#171717" stroke-width="1.5" stroke-miterlimit="10" stroke-linecap="round" stroke-linejoin="round"/>
<path d="M9.05029 18C9.05029 18.75 8.84028 19.46 8.47028 20.06C7.78028 21.22 6.51029 22 5.05029 22C3.59029 22 2.32031 21.22 1.63031 20.06C1.26031 19.46 1.05029 18.75 1.05029 18C1.05029 15.79 2.84029 14 5.05029 14C7.26029 14 9.05029 15.79 9.05029 18Z" stroke="#171717" stroke-width="1.5" stroke-miterlimit="10" stroke-linecap="round" stroke-linejoin="round"/>
<path d="M7.80029 15.25L2.30029 20.75" stroke="#171717" stroke-width="1.5" stroke-miterlimit="10" stroke-linecap="round" stroke-linejoin="round"/>
</svg>
