<svg width="25" height="24" viewBox="0 0 25 24" fill="none" xmlns="http://www.w3.org/2000/svg">
<path d="M12.0312 14.5C13.412 14.5 14.5312 13.3807 14.5312 12C14.5312 10.6193 13.412 9.5 12.0312 9.5C10.6505 9.5 9.53125 10.6193 9.53125 12C9.53125 13.3807 10.6505 14.5 12.0312 14.5Z" stroke="#171717" stroke-width="1.5" stroke-miterlimit="10" stroke-linecap="round" stroke-linejoin="round"/>
<path d="M18.5312 9.5V14.5" stroke="#171717" stroke-width="1.5" stroke-miterlimit="10" stroke-linecap="round" stroke-linejoin="round"/>
<path d="M9.03125 18C9.03125 18.75 8.82126 19.46 8.45126 20.06C7.76126 21.22 6.49125 22 5.03125 22C3.57125 22 2.30124 21.22 1.61124 20.06C1.24124 19.46 1.03125 18.75 1.03125 18C1.03125 15.79 2.82125 14 5.03125 14C7.24125 14 9.03125 15.79 9.03125 18Z" stroke="#171717" stroke-width="1.5" stroke-miterlimit="10" stroke-linecap="round" stroke-linejoin="round"/>
<path d="M3.47266 17.9995L4.46265 18.9895L6.59265 17.0195" stroke="#171717" stroke-width="1.5" stroke-linecap="round" stroke-linejoin="round"/>
<path d="M2.03125 15.3V9C2.03125 5.5 4.03125 4 7.03125 4H17.0312C20.0312 4 22.0312 5.5 22.0312 9V15C22.0312 18.5 20.0312 20 17.0312 20H8.53125" stroke="#171717" stroke-width="1.5" stroke-miterlimit="10" stroke-linecap="round" stroke-linejoin="round"/>
</svg>
