<svg width="25" height="24" viewBox="0 0 25 24" fill="none" xmlns="http://www.w3.org/2000/svg">
<path d="M19.3263 7.91998V13.07C19.3263 16.15 17.5663 17.47 14.9263 17.47H6.13632C5.68632 17.47 5.25632 17.43 4.85632 17.34C4.60632 17.3 4.36633 17.23 4.14633 17.15C2.64633 16.59 1.73633 15.29 1.73633 13.07V7.91998C1.73633 4.83998 3.49632 3.52002 6.13632 3.52002H14.9263C17.1663 3.52002 18.7763 4.47001 19.2063 6.64001C19.2763 7.04001 19.3263 7.44998 19.3263 7.91998Z" stroke="#171717" stroke-width="1.5" stroke-miterlimit="10" stroke-linecap="round" stroke-linejoin="round"/>
<path d="M22.3274 10.9201V16.0701C22.3274 19.1501 20.5674 20.4701 17.9274 20.4701H9.13742C8.39742 20.4701 7.72743 20.3701 7.14743 20.1501C5.95743 19.7101 5.14742 18.8001 4.85742 17.3401C5.25742 17.4301 5.68742 17.4701 6.13742 17.4701H14.9274C17.5674 17.4701 19.3274 16.1501 19.3274 13.0701V7.9201C19.3274 7.4501 19.2874 7.03014 19.2074 6.64014C21.1074 7.04014 22.3274 8.38011 22.3274 10.9201Z" stroke="#171717" stroke-width="1.5" stroke-miterlimit="10" stroke-linecap="round" stroke-linejoin="round"/>
<path d="M10.5248 13.1399C11.9828 13.1399 13.1648 11.9579 13.1648 10.4999C13.1648 9.04185 11.9828 7.85986 10.5248 7.85986C9.06675 7.85986 7.88477 9.04185 7.88477 10.4999C7.88477 11.9579 9.06675 13.1399 10.5248 13.1399Z" stroke="#171717" stroke-width="1.5" stroke-miterlimit="10" stroke-linecap="round" stroke-linejoin="round"/>
<path d="M4.80615 8.30005V12.7001" stroke="#171717" stroke-width="1.5" stroke-miterlimit="10" stroke-linecap="round" stroke-linejoin="round"/>
<path d="M16.248 8.30029V12.7003" stroke="#171717" stroke-width="1.5" stroke-miterlimit="10" stroke-linecap="round" stroke-linejoin="round"/>
</svg>
