<svg width="25" height="24" viewBox="0 0 25 24" fill="none" xmlns="http://www.w3.org/2000/svg">
<path d="M12.0155 9.32C13.2055 9.32 14.1755 8.35 14.1755 7.16C14.1755 5.97 13.2055 5 12.0155 5C10.8255 5 9.85547 5.97 9.85547 7.16C9.85547 8.35 10.8255 9.32 12.0155 9.32Z" stroke="#171717" stroke-width="1.5" stroke-linecap="round" stroke-linejoin="round"/>
<path d="M6.80551 19.0001C7.99551 19.0001 8.96551 18.0301 8.96551 16.8401C8.96551 15.6501 7.99551 14.6801 6.80551 14.6801C5.61551 14.6801 4.64551 15.6501 4.64551 16.8401C4.64551 18.0301 5.60551 19.0001 6.80551 19.0001Z" stroke="#171717" stroke-width="1.5" stroke-linecap="round" stroke-linejoin="round"/>
<path d="M17.2254 19.0001C18.4154 19.0001 19.3854 18.0301 19.3854 16.8401C19.3854 15.6501 18.4154 14.6801 17.2254 14.6801C16.0354 14.6801 15.0654 15.6501 15.0654 16.8401C15.0654 18.0301 16.0354 19.0001 17.2254 19.0001Z" stroke="#171717" stroke-width="1.5" stroke-linecap="round" stroke-linejoin="round"/>
</svg>
