<svg width="25" height="24" viewBox="0 0 25 24" fill="none" xmlns="http://www.w3.org/2000/svg">
<path d="M17.5 22H7.5C4.5 22 2.5 20.5 2.5 17V12C2.5 8.5 4.5 7 7.5 7H17.5C20.5 7 22.5 8.5 22.5 12V17C22.5 20.5 20.5 22 17.5 22Z" stroke="#171717" stroke-width="1.5" stroke-miterlimit="10" stroke-linecap="round" stroke-linejoin="round"/>
<path d="M6.5 4.5H18.5" stroke="#171717" stroke-width="1.5" stroke-miterlimit="10" stroke-linecap="round" stroke-linejoin="round"/>
<path d="M9.5 2H15.5" stroke="#171717" stroke-width="1.5" stroke-miterlimit="10" stroke-linecap="round" stroke-linejoin="round"/>
<path d="M9.39001 19.1099C10.1466 19.1099 10.76 18.4965 10.76 17.7399C10.76 16.9832 10.1466 16.3699 9.39001 16.3699C8.63338 16.3699 8.02002 16.9832 8.02002 17.7399C8.02002 18.4965 8.63338 19.1099 9.39001 19.1099Z" stroke="#171717" stroke-width="1.5" stroke-linecap="round" stroke-linejoin="round"/>
<path d="M15.78 16.83V11.4799C15.78 10.3399 15.07 10.18 14.34 10.38L11.6 11.13C11.1 11.27 10.76 11.6599 10.76 12.2299V13.18V13.82V17.74" stroke="#171717" stroke-width="1.5" stroke-linecap="round" stroke-linejoin="round"/>
<path d="M14.41 18.2C15.1667 18.2 15.7801 17.5866 15.7801 16.83C15.7801 16.0733 15.1667 15.46 14.41 15.46C13.6534 15.46 13.04 16.0733 13.04 16.83C13.04 17.5866 13.6534 18.2 14.41 18.2Z" stroke="#171717" stroke-width="1.5" stroke-linecap="round" stroke-linejoin="round"/>
<path d="M10.76 13.83L15.78 12.46" stroke="#171717" stroke-width="1.5" stroke-linecap="round" stroke-linejoin="round"/>
</svg>
