<svg width="25" height="24" viewBox="0 0 25 24" fill="none" xmlns="http://www.w3.org/2000/svg">
<path d="M22.5 15V9C22.5 4 20.5 2 15.5 2H9.5C4.5 2 2.5 4 2.5 9V15C2.5 20 4.5 22 9.5 22H15.5C20.5 22 22.5 20 22.5 15Z" stroke="#171717" stroke-width="1.5" stroke-linecap="round" stroke-linejoin="round"/>
<path d="M8.91998 17.11C9.78707 17.11 10.49 16.4071 10.49 15.54C10.49 14.6729 9.78707 13.97 8.91998 13.97C8.0529 13.97 7.34998 14.6729 7.34998 15.54C7.34998 16.4071 8.0529 17.11 8.91998 17.11Z" stroke="#171717" stroke-width="1.5" stroke-linecap="round" stroke-linejoin="round"/>
<path d="M16.25 14.49V8.34997C16.25 7.03997 15.43 6.86002 14.6 7.09002L11.46 7.95001C10.89 8.11001 10.5 8.56002 10.5 9.21002V10.31V11.05V15.55" stroke="#171717" stroke-width="1.5" stroke-linecap="round" stroke-linejoin="round"/>
<path d="M14.68 16.0599C15.5471 16.0599 16.25 15.357 16.25 14.4899C16.25 13.6228 15.5471 12.9199 14.68 12.9199C13.8129 12.9199 13.11 13.6228 13.11 14.4899C13.11 15.357 13.8129 16.0599 14.68 16.0599Z" stroke="#171717" stroke-width="1.5" stroke-linecap="round" stroke-linejoin="round"/>
<path d="M10.49 11.04L16.25 9.46997" stroke="#171717" stroke-width="1.5" stroke-linecap="round" stroke-linejoin="round"/>
</svg>
