<svg width="25" height="24" viewBox="0 0 25 24" fill="none" xmlns="http://www.w3.org/2000/svg">
<path d="M22.5 13V17C22.5 20.5 20.5 22 17.5 22H7.5C4.5 22 2.5 20.5 2.5 17V13C2.5 10.35 3.65 8.85003 5.5 8.28003C6.1 8.09003 6.77 8 7.5 8H17.5C18.23 8 18.9 8.09003 19.5 8.28003C21.35 8.85003 22.5 10.35 22.5 13Z" stroke="#171717" stroke-width="1.5" stroke-miterlimit="10" stroke-linecap="round" stroke-linejoin="round"/>
<path d="M19.5 7V8.28003C18.9 8.09003 18.23 8 17.5 8H7.5C6.77 8 6.1 8.09003 5.5 8.28003V7C5.5 5.9 6.4 5 7.5 5H17.5C18.6 5 19.5 5.9 19.5 7Z" stroke="#171717" stroke-width="1.5" stroke-miterlimit="10" stroke-linecap="round" stroke-linejoin="round"/>
<path d="M16.5 3.51001V5H8.5V3.51001C8.5 2.68001 9.18001 2 10.01 2H14.99C15.82 2 16.5 2.68001 16.5 3.51001Z" stroke="#171717" stroke-width="1.5" stroke-miterlimit="10" stroke-linecap="round" stroke-linejoin="round"/>
<path d="M9.57001 19.4501C10.299 19.4501 10.89 18.8591 10.89 18.1301C10.89 17.4011 10.299 16.8101 9.57001 16.8101C8.84099 16.8101 8.25 17.4011 8.25 18.1301C8.25 18.8591 8.84099 19.4501 9.57001 19.4501Z" stroke="#171717" stroke-width="1.5" stroke-linecap="round" stroke-linejoin="round"/>
<path d="M15.75 17.2501V12.0801C15.75 10.9801 15.06 10.8201 14.36 11.0201L11.71 11.7401C11.23 11.8701 10.9 12.2501 10.9 12.8001V13.7201V14.3401V18.1301" stroke="#171717" stroke-width="1.5" stroke-linecap="round" stroke-linejoin="round"/>
<path d="M14.43 18.5702C15.159 18.5702 15.75 17.9792 15.75 17.2502C15.75 16.5212 15.159 15.9302 14.43 15.9302C13.701 15.9302 13.11 16.5212 13.11 17.2502C13.11 17.9792 13.701 18.5702 14.43 18.5702Z" stroke="#171717" stroke-width="1.5" stroke-linecap="round" stroke-linejoin="round"/>
<path d="M10.9 14.3502L15.75 13.0303" stroke="#171717" stroke-width="1.5" stroke-linecap="round" stroke-linejoin="round"/>
</svg>
