<svg width="25" height="24" viewBox="0 0 25 24" fill="none" xmlns="http://www.w3.org/2000/svg">
<path d="M6.78003 22C8.50316 22 9.90003 20.6031 9.90003 18.88C9.90003 17.1569 8.50316 15.76 6.78003 15.76C5.05691 15.76 3.66003 17.1569 3.66003 18.88C3.66003 20.6031 5.05691 22 6.78003 22Z" stroke="#171717" stroke-width="1.5" stroke-linecap="round" stroke-linejoin="round"/>
<path d="M21.34 16.8001V4.60009C21.34 2.00009 19.71 1.64009 18.06 2.09009L11.82 3.79009C10.68 4.10009 9.90002 5.00009 9.90002 6.30009V8.47009V9.93009V18.8701" stroke="#171717" stroke-width="1.5" stroke-linecap="round" stroke-linejoin="round"/>
<path d="M18.22 19.9199C19.9431 19.9199 21.34 18.5231 21.34 16.7999C21.34 15.0768 19.9431 13.6799 18.22 13.6799C16.4968 13.6799 15.1 15.0768 15.1 16.7999C15.1 18.5231 16.4968 19.9199 18.22 19.9199Z" stroke="#171717" stroke-width="1.5" stroke-linecap="round" stroke-linejoin="round"/>
<path d="M9.90002 9.5199L21.34 6.3999" stroke="#171717" stroke-width="1.5" stroke-linecap="round" stroke-linejoin="round"/>
</svg>
