<svg width="25" height="24" viewBox="0 0 25 24" fill="none" xmlns="http://www.w3.org/2000/svg">
<path d="M12.85 21H9.14999C4.39999 21 2.5 19.1 2.5 14.35V8.65002C2.5 3.90002 4.39999 2 9.14999 2H14.85C19.6 2 21.5 3.90002 21.5 8.65002V12.35" stroke="#171717" stroke-width="1.5" stroke-linecap="round" stroke-linejoin="round"/>
<path d="M7.22002 14.42C8.02083 14.42 8.67001 13.7708 8.67001 12.97C8.67001 12.1692 8.02083 11.52 7.22002 11.52C6.4192 11.52 5.77002 12.1692 5.77002 12.97C5.77002 13.7708 6.4192 14.42 7.22002 14.42Z" stroke="#171717" stroke-width="1.5" stroke-linecap="round" stroke-linejoin="round"/>
<path d="M13.98 12V6.34001C13.98 5.13001 13.22 4.96997 12.46 5.17997L9.57001 5.96995C9.05001 6.10995 8.67999 6.52999 8.67999 7.12999V8.14V8.81999V12.97" stroke="#171717" stroke-width="1.5" stroke-linecap="round" stroke-linejoin="round"/>
<path d="M12.53 13.4501C13.3308 13.4501 13.98 12.8009 13.98 12.0001C13.98 11.1992 13.3308 10.55 12.53 10.55C11.7292 10.55 11.08 11.1992 11.08 12.0001C11.08 12.8009 11.7292 13.4501 12.53 13.4501Z" stroke="#171717" stroke-width="1.5" stroke-linecap="round" stroke-linejoin="round"/>
<path d="M8.67004 8.8299L13.98 7.37988" stroke="#171717" stroke-width="1.5" stroke-linecap="round" stroke-linejoin="round"/>
<path d="M18.44 21.2799C20.2073 21.2799 21.64 19.8472 21.64 18.0799C21.64 16.3126 20.2073 14.8799 18.44 14.8799C16.6727 14.8799 15.24 16.3126 15.24 18.0799C15.24 19.8472 16.6727 21.2799 18.44 21.2799Z" stroke="#171717" stroke-width="1.5" stroke-linecap="round" stroke-linejoin="round"/>
<path d="M22.24 21.8799L21.24 20.8799" stroke="#171717" stroke-width="1.5" stroke-linecap="round" stroke-linejoin="round"/>
</svg>
