<svg width="25" height="24" viewBox="0 0 25 24" fill="none" xmlns="http://www.w3.org/2000/svg">
<path d="M3.07996 8.66998C3.69996 6.90998 4.79997 5.37998 6.21997 4.22998" stroke="#171717" stroke-width="1.5" stroke-linecap="round" stroke-linejoin="round"/>
<path d="M2.5 12C2.5 13.17 2.70999 14.29 3.07999 15.33" stroke="#171717" stroke-width="1.5" stroke-linecap="round" stroke-linejoin="round"/>
<path d="M9.58997 21.57C10.51 21.85 11.49 22 12.5 22C18.02 22 22.5 17.52 22.5 12C22.5 11.4 22.44 10.81 22.34 10.24" stroke="#171717" stroke-width="1.5" stroke-linecap="round" stroke-linejoin="round"/>
<path d="M6.22003 19.75C5.75003 19.37 5.30002 18.95 4.90002 18.49" stroke="#171717" stroke-width="1.5" stroke-linecap="round" stroke-linejoin="round"/>
<path d="M20.74 6.34003C18.94 3.72003 15.92 2 12.5 2C11.49 2 10.51 2.14999 9.58997 2.42999" stroke="#171717" stroke-width="1.5" stroke-linecap="round" stroke-linejoin="round"/>
<path d="M9.09 17.1102C9.96813 17.1102 10.68 16.3983 10.68 15.5202C10.68 14.6421 9.96813 13.9302 9.09 13.9302C8.21186 13.9302 7.5 14.6421 7.5 15.5202C7.5 16.3983 8.21186 17.1102 9.09 17.1102Z" stroke="#171717" stroke-width="1.5" stroke-linecap="round" stroke-linejoin="round"/>
<path d="M16.5 14.4602V8.25015C16.5 6.93015 15.67 6.74012 14.83 6.97012L11.65 7.84018C11.07 8.00018 10.67 8.45015 10.67 9.12015V10.2301V10.9701V15.5202" stroke="#171717" stroke-width="1.5" stroke-linecap="round" stroke-linejoin="round"/>
<path d="M14.9101 16.0501C15.7882 16.0501 16.5001 15.3383 16.5001 14.4601C16.5001 13.582 15.7882 12.8701 14.9101 12.8701C14.0319 12.8701 13.3201 13.582 13.3201 14.4601C13.3201 15.3383 14.0319 16.0501 14.9101 16.0501Z" stroke="#171717" stroke-width="1.5" stroke-linecap="round" stroke-linejoin="round"/>
<path d="M10.6799 10.7602L16.4999 9.17017" stroke="#171717" stroke-width="1.5" stroke-linecap="round" stroke-linejoin="round"/>
</svg>
