<svg width="25" height="24" viewBox="0 0 25 24" fill="none" xmlns="http://www.w3.org/2000/svg">
<path d="M22.5 10V9C22.5 4 20.5 2 15.5 2H9.5C4.5 2 2.5 4 2.5 9V15C2.5 20 4.5 22 9.5 22H11.5" stroke="#171717" stroke-width="1.5" stroke-linecap="round" stroke-linejoin="round"/>
<path d="M16.01 22C17.1146 22 18.01 21.1046 18.01 20C18.01 18.8954 17.1146 18 16.01 18C14.9054 18 14.01 18.8954 14.01 20C14.01 21.1046 14.9054 22 16.01 22Z" stroke="#171717" stroke-width="1.5" stroke-linecap="round" stroke-linejoin="round"/>
<path d="M18.01 19.9998V13.0098" stroke="#171717" stroke-width="1.5" stroke-linecap="round" stroke-linejoin="round"/>
<path d="M19.32 12.0699L21.53 12.8099C22.06 12.9899 22.5 13.5899 22.5 14.1599V14.7499C22.5 15.5099 21.91 15.9399 21.19 15.6999L18.98 14.9599C18.45 14.7799 18.01 14.1799 18.01 13.6099V13.0199C18.01 12.2499 18.6 11.8299 19.32 12.0699Z" stroke="#171717" stroke-width="1.5" stroke-linecap="round" stroke-linejoin="round"/>
</svg>
