<svg width="25" height="24" viewBox="0 0 25 24" fill="none" xmlns="http://www.w3.org/2000/svg">
<path d="M19.0156 8C20.6725 8 22.0156 6.65685 22.0156 5C22.0156 3.34315 20.6725 2 19.0156 2C17.3588 2 16.0156 3.34315 16.0156 5C16.0156 6.65685 17.3588 8 19.0156 8Z" stroke="#171717" stroke-width="1.5" stroke-linecap="round" stroke-linejoin="round"/>
<path d="M14.0356 2.2C13.3756 2.07 12.7056 2 12.0156 2C6.49563 2 2.01562 6.48 2.01562 12C2.01562 17.52 6.49563 22 12.0156 22C17.5356 22 22.0156 17.52 22.0156 12C22.0156 11.32 21.9456 10.65 21.8156 10.01" stroke="#171717" stroke-width="1.5" stroke-linecap="round" stroke-linejoin="round"/>
</svg>
