<svg width="25" height="24" viewBox="0 0 25 24" fill="none" xmlns="http://www.w3.org/2000/svg">
<path d="M19.0156 8C20.6725 8 22.0156 6.65685 22.0156 5C22.0156 3.34315 20.6725 2 19.0156 2C17.3588 2 16.0156 3.34315 16.0156 5C16.0156 6.65685 17.3588 8 19.0156 8Z" stroke="#171717" stroke-width="1.5" stroke-linecap="round" stroke-linejoin="round"/>
<path d="M14.0156 2H9.01562C4.01562 2 2.01562 4 2.01562 9V15C2.01562 20 4.01562 22 9.01562 22H15.0156C20.0156 22 22.0156 20 22.0156 15V10" stroke="#171717" stroke-width="1.5" stroke-linecap="round" stroke-linejoin="round"/>
<path d="M6.8256 14.93C6.4756 13.83 6.8856 12.46 8.0456 12.09C8.6556 11.89 9.4056 12.06 9.8356 12.65C10.2356 12.04 11.0156 11.9 11.6156 12.09C12.7756 12.46 13.1856 13.83 12.8356 14.93C12.2856 16.68 10.3656 17.59 9.8356 17.59C9.2956 17.58 7.3956 16.69 6.8256 14.93Z" stroke="#171717" stroke-width="1.5" stroke-linecap="round" stroke-linejoin="round"/>
</svg>
