<svg width="25" height="24" viewBox="0 0 25 24" fill="none" xmlns="http://www.w3.org/2000/svg">
<path d="M12.47 22C17.9928 22 22.47 17.5228 22.47 12C22.47 6.47715 17.9928 2 12.47 2C6.94712 2 2.46997 6.47715 2.46997 12C2.46997 17.5228 6.94712 22 12.47 22Z" stroke="#171717" stroke-width="1.5" stroke-linecap="round" stroke-linejoin="round"/>
<path d="M11.22 14.53V9.47005C11.22 8.99005 11.02 8.80005 10.51 8.80005H9.21C8.7 8.80005 8.5 8.99005 8.5 9.47005V14.53C8.5 15.01 8.7 15.2 9.21 15.2H10.5C11.02 15.2 11.22 15.01 11.22 14.53Z" stroke="#171717" stroke-width="1.5" stroke-linecap="round" stroke-linejoin="round"/>
<path d="M16.5 14.53V9.47005C16.5 8.99005 16.3 8.80005 15.79 8.80005H14.5C13.99 8.80005 13.79 8.99005 13.79 9.47005V14.53C13.79 15.01 13.99 15.2 14.5 15.2H15.79C16.3 15.2 16.5 15.01 16.5 14.53Z" stroke="#171717" stroke-width="1.5" stroke-linecap="round" stroke-linejoin="round"/>
</svg>
