<svg width="25" height="24" viewBox="0 0 25 24" fill="none" xmlns="http://www.w3.org/2000/svg">
<path d="M9.02148 2H15.0215C20.0215 2 22.0215 4 22.0215 9V15C22.0215 20 20.0215 22 15.0215 22H9.02148C4.02148 22 2.02148 20 2.02148 15V9C2.02148 4 4.02148 2 9.02148 2Z" stroke="#171717" stroke-width="1.5" stroke-linecap="round" stroke-linejoin="round"/>
<path d="M8.5918 15.27L15.1318 8.72998" stroke="#171717" stroke-width="1.5" stroke-linecap="round" stroke-linejoin="round"/>
<path d="M9.0015 10.37C9.68081 10.37 10.2315 9.81936 10.2315 9.14005C10.2315 8.46073 9.68081 7.91003 9.0015 7.91003C8.32219 7.91003 7.77148 8.46073 7.77148 9.14005C7.77148 9.81936 8.32219 10.37 9.0015 10.37Z" stroke="#171717" stroke-width="1.5" stroke-linecap="round" stroke-linejoin="round"/>
<path d="M15.5415 16.09C16.2208 16.09 16.7715 15.5393 16.7715 14.86C16.7715 14.1807 16.2208 13.63 15.5415 13.63C14.8622 13.63 14.3115 14.1807 14.3115 14.86C14.3115 15.5393 14.8622 16.09 15.5415 16.09Z" stroke="#171717" stroke-width="1.5" stroke-linecap="round" stroke-linejoin="round"/>
</svg>
