<svg width="25" height="24" viewBox="0 0 25 24" fill="none" xmlns="http://www.w3.org/2000/svg">
<path d="M22.5 12C22.5 13.31 22.25 14.57 21.78 15.72C21.13 15.27 20.34 15 19.5 15C18.56 15 17.69 15.33 17 15.88C16.08 16.61 15.5 17.74 15.5 19C15.5 19.75 15.71 20.46 16.08 21.06C16.12 21.13 16.17 21.2 16.23 21.27C15.08 21.74 13.82 22 12.5 22C6.98 22 2.5 17.52 2.5 12C2.5 6.48 6.98 2 12.5 2C18.02 2 22.5 6.48 22.5 12Z" stroke="#171717" stroke-width="1.5" stroke-linecap="round" stroke-linejoin="round"/>
<path d="M9.88 12.0001V10.6101C9.88 8.89008 11.1 8.18007 12.59 9.04007L13.79 9.73007L14.99 10.4201C16.48 11.2801 16.48 12.6901 14.99 13.5501L13.79 14.2401L12.59 14.9301C11.1 15.7901 9.88 15.0901 9.88 13.3601V12.0001Z" stroke="#171717" stroke-width="1.5" stroke-miterlimit="10" stroke-linecap="round" stroke-linejoin="round"/>
<path d="M23.5 19C23.5 19.75 23.29 20.46 22.92 21.06C22.71 21.42 22.44 21.74 22.13 22C21.43 22.63 20.51 23 19.5 23C18.04 23 16.77 22.22 16.08 21.06C15.71 20.46 15.5 19.75 15.5 19C15.5 17.74 16.08 16.61 17 15.88C17.69 15.33 18.56 15 19.5 15C21.71 15 23.5 16.79 23.5 19Z" stroke="#171717" stroke-width="1.5" stroke-miterlimit="10" stroke-linecap="round" stroke-linejoin="round"/>
<path d="M20.99 18.98H18.01" stroke="#171717" stroke-width="1.5" stroke-miterlimit="10" stroke-linecap="round" stroke-linejoin="round"/>
<path d="M19.5 17.52V20.51" stroke="#171717" stroke-width="1.5" stroke-miterlimit="10" stroke-linecap="round" stroke-linejoin="round"/>
</svg>
