<svg width="25" height="24" viewBox="0 0 25 24" fill="none" xmlns="http://www.w3.org/2000/svg">
<path d="M19.5701 19.0699C23.4801 15.1599 23.4801 8.82993 19.5701 4.92993" stroke="#171717" stroke-width="1.5" stroke-linecap="round" stroke-linejoin="round"/>
<path d="M5.43006 4.92993C1.52006 8.83993 1.52006 15.1699 5.43006 19.0699" stroke="#171717" stroke-width="1.5" stroke-linecap="round" stroke-linejoin="round"/>
<path d="M9.19995 21.4099C10.27 21.7799 11.3799 21.96 12.4999 21.96C13.6199 21.95 14.7299 21.7799 15.7999 21.4099" stroke="#171717" stroke-width="1.5" stroke-linecap="round" stroke-linejoin="round"/>
<path d="M9.19995 2.59009C10.27 2.22009 11.3799 2.04004 12.4999 2.04004C13.6199 2.04004 14.7299 2.22009 15.7999 2.59009" stroke="#171717" stroke-width="1.5" stroke-linecap="round" stroke-linejoin="round"/>
<path d="M9.23999 12.0001V10.3302C9.23999 8.25016 10.71 7.40014 12.51 8.44014L13.96 9.28017L15.41 10.1201C17.21 11.1601 17.21 12.8602 15.41 13.9002L13.96 14.7401L12.51 15.5802C10.71 16.6202 9.23999 15.7701 9.23999 13.6901V12.0001Z" stroke="#171717" stroke-width="1.5" stroke-miterlimit="10" stroke-linecap="round" stroke-linejoin="round"/>
</svg>
