<svg width="25" height="24" viewBox="0 0 25 24" fill="none" xmlns="http://www.w3.org/2000/svg">
<path d="M17.5 5H7.5C4.5 5 2.5 7 2.5 10V17C2.5 20 4.5 22 7.5 22H17.5C20.5 22 22.5 20 22.5 17V10C22.5 7 20.5 5 17.5 5Z" stroke="#171717" stroke-width="1.5" stroke-linecap="round" stroke-linejoin="round"/>
<path d="M7.5 2V5" stroke="#171717" stroke-width="1.5" stroke-linecap="round" stroke-linejoin="round"/>
<path d="M9 16C10.3807 16 11.5 14.8807 11.5 13.5C11.5 12.1193 10.3807 11 9 11C7.61929 11 6.5 12.1193 6.5 13.5C6.5 14.8807 7.61929 16 9 16Z" stroke="#171717" stroke-width="1.5" stroke-linecap="round" stroke-linejoin="round"/>
<path d="M15 11H19" stroke="#171717" stroke-width="1.5" stroke-linecap="round" stroke-linejoin="round"/>
<path d="M15 15H15.5" stroke="#171717" stroke-width="1.5" stroke-linecap="round" stroke-linejoin="round"/>
<path d="M18.5 15H19" stroke="#171717" stroke-width="1.5" stroke-linecap="round" stroke-linejoin="round"/>
</svg>
