<svg width="25" height="24" viewBox="0 0 25 24" fill="none" xmlns="http://www.w3.org/2000/svg">
<path d="M13.3156 8.10998L14.6356 10.75C14.8156 11.11 15.2956 11.47 15.6956 11.53L18.0856 11.93C19.6156 12.19 19.9756 13.29 18.8756 14.39L17.0156 16.25C16.7056 16.56 16.5256 17.17 16.6256 17.61L17.1556 19.92C17.5756 21.74 16.6056 22.45 14.9956 21.5L12.7556 20.17C12.3456 19.93 11.6856 19.93 11.2756 20.17L9.03558 21.5C7.42558 22.45 6.45558 21.74 6.87558 19.92L7.40561 17.61C7.50561 17.18 7.32559 16.57 7.01559 16.25L5.15561 14.39C4.05561 13.29 4.41558 12.18 5.94558 11.93L8.3356 11.53C8.7356 11.46 9.2156 11.11 9.3956 10.75L10.7156 8.10998C11.4256 6.67998 12.6056 6.67998 13.3156 8.10998Z" stroke="#171717" stroke-width="1.5" stroke-linecap="round" stroke-linejoin="round"/>
<path d="M6.01562 9V2" stroke="#171717" stroke-width="1.5" stroke-linecap="round" stroke-linejoin="round"/>
<path d="M18.0156 9V2" stroke="#171717" stroke-width="1.5" stroke-linecap="round" stroke-linejoin="round"/>
<path d="M12.0156 4V2" stroke="#171717" stroke-width="1.5" stroke-linecap="round" stroke-linejoin="round"/>
</svg>
