<svg width="25" height="24" viewBox="0 0 25 24" fill="none" xmlns="http://www.w3.org/2000/svg">
<path d="M20.5303 11.3V7.04001C20.5303 3.01001 19.5903 2 15.8103 2H8.25027C4.47027 2 3.53027 3.01001 3.53027 7.04001V18.3C3.53027 20.96 4.99028 21.59 6.76028 19.69L6.77026 19.68C7.59026 18.81 8.84026 18.88 9.55026 19.83L10.5603 21.18" stroke="#171717" stroke-width="1.5" stroke-linecap="round" stroke-linejoin="round"/>
<path d="M8.03027 7H16.0303" stroke="#171717" stroke-width="1.5" stroke-linecap="round" stroke-linejoin="round"/>
<path d="M9.03027 11H15.0303" stroke="#171717" stroke-width="1.5" stroke-linecap="round" stroke-linejoin="round"/>
<path d="M18.2413 14.7703L14.7013 18.3103C14.5613 18.4503 14.4313 18.7103 14.4013 18.9003L14.2113 20.2503C14.1413 20.7403 14.4813 21.0803 14.9713 21.0103L16.3213 20.8203C16.5113 20.7903 16.7813 20.6603 16.9113 20.5203L20.4513 16.9803C21.0613 16.3703 21.3513 15.6603 20.4513 14.7603C19.5613 13.8703 18.8513 14.1603 18.2413 14.7703Z" stroke="#171717" stroke-width="1.5" stroke-miterlimit="10" stroke-linecap="round" stroke-linejoin="round"/>
<path d="M17.7295 15.2803C18.0295 16.3603 18.8695 17.2003 19.9495 17.5003" stroke="#171717" stroke-width="1.5" stroke-miterlimit="10" stroke-linecap="round" stroke-linejoin="round"/>
</svg>
