<svg width="25" height="24" viewBox="0 0 25 24" fill="none" xmlns="http://www.w3.org/2000/svg">
<path d="M22.0571 6V8.42C22.0571 10 21.0571 11 19.4771 11H16.0571V4.01C16.0571 2.9 16.9671 2 18.0771 2C19.1671 2.01 20.1671 2.45 20.8871 3.17C21.6071 3.9 22.0571 4.9 22.0571 6Z" stroke="#171717" stroke-width="1.5" stroke-miterlimit="10" stroke-linecap="round" stroke-linejoin="round"/>
<path d="M2.05713 7V21C2.05713 21.83 2.9971 22.3 3.6571 21.8L5.36713 20.52C5.76713 20.22 6.32713 20.26 6.68713 20.62L8.34711 22.29C8.73711 22.68 9.37715 22.68 9.76715 22.29L11.4471 20.61C11.7971 20.26 12.3571 20.22 12.7471 20.52L14.4572 21.8C15.1172 22.29 16.0571 21.82 16.0571 21V4C16.0571 2.9 16.9571 2 18.0571 2H7.05713H6.05713C3.05713 2 2.05713 3.79 2.05713 6V7Z" stroke="#171717" stroke-width="1.5" stroke-miterlimit="10" stroke-linecap="round" stroke-linejoin="round"/>
</svg>
