<svg width="25" height="24" viewBox="0 0 25 24" fill="none" xmlns="http://www.w3.org/2000/svg">
<path d="M20.0554 7.04V16.96C20.0554 18.48 19.9154 19.56 19.5554 20.33C19.5554 20.34 19.5454 20.36 19.5354 20.37C19.3154 20.65 19.0254 20.79 18.6854 20.79C18.1554 20.79 17.5154 20.44 16.8254 19.7C16.0054 18.82 14.7454 18.89 14.0254 19.85L13.0154 21.19C12.6154 21.73 12.0854 22 11.5554 22C11.0254 22 10.4954 21.73 10.0954 21.19L9.07544 19.84C8.36544 18.89 7.11541 18.82 6.29541 19.69L6.2854 19.7C5.1554 20.91 4.15544 21.09 3.57544 20.37C3.56544 20.36 3.55542 20.34 3.55542 20.33C3.19542 19.56 3.05542 18.48 3.05542 16.96V7.04C3.05542 5.52 3.19542 4.44 3.55542 3.67C3.55542 3.66 3.55544 3.65 3.57544 3.64C4.14544 2.91 5.1554 3.09 6.2854 4.3L6.29541 4.31C7.11541 5.18 8.36544 5.11 9.07544 4.16L10.0954 2.81C10.4954 2.27 11.0254 2 11.5554 2C12.0854 2 12.6154 2.27 13.0154 2.81L14.0254 4.15C14.7454 5.11 16.0054 5.18 16.8254 4.3C17.5154 3.56 18.1554 3.21 18.6854 3.21C19.0254 3.21 19.3154 3.36 19.5354 3.64C19.5554 3.65 19.5554 3.66 19.5554 3.67C19.9154 4.44 20.0554 5.52 20.0554 7.04Z" stroke="#171717" stroke-width="1.5" stroke-linecap="round" stroke-linejoin="round"/>
<path d="M8.05542 10.25H16.0554" stroke="#171717" stroke-width="1.5" stroke-linecap="round" stroke-linejoin="round"/>
<path d="M8.05542 13.75H14.0554" stroke="#171717" stroke-width="1.5" stroke-linecap="round" stroke-linejoin="round"/>
</svg>
