<svg width="24" height="24" viewBox="0 0 24 24" fill="none" xmlns="http://www.w3.org/2000/svg">
<path d="M22.0049 6V8.42C22.0049 10 21.0049 11 19.4249 11H16.0049V4.01C16.0049 2.9 16.9149 2 18.0249 2C19.1149 2.01 20.1149 2.45 20.8349 3.17C21.5549 3.9 22.0049 4.9 22.0049 6Z" stroke="#171717" stroke-width="1.5" stroke-miterlimit="10" stroke-linecap="round" stroke-linejoin="round"/>
<path d="M2.00488 7V21C2.00488 21.83 2.94486 22.3 3.60486 21.8L5.31488 20.52C5.71488 20.22 6.27489 20.26 6.63489 20.62L8.29486 22.29C8.68486 22.68 9.3249 22.68 9.7149 22.29L11.3949 20.61C11.7449 20.26 12.3049 20.22 12.6949 20.52L14.4049 21.8C15.0649 22.29 16.0049 21.82 16.0049 21V4C16.0049 2.9 16.9049 2 18.0049 2H7.00488H6.00488C3.00488 2 2.00488 3.79 2.00488 6V7Z" stroke="#171717" stroke-width="1.5" stroke-miterlimit="10" stroke-linecap="round" stroke-linejoin="round"/>
<path d="M6.00488 9H12.0049" stroke="#171717" stroke-width="1.5" stroke-linecap="round" stroke-linejoin="round"/>
<path d="M6.75488 13H11.2549" stroke="#171717" stroke-width="1.5" stroke-linecap="round" stroke-linejoin="round"/>
</svg>
