<svg width="25" height="24" viewBox="0 0 25 24" fill="none" xmlns="http://www.w3.org/2000/svg">
<path d="M9.01562 22H15.0156C20.0156 22 22.0156 20 22.0156 15V9C22.0156 4 20.0156 2 15.0156 2H9.01562C4.01562 2 2.01562 4 2.01562 9V15C2.01562 20 4.01562 22 9.01562 22Z" stroke="#171717" stroke-width="1.5" stroke-linecap="round" stroke-linejoin="round"/>
<path d="M8.91562 16.53C9.39562 16.01 10.1356 16.05 10.5556 16.62L11.1556 17.42C11.6256 18.05 12.4056 18.05 12.8756 17.42L13.4656 16.63C13.8856 16.07 14.6256 16.03 15.1056 16.54C16.1556 17.66 17.0056 17.29 17.0056 15.72V9.09C17.0056 6.72 16.4456 6.13 14.2256 6.13H9.78561C7.56561 6.13 7.00562 6.72 7.00562 9.09V15.72C7.01562 17.27 7.87562 17.64 8.91562 16.53Z" stroke="#171717" stroke-width="1.5" stroke-linecap="round" stroke-linejoin="round"/>
</svg>
