<svg width="25" height="24" viewBox="0 0 25 24" fill="none" xmlns="http://www.w3.org/2000/svg">
<path d="M6.77517 19.7C7.59517 18.82 8.84517 18.89 9.56517 19.85L10.5752 21.2C11.3852 22.27 12.6952 22.27 13.5052 21.2L14.5152 19.85C15.2352 18.89 16.4852 18.82 17.3052 19.7C19.0852 21.6 20.5352 20.97 20.5352 18.31V7.04C20.5452 3.01 19.6052 2 15.8252 2H8.26517C4.48517 2 3.54517 3.01 3.54517 7.04V18.3C3.54517 20.97 5.00517 21.59 6.77517 19.7Z" stroke="#171717" stroke-width="1.5" stroke-linecap="round" stroke-linejoin="round"/>
<path d="M9.04517 13L15.0452 7" stroke="#171717" stroke-width="1.5" stroke-linecap="round" stroke-linejoin="round"/>
<path d="M15.0397 13H15.0487" stroke="#171717" stroke-width="1.5" stroke-linecap="round" stroke-linejoin="round"/>
<path d="M9.03967 7.5H9.04866" stroke="#171717" stroke-width="1.5" stroke-linecap="round" stroke-linejoin="round"/>
</svg>
