<svg width="25" height="24" viewBox="0 0 25 24" fill="none" xmlns="http://www.w3.org/2000/svg">
<path d="M20.5352 11.3V7.04001C20.5352 3.01001 19.5952 2 15.8152 2H8.25516C4.47516 2 3.53516 3.01001 3.53516 7.04001V18.3C3.53516 20.96 4.99517 21.59 6.76517 19.69L6.77515 19.68C7.59515 18.81 8.84515 18.88 9.55515 19.83L10.5652 21.18" stroke="#171717" stroke-width="1.5" stroke-linecap="round" stroke-linejoin="round"/>
<path d="M18.2352 21.4C20.0025 21.4 21.4352 19.9673 21.4352 18.2C21.4352 16.4327 20.0025 15 18.2352 15C16.4679 15 15.0352 16.4327 15.0352 18.2C15.0352 19.9673 16.4679 21.4 18.2352 21.4Z" stroke="#171717" stroke-width="1.5" stroke-linecap="round" stroke-linejoin="round"/>
<path d="M22.0352 22L21.0352 21" stroke="#171717" stroke-width="1.5" stroke-linecap="round" stroke-linejoin="round"/>
<path d="M8.03516 7H16.0352" stroke="#171717" stroke-width="1.5" stroke-linecap="round" stroke-linejoin="round"/>
<path d="M9.03516 11H15.0352" stroke="#171717" stroke-width="1.5" stroke-linecap="round" stroke-linejoin="round"/>
</svg>
