<svg width="24" height="24" viewBox="0 0 24 24" fill="none" xmlns="http://www.w3.org/2000/svg">
<path d="M22.0078 6V8.42C22.0078 10 21.0078 11 19.4278 11H16.0078V4.01C16.0078 2.9 16.9178 2 18.0278 2C19.1178 2.01 20.1178 2.45 20.8378 3.17C21.5578 3.9 22.0078 4.9 22.0078 6Z" stroke="#171717" stroke-width="1.5" stroke-miterlimit="10" stroke-linecap="round" stroke-linejoin="round"/>
<path d="M2.00781 7V21C2.00781 21.83 2.94782 22.3 3.60782 21.8L5.31781 20.52C5.71781 20.22 6.27782 20.26 6.63782 20.62L8.29781 22.29C8.68781 22.68 9.32782 22.68 9.71782 22.29L11.3978 20.61C11.7478 20.26 12.3078 20.22 12.6978 20.52L14.4078 21.8C15.0678 22.29 16.0078 21.82 16.0078 21V4C16.0078 2.9 16.9078 2 18.0078 2H7.00781H6.00781C3.00781 2 2.00781 3.79 2.00781 6V7Z" stroke="#171717" stroke-width="1.5" stroke-miterlimit="10" stroke-linecap="round" stroke-linejoin="round"/>
<path d="M6.25781 10H11.7578" stroke="#171717" stroke-width="1.5" stroke-linecap="round" stroke-linejoin="round"/>
<path d="M9.00781 12.75V7.25" stroke="#171717" stroke-width="1.5" stroke-linecap="round" stroke-linejoin="round"/>
</svg>
