<svg width="24" height="24" viewBox="0 0 24 24" fill="none" xmlns="http://www.w3.org/2000/svg">
<path d="M11.7498 17.75H17.6698C17.5798 17.83 17.4898 17.9 17.3998 17.98L13.1298 21.18C11.7198 22.23 9.41977 22.23 7.99977 21.18L3.71977 17.98C2.77977 17.28 2.00977 15.73 2.00977 14.56V7.14998C2.00977 5.92998 2.93977 4.57998 4.07977 4.14998L9.05977 2.27999C9.87977 1.96999 11.2398 1.96999 12.0598 2.27999L17.0298 4.14998C17.9798 4.50998 18.7898 5.50999 19.0398 6.52999H11.7398C11.5198 6.52999 11.3198 6.54 11.1298 6.54C9.27976 6.65 8.79976 7.31998 8.79976 9.42998V14.86C8.80976 17.16 9.39977 17.75 11.7498 17.75Z" stroke="#171717" stroke-width="1.5" stroke-linecap="round" stroke-linejoin="round"/>
<path d="M8.80957 11.22H22.0096" stroke="#171717" stroke-width="1.5" stroke-miterlimit="10" stroke-linecap="round" stroke-linejoin="round"/>
<path d="M22.0096 9.42001V14.97C21.9896 17.19 21.3796 17.74 19.0696 17.74H11.7496C9.39957 17.74 8.80957 17.15 8.80957 14.84V9.41C8.80957 7.31 9.28957 6.63999 11.1396 6.51999C11.3296 6.51999 11.5296 6.51001 11.7496 6.51001H19.0696C21.4196 6.52001 22.0096 7.10001 22.0096 9.42001Z" stroke="#171717" stroke-width="1.5" stroke-linecap="round" stroke-linejoin="round"/>
<path d="M11.3296 15.26H12.6596" stroke="#171717" stroke-width="1.5" stroke-miterlimit="10" stroke-linecap="round" stroke-linejoin="round"/>
<path d="M14.7598 15.26H18.0298" stroke="#171717" stroke-width="1.5" stroke-miterlimit="10" stroke-linecap="round" stroke-linejoin="round"/>
</svg>
