<svg width="24" height="24" viewBox="0 0 24 24" fill="none" xmlns="http://www.w3.org/2000/svg">
<path d="M12.141 7.62H6.87099C5.01099 7.62 4.59099 8.55001 4.36099 9.70001L3.51099 13.75H15.511L14.661 9.70001C14.411 8.55001 14.001 7.62 12.141 7.62Z" stroke="#171717" stroke-width="1.5" stroke-linecap="round" stroke-linejoin="round"/>
<path d="M16.9911 20.36C17.0711 21.24 16.3711 22 15.4711 22H14.0611C13.2511 22 13.1411 21.65 12.9911 21.23L12.8411 20.78C12.6311 20.17 12.4911 19.75 11.4111 19.75H7.57111C6.49111 19.75 6.3311 20.22 6.1411 20.78L5.9911 21.23C5.8511 21.66 5.7411 22 4.9211 22H3.51109C2.61109 22 1.9011 21.24 1.9911 20.36L2.4111 15.79C2.5211 14.66 2.7311 13.74 4.7011 13.74H14.2711C16.2411 13.74 16.4511 14.66 16.5611 15.79L16.9911 20.36Z" stroke="#171717" stroke-width="1.5" stroke-linecap="round" stroke-linejoin="round"/>
<path d="M3.50098 11.5H2.75098" stroke="#171717" stroke-width="1.5" stroke-linecap="round" stroke-linejoin="round"/>
<path d="M16.251 11.5H15.501" stroke="#171717" stroke-width="1.5" stroke-linecap="round" stroke-linejoin="round"/>
<path d="M5.00098 16.75H7.25098" stroke="#171717" stroke-width="1.5" stroke-linecap="round" stroke-linejoin="round"/>
<path d="M11.751 16.75H14.001" stroke="#171717" stroke-width="1.5" stroke-linecap="round" stroke-linejoin="round"/>
<path d="M18.7111 8.73998C18.9911 8.08998 18.8911 7.20999 18.3711 6.43999C17.8611 5.66999 17.0811 5.23999 16.3711 5.24999" stroke="#171717" stroke-width="1.5" stroke-linecap="round" stroke-linejoin="round"/>
<path d="M21.8209 9.72998C22.2409 8.21998 21.9409 6.37002 20.8709 4.77002C19.8009 3.17002 18.2009 2.19 16.6409 2" stroke="#171717" stroke-width="1.5" stroke-linecap="round" stroke-linejoin="round"/>
</svg>
