<svg width="25" height="24" viewBox="0 0 25 24" fill="none" xmlns="http://www.w3.org/2000/svg">
<path d="M14.0156 6.19995V10C11.2256 10.05 10.0656 11.21 10.0156 14H6.21563C3.21563 14 2.01562 12.8 2.01562 9.80005V6.19995C2.01562 3.19995 3.21563 2 6.21563 2H9.81562C12.8156 2 14.0156 3.19995 14.0156 6.19995Z" stroke="#171717" stroke-width="1.5" stroke-linecap="round" stroke-linejoin="round"/>
<path d="M6.97564 5.86996C6.44564 5.50996 5.74564 5.50998 5.21564 5.88998" stroke="#171717" stroke-width="1.5" stroke-miterlimit="10" stroke-linecap="round" stroke-linejoin="round"/>
<path d="M10.9756 5.86996C10.4456 5.50996 9.74564 5.50998 9.21564 5.88998" stroke="#171717" stroke-width="1.5" stroke-miterlimit="10" stroke-linecap="round" stroke-linejoin="round"/>
<path d="M8.17561 11.42H5.85561C5.55561 11.42 5.31561 11.18 5.31561 10.88C5.31561 9.39 6.52561 8.18005 8.01561 8.18005C8.65561 8.18005 9.24561 8.40002 9.70561 8.77002" stroke="#171717" stroke-width="1.5" stroke-miterlimit="10" stroke-linecap="round" stroke-linejoin="round"/>
<path d="M22.0156 14.2V17.8C22.0156 20.8 20.8156 22 17.8156 22H14.2156C11.2156 22 10.0156 20.8 10.0156 17.8V14C10.0656 11.21 11.2256 10.05 14.0156 10H17.8156C20.8156 10 22.0156 11.2 22.0156 14.2Z" stroke="#171717" stroke-width="1.5" stroke-linecap="round" stroke-linejoin="round"/>
<path d="M14.9756 13.62C14.4456 13.98 13.7456 13.98 13.2156 13.6" stroke="#171717" stroke-width="1.5" stroke-miterlimit="10" stroke-linecap="round" stroke-linejoin="round"/>
<path d="M18.9756 13.62C18.4456 13.98 17.7456 13.98 17.2156 13.6" stroke="#171717" stroke-width="1.5" stroke-miterlimit="10" stroke-linecap="round" stroke-linejoin="round"/>
<path d="M13.8556 16.1801H18.1756C18.4756 16.1801 18.7156 16.42 18.7156 16.72C18.7156 18.21 17.5056 19.42 16.0156 19.42C14.5256 19.42 13.3156 18.21 13.3156 16.72C13.3156 16.42 13.5556 16.1801 13.8556 16.1801Z" stroke="#171717" stroke-width="1.5" stroke-miterlimit="10" stroke-linecap="round" stroke-linejoin="round"/>
</svg>
