<svg width="25" height="24" viewBox="0 0 25 24" fill="none" xmlns="http://www.w3.org/2000/svg">
<path d="M5.29566 18.65L5.86566 16.18C5.99566 15.6 5.76566 14.79 5.34566 14.37L2.86566 11.89C1.40566 10.43 1.87566 8.95001 3.91566 8.61001L7.10566 8.08001C7.63566 7.99001 8.27566 7.52002 8.51566 7.03001L10.2757 3.51001C11.2257 1.60001 12.7857 1.60001 13.7457 3.51001L15.5057 7.03001C15.6157 7.26001 15.8257 7.48001 16.0557 7.67001" stroke="#171717" stroke-width="1.5" stroke-linecap="round" stroke-linejoin="round"/>
<path d="M20.1156 8.60999C22.1556 8.94999 22.6356 10.43 21.1656 11.89L18.6856 14.37C18.2656 14.79 18.0356 15.6 18.1656 16.18L18.8756 19.25C19.4356 21.68 18.1456 22.62 15.9956 21.35L13.0056 19.58C12.4656 19.26 11.5756 19.26 11.0256 19.58L8.03564 21.35" stroke="#171717" stroke-width="1.5" stroke-linecap="round" stroke-linejoin="round"/>
<path d="M22.0156 2L2.01562 22" stroke="#171717" stroke-width="1.5" stroke-linecap="round" stroke-linejoin="round"/>
</svg>
