<svg width="24" height="24" viewBox="0 0 24 24" fill="none" xmlns="http://www.w3.org/2000/svg">
<path d="M9.00684 22H15.0068C20.0068 22 22.0068 20 22.0068 15V9C22.0068 4 20.0068 2 15.0068 2H9.00684C4.00684 2 2.00684 4 2.00684 9V15C2.00684 20 4.00684 22 9.00684 22Z" stroke="#171717" stroke-width="1.5" stroke-linecap="round" stroke-linejoin="round"/>
<path d="M14.3579 10.9101C14.2579 11.6201 13.8379 12.2201 13.2579 12.5801V14.5601C13.2579 15.2501 12.6979 15.8101 12.0079 15.8101C11.3179 15.8101 10.7579 15.2501 10.7579 14.5601V12.5801C10.1779 12.2201 9.75793 11.6201 9.65793 10.9101C9.63793 10.8001 9.62793 10.6801 9.62793 10.5601C9.62793 9.04012 11.0679 7.86012 12.6479 8.28012C13.4479 8.49012 14.0979 9.14012 14.3079 9.94012C14.3979 10.2701 14.4079 10.6001 14.3579 10.9101Z" stroke="#171717" stroke-width="1.5" stroke-miterlimit="10"/>
<path d="M22.0084 10.9102H14.3584" stroke="#171717" stroke-width="1.5" stroke-miterlimit="10"/>
<path d="M9.65683 10.91H2.00684" stroke="#171717" stroke-width="1.5" stroke-miterlimit="10"/>
</svg>
