<svg width="24" height="24" viewBox="0 0 24 24" fill="none" xmlns="http://www.w3.org/2000/svg">
<path d="M9.00439 22H15.0044C20.0044 22 22.0044 20 22.0044 15V9C22.0044 4 20.0044 2 15.0044 2H9.00439C4.00439 2 2.00439 4 2.00439 9V15C2.00439 20 4.00439 22 9.00439 22Z" stroke="#171717" stroke-width="1.5" stroke-linecap="round" stroke-linejoin="round"/>
<path d="M8.00439 19H16.0044C18.0044 19 19.0044 18 19.0044 16V8C19.0044 6 18.0044 5 16.0044 5H8.00439C6.00439 5 5.00439 6 5.00439 8V16C5.00439 18 6.00439 19 8.00439 19Z" stroke="#171717" stroke-width="1.5" stroke-linecap="round" stroke-linejoin="round"/>
<path d="M5.00439 9.5H7.48439C8.86439 9.5 9.98439 10.62 9.98439 12C9.98439 13.38 8.86439 14.5 7.48439 14.5H5.00439" stroke="#171717" stroke-width="1.5" stroke-linecap="round" stroke-linejoin="round"/>
<path d="M19.0044 9.98999H16.0044" stroke="#171717" stroke-width="1.5" stroke-linecap="round" stroke-linejoin="round"/>
<path d="M19.0044 14H16.0044" stroke="#171717" stroke-width="1.5" stroke-linecap="round" stroke-linejoin="round"/>
<path d="M7.20459 12H7.30459" stroke="#171717" stroke-width="1.5" stroke-miterlimit="10" stroke-linecap="round" stroke-linejoin="round"/>
</svg>
