<svg width="25" height="24" viewBox="0 0 25 24" fill="none" xmlns="http://www.w3.org/2000/svg">
<path d="M4.42233 15.5264L8.95233 20.0564C10.8123 21.9164 13.8323 21.9164 15.7023 20.0564L20.0923 15.6664C21.9523 13.8064 21.9523 10.7864 20.0923 8.91637L15.5523 4.39637C14.6023 3.44637 13.2923 2.93637 11.9523 3.00637L6.95233 3.24637C4.95233 3.33637 3.36233 4.92637 3.26233 6.91637L3.02233 11.9164C2.96233 13.2664 3.47233 14.5764 4.42233 15.5264Z" stroke="#171717" stroke-width="1.5" stroke-linecap="round" stroke-linejoin="round"/>
<path d="M9.75244 12.2263C11.1332 12.2263 12.2524 11.107 12.2524 9.72632C12.2524 8.34561 11.1332 7.22632 9.75244 7.22632C8.37173 7.22632 7.25244 8.34561 7.25244 9.72632C7.25244 11.107 8.37173 12.2263 9.75244 12.2263Z" stroke="#171717" stroke-width="1.5" stroke-linecap="round"/>
<path d="M13.2524 17.2263L17.2524 13.2263" stroke="#171717" stroke-width="1.5" stroke-miterlimit="10" stroke-linecap="round" stroke-linejoin="round"/>
</svg>
