<svg width="25" height="24" viewBox="0 0 25 24" fill="none" xmlns="http://www.w3.org/2000/svg">
<path d="M4.18552 15.3L8.71552 19.83C10.5755 21.69 13.5955 21.69 15.4655 19.83L19.8555 15.44C21.7155 13.58 21.7155 10.56 19.8555 8.69005L15.3155 4.17005C14.3655 3.22005 13.0555 2.71005 11.7155 2.78005L6.71552 3.02005C4.71552 3.11005 3.12552 4.70005 3.02552 6.69005L2.78552 11.69C2.72552 13.04 3.23552 14.35 4.18552 15.3Z" stroke="#171717" stroke-width="1.5" stroke-linecap="round" stroke-linejoin="round"/>
<path d="M9.51562 12C10.8963 12 12.0156 10.8807 12.0156 9.5C12.0156 8.11929 10.8963 7 9.51562 7C8.13491 7 7.01562 8.11929 7.01562 9.5C7.01562 10.8807 8.13491 12 9.51562 12Z" stroke="#171717" stroke-width="1.5" stroke-linecap="round"/>
</svg>
