<svg width="25" height="24" viewBox="0 0 25 24" fill="none" xmlns="http://www.w3.org/2000/svg">
<path d="M19.5466 12.5C19.5466 11.12 20.6666 10 22.0466 10V9C22.0466 5 21.0466 4 17.0466 4H7.04663C3.04663 4 2.04663 5 2.04663 9V9.5C3.42663 9.5 4.54663 10.62 4.54663 12C4.54663 13.38 3.42663 14.5 2.04663 14.5V15C2.04663 19 3.04663 20 7.04663 20H17.0466C21.0466 20 22.0466 19 22.0466 15C20.6666 15 19.5466 13.88 19.5466 12.5Z" stroke="#171717" stroke-width="1.5" stroke-linecap="round" stroke-linejoin="round"/>
<path d="M10.0466 4L10.0466 20" stroke="#171717" stroke-width="1.5" stroke-linecap="round" stroke-linejoin="round" stroke-dasharray="5 5"/>
</svg>
