<svg width="25" height="24" viewBox="0 0 25 24" fill="none" xmlns="http://www.w3.org/2000/svg">
<path d="M18.961 14.6925C18.961 15.9825 20.021 17.0325 21.311 17.0325C21.311 20.7825 20.371 21.7225 16.621 21.7225H7.24103C3.49103 21.7225 2.55103 20.7825 2.55103 17.0325V16.5725C3.84103 16.5725 4.90103 15.5125 4.90103 14.2225C4.90103 12.9325 3.84103 11.8725 2.55103 11.8725V11.4125C2.56103 7.66253 3.49103 6.72253 7.24103 6.72253H16.611C20.361 6.72253 21.301 7.66253 21.301 11.4125V12.3525C20.011 12.3525 18.961 13.3925 18.961 14.6925Z" stroke="#171717" stroke-width="1.5" stroke-linecap="round" stroke-linejoin="round"/>
<path d="M16.2621 6.7225H7.17212L10.1021 3.7925C12.4921 1.4025 13.6921 1.4025 16.0821 3.7925L16.6821 4.3925C16.0521 5.0225 15.9021 5.9525 16.2621 6.7225Z" stroke="#171717" stroke-width="1.5" stroke-linecap="round" stroke-linejoin="round"/>
<path d="M9.92993 6.72266L9.92993 21.7227" stroke="#171717" stroke-width="1.5" stroke-linecap="round" stroke-linejoin="round" stroke-dasharray="5 5"/>
</svg>
