<svg width="25" height="24" viewBox="0 0 25 24" fill="none" xmlns="http://www.w3.org/2000/svg">
<path d="M10.9519 19.8701H17.4219C21.1219 19.8701 22.0419 18.9501 22.0419 15.2501C20.7619 15.2501 19.7319 14.2101 19.7319 12.9401C19.7319 11.6601 20.7619 10.6201 22.0419 10.6201V9.70008C22.0419 6.00008 21.1219 5.08008 17.4219 5.08008H11.0419V11.8701" stroke="#171717" stroke-width="1.5" stroke-linecap="round" stroke-linejoin="round"/>
<path d="M11.0431 16.87V19.87H8.27313C6.79313 19.87 5.92313 18.86 4.96313 16.54L4.78313 16.09C5.99313 15.61 6.58313 14.21 6.07313 13C5.58313 11.79 4.19313 11.21 2.97313 11.71L2.80313 11.28C1.36313 7.76 1.86313 6.53 5.38313 5.08L8.02313 4L11.0431 11.32V13.87" stroke="#171717" stroke-width="1.5" stroke-linecap="round" stroke-linejoin="round"/>
<path d="M8.21175 19.8701H8.04175" stroke="#171717" stroke-width="1.5" stroke-linecap="round" stroke-linejoin="round"/>
</svg>
