<svg width="25" height="24" viewBox="0 0 25 24" fill="none" xmlns="http://www.w3.org/2000/svg">
<path d="M8.31563 16H10.7156C12.7156 16 13.5156 15.2 13.5156 13.2V10.8C13.5156 8.8 12.7156 8 10.7156 8H8.31563C6.31563 8 5.51563 8.8 5.51563 10.8V13.2C5.51563 15.2 6.31563 16 8.31563 16Z" stroke="#171717" stroke-width="1.5" stroke-linecap="round" stroke-linejoin="round"/>
<path d="M17.0156 20H7.01562C3.01562 20 2.01562 19 2.01562 15V9C2.01562 5 3.01562 4 7.01562 4H17.0156C21.0156 4 22.0156 5 22.0156 9V15C22.0156 19 21.0156 20 17.0156 20Z" stroke="#171717" stroke-width="1.5" stroke-linecap="round" stroke-linejoin="round"/>
</svg>
