<svg width="25" height="24" viewBox="0 0 25 24" fill="none" xmlns="http://www.w3.org/2000/svg">
<path d="M15.0127 2V12C15.0127 13.1 14.1127 14 13.0127 14H2.0127V7.62C2.7427 8.49 3.86272 9.03 5.10272 9C6.11272 8.98 7.0227 8.59 7.7027 7.94C8.0127 7.68 8.27272 7.34999 8.47272 6.98999C8.83272 6.37999 9.0327 5.65997 9.0127 4.90997C8.9827 3.73997 8.46271 2.71 7.65271 2H15.0127Z" stroke="#171717" stroke-width="1.5" stroke-linecap="round" stroke-linejoin="round"/>
<path d="M22.0127 14V17C22.0127 18.66 20.6727 20 19.0127 20H18.0127C18.0127 18.9 17.1127 18 16.0127 18C14.9127 18 14.0127 18.9 14.0127 20H10.0127C10.0127 18.9 9.1127 18 8.0127 18C6.9127 18 6.0127 18.9 6.0127 20H5.0127C3.3527 20 2.0127 18.66 2.0127 17V14H13.0127C14.1127 14 15.0127 13.1 15.0127 12V5H16.8527C17.5727 5 18.2327 5.39001 18.5927 6.01001L20.3027 9H19.0127C18.4627 9 18.0127 9.45 18.0127 10V13C18.0127 13.55 18.4627 14 19.0127 14H22.0127Z" stroke="#171717" stroke-width="1.5" stroke-linecap="round" stroke-linejoin="round"/>
<path d="M8.0127 22C9.11726 22 10.0127 21.1046 10.0127 20C10.0127 18.8954 9.11726 18 8.0127 18C6.90813 18 6.0127 18.8954 6.0127 20C6.0127 21.1046 6.90813 22 8.0127 22Z" stroke="#171717" stroke-width="1.5" stroke-linecap="round" stroke-linejoin="round"/>
<path d="M16.0127 22C17.1173 22 18.0127 21.1046 18.0127 20C18.0127 18.8954 17.1173 18 16.0127 18C14.9081 18 14.0127 18.8954 14.0127 20C14.0127 21.1046 14.9081 22 16.0127 22Z" stroke="#171717" stroke-width="1.5" stroke-linecap="round" stroke-linejoin="round"/>
<path d="M22.0127 12V14H19.0127C18.4627 14 18.0127 13.55 18.0127 13V10C18.0127 9.45 18.4627 9 19.0127 9H20.3027L22.0127 12Z" stroke="#171717" stroke-width="1.5" stroke-linecap="round" stroke-linejoin="round"/>
<path d="M9.0127 5C9.0127 6.2 8.48271 7.27 7.65271 8C6.94271 8.62 6.0227 9 5.0127 9C2.8027 9 1.0127 7.21 1.0127 5C1.0127 3.74 1.5927 2.61 2.5127 1.88C3.2027 1.33 4.0727 1 5.0127 1C7.2227 1 9.0127 2.79 9.0127 5Z" stroke="#171717" stroke-width="1.5" stroke-miterlimit="10" stroke-linecap="round" stroke-linejoin="round"/>
<path d="M5.2627 3.75V5.25L4.0127 6" stroke="#171717" stroke-width="1.5" stroke-miterlimit="10" stroke-linecap="round" stroke-linejoin="round"/>
</svg>
