<svg width="25" height="24" viewBox="0 0 25 24" fill="none" xmlns="http://www.w3.org/2000/svg">
<path d="M15.0117 2V12C15.0117 13.1 14.1117 14 13.0117 14H2.01172V7.62C2.74172 8.49 3.86175 9.03 5.10175 9C6.11175 8.98 7.02172 8.59 7.70172 7.94C8.01172 7.68 8.27174 7.34999 8.47174 6.98999C8.83174 6.37999 9.03172 5.65997 9.01172 4.90997C8.98172 3.73997 8.46173 2.71 7.65173 2H15.0117Z" stroke="#171717" stroke-width="1.5" stroke-linecap="round" stroke-linejoin="round"/>
<path d="M22.0117 14V17C22.0117 18.66 20.6717 20 19.0117 20H18.0117C18.0117 18.9 17.1117 18 16.0117 18C14.9117 18 14.0117 18.9 14.0117 20H10.0117C10.0117 18.9 9.11172 18 8.01172 18C6.91172 18 6.01172 18.9 6.01172 20H5.01172C3.35172 20 2.01172 18.66 2.01172 17V14H13.0117C14.1117 14 15.0117 13.1 15.0117 12V5H16.8517C17.5717 5 18.2317 5.39001 18.5917 6.01001L20.3017 9H19.0117C18.4617 9 18.0117 9.45 18.0117 10V13C18.0117 13.55 18.4617 14 19.0117 14H22.0117Z" stroke="#171717" stroke-width="1.5" stroke-linecap="round" stroke-linejoin="round"/>
<path d="M8.01172 22C9.11629 22 10.0117 21.1046 10.0117 20C10.0117 18.8954 9.11629 18 8.01172 18C6.90715 18 6.01172 18.8954 6.01172 20C6.01172 21.1046 6.90715 22 8.01172 22Z" stroke="#171717" stroke-width="1.5" stroke-linecap="round" stroke-linejoin="round"/>
<path d="M16.0117 22C17.1163 22 18.0117 21.1046 18.0117 20C18.0117 18.8954 17.1163 18 16.0117 18C14.9071 18 14.0117 18.8954 14.0117 20C14.0117 21.1046 14.9071 22 16.0117 22Z" stroke="#171717" stroke-width="1.5" stroke-linecap="round" stroke-linejoin="round"/>
<path d="M22.0117 12V14H19.0117C18.4617 14 18.0117 13.55 18.0117 13V10C18.0117 9.45 18.4617 9 19.0117 9H20.3017L22.0117 12Z" stroke="#171717" stroke-width="1.5" stroke-linecap="round" stroke-linejoin="round"/>
<path d="M9.01189 4.90999C9.03189 5.65999 8.83191 6.38001 8.47191 6.99001C8.27191 7.35001 8.01189 7.68002 7.70189 7.94002C7.02189 8.59002 6.11192 8.98002 5.10192 9.00002C3.86192 9.03002 2.74189 8.49001 2.01189 7.62001C1.87189 7.47001 1.7519 7.30002 1.6419 7.13002C1.2519 6.54002 1.03189 5.84005 1.01189 5.09005C0.98189 3.83005 1.54188 2.68001 2.44188 1.93001C3.12188 1.37001 3.98186 1.02002 4.92186 1.00002C5.97186 0.98002 6.93191 1.36002 7.65191 2.00002C8.46191 2.71002 8.98189 3.73999 9.01189 4.90999Z" stroke="#171717" stroke-width="1.5" stroke-miterlimit="10" stroke-linecap="round" stroke-linejoin="round"/>
<path d="M3.45215 5.03003L4.46216 5.98999L6.55212 3.96997" stroke="#171717" stroke-width="1.5" stroke-linecap="round" stroke-linejoin="round"/>
</svg>
