<svg width="25" height="24" viewBox="0 0 25 24" fill="none" xmlns="http://www.w3.org/2000/svg">
<path d="M15.0137 2V12C15.0137 13.1 14.1137 14 13.0137 14H2.01367V7.62C2.74367 8.49 3.8637 9.03 5.1037 9C6.1137 8.98 7.02367 8.59 7.70367 7.94C8.01367 7.68 8.27369 7.34999 8.47369 6.98999C8.83369 6.37999 9.03367 5.65997 9.01367 4.90997C8.98367 3.73997 8.46369 2.71 7.65369 2H15.0137Z" stroke="#171717" stroke-width="1.5" stroke-linecap="round" stroke-linejoin="round"/>
<path d="M22.0137 14V17C22.0137 18.66 20.6737 20 19.0137 20H18.0137C18.0137 18.9 17.1137 18 16.0137 18C14.9137 18 14.0137 18.9 14.0137 20H10.0137C10.0137 18.9 9.11367 18 8.01367 18C6.91367 18 6.01367 18.9 6.01367 20H5.01367C3.35367 20 2.01367 18.66 2.01367 17V14H13.0137C14.1137 14 15.0137 13.1 15.0137 12V5H16.8537C17.5737 5 18.2337 5.39001 18.5937 6.01001L20.3036 9H19.0137C18.4637 9 18.0137 9.45 18.0137 10V13C18.0137 13.55 18.4637 14 19.0137 14H22.0137Z" stroke="#171717" stroke-width="1.5" stroke-linecap="round" stroke-linejoin="round"/>
<path d="M8.01367 22C9.11824 22 10.0137 21.1046 10.0137 20C10.0137 18.8954 9.11824 18 8.01367 18C6.9091 18 6.01367 18.8954 6.01367 20C6.01367 21.1046 6.9091 22 8.01367 22Z" stroke="#171717" stroke-width="1.5" stroke-linecap="round" stroke-linejoin="round"/>
<path d="M16.0137 22C17.1182 22 18.0137 21.1046 18.0137 20C18.0137 18.8954 17.1182 18 16.0137 18C14.9091 18 14.0137 18.8954 14.0137 20C14.0137 21.1046 14.9091 22 16.0137 22Z" stroke="#171717" stroke-width="1.5" stroke-linecap="round" stroke-linejoin="round"/>
<path d="M22.0137 12V14H19.0137C18.4637 14 18.0137 13.55 18.0137 13V10C18.0137 9.45 18.4637 9 19.0137 9H20.3036L22.0137 12Z" stroke="#171717" stroke-width="1.5" stroke-linecap="round" stroke-linejoin="round"/>
<path d="M9.01367 5C9.01367 5.75 8.80365 6.46 8.43365 7.06C8.22365 7.42 7.95368 7.74 7.64368 8C6.94368 8.63 6.02367 9 5.01367 9C3.55367 9 2.28369 8.22 1.59369 7.06C1.22369 6.46 1.01367 5.75 1.01367 5C1.01367 3.74 1.59367 2.61 2.51367 1.88C3.20367 1.33 4.07367 1 5.01367 1C7.22367 1 9.01367 2.79 9.01367 5Z" stroke="#171717" stroke-width="1.5" stroke-miterlimit="10" stroke-linecap="round" stroke-linejoin="round"/>
<path d="M6.08362 6.03992L3.97363 3.92993" stroke="#171717" stroke-width="1.5" stroke-miterlimit="10" stroke-linecap="round" stroke-linejoin="round"/>
<path d="M6.05383 3.95996L3.94385 6.06995" stroke="#171717" stroke-width="1.5" stroke-miterlimit="10" stroke-linecap="round" stroke-linejoin="round"/>
</svg>
