<svg width="25" height="24" viewBox="0 0 25 24" fill="none" xmlns="http://www.w3.org/2000/svg">
<path d="M9.5 22H15.5C20.5 22 22.5 20 22.5 15V9C22.5 4 20.5 2 15.5 2H9.5C4.5 2 2.5 4 2.5 9V15C2.5 20 4.5 22 9.5 22Z" stroke="#171717" stroke-width="1.5" stroke-linecap="round" stroke-linejoin="round"/>
<path d="M9.59998 12V10.52C9.59998 8.60999 10.95 7.83999 12.6 8.78999L13.88 9.52999L15.16 10.27C16.81 11.22 16.81 12.78 15.16 13.73L13.88 14.47L12.6 15.21C10.95 16.16 9.59998 15.38 9.59998 13.48V12Z" stroke="#171717" stroke-width="1.5" stroke-miterlimit="10" stroke-linecap="round" stroke-linejoin="round"/>
</svg>
