<svg width="25" height="24" viewBox="0 0 25 24" fill="none" xmlns="http://www.w3.org/2000/svg">
<path d="M21.58 8.58003V15.42C21.58 16.54 20.98 17.58 20.01 18.15L14.07 21.58C13.1 22.14 11.9 22.14 10.92 21.58L4.98001 18.15C4.01001 17.59 3.41 16.55 3.41 15.42V8.58003C3.41 7.46003 4.01001 6.41999 4.98001 5.84999L10.92 2.42C11.89 1.86 13.09 1.86 14.07 2.42L20.01 5.84999C20.98 6.41999 21.58 7.45003 21.58 8.58003Z" stroke="#171717" stroke-width="1.5" stroke-linecap="round" stroke-linejoin="round"/>
<path d="M10.25 11.9999V10.7999C10.25 9.25989 11.34 8.62993 12.67 9.39993L13.71 9.9999L14.75 10.5999C16.08 11.3699 16.08 12.6299 14.75 13.3999L13.71 13.9999L12.67 14.5999C11.34 15.3699 10.25 14.7399 10.25 13.1999V11.9999Z" stroke="#171717" stroke-width="1.5" stroke-miterlimit="10" stroke-linecap="round" stroke-linejoin="round"/>
</svg>
