<svg width="25" height="24" viewBox="0 0 25 24" fill="none" xmlns="http://www.w3.org/2000/svg">
<path d="M15.5 8.37003V7.41003C15.5 4.43003 13.43 3.29003 10.91 4.87003L7.99 6.70003C7.67 6.89003 7.3 7.00003 6.93 7.00003H5.5C3.5 7.00003 2.5 8.00003 2.5 10V14C2.5 16 3.5 17 5.5 17H7.5" stroke="#171717" stroke-width="1.5" stroke-linecap="round" stroke-linejoin="round"/>
<path d="M10.91 19.13C13.43 20.71 15.5 19.56 15.5 16.59V12.95" stroke="#171717" stroke-width="1.5" stroke-linecap="round" stroke-linejoin="round"/>
<path d="M19.31 9.41992C20.21 11.5699 19.94 14.0799 18.5 15.9999" stroke="#171717" stroke-width="1.5" stroke-linecap="round" stroke-linejoin="round"/>
<path d="M21.65 7.80005C23.12 11.29 22.68 15.37 20.33 18.5" stroke="#171717" stroke-width="1.5" stroke-linecap="round" stroke-linejoin="round"/>
<path d="M22.5 2L2.5 22" stroke="#171717" stroke-width="1.5" stroke-linecap="round" stroke-linejoin="round"/>
</svg>
