<svg width="24" height="24" viewBox="0 0 24 24" fill="none" xmlns="http://www.w3.org/2000/svg">
<path d="M22.002 12V17C22.002 20 20.002 22 17.002 22H7.63196C7.94196 21.74 8.21194 21.42 8.42194 21.06C8.79194 20.46 9.00195 19.75 9.00195 19C9.00195 16.79 7.21195 15 5.00195 15C3.80195 15 2.73195 15.53 2.00195 16.36V12C2.00195 9.28 3.64196 7.38 6.19196 7.06C6.45196 7.02 6.72195 7 7.00195 7H17.002C17.262 7 17.512 7.00999 17.752 7.04999C20.332 7.34999 22.002 9.26 22.002 12Z" stroke="#171717" stroke-width="1.5" stroke-linecap="round" stroke-linejoin="round"/>
<path d="M17.7534 7.04997C17.5134 7.00997 17.2634 6.99998 17.0034 6.99998H7.00336C6.72336 6.99998 6.45336 7.01998 6.19336 7.05998C6.33336 6.77998 6.53338 6.52001 6.77338 6.28001L10.0234 3.02C11.3934 1.66 13.6133 1.66 14.9833 3.02L16.7333 4.78996C17.3733 5.41996 17.7134 6.21997 17.7534 7.04997Z" stroke="#171717" stroke-width="1.5" stroke-linecap="round" stroke-linejoin="round"/>
<path d="M22.002 12.5H19.002C17.902 12.5 17.002 13.4 17.002 14.5C17.002 15.6 17.902 16.5 19.002 16.5H22.002" stroke="#171717" stroke-width="1.5" stroke-linecap="round" stroke-linejoin="round"/>
<path d="M9.00195 19C9.00195 19.75 8.79194 20.46 8.42194 21.06C8.21194 21.42 7.94196 21.74 7.63196 22C6.93196 22.63 6.01195 23 5.00195 23C3.54195 23 2.27197 22.22 1.58197 21.06C1.21197 20.46 1.00195 19.75 1.00195 19C1.00195 17.99 1.38195 17.07 2.00195 16.36C2.73195 15.53 3.80195 15 5.00195 15C7.21195 15 9.00195 16.79 9.00195 19Z" stroke="#171717" stroke-width="1.5" stroke-miterlimit="10" stroke-linecap="round" stroke-linejoin="round"/>
<path d="M6.07336 20.0399L3.96338 17.9299" stroke="#171717" stroke-width="1.5" stroke-miterlimit="10" stroke-linecap="round" stroke-linejoin="round"/>
<path d="M6.04211 17.96L3.93213 20.0699" stroke="#171717" stroke-width="1.5" stroke-miterlimit="10" stroke-linecap="round" stroke-linejoin="round"/>
</svg>
