<svg width="25" height="24" viewBox="0 0 25 24" fill="none" xmlns="http://www.w3.org/2000/svg">
<path d="M13.052 11.15H7.052" stroke="#171717" stroke-width="1.5" stroke-linecap="round" stroke-linejoin="round"/>
<path d="M2.052 11.1501V6.53009C2.052 4.49009 3.702 2.84009 5.742 2.84009H11.362C13.402 2.84009 15.052 4.11009 15.052 6.15009" stroke="#171717" stroke-width="1.5" stroke-linecap="round" stroke-linejoin="round"/>
<path d="M17.532 12.2C17.032 12.68 16.792 13.42 16.992 14.18C17.242 15.11 18.162 15.7 19.122 15.7H20.052V17.15C20.052 19.36 18.262 21.15 16.052 21.15H6.052C3.842 21.15 2.052 19.36 2.052 17.15V10.15C2.052 7.94002 3.842 6.15002 6.052 6.15002H16.052C18.252 6.15002 20.052 7.95002 20.052 10.15V11.6H18.972C18.412 11.6 17.902 11.82 17.532 12.2Z" stroke="#171717" stroke-width="1.5" stroke-linecap="round" stroke-linejoin="round"/>
<path d="M22.052 12.62V14.68C22.052 15.24 21.5919 15.7 21.0219 15.7H19.0919C18.0119 15.7 17.022 14.91 16.932 13.83C16.872 13.2 17.112 12.61 17.532 12.2C17.902 11.82 18.412 11.6 18.972 11.6H21.0219C21.5919 11.6 22.052 12.06 22.052 12.62Z" stroke="#171717" stroke-width="1.5" stroke-linecap="round" stroke-linejoin="round"/>
</svg>
