<svg width="24" height="24" viewBox="0 0 24 24" fill="none" xmlns="http://www.w3.org/2000/svg">
<path d="M22.0088 12V17C22.0088 20 20.0088 22 17.0088 22H7.00879C4.00879 22 2.00879 20 2.00879 17V12C2.00879 9.28 3.64879 7.38 6.19879 7.06C6.45879 7.02 6.72879 7 7.00879 7H17.0088C17.2688 7 17.5188 7.00999 17.7588 7.04999C20.3388 7.34999 22.0088 9.26 22.0088 12Z" stroke="#171717" stroke-width="1.5" stroke-linecap="round" stroke-linejoin="round"/>
<path d="M17.7602 7.05C17.5202 7.01 17.2702 7.00001 17.0102 7.00001H7.0102C6.7302 7.00001 6.4602 7.02001 6.2002 7.06001C6.3402 6.78001 6.5402 6.52001 6.7802 6.28001L10.0302 3.02C11.4002 1.66 13.6202 1.66 14.9902 3.02L16.7402 4.79002C17.3802 5.42002 17.7202 6.22 17.7602 7.05Z" stroke="#171717" stroke-width="1.5" stroke-linecap="round" stroke-linejoin="round"/>
<path d="M22.0088 12.5H19.0088C17.9088 12.5 17.0088 13.4 17.0088 14.5C17.0088 15.6 17.9088 16.5 19.0088 16.5H22.0088" stroke="#171717" stroke-width="1.5" stroke-linecap="round" stroke-linejoin="round"/>
</svg>
