<svg width="25" height="24" viewBox="0 0 25 24" fill="none" xmlns="http://www.w3.org/2000/svg">
<path d="M12.6814 2.51814L12.6514 2.58814L9.75145 9.31814H6.90145C6.22145 9.31814 5.57145 9.45814 4.98145 9.70814L6.73145 5.52814L6.77145 5.42814L6.84145 5.26814C6.86145 5.20814 6.88145 5.14814 6.91145 5.09814C8.22145 2.06814 9.70145 1.37814 12.6814 2.51814Z" stroke="#171717" stroke-width="1.5" stroke-linecap="round" stroke-linejoin="round"/>
<path d="M18.0715 9.51819C17.6215 9.37819 17.1415 9.31819 16.6615 9.31819H9.75146L12.6515 2.58819L12.6815 2.51819C12.8315 2.56819 12.9715 2.63819 13.1215 2.69819L15.3315 3.62819C16.5615 4.13819 17.4215 4.66819 17.9415 5.30819C18.0415 5.42819 18.1215 5.53819 18.1915 5.66819C18.2815 5.80819 18.3515 5.94819 18.3915 6.09819C18.4315 6.18819 18.4615 6.27819 18.4815 6.35819C18.7515 7.19819 18.5915 8.22819 18.0715 9.51819Z" stroke="#171717" stroke-width="1.5" stroke-linecap="round" stroke-linejoin="round"/>
<path d="M21.5432 14.1984V16.1484C21.5432 16.3484 21.5332 16.5484 21.5232 16.7484C21.3332 20.2384 19.3832 21.9984 15.6832 21.9984H7.8832C7.6432 21.9984 7.4032 21.9784 7.1732 21.9484C3.9932 21.7384 2.2932 20.0384 2.0832 16.8584C2.0532 16.6284 2.0332 16.3884 2.0332 16.1484V14.1984C2.0332 12.1884 3.2532 10.4584 4.9932 9.70836C5.5932 9.45836 6.2332 9.31836 6.9132 9.31836H16.6732C17.1632 9.31836 17.6432 9.38836 18.0832 9.51836C20.0732 10.1284 21.5432 11.9884 21.5432 14.1984Z" stroke="#171717" stroke-width="1.5" stroke-linecap="round" stroke-linejoin="round"/>
<path d="M6.73148 5.52808L4.98148 9.70808C3.24148 10.4581 2.02148 12.1881 2.02148 14.1981V11.2681C2.02148 8.42808 4.04148 6.05808 6.73148 5.52808Z" stroke="#171717" stroke-width="1.5" stroke-linecap="round" stroke-linejoin="round"/>
<path d="M21.5401 11.2677V14.1977C21.5401 11.9977 20.0801 10.1277 18.0801 9.52766C18.6001 8.22766 18.7501 7.20766 18.5001 6.35766C18.4801 6.26766 18.4501 6.17766 18.4101 6.09766C20.2701 7.05766 21.5401 9.02766 21.5401 11.2677Z" stroke="#171717" stroke-width="1.5" stroke-linecap="round" stroke-linejoin="round"/>
</svg>
