<svg width="24" height="24" viewBox="0 0 24 24" fill="none" xmlns="http://www.w3.org/2000/svg">
<path d="M12.0029 22H17.0029C20.0029 22 22.0029 20 22.0029 17V12C22.0029 9.3 20.3029 7.3 17.8029 7C17.6029 7 17.3029 7 17.0029 7H7.00293C6.70293 7 6.50293 6.99998 6.20293 7.09998C3.60293 7.39998 2.00293 9.3 2.00293 12C2.00293 12.3 2.00293 12.7 2.00293 13" stroke="#171717" stroke-width="1.5" stroke-linecap="round" stroke-linejoin="round"/>
<path d="M17.8031 6.99995C17.6031 6.99995 17.3031 6.99995 17.0031 6.99995H7.00313C6.70313 6.99995 6.50313 6.99993 6.20312 7.09993C6.30313 6.79993 6.50313 6.59994 6.80313 6.29994L10.0031 2.99995C11.4031 1.59995 13.6031 1.59995 15.0031 2.99995L16.8031 4.79994C17.4031 5.39994 17.7031 6.19995 17.8031 6.99995Z" stroke="#171717" stroke-width="1.5" stroke-linecap="round" stroke-linejoin="round"/>
<path d="M22.0029 12.5H19.0029C17.9029 12.5 17.0029 13.4 17.0029 14.5C17.0029 15.6 17.9029 16.5 19.0029 16.5H22.0029" stroke="#171717" stroke-width="1.5" stroke-linecap="round" stroke-linejoin="round"/>
<path d="M5.8045 21.4C7.5745 21.4 9.00449 19.97 9.00449 18.2C9.00449 16.43 7.5745 15 5.8045 15C4.0345 15 2.60449 16.43 2.60449 18.2C2.60449 19.97 4.0345 21.4 5.8045 21.4Z" stroke="#171717" stroke-width="1.5" stroke-linecap="round" stroke-linejoin="round"/>
<path d="M2.00293 22L3.00293 21" stroke="#171717" stroke-width="1.5" stroke-linecap="round" stroke-linejoin="round"/>
</svg>
