<svg width="25" height="24" viewBox="0 0 25 24" fill="none" xmlns="http://www.w3.org/2000/svg">
<path d="M14.2979 15.998H9.29785" stroke="#171717" stroke-width="1.5" stroke-miterlimit="10" stroke-linecap="round" stroke-linejoin="round"/>
<path d="M12.6961 2.51814L12.6661 2.58814L9.76609 9.31814H6.91609C6.23609 9.31814 5.58609 9.45814 4.99609 9.70814L6.74609 5.52814L6.78609 5.42814L6.85609 5.26814C6.87609 5.20814 6.89609 5.14814 6.92609 5.09814C8.23609 2.06814 9.71609 1.37814 12.6961 2.51814Z" stroke="#171717" stroke-width="1.5" stroke-linecap="round" stroke-linejoin="round"/>
<path d="M18.0861 9.51819C17.6361 9.37819 17.1561 9.31819 16.6761 9.31819H9.76611L12.6661 2.58819L12.6961 2.51819C12.8461 2.56819 12.9861 2.63819 13.1361 2.69819L15.3461 3.62819C16.5761 4.13819 17.4361 4.66819 17.9561 5.30819C18.0561 5.42819 18.1361 5.53819 18.2061 5.66819C18.2961 5.80819 18.3661 5.94819 18.4061 6.09819C18.4461 6.18819 18.4761 6.27819 18.4961 6.35819C18.7661 7.19819 18.6061 8.22819 18.0861 9.51819Z" stroke="#171717" stroke-width="1.5" stroke-linecap="round" stroke-linejoin="round"/>
<path d="M21.5579 14.1984V16.1484C21.5579 16.3484 21.5479 16.5484 21.5379 16.7484C21.3479 20.2384 19.3979 21.9984 15.6979 21.9984H7.89785C7.65785 21.9984 7.41785 21.9784 7.18785 21.9484C4.00785 21.7384 2.30785 20.0384 2.09785 16.8584C2.06785 16.6284 2.04785 16.3884 2.04785 16.1484V14.1984C2.04785 12.1884 3.26785 10.4584 5.00785 9.70836C5.60785 9.45836 6.24785 9.31836 6.92785 9.31836H16.6879C17.1779 9.31836 17.6579 9.38836 18.0979 9.51836C20.0879 10.1284 21.5579 11.9884 21.5579 14.1984Z" stroke="#171717" stroke-width="1.5" stroke-linecap="round" stroke-linejoin="round"/>
<path d="M6.74613 5.52808L4.99613 9.70808C3.25613 10.4581 2.03613 12.1881 2.03613 14.1981V11.2681C2.03613 8.42808 4.05613 6.05808 6.74613 5.52808Z" stroke="#171717" stroke-width="1.5" stroke-linecap="round" stroke-linejoin="round"/>
<path d="M21.5547 11.2677V14.1977C21.5547 11.9977 20.0947 10.1277 18.0947 9.52766C18.6147 8.22766 18.7647 7.20766 18.5147 6.35766C18.4947 6.26766 18.4647 6.17766 18.4247 6.09766C20.2847 7.05766 21.5547 9.02766 21.5547 11.2677Z" stroke="#171717" stroke-width="1.5" stroke-linecap="round" stroke-linejoin="round"/>
</svg>
