<svg width="25" height="24" viewBox="0 0 25 24" fill="none" xmlns="http://www.w3.org/2000/svg">
<path d="M14.2998 15.4385H9.2998" stroke="#171717" stroke-width="1.5" stroke-miterlimit="10" stroke-linecap="round" stroke-linejoin="round"/>
<path d="M11.7998 12.998V17.998" stroke="#171717" stroke-width="1.5" stroke-miterlimit="10" stroke-linecap="round" stroke-linejoin="round"/>
<path d="M12.698 2.51814L12.668 2.58814L9.76805 9.31814H6.91805C6.23805 9.31814 5.58805 9.45814 4.99805 9.70814L6.74805 5.52814L6.78805 5.42814L6.85805 5.26814C6.87805 5.20814 6.89805 5.14814 6.92805 5.09814C8.23805 2.06814 9.71805 1.37814 12.698 2.51814Z" stroke="#171717" stroke-width="1.5" stroke-linecap="round" stroke-linejoin="round"/>
<path d="M18.0881 9.51819C17.6381 9.37819 17.1581 9.31819 16.6781 9.31819H9.76807L12.6681 2.58819L12.6981 2.51819C12.8481 2.56819 12.9881 2.63819 13.1381 2.69819L15.3481 3.62819C16.5781 4.13819 17.4381 4.66819 17.9581 5.30819C18.0581 5.42819 18.1381 5.53819 18.2081 5.66819C18.2981 5.80819 18.3681 5.94819 18.4081 6.09819C18.4481 6.18819 18.4781 6.27819 18.4981 6.35819C18.7681 7.19819 18.6081 8.22819 18.0881 9.51819Z" stroke="#171717" stroke-width="1.5" stroke-linecap="round" stroke-linejoin="round"/>
<path d="M21.5598 14.1984V16.1484C21.5598 16.3484 21.5498 16.5484 21.5398 16.7484C21.3498 20.2384 19.3998 21.9984 15.6998 21.9984H7.89981C7.65981 21.9984 7.4198 21.9784 7.1898 21.9484C4.0098 21.7384 2.3098 20.0384 2.0998 16.8584C2.0698 16.6284 2.0498 16.3884 2.0498 16.1484V14.1984C2.0498 12.1884 3.2698 10.4584 5.0098 9.70836C5.6098 9.45836 6.2498 9.31836 6.9298 9.31836H16.6898C17.1798 9.31836 17.6598 9.38836 18.0998 9.51836C20.0898 10.1284 21.5598 11.9884 21.5598 14.1984Z" stroke="#171717" stroke-width="1.5" stroke-linecap="round" stroke-linejoin="round"/>
<path d="M6.74809 5.52808L4.99809 9.70808C3.25809 10.4581 2.03809 12.1881 2.03809 14.1981V11.2681C2.03809 8.42808 4.05809 6.05808 6.74809 5.52808Z" stroke="#171717" stroke-width="1.5" stroke-linecap="round" stroke-linejoin="round"/>
<path d="M21.5567 11.2677V14.1977C21.5567 11.9977 20.0967 10.1277 18.0967 9.52766C18.6167 8.22766 18.7667 7.20766 18.5167 6.35766C18.4967 6.26766 18.4667 6.17766 18.4267 6.09766C20.2867 7.05766 21.5567 9.02766 21.5567 11.2677Z" stroke="#171717" stroke-width="1.5" stroke-linecap="round" stroke-linejoin="round"/>
</svg>
