<svg width="25" height="24" viewBox="0 0 25 24" fill="none" xmlns="http://www.w3.org/2000/svg">
<path d="M10.7968 16.8604V18.8904C10.7968 20.6104 9.19675 22.0004 7.22675 22.0004C5.25675 22.0004 3.64673 20.6104 3.64673 18.8904V16.8604C3.64673 18.5804 5.24675 19.8004 7.22675 19.8004C9.19675 19.8004 10.7968 18.5704 10.7968 16.8604Z" stroke="#171717" stroke-width="1.5" stroke-linecap="round" stroke-linejoin="round"/>
<path d="M10.7952 14.11C10.7952 14.61 10.6552 15.07 10.4152 15.47C9.82522 16.44 8.61521 17.05 7.21521 17.05C5.81521 17.05 4.6052 16.43 4.0152 15.47C3.7752 15.07 3.63525 14.61 3.63525 14.11C3.63525 13.25 4.03523 12.48 4.67523 11.92C5.32523 11.35 6.2152 11.01 7.2052 11.01C8.1952 11.01 9.08523 11.36 9.73523 11.92C10.3952 12.47 10.7952 13.25 10.7952 14.11Z" stroke="#171717" stroke-width="1.5" stroke-linecap="round" stroke-linejoin="round"/>
<path d="M10.7968 14.11V16.86C10.7968 18.58 9.19675 19.8 7.22675 19.8C5.25675 19.8 3.64673 18.57 3.64673 16.86V14.11C3.64673 12.39 5.24675 11 7.22675 11C8.21675 11 9.10677 11.35 9.75677 11.91C10.3968 12.47 10.7968 13.25 10.7968 14.11Z" stroke="#171717" stroke-width="1.5" stroke-linecap="round" stroke-linejoin="round"/>
<path d="M22.0451 10.9699V13.03C22.0451 13.58 21.6051 14.0299 21.0451 14.0499H19.0851C18.0051 14.0499 17.0151 13.2599 16.9251 12.1799C16.8651 11.5499 17.1051 10.9599 17.5251 10.5499C17.8951 10.1699 18.4051 9.94995 18.9651 9.94995H21.0451C21.6051 9.96995 22.0451 10.4199 22.0451 10.9699Z" stroke="#171717" stroke-width="1.5" stroke-linecap="round" stroke-linejoin="round"/>
<path d="M2.04517 10.5V8.5C2.04517 5.78 3.68517 3.88 6.23517 3.56C6.49517 3.52 6.76517 3.5 7.04517 3.5H16.0452C16.3052 3.5 16.5552 3.50999 16.7952 3.54999C19.3752 3.84999 21.0452 5.76 21.0452 8.5V9.95001H18.9651C18.4051 9.95001 17.8951 10.17 17.5251 10.55C17.1051 10.96 16.8652 11.55 16.9252 12.18C17.0152 13.26 18.0051 14.05 19.0851 14.05H21.0452V15.5C21.0452 18.5 19.0452 20.5 16.0452 20.5H13.5452" stroke="#171717" stroke-width="1.5" stroke-linecap="round" stroke-linejoin="round"/>
</svg>
