<svg width="25" height="24" viewBox="0 0 25 24" fill="none" xmlns="http://www.w3.org/2000/svg">
<path d="M12.0156 16.75C11.6056 16.75 11.2656 16.41 11.2656 16C11.2656 15.59 11.6056 15.25 12.0156 15.25C15.4656 15.25 18.2656 12.45 18.2656 9C18.2656 5.55 15.4656 2.75 12.0156 2.75C8.56563 2.75 5.76562 5.55 5.76562 9C5.76562 9.41 5.42562 9.75 5.01562 9.75C4.60563 9.75 4.26562 9.41 4.26562 9C4.26562 4.73 7.74563 1.25 12.0156 1.25C16.2856 1.25 19.7656 4.73 19.7656 9C19.7656 13.27 16.2856 16.75 12.0156 16.75Z" fill="#171717"/>
<path d="M12.0156 22.75C11.6056 22.75 11.2656 22.41 11.2656 22V16C11.2656 15.59 11.6056 15.25 12.0156 15.25C12.4256 15.25 12.7656 15.59 12.7656 16V22C12.7656 22.41 12.4256 22.75 12.0156 22.75Z" fill="#171717"/>
<path d="M15.0156 19.75H9.01562C8.60563 19.75 8.26562 19.41 8.26562 19C8.26562 18.59 8.60563 18.25 9.01562 18.25H15.0156C15.4256 18.25 15.7656 18.59 15.7656 19C15.7656 19.41 15.4256 19.75 15.0156 19.75Z" fill="#171717"/>
</svg>
