<svg width="24" height="24" viewBox="0 0 24 24" fill="none" xmlns="http://www.w3.org/2000/svg">
<path d="M10.4299 18.37C10.2799 18.37 10.1399 18.33 10.0099 18.24C9.79991 18.1 9.67991 17.87 9.67991 17.62C9.67991 17.47 9.66991 17.31 9.64991 17.15C9.55991 16.44 9.23991 15.82 8.69991 15.28C8.15991 14.74 7.48991 14.4 6.76991 14.31C6.64991 14.3 6.47991 14.29 6.31991 14.3C6.05991 14.32 5.81991 14.21 5.66991 14C5.51991 13.8 5.47991 13.53 5.55991 13.29C5.70991 12.88 5.92991 12.51 6.18991 12.21L7.72991 10.27C10.3799 6.96 15.7499 2.98 19.6799 1.4C20.5099 1.08 21.3999 1.27 22.0099 1.87C22.6399 2.5 22.8299 3.4 22.4999 4.22C20.9199 8.16 16.9499 13.52 13.6399 16.17L11.6699 17.75C11.2999 18.02 10.9999 18.19 10.6999 18.31C10.6199 18.35 10.5199 18.37 10.4299 18.37ZM7.53991 12.94C8.37991 13.16 9.12991 13.6 9.75991 14.23C10.3899 14.85 10.8099 15.57 11.0199 16.37L12.7099 15.01C15.8499 12.5 19.6199 7.41 21.1099 3.67C21.2599 3.3 21.0499 3.04 20.9499 2.95C20.8799 2.88 20.6199 2.66 20.2199 2.81C16.4999 4.31 11.4099 8.08 8.88991 11.22L7.53991 12.94Z" fill="#171717"/>
<path d="M4.07987 22.75C3.32987 22.75 2.60987 22.45 2.06987 21.91C1.44987 21.29 1.14987 20.43 1.24987 19.55L1.51987 17.09C1.77987 14.65 3.77987 12.84 6.25987 12.79C6.44987 12.78 6.69987 12.79 6.92987 12.81C8.01987 12.95 8.98987 13.44 9.76987 14.22C10.5399 14.99 10.9999 15.91 11.1399 16.94C11.1699 17.16 11.1899 17.4 11.1899 17.61C11.1899 18.93 10.6799 20.16 9.75987 21.09C8.98987 21.85 7.99987 22.32 6.87987 22.46L4.40987 22.73C4.29987 22.74 4.18987 22.75 4.07987 22.75ZM6.44987 14.3C6.40987 14.3 6.35987 14.3 6.31987 14.3C4.80987 14.33 3.20987 15.36 3.00987 17.26L2.73987 19.72C2.68987 20.14 2.83987 20.55 3.12987 20.85C3.41987 21.14 3.82987 21.29 4.23987 21.24L6.69987 20.97C7.46987 20.87 8.15987 20.55 8.67987 20.03C9.31987 19.39 9.67987 18.53 9.67987 17.61C9.67987 17.46 9.66987 17.3 9.64987 17.14C9.55987 16.43 9.23987 15.81 8.69987 15.27C8.15987 14.73 7.48987 14.39 6.76987 14.3C6.68987 14.3 6.56987 14.3 6.44987 14.3Z" fill="#171717"/>
<path d="M14.2398 15.22C13.8298 15.22 13.4898 14.88 13.4898 14.47C13.4898 12.27 11.6998 10.49 9.50977 10.49C9.09977 10.49 8.75977 10.15 8.75977 9.74001C8.75977 9.33001 9.08977 8.99001 9.49977 8.99001C12.5198 8.99001 14.9798 11.45 14.9798 14.47C14.9898 14.89 14.6498 15.22 14.2398 15.22Z" fill="#171717"/>
</svg>
