<svg width="25" height="24" viewBox="0 0 25 24" fill="none" xmlns="http://www.w3.org/2000/svg">
<path d="M10.2656 22.25C5.57562 22.25 1.76562 18.44 1.76562 13.75C1.76562 9.06 5.57562 5.25 10.2656 5.25C14.9556 5.25 18.7656 9.06 18.7656 13.75C18.7656 18.44 14.9556 22.25 10.2656 22.25ZM10.2656 6.75C6.40563 6.75 3.26562 9.89 3.26562 13.75C3.26562 17.61 6.40563 20.75 10.2656 20.75C14.1256 20.75 17.2656 17.61 17.2656 13.75C17.2656 9.89 14.1256 6.75 10.2656 6.75Z" fill="#171717"/>
<path d="M16.0156 8.74994C15.8256 8.74994 15.6356 8.67994 15.4856 8.52994C15.1956 8.23994 15.1956 7.75994 15.4856 7.46994L20.9856 1.96994C21.2756 1.67994 21.7556 1.67994 22.0456 1.96994C22.3356 2.25994 22.3356 2.73994 22.0456 3.02994L16.5456 8.52994C16.3956 8.67994 16.2056 8.74994 16.0156 8.74994Z" fill="#171717"/>
<path d="M21.5156 9.75C21.1056 9.75 20.7656 9.41 20.7656 9V3.25H15.0156C14.6056 3.25 14.2656 2.91 14.2656 2.5C14.2656 2.09 14.6056 1.75 15.0156 1.75H21.5156C21.9256 1.75 22.2656 2.09 22.2656 2.5V9C22.2656 9.41 21.9256 9.75 21.5156 9.75Z" fill="#171717"/>
</svg>
