<svg width="24" height="24" viewBox="0 0 24 24" fill="none" xmlns="http://www.w3.org/2000/svg">
<path d="M11.9998 22.72C6.08979 22.72 1.27979 17.91 1.27979 12C1.27979 6.09 6.08979 1.28 11.9998 1.28C14.6498 1.28 17.1898 2.26 19.1498 4.03C21.4198 6.04 22.7198 8.95 22.7198 12C22.7198 15.05 21.4198 17.96 19.1398 19.98C17.1898 21.75 14.6498 22.72 11.9998 22.72ZM11.9998 2.78C6.90979 2.78 2.77979 6.92 2.77979 12C2.77979 17.08 6.91979 21.22 11.9998 21.22C14.2798 21.22 16.4598 20.38 18.1498 18.85C20.1098 17.11 21.2298 14.62 21.2298 11.99C21.2298 9.36 20.1098 6.87 18.1598 5.14C16.4598 3.62 14.2798 2.78 11.9998 2.78Z" fill="#171717"/>
<path d="M10.4398 18.91C10.0698 18.91 9.67979 18.83 9.29979 18.68C6.55979 17.58 4.77979 14.95 4.77979 12C4.77979 9.05 6.54979 6.42 9.29979 5.32C10.1698 4.97 11.0498 5.02 11.7098 5.46C12.3498 5.89 12.7098 6.65 12.7298 7.6V16.39V16.4C12.7198 17.35 12.3598 18.12 11.7098 18.54C11.3398 18.79 10.8998 18.91 10.4398 18.91ZM10.4398 6.59C10.2598 6.59 10.0598 6.63 9.85978 6.71C7.67978 7.58 6.27979 9.66 6.27979 12C6.27979 14.34 7.67978 16.42 9.85978 17.29C10.2598 17.45 10.6398 17.45 10.8798 17.3C11.1598 17.11 11.2198 16.7 11.2298 16.39V7.61C11.2298 7.31 11.1598 6.89 10.8798 6.7C10.7598 6.63 10.6098 6.59 10.4398 6.59Z" fill="#171717"/>
</svg>
