<svg width="24" height="24" viewBox="0 0 24 24" fill="none" xmlns="http://www.w3.org/2000/svg">
<path d="M16.9802 13.2C16.7902 13.2 16.5902 13.12 16.4502 12.98L11.0502 7.57C10.8002 7.32 10.7602 6.94 10.9502 6.64L12.6402 3.97C13.1102 3.23 13.8202 2.77 14.6502 2.68C15.5802 2.59 16.5402 2.95 17.2902 3.7L20.3202 6.73C21.0402 7.45 21.4002 8.42 21.2902 9.38C21.2002 10.22 20.7502 10.95 20.0502 11.39L17.3802 13.08C17.2602 13.16 17.1202 13.2 16.9802 13.2ZM12.5302 6.94L17.0902 11.5L19.2602 10.13C19.5702 9.93 19.7702 9.61 19.8102 9.22C19.8702 8.72 19.6602 8.19 19.2702 7.8L16.2402 4.77C15.8102 4.34 15.2902 4.11 14.8202 4.18C14.4402 4.22 14.1302 4.43 13.9102 4.78L12.5302 6.94Z" fill="#171717"/>
<path d="M5.88989 21.34C4.99989 21.34 4.19989 21.02 3.59989 20.43C2.89989 19.73 2.58989 18.76 2.71989 17.68L3.69989 9.35C3.99989 6.83 5.10989 5.91 7.69989 6.06L11.6199 6.29C12.0299 6.32 12.3499 6.67 12.3199 7.08C12.2899 7.49 11.9399 7.81 11.5299 7.78L7.60989 7.56C5.82989 7.45 5.38989 7.8 5.18989 9.53L4.20989 17.85C4.13989 18.46 4.29989 19 4.65989 19.36C5.02989 19.72 5.56989 19.89 6.17989 19.81L14.4999 18.83C16.2499 18.62 16.6399 18.16 16.4699 16.44L16.2299 12.49C16.2099 12.08 16.5199 11.72 16.9299 11.7C17.3399 11.67 17.6999 11.99 17.7199 12.4L17.9499 16.32C18.1899 18.81 17.2099 20.01 14.6599 20.32L6.33989 21.3C6.19989 21.33 6.03989 21.34 5.88989 21.34Z" fill="#171717"/>
<path d="M4.6098 20.17C4.4198 20.17 4.2298 20.1 4.0798 19.95C3.7898 19.66 3.7898 19.18 4.0798 18.89L7.1198 15.85C7.4098 15.56 7.88981 15.56 8.17981 15.85C8.46981 16.14 8.46981 16.62 8.17981 16.91L5.1398 19.95C4.9898 20.1 4.7998 20.17 4.6098 20.17Z" fill="#171717"/>
</svg>
