<svg width="25" height="24" viewBox="0 0 25 24" fill="none" xmlns="http://www.w3.org/2000/svg">
<path d="M21.0156 12.75C20.6056 12.75 20.2656 12.41 20.2656 12V3.75H12.0156C11.6056 3.75 11.2656 3.41 11.2656 3C11.2656 2.59 11.6056 2.25 12.0156 2.25H21.0156C21.4256 2.25 21.7656 2.59 21.7656 3V12C21.7656 12.41 21.4256 12.75 21.0156 12.75Z" fill="#171717"/>
<path d="M3.0156 21.75C2.8256 21.75 2.63557 21.68 2.48557 21.53C2.19557 21.24 2.19557 20.7599 2.48557 20.4699L20.4856 2.46994C20.7756 2.17994 21.2556 2.17994 21.5456 2.46994C21.8356 2.75994 21.8356 3.24 21.5456 3.53L3.54562 21.53C3.39562 21.68 3.2056 21.75 3.0156 21.75Z" fill="#171717"/>
<path d="M17.4157 18.1501C17.2257 18.1501 17.0357 18.08 16.8857 17.93L6.08566 7.13004C5.79566 6.84004 5.79566 6.36004 6.08566 6.07004C6.37566 5.78004 6.85566 5.78004 7.14566 6.07004L17.9456 16.87C18.2356 17.16 18.2356 17.64 17.9456 17.93C17.7956 18.08 17.6057 18.1501 17.4157 18.1501Z" fill="#171717"/>
</svg>
