<svg width="24" height="24" viewBox="0 0 24 24" fill="none" xmlns="http://www.w3.org/2000/svg">
<path d="M11.7202 22.75H7.22021C3.07021 22.75 1.22021 20.9 1.22021 16.75V12.25C1.22021 8.1 3.07021 6.25 7.22021 6.25H11.7202C15.8702 6.25 17.7202 8.1 17.7202 12.25V16.75C17.7202 20.9 15.8702 22.75 11.7202 22.75ZM7.22021 7.75C3.90021 7.75 2.72021 8.93 2.72021 12.25V16.75C2.72021 20.07 3.90021 21.25 7.22021 21.25H11.7202C15.0402 21.25 16.2202 20.07 16.2202 16.75V12.25C16.2202 8.93 15.0402 7.75 11.7202 7.75H7.22021Z" fill="#171717"/>
<path d="M16.9702 13.72C16.7802 13.72 16.6002 13.65 16.4602 13.52C16.3002 13.38 16.2202 13.18 16.2202 12.97V12.25C16.2202 8.93 15.0402 7.75 11.7202 7.75H11.0002C10.7902 7.75 10.5902 7.66 10.4502 7.51C10.3102 7.35 10.2402 7.15 10.2602 6.94C10.5502 3.7 13.2202 1.26 16.4802 1.26C19.6002 1.26 22.2602 3.59 22.6602 6.68C22.7002 6.92 22.7302 7.21 22.7302 7.51C22.7302 10.77 20.2902 13.44 17.0502 13.73C17.0202 13.72 17.0002 13.72 16.9702 13.72ZM11.8902 6.25C15.8602 6.3 17.6702 8.1 17.7202 12.08C19.7602 11.54 21.2202 9.69 21.2202 7.5C21.2202 7.29 21.2002 7.09 21.1702 6.9C20.8602 4.52 18.8402 2.75 16.4702 2.75C14.2802 2.75 12.4402 4.21 11.8902 6.25Z" fill="#171717"/>
</svg>
