<svg width="24" height="24" viewBox="0 0 24 24" fill="none" xmlns="http://www.w3.org/2000/svg">
<path d="M18.61 6.67995C18.2 6.67995 17.86 6.33995 17.86 5.92995V4.41995C17.86 3.81995 17.37 3.31995 16.76 3.31995H3.82999C3.22999 3.31995 2.72999 3.80995 2.72999 4.41995V5.92995C2.72999 6.33995 2.38999 6.67995 1.97999 6.67995C1.56999 6.67995 1.23999 6.33995 1.23999 5.92995V4.41995C1.23999 2.98995 2.40999 1.81995 3.83999 1.81995H16.76C18.19 1.81995 19.36 2.97995 19.36 4.41995V5.92995C19.36 6.33995 19.02 6.67995 18.61 6.67995Z" fill="#171717"/>
<path d="M10.3 18.8499C9.89005 18.8499 9.55005 18.5099 9.55005 18.0999V3.31995C9.55005 2.90995 9.89005 2.56995 10.3 2.56995C10.71 2.56995 11.05 2.90995 11.05 3.31995V18.0999C11.05 18.5199 10.71 18.8499 10.3 18.8499Z" fill="#171717"/>
<path d="M12.48 18.85H6.90002C6.49002 18.85 6.15002 18.51 6.15002 18.1C6.15002 17.69 6.49002 17.35 6.90002 17.35H12.48C12.89 17.35 13.23 17.69 13.23 18.1C13.23 18.51 12.89 18.85 12.48 18.85Z" fill="#171717"/>
<path d="M22.0101 13.2C21.6001 13.2 21.2601 12.86 21.2601 12.45V11.65C21.2601 11.34 21.0001 11.08 20.6901 11.08H13.6801C13.2701 11.08 12.9301 10.74 12.9301 10.33C12.9301 9.91996 13.2701 9.57996 13.6801 9.57996H20.6901C21.8301 9.57996 22.7601 10.51 22.7601 11.65V12.45C22.7601 12.87 22.4301 13.2 22.0101 13.2Z" fill="#171717"/>
<path d="M16.08 22.18C15.67 22.18 15.33 21.84 15.33 21.43V10.87C15.33 10.46 15.67 10.12 16.08 10.12C16.49 10.12 16.83 10.46 16.83 10.87V21.43C16.83 21.84 16.49 22.18 16.08 22.18Z" fill="#171717"/>
<path d="M18.2199 22.1801H13.9399C13.5299 22.1801 13.1899 21.8401 13.1899 21.4301C13.1899 21.0201 13.5299 20.6801 13.9399 20.6801H18.2199C18.6299 20.6801 18.9699 21.0201 18.9699 21.4301C18.9699 21.8401 18.6299 22.1801 18.2199 22.1801Z" fill="#171717"/>
</svg>
