<svg width="25" height="24" viewBox="0 0 25 24" fill="none" xmlns="http://www.w3.org/2000/svg">
<path d="M18.0156 2H6.01562C4.35563 2 3.01562 3.33 3.01562 4.97V15.88C3.01562 17.52 4.35563 18.85 6.01562 18.85H6.77563C7.57563 18.85 8.33563 19.16 8.89563 19.72L10.6056 21.41C11.3856 22.18 12.6556 22.18 13.4356 21.41L15.1456 19.72C15.7056 19.16 16.4756 18.85 17.2656 18.85H18.0156C19.6756 18.85 21.0156 17.52 21.0156 15.88V4.97C21.0156 3.33 19.6756 2 18.0156 2ZM10.3956 13.01C10.8056 13.01 11.1456 13.35 11.1456 13.76C11.1456 14.17 10.8056 14.51 10.3956 14.51H7.71562C7.27562 14.51 6.86563 14.3 6.60563 13.94C6.35563 13.6 6.29563 13.18 6.41563 12.78C6.76562 11.71 7.62562 11.13 8.38562 10.61C9.18563 10.07 9.63562 9.73 9.63562 9.15C9.63562 8.63 9.21563 8.21 8.69563 8.21C8.17563 8.21 7.76562 8.64 7.76562 9.16C7.76562 9.57 7.42562 9.91 7.01562 9.91C6.60562 9.91 6.26562 9.57 6.26562 9.16C6.26562 7.82 7.35562 6.72 8.70562 6.72C10.0556 6.72 11.1456 7.81 11.1456 9.16C11.1456 10.57 10.0856 11.29 9.23563 11.87C8.70563 12.23 8.20563 12.57 7.95563 13.02H10.3956V13.01ZM17.0156 13.08H16.8056V13.77C16.8056 14.18 16.4656 14.52 16.0556 14.52C15.6456 14.52 15.3056 14.18 15.3056 13.77V13.08H13.3456C13.3456 13.08 13.3456 13.08 13.3356 13.08C12.8456 13.08 12.3956 12.82 12.1456 12.4C11.8956 11.97 11.8956 11.44 12.1456 11.02C12.8256 9.85 13.6156 8.52 14.3356 7.36C14.6556 6.85 15.2656 6.62 15.8356 6.78C16.4056 6.95 16.8056 7.47 16.7956 8.07V11.59H17.0156C17.4256 11.59 17.7656 11.93 17.7656 12.34C17.7656 12.75 17.4256 13.08 17.0156 13.08Z" fill="#171717"/>
<path d="M15.3056 11.58V8.64001C14.7156 9.60001 14.1056 10.63 13.5556 11.57H15.3056V11.58Z" fill="#171717"/>
</svg>
