<svg width="24" height="24" viewBox="0 0 24 24" fill="none" xmlns="http://www.w3.org/2000/svg">
<path d="M22.002 9.75C21.592 9.75 21.252 9.41 21.252 9V7C21.252 4.42 19.582 2.75 17.002 2.75H7.00195C4.42195 2.75 2.75195 4.42 2.75195 7V9C2.75195 9.41 2.41195 9.75 2.00195 9.75C1.59195 9.75 1.25195 9.41 1.25195 9V7C1.25195 3.56 3.56195 1.25 7.00195 1.25H17.002C20.442 1.25 22.752 3.56 22.752 7V9C22.752 9.41 22.412 9.75 22.002 9.75Z" fill="#171717"/>
<path d="M17.002 22.75H7.00195C3.56195 22.75 1.25195 20.44 1.25195 17V15C1.25195 14.59 1.59195 14.25 2.00195 14.25C2.41195 14.25 2.75195 14.59 2.75195 15V17C2.75195 19.58 4.42195 21.25 7.00195 21.25H17.002C19.582 21.25 21.252 19.58 21.252 17V15C21.252 14.59 21.592 14.25 22.002 14.25C22.412 14.25 22.752 14.59 22.752 15V17C22.752 20.44 20.442 22.75 17.002 22.75Z" fill="#171717"/>
<path d="M16.4021 8.20996L12.6421 6.17996C12.2421 5.96996 11.7721 5.96996 11.3721 6.17996L7.60211 8.20996C7.33211 8.35996 7.16211 8.64996 7.16211 8.96996C7.16211 9.29996 7.33211 9.58996 7.60211 9.73996L11.3621 11.77C11.5621 11.88 11.7821 11.93 12.0021 11.93C12.2221 11.93 12.4421 11.88 12.6421 11.77L16.4021 9.73996C16.6721 9.58996 16.8421 9.29996 16.8421 8.96996C16.8421 8.64996 16.6721 8.35996 16.4021 8.20996Z" fill="#171717"/>
<path d="M10.742 12.4701L7.24195 10.7201C6.97195 10.5901 6.66195 10.6001 6.40195 10.7601C6.15195 10.9201 6.00195 11.1901 6.00195 11.4901V14.8001C6.00195 15.3701 6.32195 15.8901 6.83195 16.1401L10.332 17.8901C10.452 17.9501 10.582 17.9801 10.722 17.9801C10.882 17.9801 11.032 17.9401 11.172 17.8501C11.432 17.6901 11.582 17.4201 11.582 17.1201V13.8101C11.572 13.2401 11.262 12.7301 10.742 12.4701Z" fill="#171717"/>
<path d="M17.5919 10.7601C17.3319 10.6001 17.0219 10.5901 16.7519 10.7201L13.2519 12.4701C12.7419 12.7301 12.4219 13.2401 12.4219 13.8101V17.1201C12.4219 17.4201 12.5719 17.6901 12.8319 17.8501C12.9719 17.9401 13.1219 17.9801 13.2819 17.9801C13.4119 17.9801 13.5419 17.9501 13.6719 17.8901L17.1719 16.1401C17.6819 15.8801 18.0019 15.3701 18.0019 14.8001V11.4901C18.0019 11.1901 17.8519 10.9201 17.5919 10.7601Z" fill="#171717"/>
</svg>
