<svg width="25" height="24" viewBox="0 0 25 24" fill="none" xmlns="http://www.w3.org/2000/svg">
<path d="M15.0156 22.75C14.7456 22.75 14.4956 22.6 14.3656 22.37C14.2356 22.13 14.2356 21.85 14.3756 21.61L15.4256 19.86C15.6356 19.51 16.0956 19.39 16.4556 19.6C16.8156 19.81 16.9256 20.27 16.7156 20.63L16.4456 21.08C19.2056 20.43 21.2756 17.95 21.2756 14.99C21.2756 14.58 21.6156 14.24 22.0256 14.24C22.4356 14.24 22.7756 14.58 22.7756 14.99C22.7656 19.27 19.2856 22.75 15.0156 22.75Z" fill="#171717"/>
<path d="M2.01562 9.75C1.60563 9.75 1.26562 9.41 1.26562 9C1.26562 4.73 4.74563 1.25 9.01562 1.25C9.28563 1.25 9.53562 1.4 9.66562 1.63C9.79562 1.87 9.79563 2.15 9.65563 2.39L8.60563 4.14C8.39563 4.49 7.93563 4.61 7.57562 4.39C7.22563 4.18 7.10563 3.72 7.32562 3.36L7.59562 2.91C4.82562 3.56 2.76562 6.04 2.76562 9C2.76562 9.41 2.42562 9.75 2.01562 9.75Z" fill="#171717"/>
<path d="M16.4155 8.20996L12.6555 6.17996C12.2555 5.96996 11.7855 5.96996 11.3855 6.17996L7.61554 8.20996C7.34554 8.35996 7.17554 8.64996 7.17554 8.96996C7.17554 9.29996 7.34554 9.58996 7.61554 9.73996L11.3755 11.77C11.5755 11.88 11.7955 11.93 12.0155 11.93C12.2355 11.93 12.4555 11.88 12.6555 11.77L16.4155 9.73996C16.6855 9.58996 16.8555 9.29996 16.8555 8.96996C16.8555 8.64996 16.6855 8.35996 16.4155 8.20996Z" fill="#171717"/>
<path d="M10.7556 12.4701L7.25562 10.7201C6.98562 10.5901 6.67563 10.6001 6.41563 10.7601C6.16563 10.9201 6.01562 11.1901 6.01562 11.4901V14.8001C6.01562 15.3701 6.33562 15.8901 6.84562 16.1401L10.3456 17.8901C10.4656 17.9501 10.5956 17.9801 10.7356 17.9801C10.8956 17.9801 11.0456 17.9401 11.1856 17.8501C11.4456 17.6901 11.5956 17.4201 11.5956 17.1201V13.8101C11.5856 13.2401 11.2756 12.7301 10.7556 12.4701Z" fill="#171717"/>
<path d="M17.6055 10.7601C17.3455 10.6001 17.0355 10.5901 16.7655 10.7201L13.2655 12.4701C12.7555 12.7301 12.4355 13.2401 12.4355 13.8101V17.1201C12.4355 17.4201 12.5855 17.6901 12.8455 17.8501C12.9855 17.9401 13.1355 17.9801 13.2955 17.9801C13.4255 17.9801 13.5555 17.9501 13.6855 17.8901L17.1855 16.1401C17.6955 15.8801 18.0155 15.3701 18.0155 14.8001V11.4901C18.0155 11.1901 17.8655 10.9201 17.6055 10.7601Z" fill="#171717"/>
</svg>
