<svg width="25" height="24" viewBox="0 0 25 24" fill="none" xmlns="http://www.w3.org/2000/svg">
<path d="M16.2046 2.32996H7.82465C4.18465 2.32996 2.01465 4.50996 2.01465 8.14996V16.52C2.01465 20.16 4.18465 22.33 7.82465 22.33H16.1946C19.8346 22.33 22.0046 20.16 22.0046 16.52V8.14996C22.0146 4.50996 19.8446 2.32996 16.2046 2.32996ZM11.5846 17.12C11.5846 17.42 11.4346 17.69 11.1746 17.85C11.0346 17.94 10.8846 17.98 10.7246 17.98C10.5946 17.98 10.4646 17.95 10.3346 17.89L6.83465 16.14C6.33465 15.88 6.01465 15.37 6.01465 14.8V11.49C6.01465 11.19 6.16465 10.92 6.42465 10.76C6.68465 10.6 6.99465 10.59 7.26465 10.72L10.7646 12.47C11.2746 12.73 11.5946 13.24 11.5946 13.81V17.12H11.5846ZM11.3746 11.77L7.61465 9.73996C7.34465 9.58996 7.17465 9.29996 7.17465 8.96996C7.17465 8.64996 7.34465 8.34996 7.61465 8.19996L11.3746 6.16996C11.7746 5.95996 12.2446 5.95996 12.6446 6.16996L16.4046 8.19996C16.6746 8.34996 16.8446 8.63996 16.8446 8.96996C16.8446 9.29996 16.6746 9.58996 16.4046 9.73996L12.6446 11.77C12.4446 11.88 12.2246 11.93 12.0046 11.93C11.7846 11.93 11.5746 11.88 11.3746 11.77ZM18.0146 14.8C18.0146 15.37 17.6946 15.89 17.1846 16.14L13.6846 17.89C13.5646 17.95 13.4346 17.98 13.2946 17.98C13.1346 17.98 12.9846 17.94 12.8446 17.85C12.5846 17.69 12.4346 17.42 12.4346 17.12V13.81C12.4346 13.24 12.7546 12.72 13.2646 12.47L16.7646 10.72C17.0346 10.59 17.3446 10.6 17.6046 10.76C17.8646 10.92 18.0146 11.19 18.0146 11.49V14.8Z" fill="#171717"/>
</svg>
