<svg width="25" height="24" viewBox="0 0 25 24" fill="none" xmlns="http://www.w3.org/2000/svg">
<path d="M16.2056 2H7.82562C4.18562 2 2.01562 4.17 2.01562 7.81V16.18C2.01562 19.83 4.18562 22 7.82562 22H16.1956C19.8356 22 22.0056 19.83 22.0056 16.19V7.81C22.0156 4.17 19.8456 2 16.2056 2ZM17.2756 9.96L14.9656 12.94C14.6756 13.31 14.2656 13.55 13.7956 13.6C13.3256 13.66 12.8656 13.53 12.4956 13.24L10.6656 11.8C10.5956 11.74 10.5156 11.74 10.4756 11.75C10.4356 11.75 10.3656 11.77 10.3056 11.85L7.92562 14.94C7.77562 15.13 7.55562 15.23 7.33563 15.23C7.17563 15.23 7.01562 15.18 6.87563 15.07C6.54563 14.82 6.48562 14.35 6.73562 14.02L9.11563 10.93C9.40563 10.56 9.81563 10.32 10.2856 10.26C10.7456 10.2 11.2156 10.33 11.5856 10.62L13.4156 12.06C13.4856 12.12 13.5556 12.12 13.6056 12.11C13.6456 12.11 13.7156 12.09 13.7756 12.01L16.0856 9.03C16.3356 8.7 16.8156 8.64 17.1356 8.9C17.4656 9.17 17.5256 9.64 17.2756 9.96Z" fill="#171717"/>
</svg>
