<svg width="24" height="24" viewBox="0 0 24 24" fill="none" xmlns="http://www.w3.org/2000/svg">
<path d="M20.051 10.63L15.381 8.62L14.341 8.18C14.181 8.1 14.041 7.89 14.041 7.71V4.65C14.041 3.69 13.331 2.55 12.471 2.11C12.171 1.96 11.811 1.96 11.511 2.11C10.661 2.55 9.95104 3.7 9.95104 4.66V7.72C9.95104 7.9 9.81103 8.11 9.65103 8.19L3.95104 10.64C3.32104 10.9 2.81104 11.69 2.81104 12.37V13.69C2.81104 14.54 3.45103 14.96 4.24103 14.62L9.25104 12.46C9.64104 12.29 9.96104 12.5 9.96104 12.93V14.04V15.84C9.96104 16.07 9.83104 16.4 9.67104 16.56L7.35104 18.89C7.11104 19.13 7.00104 19.6 7.11104 19.94L7.56104 21.3C7.74103 21.89 8.41104 22.17 8.96104 21.89L11.341 19.89C11.701 19.58 12.291 19.58 12.651 19.89L15.031 21.89C15.581 22.16 16.251 21.89 16.451 21.3L16.901 19.94C17.011 19.61 16.901 19.13 16.661 18.89L14.341 16.56C14.171 16.4 14.041 16.07 14.041 15.84V12.93C14.041 12.5 14.351 12.3 14.751 12.46L19.761 14.62C20.551 14.96 21.191 14.54 21.191 13.69V12.37C21.191 11.69 20.681 10.9 20.051 10.63Z" fill="#171717"/>
</svg>
