<svg width="24" height="24" viewBox="0 0 24 24" fill="none" xmlns="http://www.w3.org/2000/svg">
<path d="M16.191 2H7.81098C4.17098 2 2.00098 4.17 2.00098 7.81V16.18C2.00098 19.83 4.17098 22 7.81098 22H16.181C19.821 22 21.991 19.83 21.991 16.19V7.81C22.001 4.17 19.831 2 16.191 2ZM18.511 13.19C18.511 13.79 18.051 14.09 17.501 13.85L14.151 12.41C13.761 12.25 13.451 12.45 13.451 12.87V14.72C13.451 14.88 13.541 15.11 13.661 15.23L15.301 16.88C15.471 17.05 15.551 17.39 15.471 17.62L15.151 18.58C15.011 19 14.531 19.2 14.141 19L12.471 17.58C12.211 17.37 11.791 17.37 11.541 17.58L9.86098 19C9.46098 19.2 8.99098 19 8.85098 18.57L8.53098 17.61C8.45098 17.38 8.53098 17.04 8.70098 16.87L10.371 15.23C10.481 15.12 10.581 14.89 10.581 14.72V12.87C10.581 12.45 10.261 12.24 9.88098 12.41L6.53098 13.85C5.97098 14.09 5.52098 13.79 5.52098 13.19V12.26C5.52098 11.78 5.89098 11.22 6.33098 11.03L10.271 9.33C10.431 9.26 10.571 9.05 10.571 8.87V6.8C10.571 6.12 11.061 5.31 11.671 5.01C11.891 4.9 12.141 4.9 12.361 5.01C12.961 5.32 13.461 6.12 13.461 6.8V8.87C13.461 9.05 13.591 9.26 13.761 9.33L17.701 11.03C18.151 11.22 18.511 11.78 18.511 12.26V13.19Z" fill="#171717"/>
</svg>
