<svg width="25" height="24" viewBox="0 0 25 24" fill="none" xmlns="http://www.w3.org/2000/svg">
<path d="M16.8357 1.91003H7.19569C5.07569 1.91003 3.33569 3.65003 3.33569 5.77003V19.86C3.33569 21.66 4.62569 22.42 6.20569 21.55L11.0857 18.84C11.6057 18.55 12.4457 18.55 12.9557 18.84L17.8357 21.55C19.4157 22.43 20.7057 21.67 20.7057 19.86V5.77003C20.6957 3.65003 18.9657 1.91003 16.8357 1.91003ZM15.6357 9.03003L11.6357 13.03C11.4857 13.18 11.2957 13.25 11.1057 13.25C10.9157 13.25 10.7257 13.18 10.5757 13.03L9.07569 11.53C8.78569 11.24 8.78569 10.76 9.07569 10.47C9.36569 10.18 9.84569 10.18 10.1357 10.47L11.1057 11.44L14.5757 7.97003C14.8657 7.68003 15.3457 7.68003 15.6357 7.97003C15.9257 8.26003 15.9257 8.74003 15.6357 9.03003Z" fill="#171717"/>
</svg>
