<svg width="25" height="24" viewBox="0 0 25 24" fill="none" xmlns="http://www.w3.org/2000/svg">
<path d="M16.8357 2H7.19569C5.06569 2 3.33569 3.74 3.33569 5.86V19.95C3.33569 21.75 4.62569 22.51 6.20569 21.64L11.0857 18.93C11.6057 18.64 12.4457 18.64 12.9557 18.93L17.8357 21.64C19.4157 22.52 20.7057 21.76 20.7057 19.95V5.86C20.6957 3.74 18.9657 2 16.8357 2ZM14.5157 11.4H12.7657V13.21C12.7657 13.62 12.4257 13.96 12.0157 13.96C11.6057 13.96 11.2657 13.62 11.2657 13.21V11.4H9.51569C9.10569 11.4 8.76569 11.06 8.76569 10.65C8.76569 10.24 9.10569 9.9 9.51569 9.9H11.2657V8.21C11.2657 7.8 11.6057 7.46 12.0157 7.46C12.4257 7.46 12.7657 7.8 12.7657 8.21V9.9H14.5157C14.9257 9.9 15.2657 10.24 15.2657 10.65C15.2657 11.06 14.9257 11.4 14.5157 11.4Z" fill="#171717"/>
</svg>
