<svg width="25" height="24" viewBox="0 0 25 24" fill="none" xmlns="http://www.w3.org/2000/svg">
<path d="M20.1357 3.88L3.40569 20.61C3.35569 20.41 3.33569 20.19 3.33569 19.95V5.86C3.33569 3.74 5.06569 2 7.19569 2H16.8357C18.2357 2 19.4657 2.75 20.1357 3.88Z" fill="#171717"/>
<path d="M21.7855 2.23C21.4855 1.93 20.9955 1.93 20.6955 2.23L2.24551 20.69C1.94551 20.99 1.94551 21.48 2.24551 21.78C2.39551 21.92 2.58551 22 2.78551 22C2.98551 22 3.17551 21.92 3.32551 21.77L21.7855 3.31C22.0955 3.01 22.0955 2.53 21.7855 2.23Z" fill="#171717"/>
<path d="M19.3055 7.71005L11.9155 15.1001C11.4555 15.5601 11.5455 16.3301 12.1055 16.6601L19.4955 21.0901C20.1655 21.4901 21.0055 21.0101 21.0055 20.2301V8.41005C21.0155 7.52005 19.9355 7.08005 19.3055 7.71005Z" fill="#171717"/>
</svg>
