<svg width="25" height="24" viewBox="0 0 25 24" fill="none" xmlns="http://www.w3.org/2000/svg">
<path d="M15.4301 2.5V8.4C15.4301 8.84 14.9101 9.06 14.5901 8.77L12.8401 7.16C12.6501 6.98 12.3501 6.98 12.1601 7.16L10.4101 8.76C10.0901 9.06 9.57007 8.83 9.57007 8.4V2.5C9.57007 2.22 9.79007 2 10.0701 2H14.9301C15.2101 2 15.4301 2.22 15.4301 2.5Z" fill="#171717"/>
<path d="M17.48 2.06001C17.19 2.02001 16.93 2.27001 16.93 2.56001V8.58001C16.93 9.34001 16.48 10.03 15.78 10.34C15.08 10.64 14.27 10.51 13.71 9.99001L12.84 9.19001C12.65 9.01001 12.36 9.01001 12.16 9.19001L11.29 9.99001C10.93 10.33 10.46 10.5 9.99 10.5C9.73 10.5 9.47 10.45 9.22 10.34C8.52 10.03 8.07 9.34001 8.07 8.58001V2.56001C8.07 2.27001 7.81 2.02001 7.52 2.06001C4.72 2.41001 3.5 4.30001 3.5 7.00001V17C3.5 20 5 22 8.5 22H16.5C20 22 21.5 20 21.5 17V7.00001C21.5 4.30001 20.28 2.41001 17.48 2.06001ZM18 18.75H9.5C9.09 18.75 8.75 18.41 8.75 18C8.75 17.59 9.09 17.25 9.5 17.25H18C18.41 17.25 18.75 17.59 18.75 18C18.75 18.41 18.41 18.75 18 18.75ZM18 14.75H13.75C13.34 14.75 13 14.41 13 14C13 13.59 13.34 13.25 13.75 13.25H18C18.41 13.25 18.75 13.59 18.75 14C18.75 14.41 18.41 14.75 18 14.75Z" fill="#171717"/>
</svg>
