<svg width="25" height="24" viewBox="0 0 25 24" fill="none" xmlns="http://www.w3.org/2000/svg">
<path d="M10.17 13.9199C9.43003 13.9199 8.84003 14.5199 8.84003 15.2599C8.84003 15.9999 9.44003 16.5899 10.17 16.5899C10.91 16.5899 11.51 15.9899 11.51 15.2599C11.51 14.5199 10.91 13.9199 10.17 13.9199Z" fill="#171717"/>
<path d="M16.69 2H8.31C4.67 2 2.5 4.17 2.5 7.81V16.18C2.5 19.83 4.67 22 8.31 22H16.68C20.32 22 22.49 19.83 22.49 16.19V7.81C22.5 4.17 20.33 2 16.69 2ZM17.62 9.8C17.62 10.41 17.36 10.95 16.92 11.27C16.64 11.47 16.3 11.58 15.94 11.58C15.73 11.58 15.52 11.54 15.3 11.47L13.01 10.71C13 10.71 12.98 10.7 12.97 10.69V15.25C12.97 16.79 11.71 18.05 10.17 18.05C8.63 18.05 7.37 16.79 7.37 15.25C7.37 13.71 8.63 12.45 10.17 12.45C10.66 12.45 11.11 12.59 11.51 12.8V8.63V8.02C11.51 7.41 11.77 6.87 12.21 6.55C12.66 6.23 13.25 6.15 13.83 6.35L16.12 7.11C16.98 7.4 17.63 8.3 17.63 9.2V9.8H17.62Z" fill="#171717"/>
</svg>
