<svg width="25" height="24" viewBox="0 0 25 24" fill="none" xmlns="http://www.w3.org/2000/svg">
<path d="M10.04 16.6701C9.63004 16.6701 9.29004 16.3301 9.29004 15.9201V12.5301L9.10004 12.7501C8.82004 13.0601 8.35004 13.0801 8.04004 12.8101C7.73004 12.5301 7.71004 12.0601 7.98004 11.7501L9.48004 10.0801C9.69004 9.85008 10.02 9.77008 10.31 9.88008C10.6 9.99008 10.79 10.2701 10.79 10.5801V15.9301C10.79 16.3401 10.46 16.6701 10.04 16.6701Z" fill="#171717"/>
<path d="M12.5 3.47998C12.42 3.47998 12.34 3.48998 12.26 3.48998L13.08 2.46998C13.34 2.14998 13.29 1.66998 12.96 1.41998C12.64 1.15998 12.17 1.20998 11.91 1.53998L9.93999 3.99998C9.92999 4.00998 9.93 4.01998 9.92 4.03998C9.89 4.07998 9.87 4.12998 9.85 4.16998C9.83 4.21998 9.81 4.25998 9.8 4.29998C9.79 4.34998 9.79 4.38998 9.79 4.43998C9.79 4.48998 9.79 4.53998 9.79 4.58998C9.79 4.60998 9.79 4.61998 9.79 4.63998C9.8 4.66998 9.81999 4.68998 9.83 4.72998C9.85 4.77998 9.86 4.81998 9.89 4.85998C9.92 4.89998 9.95 4.93998 9.99 4.97998C10.01 4.99998 10.03 5.02998 10.05 5.04998C10.06 5.05998 10.08 5.05998 10.09 5.06998C10.12 5.08998 10.15 5.10998 10.19 5.11998C10.24 5.14998 10.29 5.16998 10.34 5.17998C10.38 5.19998 10.41 5.19998 10.45 5.19998C10.48 5.19998 10.5 5.20998 10.53 5.20998C10.55 5.20998 10.58 5.19998 10.6 5.18998C10.63 5.18998 10.66 5.18998 10.7 5.18998C11.34 5.03998 11.94 4.96998 12.51 4.96998C17 4.96998 20.65 8.61998 20.65 13.11C20.65 17.6 17 21.25 12.51 21.25C8.02 21.25 4.37 17.6 4.37 13.11C4.37 11.37 4.94 9.68998 6.02 8.24998C6.27 7.91998 6.2 7.44998 5.87 7.19998C5.54 6.94998 5.07 7.01998 4.82 7.34998C3.54 9.04998 2.87 11.04 2.87 13.11C2.87 18.42 7.19 22.75 12.51 22.75C17.83 22.75 22.15 18.43 22.15 13.11C22.15 7.78998 17.81 3.47998 12.5 3.47998Z" fill="#171717"/>
<path d="M14.5 16.6701C12.98 16.6701 11.75 15.4401 11.75 13.9201V12.5701C11.75 11.0501 12.98 9.82007 14.5 9.82007C16.02 9.82007 17.25 11.0501 17.25 12.5701V13.9201C17.25 15.4401 16.02 16.6701 14.5 16.6701ZM14.5 11.3301C13.81 11.3301 13.25 11.8901 13.25 12.5801V13.9301C13.25 14.6201 13.81 15.1801 14.5 15.1801C15.19 15.1801 15.75 14.6201 15.75 13.9301V12.5801C15.75 11.8901 15.19 11.3301 14.5 11.3301Z" fill="#171717"/>
</svg>
