<svg width="25" height="24" viewBox="0 0 25 24" fill="none" xmlns="http://www.w3.org/2000/svg">
<path d="M14.9301 16.9201H12.6401C12.2301 16.9201 11.8901 16.5801 11.8901 16.1701C11.8901 15.7601 12.2301 15.4201 12.6401 15.4201H14.9301C15.3601 15.4201 15.7101 15.0701 15.7101 14.6401C15.7101 14.2101 15.3601 13.8601 14.9301 13.8601H12.6401C12.4001 13.8601 12.1701 13.7401 12.0301 13.5501C11.8901 13.3601 11.8501 13.1001 11.9301 12.8701L12.6901 10.5801C12.7901 10.2701 13.0801 10.0701 13.4001 10.0701H16.4601C16.8701 10.0701 17.2101 10.4101 17.2101 10.8201C17.2101 11.2301 16.8701 11.5701 16.4601 11.5701H13.9401L13.6801 12.3601H14.9301C16.1901 12.3601 17.2101 13.3801 17.2101 14.6401C17.2101 15.9001 16.1801 16.9201 14.9301 16.9201Z" fill="#171717"/>
<path d="M10.04 16.9201C9.63004 16.9201 9.29004 16.5801 9.29004 16.1701V12.7801L9.10004 13.0001C8.82004 13.3101 8.35004 13.3301 8.04004 13.0601C7.74004 12.7801 7.71004 12.3101 7.99004 12.0001L9.49004 10.3301C9.70004 10.1001 10.03 10.0201 10.32 10.1301C10.61 10.2401 10.8 10.5201 10.8 10.8301V16.1801C10.79 16.5901 10.46 16.9201 10.04 16.9201Z" fill="#171717"/>
<path d="M12.5 3.47994C12.42 3.47994 12.34 3.48994 12.26 3.48994L13.08 2.46994C13.34 2.14994 13.29 1.66994 12.96 1.41994C12.63 1.16994 12.17 1.20994 11.91 1.53994L9.93998 3.99994C9.92998 4.00994 9.92998 4.01994 9.91998 4.03994C9.88998 4.07994 9.86998 4.12994 9.84998 4.16994C9.82998 4.21994 9.80998 4.25994 9.79998 4.29994C9.78998 4.34994 9.78998 4.38994 9.78998 4.43994C9.78998 4.48994 9.78998 4.53994 9.78998 4.58994C9.78998 4.60994 9.78998 4.61994 9.78998 4.63994C9.79998 4.66994 9.81998 4.68994 9.82998 4.71994C9.84998 4.76994 9.86998 4.80994 9.88998 4.85994C9.91998 4.89994 9.94998 4.93994 9.98998 4.96994C10.01 4.99994 10.02 5.02994 10.05 5.04994C10.07 5.05994 10.08 5.06994 10.1 5.07994C10.12 5.09994 10.15 5.10994 10.18 5.11994C10.23 5.14994 10.29 5.16994 10.34 5.17994C10.38 5.19994 10.41 5.19994 10.44 5.19994C10.47 5.19994 10.49 5.20994 10.52 5.20994C10.55 5.20994 10.57 5.19994 10.59 5.18994C10.62 5.18994 10.65 5.19994 10.68 5.18994C11.32 5.03994 11.92 4.96994 12.49 4.96994C16.98 4.96994 20.63 8.61994 20.63 13.1099C20.63 17.5999 16.98 21.2499 12.49 21.2499C7.99998 21.2499 4.34998 17.5999 4.34998 13.1099C4.34998 11.3699 4.91998 9.68994 5.99998 8.24994C6.24998 7.91994 6.17998 7.44994 5.84998 7.19994C5.51998 6.94994 5.04998 7.01994 4.79998 7.34994C3.51998 9.04994 2.84998 11.0399 2.84998 13.1099C2.84998 18.4199 7.16997 22.7499 12.49 22.7499C17.81 22.7499 22.13 18.4299 22.13 13.1099C22.13 7.78994 17.81 3.47994 12.5 3.47994Z" fill="#171717"/>
</svg>
