<svg width="25" height="24" viewBox="0 0 25 24" fill="none" xmlns="http://www.w3.org/2000/svg">
<path d="M22.5 3.25H2.5C2.09 3.25 1.75 2.91 1.75 2.5C1.75 2.09 2.09 1.75 2.5 1.75H22.5C22.91 1.75 23.25 2.09 23.25 2.5C23.25 2.91 22.91 3.25 22.5 3.25Z" fill="#171717"/>
<path d="M4.16992 2.5V14.47C4.16992 15.45 4.62992 16.38 5.41992 16.97L10.6299 20.87C11.7399 21.7 13.2699 21.7 14.3799 20.87L19.5899 16.97C20.3799 16.38 20.8399 15.45 20.8399 14.47V2.5H4.16992ZM16.4999 13.75H8.49992C8.08992 13.75 7.74992 13.41 7.74992 13C7.74992 12.59 8.08992 12.25 8.49992 12.25H16.4999C16.9099 12.25 17.2499 12.59 17.2499 13C17.2499 13.41 16.9099 13.75 16.4999 13.75ZM16.4999 8.75H8.49992C8.08992 8.75 7.74992 8.41 7.74992 8C7.74992 7.59 8.08992 7.25 8.49992 7.25H16.4999C16.9099 7.25 17.2499 7.59 17.2499 8C17.2499 8.41 16.9099 8.75 16.4999 8.75Z" fill="#171717"/>
</svg>
