<svg width="24" height="24" viewBox="0 0 24 24" fill="none" xmlns="http://www.w3.org/2000/svg">
<path d="M17.6068 5.31003L11.9568 2.27003C11.3568 1.95003 10.6468 1.95003 10.0468 2.27003L4.40682 5.31003C3.99682 5.54003 3.73682 5.98003 3.73682 6.46003C3.73682 6.95003 3.98682 7.39003 4.40682 7.61003L10.0568 10.65C10.3568 10.81 10.6868 10.89 11.0068 10.89C11.3268 10.89 11.6668 10.81 11.9568 10.65L17.6068 7.61003C18.0168 7.39003 18.2768 6.95003 18.2768 6.46003C18.2768 5.98003 18.0168 5.54003 17.6068 5.31003Z" fill="#171717"/>
<path d="M9.12684 11.7101L3.87684 9.09009C3.46684 8.88009 3.00684 8.91009 2.61684 9.14009C2.23684 9.38009 2.00684 9.79009 2.00684 10.2401V15.2001C2.00684 16.0601 2.48684 16.8301 3.25684 17.2201L8.50684 19.8401C8.68684 19.9301 8.88684 19.9801 9.08684 19.9801C9.31684 19.9801 9.55684 19.9101 9.76684 19.7901C10.1468 19.5501 10.3768 19.1401 10.3768 18.6901V13.7301C10.3668 12.8701 9.88684 12.1001 9.12684 11.7101Z" fill="#171717"/>
<path d="M20.007 10.2401V12.7001C19.527 12.5601 19.017 12.5001 18.507 12.5001C17.147 12.5001 15.817 12.9701 14.767 13.8101C13.327 14.9401 12.507 16.6501 12.507 18.5001C12.507 18.9901 12.567 19.4801 12.697 19.9501C12.547 19.9301 12.397 19.8701 12.257 19.7801C11.877 19.5501 11.647 19.1401 11.647 18.6901V13.7301C11.647 12.8701 12.127 12.1001 12.887 11.7101L18.137 9.09009C18.547 8.88009 19.007 8.91009 19.397 9.14009C19.777 9.38009 20.007 9.79009 20.007 10.2401Z" fill="#171717"/>
<path d="M21.9868 15.65C21.1668 14.64 19.9168 14 18.5068 14C17.4468 14 16.4668 14.37 15.6968 14.99C14.6568 15.81 14.0068 17.08 14.0068 18.5C14.0068 19.91 14.6468 21.16 15.6568 21.98C16.4268 22.62 17.4268 23 18.5068 23C19.6468 23 20.6768 22.57 21.4768 21.88C22.4068 21.05 23.0068 19.85 23.0068 18.5C23.0068 17.42 22.6268 16.42 21.9868 15.65ZM19.5368 18.78C19.5368 19.04 19.3968 19.29 19.1768 19.42L17.7668 20.26C17.6468 20.33 17.5168 20.37 17.3768 20.37C17.1268 20.37 16.8768 20.24 16.7368 20.01C16.5268 19.65 16.6368 19.19 16.9968 18.98L18.0368 18.36V17.1C18.0368 16.69 18.3768 16.35 18.7868 16.35C19.1968 16.35 19.5368 16.69 19.5368 17.1V18.78Z" fill="#171717"/>
</svg>
