<svg width="24" height="24" viewBox="0 0 24 24" fill="none" xmlns="http://www.w3.org/2000/svg">
<path d="M17.6039 5.31003L11.9539 2.27003C11.3539 1.95003 10.6439 1.95003 10.0439 2.27003L4.40389 5.31003C3.99389 5.54003 3.73389 5.98003 3.73389 6.46003C3.73389 6.95003 3.98389 7.39003 4.40389 7.61003L10.0539 10.65C10.3539 10.81 10.6839 10.89 11.0039 10.89C11.3239 10.89 11.6639 10.81 11.9539 10.65L17.6039 7.61003C18.0139 7.39003 18.2739 6.95003 18.2739 6.46003C18.2739 5.98003 18.0139 5.54003 17.6039 5.31003Z" fill="#171717"/>
<path d="M9.12391 11.7101L3.87391 9.09009C3.46391 8.88009 3.00391 8.91009 2.61391 9.14009C2.23391 9.38009 2.00391 9.79009 2.00391 10.2401V15.2001C2.00391 16.0601 2.48391 16.8301 3.25391 17.2201L8.50391 19.8401C8.68391 19.9301 8.88391 19.9801 9.08391 19.9801C9.31391 19.9801 9.55391 19.9101 9.76391 19.7901C10.1439 19.5501 10.3739 19.1401 10.3739 18.6901V13.7301C10.3639 12.8701 9.88391 12.1001 9.12391 11.7101Z" fill="#171717"/>
<path d="M20.004 10.2401V12.7001C19.524 12.5601 19.014 12.5001 18.504 12.5001C17.144 12.5001 15.814 12.9701 14.764 13.8101C13.324 14.9401 12.504 16.6501 12.504 18.5001C12.504 18.9901 12.564 19.4801 12.694 19.9501C12.544 19.9301 12.394 19.8701 12.254 19.7801C11.874 19.5501 11.644 19.1401 11.644 18.6901V13.7301C11.644 12.8701 12.124 12.1001 12.884 11.7101L18.134 9.09009C18.544 8.88009 19.004 8.91009 19.394 9.14009C19.774 9.38009 20.004 9.79009 20.004 10.2401Z" fill="#171717"/>
<path d="M22.0039 15.7C22.0039 15.69 21.9939 15.68 21.9839 15.67C21.9439 15.61 21.8939 15.55 21.8439 15.5C21.8339 15.49 21.8239 15.47 21.8139 15.46C21.0039 14.56 19.8139 14 18.5039 14C17.2439 14 16.0939 14.52 15.2739 15.36C14.4839 16.17 14.0039 17.28 14.0039 18.5C14.0039 19.34 14.2439 20.14 14.6539 20.82C14.8739 21.19 15.1539 21.53 15.4739 21.81C15.4939 21.82 15.5039 21.83 15.5139 21.84C15.5639 21.89 15.6139 21.93 15.6739 21.98C15.6739 21.98 15.6739 21.98 15.6839 21.98C15.6939 21.99 15.7039 22 15.7139 22C16.4639 22.63 17.4339 23 18.5039 23C20.1439 23 21.5739 22.12 22.3539 20.82C22.5839 20.43 22.7639 20 22.8739 19.55C22.9639 19.21 23.0039 18.86 23.0039 18.5C23.0039 17.44 22.6339 16.46 22.0039 15.7ZM20.1839 19.23H19.2539V20.2C19.2539 20.61 18.9139 20.95 18.5039 20.95C18.0939 20.95 17.7539 20.61 17.7539 20.2V19.23H16.8239C16.4139 19.23 16.0739 18.89 16.0739 18.48C16.0739 18.07 16.4139 17.73 16.8239 17.73H17.7539V16.84C17.7539 16.43 18.0939 16.09 18.5039 16.09C18.9139 16.09 19.2539 16.43 19.2539 16.84V17.73H20.1839C20.5939 17.73 20.9339 18.07 20.9339 18.48C20.9339 18.89 20.6039 19.23 20.1839 19.23Z" fill="#171717"/>
</svg>
