<svg width="24" height="24" viewBox="0 0 24 24" fill="none" xmlns="http://www.w3.org/2000/svg">
<path d="M17.6058 5.31003L11.9558 2.27003C11.3558 1.95003 10.6458 1.95003 10.0458 2.27003L4.40584 5.31003C3.99584 5.54003 3.73584 5.98003 3.73584 6.46003C3.73584 6.95003 3.98584 7.39003 4.40584 7.61003L10.0558 10.65C10.3558 10.81 10.6858 10.89 11.0058 10.89C11.3258 10.89 11.6658 10.81 11.9558 10.65L17.6058 7.61003C18.0158 7.39003 18.2758 6.95003 18.2758 6.46003C18.2758 5.98003 18.0158 5.54003 17.6058 5.31003Z" fill="#171717"/>
<path d="M9.12586 11.7101L3.87586 9.09009C3.46586 8.88009 3.00586 8.91009 2.61586 9.14009C2.23586 9.38009 2.00586 9.79009 2.00586 10.2401V15.2001C2.00586 16.0601 2.48586 16.8301 3.25586 17.2201L8.50586 19.8401C8.68586 19.9301 8.88586 19.9801 9.08586 19.9801C9.31586 19.9801 9.55586 19.9101 9.76586 19.7901C10.1459 19.5501 10.3759 19.1401 10.3759 18.6901V13.7301C10.3659 12.8701 9.88586 12.1001 9.12586 11.7101Z" fill="#171717"/>
<path d="M20.006 10.2401V12.7001C19.526 12.5601 19.016 12.5001 18.506 12.5001C17.146 12.5001 15.816 12.9701 14.766 13.8101C13.326 14.9401 12.506 16.6501 12.506 18.5001C12.506 18.9901 12.566 19.4801 12.696 19.9501C12.546 19.9301 12.396 19.8701 12.256 19.7801C11.876 19.5501 11.646 19.1401 11.646 18.6901V13.7301C11.646 12.8701 12.126 12.1001 12.886 11.7101L18.136 9.09009C18.546 8.88009 19.006 8.91009 19.396 9.14009C19.776 9.38009 20.006 9.79009 20.006 10.2401Z" fill="#171717"/>
<path d="M21.9859 15.67C21.1659 14.66 19.9159 14.02 18.5059 14.02C17.4459 14.02 16.4659 14.39 15.6959 15.01C14.6559 15.83 14.0059 17.1 14.0059 18.52C14.0059 19.36 14.2459 20.16 14.6559 20.84C14.9259 21.29 15.2659 21.68 15.6659 22H15.6759C16.4459 22.64 17.4359 23.02 18.5059 23.02C19.6459 23.02 20.6759 22.6 21.4659 21.9C21.8159 21.6 22.1159 21.24 22.3559 20.84C22.7659 20.16 23.0059 19.36 23.0059 18.52C23.0059 17.44 22.6259 16.44 21.9859 15.67ZM20.7659 17.96L18.3659 20.18C18.2259 20.31 18.0359 20.38 17.8559 20.38C17.6659 20.38 17.4759 20.31 17.3259 20.16L16.2159 19.05C15.9259 18.76 15.9259 18.28 16.2159 17.99C16.5059 17.7 16.9859 17.7 17.2759 17.99L17.8759 18.59L19.7459 16.86C20.0459 16.58 20.5259 16.6 20.8059 16.9C21.0959 17.21 21.0759 17.68 20.7659 17.96Z" fill="#171717"/>
</svg>
