<svg width="24" height="24" viewBox="0 0 24 24" fill="none" xmlns="http://www.w3.org/2000/svg">
<path d="M17.6088 5.31003L11.9588 2.27003C11.3588 1.95003 10.6488 1.95003 10.0488 2.27003L4.40877 5.31003C3.99877 5.54003 3.73877 5.98003 3.73877 6.46003C3.73877 6.95003 3.98877 7.39003 4.40877 7.61003L10.0588 10.65C10.3588 10.81 10.6888 10.89 11.0088 10.89C11.3288 10.89 11.6688 10.81 11.9588 10.65L17.6088 7.61003C18.0188 7.39003 18.2788 6.95003 18.2788 6.46003C18.2788 5.98003 18.0188 5.54003 17.6088 5.31003Z" fill="#171717"/>
<path d="M9.12879 11.7101L3.87879 9.09009C3.46879 8.88009 3.00879 8.91009 2.61879 9.14009C2.23879 9.38009 2.00879 9.79009 2.00879 10.2401V15.2001C2.00879 16.0601 2.48879 16.8301 3.25879 17.2201L8.50879 19.8401C8.68879 19.9301 8.88879 19.9801 9.08879 19.9801C9.31879 19.9801 9.55879 19.9101 9.76879 19.7901C10.1488 19.5501 10.3788 19.1401 10.3788 18.6901V13.7301C10.3688 12.8701 9.88879 12.1001 9.12879 11.7101Z" fill="#171717"/>
<path d="M20.0089 10.2401V12.7001C19.5289 12.5601 19.0189 12.5001 18.5089 12.5001C17.1489 12.5001 15.8189 12.9701 14.7689 13.8101C13.3289 14.9401 12.5089 16.6501 12.5089 18.5001C12.5089 18.9901 12.5689 19.4801 12.6989 19.9501C12.5489 19.9301 12.3989 19.8701 12.2589 19.7801C11.8789 19.5501 11.6489 19.1401 11.6489 18.6901V13.7301C11.6489 12.8701 12.1289 12.1001 12.8889 11.7101L18.1389 9.09009C18.5489 8.88009 19.0089 8.91009 19.3989 9.14009C19.7789 9.38009 20.0089 9.79009 20.0089 10.2401Z" fill="#171717"/>
<path d="M22.5888 21.5L21.7488 20.66C22.1888 20 22.4488 19.2 22.4488 18.35C22.4488 16.02 20.5588 14.13 18.2288 14.13C15.8988 14.13 14.0088 16.02 14.0088 18.35C14.0088 20.68 15.8988 22.57 18.2288 22.57C19.0788 22.57 19.8788 22.31 20.5388 21.87L21.3788 22.71C21.5488 22.88 21.7588 22.96 21.9788 22.96C22.1988 22.96 22.4188 22.88 22.5788 22.71C22.9188 22.37 22.9188 21.83 22.5888 21.5Z" fill="#171717"/>
</svg>
