<svg width="24" height="24" viewBox="0 0 24 24" fill="none" xmlns="http://www.w3.org/2000/svg">
<path d="M17.6049 5.31003L11.9549 2.27003C11.3549 1.95003 10.6449 1.95003 10.0449 2.27003L4.40486 5.31003C3.99486 5.54003 3.73486 5.98003 3.73486 6.46003C3.73486 6.95003 3.98486 7.39003 4.40486 7.61003L10.0549 10.65C10.3549 10.81 10.6849 10.89 11.0049 10.89C11.3249 10.89 11.6649 10.81 11.9549 10.65L17.6049 7.61003C18.0149 7.39003 18.2749 6.95003 18.2749 6.46003C18.2749 5.98003 18.0149 5.54003 17.6049 5.31003Z" fill="#171717"/>
<path d="M9.12488 11.7101L3.87488 9.09009C3.46488 8.88009 3.00488 8.91009 2.61488 9.14009C2.23488 9.38009 2.00488 9.79009 2.00488 10.2401V15.2001C2.00488 16.0601 2.48488 16.8301 3.25488 17.2201L8.50488 19.8401C8.68488 19.9301 8.88488 19.9801 9.08488 19.9801C9.31488 19.9801 9.55488 19.9101 9.76488 19.7901C10.1449 19.5501 10.3749 19.1401 10.3749 18.6901V13.7301C10.3649 12.8701 9.88488 12.1001 9.12488 11.7101Z" fill="#171717"/>
<path d="M20.005 10.2401V12.7001C19.525 12.5601 19.015 12.5001 18.505 12.5001C17.145 12.5001 15.815 12.9701 14.765 13.8101C13.325 14.9401 12.505 16.6501 12.505 18.5001C12.505 18.9901 12.565 19.4801 12.695 19.9501C12.545 19.9301 12.395 19.8701 12.255 19.7801C11.875 19.5501 11.645 19.1401 11.645 18.6901V13.7301C11.645 12.8701 12.125 12.1001 12.885 11.7101L18.135 9.09009C18.545 8.88009 19.005 8.91009 19.395 9.14009C19.775 9.38009 20.005 9.79009 20.005 10.2401Z" fill="#171717"/>
<path d="M21.6848 15.32C20.7948 14.43 19.6148 13.98 18.4448 14C17.3148 14.01 16.1848 14.46 15.3248 15.32C14.7248 15.91 14.3348 16.65 14.1448 17.42C14.0348 17.84 13.9948 18.27 14.0248 18.7V18.75C14.0248 18.82 14.0348 18.88 14.0448 18.96C14.0448 18.96 14.0448 18.96 14.0548 18.97V19C14.1448 19.98 14.5648 20.93 15.3248 21.68C16.4848 22.84 18.1148 23.23 19.5848 22.86C20.0248 22.75 20.4548 22.57 20.8548 22.33C21.1548 22.16 21.4348 21.94 21.6848 21.68C22.4348 20.93 22.8648 19.98 22.9548 18.99C22.9648 18.99 22.9648 18.97 22.9648 18.96C22.9848 18.89 22.9848 18.81 22.9848 18.74C22.9848 18.73 22.9948 18.71 22.9948 18.69C23.0548 17.48 22.6148 16.24 21.6848 15.32ZM20.2348 20.21C19.9448 20.5 19.4748 20.5 19.1748 20.21L18.5148 19.55L17.8348 20.23C17.5348 20.53 17.0648 20.53 16.7748 20.23C16.4748 19.94 16.4748 19.47 16.7748 19.17L17.4548 18.49L16.7948 17.83C16.5048 17.53 16.5048 17.06 16.7948 16.77C17.0948 16.47 17.5648 16.47 17.8648 16.77L18.5148 17.43L19.1448 16.79C19.4448 16.5 19.9148 16.5 20.2148 16.79C20.5048 17.09 20.5048 17.56 20.2148 17.86L19.5748 18.49L20.2348 19.14C20.5348 19.44 20.5348 19.91 20.2348 20.21Z" fill="#171717"/>
</svg>
