<svg width="24" height="24" viewBox="0 0 24 24" fill="none" xmlns="http://www.w3.org/2000/svg">
<path d="M20.1077 6.94C20.1077 7.48 19.8177 7.97 19.3577 8.22L17.6177 9.16L16.1377 9.95L13.0677 11.61C12.7377 11.79 12.3777 11.88 12.0077 11.88C11.6377 11.88 11.2777 11.79 10.9477 11.61L4.65771 8.22C4.19771 7.97 3.90771 7.48 3.90771 6.94C3.90771 6.4 4.19771 5.91 4.65771 5.66L6.62771 4.6L8.19771 3.75L10.9477 2.27C11.6077 1.91 12.4077 1.91 13.0677 2.27L19.3577 5.66C19.8177 5.91 20.1077 6.4 20.1077 6.94Z" fill="#171717"/>
<path d="M9.90803 12.79L4.05803 9.87002C3.60803 9.64002 3.08803 9.67002 2.65803 9.93002C2.22803 10.19 1.97803 10.65 1.97803 11.15V16.68C1.97803 17.64 2.50803 18.5 3.36803 18.93L9.21803 21.85C9.41803 21.95 9.63803 22 9.85803 22C10.118 22 10.378 21.93 10.608 21.78C11.038 21.52 11.288 21.06 11.288 20.56V15.03C11.298 14.08 10.768 13.22 9.90803 12.79Z" fill="#171717"/>
<path d="M22.0378 11.15V16.68C22.0378 17.63 21.5078 18.49 20.6478 18.92L14.7978 21.85C14.5978 21.95 14.3778 22 14.1578 22C13.8978 22 13.6378 21.93 13.3978 21.78C12.9778 21.52 12.7178 21.06 12.7178 20.56V15.04C12.7178 14.08 13.2478 13.22 14.1078 12.79L16.2578 11.72L17.7578 10.97L19.9578 9.87C20.4078 9.64 20.9278 9.66 21.3578 9.93C21.7778 10.19 22.0378 10.65 22.0378 11.15Z" fill="#171717"/>
<path d="M17.6179 9.16L16.1379 9.95L6.62793 4.6L8.19793 3.75L17.3779 8.93C17.4779 8.99 17.5579 9.07 17.6179 9.16Z" fill="#171717"/>
<path d="M17.7578 10.97V13.24C17.7578 13.65 17.4178 13.99 17.0078 13.99C16.5978 13.99 16.2578 13.65 16.2578 13.24V11.72L17.7578 10.97Z" fill="#171717"/>
</svg>
