<svg width="24" height="24" viewBox="0 0 24 24" fill="none" xmlns="http://www.w3.org/2000/svg">
<path d="M22.001 18.33C22.001 18.69 21.921 19.06 21.751 19.42C21.581 19.78 21.361 20.12 21.071 20.44C20.581 20.98 20.041 21.37 19.431 21.62C18.831 21.87 18.171 22 17.471 22C16.451 22 15.361 21.76 14.211 21.27C13.061 20.78 11.901 20.12 10.761 19.29C10.181 18.86 9.61104 18.42 9.06104 17.94L12.321 14.68C12.331 14.68 12.331 14.68 12.341 14.69C12.861 15.13 13.291 15.43 13.631 15.61C13.681 15.63 13.741 15.66 13.811 15.69C13.891 15.72 13.971 15.73 14.061 15.73C14.231 15.73 14.361 15.67 14.471 15.56L15.231 14.81C15.481 14.56 15.721 14.37 15.951 14.25C16.181 14.11 16.411 14.04 16.661 14.04C16.851 14.04 17.051 14.08 17.271 14.17C17.491 14.26 17.721 14.39 17.971 14.56L21.291 16.91C21.551 17.09 21.731 17.3 21.841 17.55C21.941 17.8 22.001 18.05 22.001 18.33Z" fill="#171717"/>
<path d="M10.761 13.24L7.50098 16.5C7.49098 16.5 7.49098 16.5 7.48098 16.49C6.45098 15.45 5.52098 14.36 4.68098 13.22C3.87098 12.1 3.22098 10.97 2.74098 9.86C2.73098 9.84 2.73098 9.83 2.72098 9.81C2.24098 8.67 2.00098 7.58 2.00098 6.54C2.00098 5.86 2.12098 5.21 2.36098 4.61C2.56098 4.1 2.86098 3.62 3.27098 3.19C3.34098 3.11 3.42098 3.02 3.51098 2.94C3.67098 2.78 3.83098 2.64 4.00098 2.53C4.01098 2.53 4.01098 2.53 4.01098 2.53C4.51098 2.17 5.04098 2 5.60098 2C5.88098 2 6.16098 2.06 6.41098 2.18C6.65098 2.29 6.86098 2.45 7.03098 2.68C7.05098 2.7 7.06098 2.72 7.08098 2.74L9.40098 6.01C9.58098 6.26 9.71098 6.49 9.80098 6.71C9.89098 6.92 9.94098 7.13 9.94098 7.32C9.94098 7.56 9.87098 7.8 9.73098 8.03C9.60098 8.26 9.41098 8.5 9.17098 8.74L8.41098 9.53C8.30098 9.64 8.25098 9.77 8.25098 9.93C8.25098 10.01 8.26098 10.08 8.28098 10.16C8.31098 10.24 8.34098 10.3 8.36098 10.36C8.54098 10.69 8.85098 11.12 9.29098 11.64C9.74098 12.16 10.221 12.69 10.741 13.22C10.751 13.23 10.751 13.23 10.761 13.24Z" fill="#171717"/>
<path d="M21.7709 2.23C21.4709 1.93 20.9809 1.93 20.6809 2.23L2.23086 20.69C1.93086 20.99 1.93086 21.48 2.23086 21.78C2.38086 21.92 2.57086 22 2.77086 22C2.97086 22 3.16086 21.92 3.31086 21.77L21.7709 3.31C22.0809 3.01 22.0809 2.53 21.7709 2.23Z" fill="#171717"/>
</svg>
