<svg width="25" height="24" viewBox="0 0 25 24" fill="none" xmlns="http://www.w3.org/2000/svg">
<path d="M22.27 2.22988C21.97 1.92988 21.48 1.92988 21.18 2.22988L2.73 20.6899C2.43 20.9899 2.43 21.4799 2.73 21.7799C2.88 21.9199 3.07 21.9999 3.27 21.9999C3.47 21.9999 3.66 21.9199 3.81 21.7699L22.27 3.30988C22.58 3.00988 22.58 2.52988 22.27 2.22988Z" fill="#171717"/>
<path d="M17.05 5.11L16.33 3.66C15.87 2.75 14.67 2 13.65 2H11.36C10.33 2 9.13005 2.75 8.67005 3.66L7.95005 5.11C7.67004 5.65 7.11005 6 6.50005 6C4.33005 6 2.61005 7.83 2.75005 9.99L3.27005 18.25C3.32005 19.1 3.53005 19.89 3.98005 20.52L18.5 6C17.89 6 17.33 5.65 17.05 5.11ZM10 10.75H7.00005C6.59005 10.75 6.25005 10.41 6.25005 10C6.25005 9.59 6.59005 9.25 7.00005 9.25H10C10.41 9.25 10.75 9.59 10.75 10C10.75 10.41 10.41 10.75 10 10.75Z" fill="#171717"/>
<path d="M22.25 9.99006L21.73 18.2501C21.6 20.3101 20.5 22.0001 17.74 22.0001H7.91002C7.02002 22.0001 6.57002 20.9201 7.20002 20.2901L9.67002 17.8201C9.98002 17.5101 10.46 17.4701 10.85 17.6901C11.54 18.0801 12.37 18.2301 13.25 18.0401C14.52 17.7701 15.55 16.7301 15.8 15.4501C15.97 14.5901 15.82 13.7801 15.44 13.1101C15.22 12.7201 15.25 12.2301 15.57 11.9201L20.07 7.42006C20.48 7.01006 21.17 7.06006 21.52 7.53006C22.04 8.21006 22.31 9.07006 22.25 9.99006Z" fill="#171717"/>
</svg>
