<svg width="25" height="24" viewBox="0 0 25 24" fill="none" xmlns="http://www.w3.org/2000/svg">
<path d="M22.7656 17.5C22.7656 17.91 22.4256 18.25 22.0156 18.25H15.0156V18.5C15.0156 20 14.1156 20.5 13.0156 20.5H7.01562C5.91563 20.5 5.01562 20 5.01562 18.5V18.25H2.01562C1.60563 18.25 1.26562 17.91 1.26562 17.5C1.26562 17.09 1.60563 16.75 2.01562 16.75H5.01562V16.5C5.01562 15 5.91563 14.5 7.01562 14.5H13.0156C14.1156 14.5 15.0156 15 15.0156 16.5V16.75H22.0156C22.4256 16.75 22.7656 17.09 22.7656 17.5Z" fill="#171717"/>
<path d="M22.7656 6.5C22.7656 6.91 22.4256 7.25 22.0156 7.25H19.0156V7.5C19.0156 9 18.1156 9.5 17.0156 9.5H11.0156C9.91562 9.5 9.01562 9 9.01562 7.5V7.25H2.01562C1.60563 7.25 1.26562 6.91 1.26562 6.5C1.26562 6.09 1.60563 5.75 2.01562 5.75H9.01562V5.5C9.01562 4 9.91562 3.5 11.0156 3.5H17.0156C18.1156 3.5 19.0156 4 19.0156 5.5V5.75H22.0156C22.4256 5.75 22.7656 6.09 22.7656 6.5Z" fill="#171717"/>
</svg>
