<svg width="25" height="24" viewBox="0 0 25 24" fill="none" xmlns="http://www.w3.org/2000/svg">
<path d="M7.51562 4.5H7.26562V2C7.26562 1.59 6.92563 1.25 6.51562 1.25C6.10562 1.25 5.76562 1.59 5.76562 2V4.5H5.51562C3.92562 4.5 3.01562 5.41 3.01562 7V13C3.01562 14.59 3.92562 15.5 5.51562 15.5H5.76562V22C5.76562 22.41 6.10562 22.75 6.51562 22.75C6.92563 22.75 7.26562 22.41 7.26562 22V15.5H7.51562C9.10563 15.5 10.0156 14.59 10.0156 13V7C10.0156 5.41 9.10563 4.5 7.51562 4.5Z" fill="#171717"/>
<path d="M18.5156 8.5H18.2656V2C18.2656 1.59 17.9256 1.25 17.5156 1.25C17.1056 1.25 16.7656 1.59 16.7656 2V8.5H16.5156C14.9256 8.5 14.0156 9.41 14.0156 11V17C14.0156 18.59 14.9256 19.5 16.5156 19.5H16.7656V22C16.7656 22.41 17.1056 22.75 17.5156 22.75C17.9256 22.75 18.2656 22.41 18.2656 22V19.5H18.5156C20.1056 19.5 21.0156 18.59 21.0156 17V11C21.0156 9.41 20.1056 8.5 18.5156 8.5Z" fill="#171717"/>
</svg>
