<svg width="24" height="24" viewBox="0 0 24 24" fill="none" xmlns="http://www.w3.org/2000/svg">
<path d="M21.751 8C21.751 8.41 21.411 8.75 21.001 8.75H3.00098C2.59098 8.75 2.25098 8.41 2.25098 8C2.25098 7.59 2.59098 7.25 3.00098 7.25H4.02098L4.40098 5.44C4.76098 3.69 5.51098 2.08 8.49098 2.08H15.511C18.491 2.08 19.241 3.69 19.601 5.44L19.981 7.25H21.001C21.411 7.25 21.751 7.59 21.751 8Z" fill="#171717"/>
<path d="M22.1811 13.66C22.0311 12.01 21.5911 10.25 18.3811 10.25H5.62106C2.41106 10.25 1.98106 12.01 1.82106 13.66L1.26106 19.75C1.19106 20.51 1.44106 21.27 1.96106 21.84C2.49106 22.42 3.24106 22.75 4.04106 22.75H5.92106C7.54106 22.75 7.85106 21.82 8.05106 21.21L8.25106 20.61C8.48106 19.92 8.54106 19.75 9.44106 19.75H14.5611C15.4611 19.75 15.4911 19.85 15.7511 20.61L15.9511 21.21C16.1511 21.82 16.4611 22.75 18.0811 22.75H19.9611C20.7511 22.75 21.5111 22.42 22.0411 21.84C22.5611 21.27 22.8111 20.51 22.7411 19.75L22.1811 13.66ZM9.00106 15.75H6.00106C5.59106 15.75 5.25106 15.41 5.25106 15C5.25106 14.59 5.59106 14.25 6.00106 14.25H9.00106C9.41106 14.25 9.75106 14.59 9.75106 15C9.75106 15.41 9.41106 15.75 9.00106 15.75ZM18.0011 15.75H15.0011C14.5911 15.75 14.2511 15.41 14.2511 15C14.2511 14.59 14.5911 14.25 15.0011 14.25H18.0011C18.4111 14.25 18.7511 14.59 18.7511 15C18.7511 15.41 18.4111 15.75 18.0011 15.75Z" fill="#171717"/>
</svg>
