<svg width="25" height="24" viewBox="0 0 25 24" fill="none" xmlns="http://www.w3.org/2000/svg">
<path d="M2.0249 11.46V16.46C2.0249 18.75 3.8749 20.6 6.1649 20.6H17.8749C20.1649 20.6 22.0249 18.74 22.0249 16.45V11.46C22.0249 10.79 21.4849 10.25 20.8149 10.25H3.2349C2.5649 10.25 2.0249 10.79 2.0249 11.46ZM8.0249 17.25H6.0249C5.6149 17.25 5.2749 16.91 5.2749 16.5C5.2749 16.09 5.6149 15.75 6.0249 15.75H8.0249C8.4349 15.75 8.7749 16.09 8.7749 16.5C8.7749 16.91 8.4349 17.25 8.0249 17.25ZM14.5249 17.25H10.5249C10.1149 17.25 9.7749 16.91 9.7749 16.5C9.7749 16.09 10.1149 15.75 10.5249 15.75H14.5249C14.9349 15.75 15.2749 16.09 15.2749 16.5C15.2749 16.91 14.9349 17.25 14.5249 17.25Z" fill="#171717"/>
<path d="M13.5249 4.61002V7.54002C13.5249 8.21002 12.9849 8.75002 12.3149 8.75002H3.2349C2.5549 8.75002 2.0249 8.19002 2.0249 7.52002C2.0349 6.39002 2.4849 5.36002 3.2349 4.61002C3.9849 3.86002 5.0249 3.40002 6.1649 3.40002H12.3149C12.9849 3.40002 13.5249 3.94002 13.5249 4.61002Z" fill="#171717"/>
<path d="M19.9949 2H17.0549C15.7849 2 15.0249 2.76 15.0249 4.03V6.97C15.0249 8.24 15.7849 9 17.0549 9H19.9949C21.2649 9 22.0249 8.24 22.0249 6.97V4.03C22.0249 2.76 21.2649 2 19.9949 2ZM20.9349 5.93C20.8349 6.03 20.6849 6.1 20.5249 6.11H19.1149L19.1249 7.5C19.1149 7.67 19.0549 7.81 18.9349 7.93C18.8349 8.03 18.6849 8.1 18.5249 8.1C18.1949 8.1 17.9249 7.83 17.9249 7.5V6.1L16.5249 6.11C16.1949 6.11 15.9249 5.83 15.9249 5.5C15.9249 5.17 16.1949 4.9 16.5249 4.9L17.9249 4.91V3.51C17.9249 3.18 18.1949 2.9 18.5249 2.9C18.8549 2.9 19.1249 3.18 19.1249 3.51L19.1149 4.9H20.5249C20.8549 4.9 21.1249 5.17 21.1249 5.5C21.1149 5.67 21.0449 5.81 20.9349 5.93Z" fill="#171717"/>
</svg>
