<svg width="25" height="24" viewBox="0 0 25 24" fill="none" xmlns="http://www.w3.org/2000/svg">
<path d="M20.0037 8.75H17.0637C15.7937 8.75 15.0337 7.99 15.0337 6.72V3.78C15.0337 2.51 15.7937 1.75 17.0637 1.75H20.0037C21.2737 1.75 22.0337 2.51 22.0337 3.78V6.72C22.0337 7.99 21.2737 8.75 20.0037 8.75ZM20.2237 5.44C20.1037 5.32 19.9437 5.26 19.7837 5.26C19.6237 5.26 19.4637 5.32 19.3437 5.44L19.1637 5.62V3.38C19.1637 3.03 18.8837 2.75 18.5337 2.75C18.1837 2.75 17.9037 3.03 17.9037 3.38V5.62L17.7237 5.44C17.4837 5.2 17.0837 5.2 16.8437 5.44C16.6037 5.68 16.6037 6.08 16.8437 6.32L18.0937 7.57C18.1437 7.62 18.2137 7.66 18.2837 7.69C18.3037 7.7 18.3237 7.7 18.3437 7.71C18.3937 7.73 18.4437 7.74 18.5037 7.74C18.5237 7.74 18.5437 7.74 18.5637 7.74C18.6337 7.74 18.6937 7.73 18.7637 7.7C18.7737 7.7 18.7737 7.7 18.7837 7.7C18.8537 7.67 18.9137 7.63 18.9637 7.58C18.9737 7.57 18.9737 7.57 18.9837 7.57L20.2337 6.32C20.4737 6.08 20.4737 5.68 20.2237 5.44Z" fill="#171717"/>
<path d="M2.03369 11.46V16.46C2.03369 18.75 3.88369 20.6 6.17369 20.6H17.8837C20.1737 20.6 22.0337 18.74 22.0337 16.45V11.46C22.0337 10.79 21.4937 10.25 20.8237 10.25H3.24369C2.57369 10.25 2.03369 10.79 2.03369 11.46ZM8.03369 17.25H6.03369C5.62369 17.25 5.28369 16.91 5.28369 16.5C5.28369 16.09 5.62369 15.75 6.03369 15.75H8.03369C8.44369 15.75 8.78369 16.09 8.78369 16.5C8.78369 16.91 8.44369 17.25 8.03369 17.25ZM14.5337 17.25H10.5337C10.1237 17.25 9.78369 16.91 9.78369 16.5C9.78369 16.09 10.1237 15.75 10.5337 15.75H14.5337C14.9437 15.75 15.2837 16.09 15.2837 16.5C15.2837 16.91 14.9437 17.25 14.5337 17.25Z" fill="#171717"/>
<path d="M13.5337 4.61002V7.54002C13.5337 8.21002 12.9937 8.75002 12.3237 8.75002H3.24369C2.56369 8.75002 2.03369 8.19002 2.03369 7.52002C2.04369 6.39002 2.49369 5.36002 3.24369 4.61002C3.99369 3.86002 5.03369 3.40002 6.17369 3.40002H12.3237C12.9937 3.40002 13.5337 3.94002 13.5337 4.61002Z" fill="#171717"/>
</svg>
