<svg width="25" height="24" viewBox="0 0 25 24" fill="none" xmlns="http://www.w3.org/2000/svg">
<path d="M19.0557 15C16.8457 15 15.0557 16.79 15.0557 19C15.0557 19.75 15.2657 20.46 15.6357 21.06C16.3257 22.22 17.5957 23 19.0557 23C20.5157 23 21.7857 22.22 22.4757 21.06C22.8457 20.46 23.0557 19.75 23.0557 19C23.0557 16.79 21.2657 15 19.0557 15ZM21.1257 18.57L18.9957 20.54C18.8557 20.67 18.6657 20.74 18.4857 20.74C18.2957 20.74 18.1057 20.67 17.9557 20.52L16.9657 19.53C16.6757 19.24 16.6757 18.76 16.9657 18.47C17.2557 18.18 17.7357 18.18 18.0257 18.47L18.5057 18.95L20.1057 17.47C20.4057 17.19 20.8857 17.21 21.1657 17.51C21.4457 17.81 21.4257 18.28 21.1257 18.57Z" fill="#171717"/>
<path d="M22.0557 7.55002V8.00002C22.0557 8.55002 21.6057 9.00002 21.0557 9.00002H3.05566C2.50566 9.00002 2.05566 8.55002 2.05566 8.00002V7.54002C2.05566 5.25002 3.90566 3.40002 6.19566 3.40002H17.9057C20.1957 3.40002 22.0557 5.26002 22.0557 7.55002Z" fill="#171717"/>
<path d="M2.05566 11.5V16.46C2.05566 18.75 3.90566 20.6 6.19566 20.6H12.4557C13.0357 20.6 13.5357 20.11 13.4857 19.53C13.3457 18 13.8357 16.34 15.1957 15.02C15.7557 14.47 16.4457 14.05 17.1957 13.81C18.4457 13.41 19.6557 13.46 20.7257 13.82C21.3757 14.04 22.0557 13.57 22.0557 12.88V11.49C22.0557 10.94 21.6057 10.49 21.0557 10.49H3.05566C2.50566 10.5 2.05566 10.95 2.05566 11.5ZM8.05566 17.25H6.05566C5.64566 17.25 5.30566 16.91 5.30566 16.5C5.30566 16.09 5.64566 15.75 6.05566 15.75H8.05566C8.46566 15.75 8.80566 16.09 8.80566 16.5C8.80566 16.91 8.46566 17.25 8.05566 17.25Z" fill="#171717"/>
</svg>
