<svg width="25" height="24" viewBox="0 0 25 24" fill="none" xmlns="http://www.w3.org/2000/svg">
<path d="M15.2705 6.55005H5.83054C5.55054 6.55005 5.29054 6.56005 5.05054 6.57005C2.68054 6.71005 2.05054 7.58005 2.05054 10.28V10.86C2.05054 11.41 2.50054 11.86 3.05054 11.86H18.0505C18.6005 11.86 19.0505 11.41 19.0505 10.86V10.28C19.0505 7.30005 18.2905 6.55005 15.2705 6.55005Z" fill="#171717"/>
<path d="M3.05054 13.36C2.50054 13.36 2.05054 13.81 2.05054 14.36V17.27C2.05054 20.25 2.81054 21 5.83054 21H15.2705C18.2405 21 19.0205 20.28 19.0505 17.43V14.36C19.0505 13.81 18.6005 13.36 18.0505 13.36H3.05054ZM7.01054 18.56H5.30054C4.89054 18.56 4.55054 18.22 4.55054 17.81C4.55054 17.4 4.89054 17.06 5.30054 17.06H7.02054C7.43054 17.06 7.77054 17.4 7.77054 17.81C7.77054 18.22 7.43054 18.56 7.01054 18.56ZM12.6005 18.56H9.16054C8.75054 18.56 8.41054 18.22 8.41054 17.81C8.41054 17.4 8.75054 17.06 9.16054 17.06H12.6005C13.0105 17.06 13.3505 17.4 13.3505 17.81C13.3505 18.22 13.0205 18.56 12.6005 18.56Z" fill="#171717"/>
<path d="M22.0506 13.33V8.08998C22.0506 4.95998 20.2606 3.59998 17.5606 3.59998H8.63065C7.87065 3.59998 7.19065 3.70998 6.59065 3.93998C6.12065 4.10998 5.70065 4.35998 5.36065 4.68998C5.18065 4.85998 5.32065 5.13998 5.58065 5.13998H16.4506C18.7006 5.13998 20.5206 6.95998 20.5206 9.20998V16.38C20.5206 16.63 20.7906 16.77 20.9706 16.59C21.6606 15.86 22.0506 14.79 22.0506 13.33Z" fill="#171717"/>
</svg>
