<svg width="25" height="24" viewBox="0 0 25 24" fill="none" xmlns="http://www.w3.org/2000/svg">
<path d="M22.0317 7.55002C22.0317 8.21002 21.4917 8.75002 20.8317 8.75002H3.23174C2.57174 8.75002 2.03174 8.21002 2.03174 7.55002V7.54002C2.03174 5.25002 3.88174 3.40002 6.17174 3.40002H17.8817C20.1717 3.40002 22.0317 5.26002 22.0317 7.55002Z" fill="#171717"/>
<path d="M2.03174 11.45V16.46C2.03174 18.75 3.88174 20.6 6.17174 20.6H17.8817C20.1717 20.6 22.0317 18.74 22.0317 16.45V11.45C22.0317 10.79 21.4917 10.25 20.8317 10.25H3.23174C2.57174 10.25 2.03174 10.79 2.03174 11.45ZM8.03174 17.25H6.03174C5.62174 17.25 5.28174 16.91 5.28174 16.5C5.28174 16.09 5.62174 15.75 6.03174 15.75H8.03174C8.44174 15.75 8.78174 16.09 8.78174 16.5C8.78174 16.91 8.44174 17.25 8.03174 17.25ZM14.5317 17.25H10.5317C10.1217 17.25 9.78174 16.91 9.78174 16.5C9.78174 16.09 10.1217 15.75 10.5317 15.75H14.5317C14.9417 15.75 15.2817 16.09 15.2817 16.5C15.2817 16.91 14.9417 17.25 14.5317 17.25Z" fill="#171717"/>
</svg>
