<svg width="25" height="24" viewBox="0 0 25 24" fill="none" xmlns="http://www.w3.org/2000/svg">
<path d="M2.02588 11.46V16.46C2.02588 18.75 3.87588 20.6 6.16588 20.6H17.8759C20.1659 20.6 22.0259 18.74 22.0259 16.45V11.46C22.0259 10.79 21.4859 10.25 20.8159 10.25H3.23588C2.56588 10.25 2.02588 10.79 2.02588 11.46ZM8.02588 17.25H6.02588C5.61588 17.25 5.27588 16.91 5.27588 16.5C5.27588 16.09 5.61588 15.75 6.02588 15.75H8.02588C8.43588 15.75 8.77588 16.09 8.77588 16.5C8.77588 16.91 8.43588 17.25 8.02588 17.25ZM14.5259 17.25H10.5259C10.1159 17.25 9.77588 16.91 9.77588 16.5C9.77588 16.09 10.1159 15.75 10.5259 15.75H14.5259C14.9359 15.75 15.2759 16.09 15.2759 16.5C15.2759 16.91 14.9359 17.25 14.5259 17.25Z" fill="#171717"/>
<path d="M13.5259 4.61002V7.54002C13.5259 8.21002 12.9859 8.75002 12.3159 8.75002H3.23588C2.55588 8.75002 2.02588 8.19002 2.02588 7.52002C2.03588 6.39002 2.48588 5.36002 3.23588 4.61002C3.98588 3.86002 5.02588 3.40002 6.16588 3.40002H12.3159C12.9859 3.40002 13.5259 3.94002 13.5259 4.61002Z" fill="#171717"/>
<path d="M19.9959 2H17.0559C15.7859 2 15.0259 2.76 15.0259 4.03V6.97C15.0259 8.24 15.7859 9 17.0559 9H19.9959C21.2659 9 22.0259 8.24 22.0259 6.97V4.03C22.0259 2.76 21.2659 2 19.9959 2ZM20.3659 6.49C20.4759 6.62 20.5359 6.76 20.5359 6.93C20.5359 7.07 20.4759 7.23 20.3659 7.34C20.1359 7.57 19.7459 7.57 19.5159 7.34L18.5259 6.35L17.5459 7.35C17.3159 7.58 16.9259 7.58 16.6859 7.34C16.4559 7.11 16.4559 6.72 16.6859 6.49L17.6859 5.51L16.6959 4.52C16.4659 4.29 16.4559 3.9 16.6859 3.66C16.9159 3.42 17.3059 3.43 17.5459 3.67L18.5259 4.66L19.5259 3.66C19.7559 3.43 20.1459 3.43 20.3759 3.66C20.4859 3.79 20.5359 3.94 20.5459 4.1C20.5459 4.24 20.4859 4.4 20.3859 4.52L19.3859 5.52L20.3659 6.49Z" fill="#171717"/>
</svg>
