<svg width="25" height="24" viewBox="0 0 25 24" fill="none" xmlns="http://www.w3.org/2000/svg">
<path d="M13.5366 4.61002V7.54002C13.5366 8.21002 12.9966 8.75002 12.3266 8.75002H3.24662C2.56662 8.75002 2.03662 8.19002 2.03662 7.52002C2.04662 6.39002 2.49662 5.36002 3.24662 4.61002C3.99662 3.86002 5.03662 3.40002 6.17662 3.40002H12.3266C12.9966 3.40002 13.5366 3.94002 13.5366 4.61002Z" fill="#171717"/>
<path d="M2.03662 11.46V16.46C2.03662 18.75 3.88662 20.6 6.17662 20.6H17.8866C20.1766 20.6 22.0366 18.74 22.0366 16.45V11.46C22.0366 10.79 21.4966 10.25 20.8266 10.25H3.24662C2.57662 10.25 2.03662 10.79 2.03662 11.46ZM8.03662 17.25H6.03662C5.62662 17.25 5.28662 16.91 5.28662 16.5C5.28662 16.09 5.62662 15.75 6.03662 15.75H8.03662C8.44662 15.75 8.78662 16.09 8.78662 16.5C8.78662 16.91 8.44662 17.25 8.03662 17.25ZM14.5366 17.25H10.5366C10.1266 17.25 9.78662 16.91 9.78662 16.5C9.78662 16.09 10.1266 15.75 10.5366 15.75H14.5366C14.9466 15.75 15.2866 16.09 15.2866 16.5C15.2866 16.91 14.9466 17.25 14.5366 17.25Z" fill="#171717"/>
<path d="M20.0066 1.75H17.0666C15.7966 1.75 15.0366 2.51 15.0366 3.78V6.72C15.0366 7.99 15.7966 8.75 17.0666 8.75H20.0066C21.2766 8.75 22.0366 7.99 22.0366 6.72V3.78C22.0366 2.51 21.2766 1.75 20.0066 1.75ZM18.0466 7.32C18.0166 7.35 17.9466 7.39 17.8966 7.39L16.8566 7.54C16.8266 7.55 16.7866 7.55 16.7566 7.55C16.6066 7.55 16.4766 7.5 16.3866 7.4C16.2666 7.28 16.2166 7.11 16.2466 6.93L16.3966 5.89C16.4066 5.84 16.4366 5.77 16.4666 5.74L18.1666 4.04C18.1966 4.11 18.2266 4.19 18.2566 4.27C18.2966 4.35 18.3366 4.42 18.3766 4.49C18.4066 4.55 18.4466 4.61 18.4866 4.65C18.5266 4.71 18.5666 4.77 18.5966 4.8C18.6166 4.83 18.6266 4.84 18.6366 4.85C18.7266 4.96 18.8266 5.06 18.9166 5.13C18.9366 5.15 18.9566 5.17 18.9666 5.17C19.0166 5.21 19.0766 5.26 19.1166 5.29C19.1766 5.33 19.2266 5.37 19.2866 5.4C19.3566 5.44 19.4366 5.48 19.5166 5.52C19.5966 5.56 19.6766 5.59 19.7466 5.61L18.0466 7.32ZM20.4366 4.93L20.1066 5.26C20.0966 5.28 20.0666 5.29 20.0366 5.29C20.0266 5.29 20.0166 5.29 20.0066 5.29C19.2866 5.08 18.7166 4.51 18.5066 3.79C18.4966 3.75 18.5066 3.71 18.5366 3.68L18.8666 3.35C19.4066 2.81 19.9166 2.82 20.4466 3.35C20.7166 3.62 20.8466 3.88 20.8466 4.14C20.8366 4.4 20.7066 4.66 20.4366 4.93Z" fill="#171717"/>
</svg>
