<svg width="25" height="24" viewBox="0 0 25 24" fill="none" xmlns="http://www.w3.org/2000/svg">
<path d="M2.02783 11.46V16.46C2.02783 18.75 3.87783 20.6 6.16783 20.6H17.8778C20.1678 20.6 22.0278 18.74 22.0278 16.45V11.46C22.0278 10.79 21.4878 10.25 20.8178 10.25H3.23783C2.56783 10.25 2.02783 10.79 2.02783 11.46ZM8.02783 17.25H6.02783C5.61783 17.25 5.27783 16.91 5.27783 16.5C5.27783 16.09 5.61783 15.75 6.02783 15.75H8.02783C8.43783 15.75 8.77783 16.09 8.77783 16.5C8.77783 16.91 8.43783 17.25 8.02783 17.25ZM14.5278 17.25H10.5278C10.1178 17.25 9.77783 16.91 9.77783 16.5C9.77783 16.09 10.1178 15.75 10.5278 15.75H14.5278C14.9378 15.75 15.2778 16.09 15.2778 16.5C15.2778 16.91 14.9378 17.25 14.5278 17.25Z" fill="#171717"/>
<path d="M13.5278 4.61002V7.54002C13.5278 8.21002 12.9878 8.75002 12.3178 8.75002H3.23783C2.55783 8.75002 2.02783 8.19002 2.02783 7.52002C2.03783 6.39002 2.48783 5.36002 3.23783 4.61002C3.98783 3.86002 5.02783 3.40002 6.16783 3.40002H12.3178C12.9878 3.40002 13.5278 3.94002 13.5278 4.61002Z" fill="#171717"/>
<path d="M19.9978 2H17.0578C15.7878 2 15.0278 2.76 15.0278 4.03V6.97C15.0278 8.24 15.7878 9 17.0578 9H19.9978C21.2678 9 22.0278 8.24 22.0278 6.97V4.03C22.0278 2.76 21.2678 2 19.9978 2ZM20.6578 4.45L18.2878 7.22C18.1978 7.33 18.0578 7.4 17.9178 7.4C17.9078 7.4 17.9078 7.4 17.8978 7.4C17.7578 7.4 17.6278 7.35 17.5278 7.25L16.4278 6.17C16.2278 5.97 16.2278 5.64 16.4278 5.44C16.6278 5.24 16.9578 5.23 17.1578 5.44L17.8578 6.13L19.8578 3.79C20.0478 3.57 20.3678 3.55 20.5878 3.73C20.8178 3.91 20.8378 4.24 20.6578 4.45Z" fill="#171717"/>
</svg>
