<svg width="25" height="24" viewBox="0 0 25 24" fill="none" xmlns="http://www.w3.org/2000/svg">
<path d="M19.2988 3.65002L14.1988 8.75002H3.22881C2.56881 8.75002 2.02881 8.21002 2.02881 7.55002V7.54002C2.02881 5.25002 3.87881 3.40002 6.16881 3.40002H17.8788C18.3788 3.40002 18.8588 3.49002 19.2988 3.65002Z" fill="#171717"/>
<path d="M12.6988 10.25L7.19881 15.75H6.02881C5.61881 15.75 5.27881 16.09 5.27881 16.5C5.27881 16.81 5.47881 17.09 5.75881 17.19L3.40881 19.54C2.55881 18.79 2.02881 17.69 2.02881 16.46V11.45C2.02881 10.79 2.56881 10.25 3.22881 10.25H12.6988Z" fill="#171717"/>
<path d="M22.029 11V16.46C22.029 18.75 20.179 20.6 17.889 20.6H8.83897C7.94897 20.6 7.49897 19.52 8.12897 18.89L9.47897 17.54C9.66897 17.35 9.91897 17.25 10.189 17.25H14.529C14.939 17.25 15.279 16.91 15.279 16.5C15.279 16.09 14.939 15.75 14.529 15.75H13.689C12.799 15.75 12.349 14.67 12.979 14.04L16.439 10.58C16.819 10.21 17.329 10 17.859 10H21.029C21.579 10 22.029 10.45 22.029 11Z" fill="#171717"/>
<path d="M21.7987 2.23C21.4987 1.93 21.0087 1.93 20.7087 2.23L2.25869 20.69C1.95869 20.99 1.95869 21.48 2.25869 21.78C2.40869 21.92 2.59869 22 2.79869 22C2.99869 22 3.18869 21.92 3.33869 21.77L21.7987 3.31C22.1087 3.01 22.1087 2.53 21.7987 2.23Z" fill="#171717"/>
<path d="M21.7989 3.31006L20.6389 4.47006L16.3589 8.75006L3.33887 21.7701C3.18887 21.9201 2.99887 22.0001 2.79887 22.0001C2.59887 22.0001 2.40887 21.9201 2.25887 21.7701C1.94887 21.4701 1.94887 20.9901 2.25887 20.6901L3.40887 19.5401L5.75887 17.1901L19.2989 3.65006L20.7189 2.23006C21.0189 1.92006 21.4989 1.92006 21.7989 2.23006C22.1089 2.53006 22.1089 3.01006 21.7989 3.31006Z" fill="#171717"/>
<path d="M22.0289 7.41002C22.0289 6.52002 20.9489 6.07002 20.3189 6.70002L20.0289 7.00002L19.7389 7.29002C19.1089 7.92002 19.5489 9.00002 20.4389 9.00002H21.0289C21.5789 9.00002 22.0289 8.55002 22.0289 8.00002V7.41002Z" fill="#171717"/>
</svg>
