<svg width="25" height="24" viewBox="0 0 25 24" fill="none" xmlns="http://www.w3.org/2000/svg">
<path d="M22.0308 21.25C22.0308 21.66 21.6908 22 21.2808 22H2.78076C2.37076 22 2.03076 21.66 2.03076 21.25C2.03076 20.84 2.37076 20.5 2.78076 20.5H21.2808C21.6908 20.5 22.0308 20.84 22.0308 21.25Z" fill="#171717"/>
<path d="M15.4207 4.52001L4.6807 15.26C4.2707 15.67 3.6107 15.67 3.2107 15.26H3.2007C1.8107 13.86 1.8107 11.6 3.2007 10.21L10.3507 3.06001C11.7507 1.66001 14.0107 1.66001 15.4107 3.06001C15.8207 3.45001 15.8207 4.12001 15.4207 4.52001Z" fill="#171717"/>
<path d="M20.8507 8.48995L17.8007 5.43995C17.3907 5.02995 16.7307 5.02995 16.3307 5.43995L5.5907 16.1799C5.1807 16.5799 5.1807 17.2399 5.5907 17.6499L8.6407 20.7099C10.0407 22.0999 12.3007 22.0999 13.7007 20.7099L20.8407 13.5599C22.2607 12.1599 22.2607 9.88995 20.8507 8.48995ZM12.7907 17.5199L11.5807 18.7399C11.3307 18.9899 10.9207 18.9899 10.6607 18.7399C10.4107 18.4899 10.4107 18.0799 10.6607 17.8199L11.8807 16.5999C12.1207 16.3599 12.5407 16.3599 12.7907 16.5999C13.0407 16.8499 13.0407 17.2799 12.7907 17.5199ZM16.7607 13.5499L14.3207 15.9999C14.0707 16.2399 13.6607 16.2399 13.4007 15.9999C13.1507 15.7499 13.1507 15.3399 13.4007 15.0799L15.8507 12.6299C16.0907 12.3899 16.5107 12.3899 16.7607 12.6299C17.0107 12.8899 17.0107 13.2999 16.7607 13.5499Z" fill="#171717"/>
</svg>
