<svg width="25" height="24" viewBox="0 0 25 24" fill="none" xmlns="http://www.w3.org/2000/svg">
<path d="M20.0047 1.75H17.0647C15.7947 1.75 15.0347 2.51 15.0347 3.78V6.72C15.0347 7.99 15.7947 8.75 17.0647 8.75H20.0047C21.2747 8.75 22.0347 7.99 22.0347 6.72V3.78C22.0347 2.51 21.2747 1.75 20.0047 1.75ZM20.2247 5.06C20.1047 5.18 19.9447 5.24 19.7847 5.24C19.6247 5.24 19.4647 5.18 19.3447 5.06L19.1647 4.88V7.12C19.1647 7.47 18.8847 7.75 18.5347 7.75C18.1847 7.75 17.9047 7.47 17.9047 7.12V4.88L17.7247 5.06C17.4847 5.3 17.0847 5.3 16.8447 5.06C16.6047 4.82 16.6047 4.42 16.8447 4.18L18.0947 2.93C18.1447 2.88 18.2147 2.84 18.2847 2.81C18.3047 2.8 18.3247 2.8 18.3447 2.79C18.3947 2.77 18.4447 2.76 18.5047 2.76C18.5247 2.76 18.5447 2.76 18.5647 2.76C18.6347 2.76 18.6947 2.77 18.7647 2.8C18.7747 2.8 18.7747 2.8 18.7847 2.8C18.8547 2.83 18.9147 2.87 18.9647 2.92C18.9747 2.93 18.9747 2.93 18.9847 2.93L20.2347 4.18C20.4747 4.42 20.4747 4.82 20.2247 5.06Z" fill="#171717"/>
<path d="M2.03467 11.46V16.46C2.03467 18.75 3.88467 20.6 6.17467 20.6H17.8847C20.1747 20.6 22.0347 18.74 22.0347 16.45V11.46C22.0347 10.79 21.4947 10.25 20.8247 10.25H3.24467C2.57467 10.25 2.03467 10.79 2.03467 11.46ZM8.03467 17.25H6.03467C5.62467 17.25 5.28467 16.91 5.28467 16.5C5.28467 16.09 5.62467 15.75 6.03467 15.75H8.03467C8.44467 15.75 8.78467 16.09 8.78467 16.5C8.78467 16.91 8.44467 17.25 8.03467 17.25ZM14.5347 17.25H10.5347C10.1247 17.25 9.78467 16.91 9.78467 16.5C9.78467 16.09 10.1247 15.75 10.5347 15.75H14.5347C14.9447 15.75 15.2847 16.09 15.2847 16.5C15.2847 16.91 14.9447 17.25 14.5347 17.25Z" fill="#171717"/>
<path d="M13.5347 4.61002V7.54002C13.5347 8.21002 12.9947 8.75002 12.3247 8.75002H3.24467C2.56467 8.75002 2.03467 8.19002 2.03467 7.52002C2.04467 6.39002 2.49467 5.36002 3.24467 4.61002C3.99467 3.86002 5.03467 3.40002 6.17467 3.40002H12.3247C12.9947 3.40002 13.5347 3.94002 13.5347 4.61002Z" fill="#171717"/>
</svg>
