<svg width="25" height="24" viewBox="0 0 25 24" fill="none" xmlns="http://www.w3.org/2000/svg">
<path d="M18.9487 15.03C16.7387 15.03 14.9487 16.82 14.9487 19.03C14.9487 21.24 16.7387 23.03 18.9487 23.03C21.1587 23.03 22.9487 21.24 22.9487 19.03C22.9487 16.82 21.1587 15.03 18.9487 15.03ZM20.5487 20.68C20.3987 20.83 20.2087 20.9 20.0187 20.9C19.8287 20.9 19.6387 20.83 19.4887 20.68L18.9587 20.15L18.4087 20.7C18.2587 20.85 18.0687 20.92 17.8787 20.92C17.6887 20.92 17.4987 20.85 17.3487 20.7C17.0587 20.41 17.0587 19.93 17.3487 19.64L17.8987 19.09L17.3687 18.56C17.0787 18.27 17.0787 17.79 17.3687 17.5C17.6587 17.21 18.1387 17.21 18.4287 17.5L18.9587 18.03L19.4587 17.53C19.7487 17.24 20.2287 17.24 20.5187 17.53C20.8087 17.82 20.8087 18.3 20.5187 18.59L20.0187 19.09L20.5487 19.62C20.8387 19.91 20.8387 20.39 20.5487 20.68Z" fill="#171717"/>
<path d="M22.0488 7.55002V8.00002C22.0488 8.55002 21.5988 9.00002 21.0488 9.00002H3.04883C2.49883 9.00002 2.04883 8.55002 2.04883 8.00002V7.54002C2.04883 5.25002 3.89883 3.40002 6.18883 3.40002H17.8988C20.1888 3.40002 22.0488 5.26002 22.0488 7.55002Z" fill="#171717"/>
<path d="M2.04883 11.5V16.46C2.04883 18.75 3.89883 20.6 6.18883 20.6H12.4488C13.0288 20.6 13.5288 20.11 13.4788 19.53C13.3388 18 13.8288 16.34 15.1888 15.02C15.7488 14.47 16.4388 14.05 17.1888 13.81C18.4388 13.41 19.6488 13.46 20.7188 13.82C21.3688 14.04 22.0488 13.57 22.0488 12.88V11.49C22.0488 10.94 21.5988 10.49 21.0488 10.49H3.04883C2.49883 10.5 2.04883 10.95 2.04883 11.5ZM8.04883 17.25H6.04883C5.63883 17.25 5.29883 16.91 5.29883 16.5C5.29883 16.09 5.63883 15.75 6.04883 15.75H8.04883C8.45883 15.75 8.79883 16.09 8.79883 16.5C8.79883 16.91 8.45883 17.25 8.04883 17.25Z" fill="#171717"/>
</svg>
