<svg width="25" height="24" viewBox="0 0 25 24" fill="none" xmlns="http://www.w3.org/2000/svg">
<path d="M18.6856 2H16.7856C14.6056 2 13.4556 3.15 13.4556 5.33V7.23C13.4556 9.41 14.6056 10.56 16.7856 10.56H18.6856C20.8656 10.56 22.0156 9.41 22.0156 7.23V5.33C22.0156 3.15 20.8656 2 18.6856 2Z" fill="#171717"/>
<path d="M7.25562 13.4301H5.35563C3.16563 13.4301 2.01562 14.5801 2.01562 16.7601V18.6601C2.01562 20.8501 3.16562 22.0001 5.34562 22.0001H7.24563C9.42562 22.0001 10.5756 20.8501 10.5756 18.6701V16.7701C10.5856 14.5801 9.43563 13.4301 7.25562 13.4301Z" fill="#171717"/>
<path d="M6.30562 10.58C8.67493 10.58 10.5956 8.6593 10.5956 6.29C10.5956 3.9207 8.67493 2 6.30562 2C3.93632 2 2.01562 3.9207 2.01562 6.29C2.01562 8.6593 3.93632 10.58 6.30562 10.58Z" fill="#171717"/>
<path d="M17.7255 22C20.0948 22 22.0155 20.0793 22.0155 17.71C22.0155 15.3407 20.0948 13.42 17.7255 13.42C15.3562 13.42 13.4355 15.3407 13.4355 17.71C13.4355 20.0793 15.3562 22 17.7255 22Z" fill="#171717"/>
</svg>
