<svg width="25" height="24" viewBox="0 0 25 24" fill="none" xmlns="http://www.w3.org/2000/svg">
<path d="M16.2056 2H7.82562C4.18562 2 2.01562 4.17 2.01562 7.81V16.19C2.01562 19.83 4.18562 22 7.82562 22H16.2056C19.8456 22 22.0156 19.83 22.0156 16.19V7.81C22.0156 4.17 19.8456 2 16.2056 2ZM7.76562 13.6C7.76562 14.01 7.42562 14.35 7.01562 14.35C6.60563 14.35 6.26562 14.01 6.26562 13.6V10.4C6.26562 9.99 6.60563 9.65 7.01562 9.65C7.42562 9.65 7.76562 9.99 7.76562 10.4V13.6ZM12.7656 15.34C12.7656 15.75 12.4256 16.09 12.0156 16.09C11.6056 16.09 11.2656 15.75 11.2656 15.34V8.66C11.2656 8.25 11.6056 7.91 12.0156 7.91C12.4256 7.91 12.7656 8.25 12.7656 8.66V15.34ZM17.7656 13.6C17.7656 14.01 17.4256 14.35 17.0156 14.35C16.6056 14.35 16.2656 14.01 16.2656 13.6V10.4C16.2656 9.99 16.6056 9.65 17.0156 9.65C17.4256 9.65 17.7656 9.99 17.7656 10.4V13.6Z" fill="#171717"/>
</svg>
