<svg width="25" height="24" viewBox="0 0 25 24" fill="none" xmlns="http://www.w3.org/2000/svg">
<path d="M20.9856 16H18.0456C16.7756 16 16.0156 16.76 16.0156 18.03V20.97C16.0156 22.24 16.7756 23 18.0456 23H20.9856C22.2556 23 23.0156 22.24 23.0156 20.97V18.03C23.0156 16.76 22.2556 16 20.9856 16ZM21.6456 18.45L19.2756 21.22C19.1756 21.33 19.0456 21.4 18.8956 21.4C18.8956 21.4 18.8856 21.4 18.8756 21.4C18.7456 21.4 18.6056 21.35 18.5156 21.25L17.4156 20.17C17.2156 19.97 17.2156 19.64 17.4156 19.43C17.6156 19.23 17.9456 19.23 18.1556 19.43L18.8456 20.12L20.8556 17.78C21.0356 17.56 21.3656 17.53 21.5856 17.72C21.8056 17.91 21.8256 18.24 21.6456 18.45Z" fill="#171717"/>
<path d="M20.9856 16H18.0456C16.7756 16 16.0156 16.76 16.0156 18.03V20.97C16.0156 22.24 16.7756 23 18.0456 23H20.9856C22.2556 23 23.0156 22.24 23.0156 20.97V18.03C23.0156 16.76 22.2556 16 20.9856 16ZM21.6456 18.45L19.2756 21.22C19.1756 21.33 19.0456 21.4 18.8956 21.4C18.8956 21.4 18.8856 21.4 18.8756 21.4C18.7456 21.4 18.6056 21.35 18.5156 21.25L17.4156 20.17C17.2156 19.97 17.2156 19.64 17.4156 19.43C17.6156 19.23 17.9456 19.23 18.1556 19.43L18.8456 20.12L20.8556 17.78C21.0356 17.56 21.3656 17.53 21.5856 17.72C21.8056 17.91 21.8256 18.24 21.6456 18.45Z" fill="#171717"/>
<path d="M21.9856 7.21C21.7056 4.48 19.5356 2.31 16.8056 2.03C16.6056 2.01 16.4056 2 16.2056 2H7.82562C7.62563 2 7.42562 2.01 7.22563 2.03C4.49563 2.31 2.32562 4.48 2.04562 7.21C2.02562 7.41 2.01562 7.61 2.01562 7.81V16.19C2.01562 16.39 2.02562 16.59 2.04562 16.79C2.32562 19.52 4.49563 21.69 7.22563 21.97C7.42562 21.99 7.62563 22 7.82562 22H14.0156C14.5656 22 15.0156 21.55 15.0156 21V18.03C15.0156 16.36 16.3756 15 18.0456 15H21.0156C21.5656 15 22.0156 14.55 22.0156 14V7.81C22.0156 7.61 22.0056 7.41 21.9856 7.21ZM7.76562 13.5C7.76562 13.91 7.42562 14.25 7.01562 14.25C6.60563 14.25 6.26562 13.91 6.26562 13.5V10.5C6.26562 10.09 6.60563 9.75 7.01562 9.75C7.42562 9.75 7.76562 10.09 7.76562 10.5V13.5ZM12.7656 13.5C12.7656 13.91 12.4256 14.25 12.0156 14.25C11.6056 14.25 11.2656 13.91 11.2656 13.5V10.5C11.2656 10.09 11.6056 9.75 12.0156 9.75C12.4256 9.75 12.7656 10.09 12.7656 10.5V13.5Z" fill="#171717"/>
</svg>
