<svg width="25" height="24" viewBox="0 0 25 24" fill="none" xmlns="http://www.w3.org/2000/svg">
<path d="M16.2056 2H7.82562C4.18562 2 2.01562 4.17 2.01562 7.81V16.18C2.01562 19.83 4.18562 22 7.82562 22H16.1956C19.8356 22 22.0056 19.83 22.0056 16.19V7.81C22.0156 4.17 19.8456 2 16.2056 2ZM9.92562 16.19C9.92562 16.83 9.40562 17.35 8.75562 17.35C8.11562 17.35 7.59562 16.83 7.59562 16.19V12.93C7.59562 12.29 8.11562 11.77 8.75562 11.77C9.40562 11.77 9.92562 12.29 9.92562 12.93V16.19ZM16.4356 16.19C16.4356 16.83 15.9156 17.35 15.2756 17.35C14.6256 17.35 14.1056 16.83 14.1056 16.19V7.81C14.1056 7.17 14.6256 6.65 15.2756 6.65C15.9156 6.65 16.4356 7.17 16.4356 7.81V16.19Z" fill="#171717"/>
</svg>
