<svg width="25" height="24" viewBox="0 0 25 24" fill="none" xmlns="http://www.w3.org/2000/svg">
<path d="M16.2164 2H7.83637C4.19637 2 2.02637 4.17 2.02637 7.81V16.18C2.02637 19.83 4.19637 22 7.83637 22H16.2064C19.8464 22 22.0164 19.83 22.0164 16.19V7.81C22.0264 4.17 19.8564 2 16.2164 2ZM9.13637 16.9C9.13637 17.18 8.91637 17.4 8.63637 17.4H5.84637C5.56637 17.4 5.34637 17.18 5.34637 16.9V12.28C5.34637 11.65 5.85637 11.14 6.48637 11.14H8.63637C8.91637 11.14 9.13637 11.36 9.13637 11.64V16.9ZM13.9164 16.9C13.9164 17.18 13.6964 17.4 13.4164 17.4H10.6264C10.3464 17.4 10.1264 17.18 10.1264 16.9V7.74C10.1264 7.11 10.6364 6.6 11.2664 6.6H12.7864C13.4164 6.6 13.9264 7.11 13.9264 7.74V16.9H13.9164ZM18.7064 16.9C18.7064 17.18 18.4864 17.4 18.2064 17.4H15.4164C15.1364 17.4 14.9164 17.18 14.9164 16.9V13.35C14.9164 13.07 15.1364 12.85 15.4164 12.85H17.5664C18.1964 12.85 18.7064 13.36 18.7064 13.99V16.9Z" fill="#171717"/>
</svg>
