<svg width="25" height="24" viewBox="0 0 25 24" fill="none" xmlns="http://www.w3.org/2000/svg">
<path d="M14.85 2H10.15C9.11001 2 8.26001 2.84 8.26001 3.88V4.82C8.26001 5.86 9.10001 6.7 10.14 6.7H14.85C15.89 6.7 16.73 5.86 16.73 4.82V3.88C16.74 2.84 15.89 2 14.85 2Z" fill="#171717"/>
<path d="M17.74 4.81998C17.74 6.40998 16.44 7.70998 14.85 7.70998H10.15C8.56004 7.70998 7.26004 6.40998 7.26004 4.81998C7.26004 4.25998 6.66004 3.90998 6.16004 4.16998C4.75004 4.91998 3.79004 6.40998 3.79004 8.11998V17.53C3.79004 19.99 5.80004 22 8.26004 22H16.74C19.2 22 21.21 19.99 21.21 17.53V8.11998C21.21 6.40998 20.25 4.91998 18.84 4.16998C18.34 3.90998 17.74 4.25998 17.74 4.81998ZM15.03 16.69C14.88 16.84 14.69 16.91 14.5 16.91C14.31 16.91 14.12 16.84 13.97 16.69L12.52 15.24L11.03 16.73C10.88 16.88 10.69 16.95 10.5 16.95C10.31 16.95 10.12 16.88 9.97004 16.73C9.68004 16.44 9.68004 15.96 9.97004 15.67L11.46 14.18L10.01 12.73C9.72004 12.44 9.72004 11.96 10.01 11.67C10.3 11.38 10.78 11.38 11.07 11.67L12.52 13.12L13.92 11.72C14.21 11.43 14.69 11.43 14.98 11.72C15.27 12.01 15.27 12.49 14.98 12.78L13.58 14.18L15.03 15.63C15.32 15.92 15.32 16.39 15.03 16.69Z" fill="#171717"/>
</svg>
