<svg width="25" height="24" viewBox="0 0 25 24" fill="none" xmlns="http://www.w3.org/2000/svg">
<path d="M14.85 2H10.15C9.11001 2 8.26001 2.84 8.26001 3.88V4.82C8.26001 5.86 9.10001 6.7 10.14 6.7H14.85C15.89 6.7 16.73 5.86 16.73 4.82V3.88C16.74 2.84 15.89 2 14.85 2Z" fill="#171717"/>
<path d="M17.74 4.81998C17.74 6.40998 16.44 7.70998 14.85 7.70998H10.15C8.56004 7.70998 7.26004 6.40998 7.26004 4.81998C7.26004 4.25998 6.66004 3.90998 6.16004 4.16998C4.75004 4.91998 3.79004 6.40998 3.79004 8.11998V17.53C3.79004 19.99 5.80004 22 8.26004 22H16.74C19.2 22 21.21 19.99 21.21 17.53V8.11998C21.21 6.40998 20.25 4.91998 18.84 4.16998C18.34 3.90998 17.74 4.25998 17.74 4.81998ZM15.84 12.73L11.84 16.73C11.69 16.88 11.5 16.95 11.31 16.95C11.12 16.95 10.93 16.88 10.78 16.73L9.28004 15.23C8.99004 14.94 8.99004 14.46 9.28004 14.17C9.57004 13.88 10.05 13.88 10.34 14.17L11.31 15.14L14.78 11.67C15.07 11.38 15.55 11.38 15.84 11.67C16.13 11.96 16.13 12.44 15.84 12.73Z" fill="#171717"/>
</svg>
