<svg width="25" height="24" viewBox="0 0 25 24" fill="none" xmlns="http://www.w3.org/2000/svg">
<path d="M14.85 2H10.15C9.11001 2 8.26001 2.84 8.26001 3.88V4.82C8.26001 5.86 9.10001 6.7 10.14 6.7H14.85C15.89 6.7 16.73 5.86 16.73 4.82V3.88C16.74 2.84 15.89 2 14.85 2Z" fill="#171717"/>
<path d="M17.74 4.81998C17.74 6.40998 16.44 7.70998 14.85 7.70998H10.15C8.56004 7.70998 7.26004 6.40998 7.26004 4.81998C7.26004 4.25998 6.66004 3.90998 6.16004 4.16998C4.75004 4.91998 3.79004 6.40998 3.79004 8.11998V17.53C3.79004 19.99 5.80004 22 8.26004 22H16.74C19.2 22 21.21 19.99 21.21 17.53V8.11998C21.21 6.40998 20.25 4.91998 18.84 4.16998C18.34 3.90998 17.74 4.25998 17.74 4.81998ZM16.25 17C16.25 17.41 15.91 17.75 15.5 17.75H12.5C12.09 17.75 11.75 17.41 11.75 17C11.75 16.59 12.09 16.25 12.5 16.25H13.69L8.97004 11.53C8.68004 11.24 8.68004 10.76 8.97004 10.47C9.26004 10.18 9.74004 10.18 10.03 10.47L14.75 15.19V14C14.75 13.59 15.09 13.25 15.5 13.25C15.91 13.25 16.25 13.59 16.25 14V17Z" fill="#171717"/>
</svg>
