<svg width="25" height="24" viewBox="0 0 25 24" fill="none" xmlns="http://www.w3.org/2000/svg">
<path d="M21.9399 16.75C21.6099 19.41 19.4299 21.59 16.7699 21.92C15.1599 22.12 13.6599 21.68 12.4899 20.82C11.8199 20.33 11.9799 19.29 12.7799 19.05C15.7899 18.14 18.1599 15.76 19.0799 12.75C19.3199 11.96 20.3599 11.8 20.8499 12.46C21.6999 13.64 22.1399 15.14 21.9399 16.75Z" fill="#171717"/>
<path d="M10.01 2C5.60002 2 2.02002 5.58 2.02002 9.99C2.02002 14.4 5.60002 17.98 10.01 17.98C14.42 17.98 18 14.4 18 9.99C17.99 5.58 14.42 2 10.01 2ZM9.07002 8.87L11.48 9.71C12.35 10.02 12.77 10.63 12.77 11.57C12.77 12.65 11.91 13.54 10.86 13.54H10.77V13.59C10.77 14 10.43 14.34 10.02 14.34C9.61002 14.34 9.27002 14 9.27002 13.59V13.53C8.16002 13.48 7.27002 12.55 7.27002 11.39C7.27002 10.98 7.61002 10.64 8.02002 10.64C8.43002 10.64 8.77002 10.98 8.77002 11.39C8.77002 11.75 9.03002 12.04 9.35002 12.04H10.85C11.08 12.04 11.26 11.83 11.26 11.57C11.26 11.22 11.2 11.2 10.97 11.12L8.56002 10.28C7.70002 9.98 7.27002 9.37 7.27002 8.42C7.27002 7.34 8.13002 6.45 9.18002 6.45H9.27002V6.41C9.27002 6 9.61002 5.66 10.02 5.66C10.43 5.66 10.77 6 10.77 6.41V6.47C11.88 6.52 12.77 7.45 12.77 8.61C12.77 9.02 12.43 9.36 12.02 9.36C11.61 9.36 11.27 9.02 11.27 8.61C11.27 8.25 11.01 7.96 10.69 7.96H9.19002C8.96002 7.96 8.78002 8.17 8.78002 8.43C8.77002 8.77 8.83002 8.79 9.07002 8.87Z" fill="#171717"/>
</svg>
