<svg width="25" height="24" viewBox="0 0 25 24" fill="none" xmlns="http://www.w3.org/2000/svg">
<path d="M12.0303 22.75C8.03027 22.75 4.78027 19.88 4.78027 16.35V12.65C4.78027 12.24 5.12027 11.9 5.53027 11.9C5.94027 11.9 6.28027 12.24 6.28027 12.65C6.28027 15.27 8.75027 17.25 12.0303 17.25C15.3103 17.25 17.7803 15.27 17.7803 12.65C17.7803 12.24 18.1203 11.9 18.5303 11.9C18.9403 11.9 19.2803 12.24 19.2803 12.65V16.35C19.2803 19.88 16.0303 22.75 12.0303 22.75ZM6.28027 16.46C6.35027 19.11 8.90027 21.25 12.0303 21.25C15.1603 21.25 17.7103 19.11 17.7803 16.46C16.4803 17.87 14.4203 18.75 12.0303 18.75C9.64027 18.75 7.59027 17.87 6.28027 16.46Z" fill="#171717"/>
<path d="M12.0303 13.75C9.27027 13.75 6.79026 12.51 5.58026 10.51C5.06026 9.66 4.78027 8.67 4.78027 7.65C4.78027 5.93 5.55028 4.31 6.94028 3.09C8.30028 1.9 10.1103 1.25 12.0303 1.25C13.9503 1.25 15.7503 1.9 17.1203 3.08C18.5103 4.31 19.2803 5.93 19.2803 7.65C19.2803 8.67 19.0003 9.65 18.4803 10.51C17.2703 12.51 14.7903 13.75 12.0303 13.75ZM12.0303 2.75C10.4703 2.75 9.01029 3.27 7.92029 4.23C6.86029 5.15 6.28027 6.37 6.28027 7.65C6.28027 8.4 6.48026 9.1 6.86026 9.73C7.81026 11.29 9.79027 12.25 12.0303 12.25C14.2703 12.25 16.2503 11.28 17.2003 9.73C17.5903 9.1 17.7803 8.4 17.7803 7.65C17.7803 6.37 17.2003 5.15 16.1303 4.21C15.0403 3.27 13.5903 2.75 12.0303 2.75Z" fill="#171717"/>
<path d="M12.0303 18.75C7.90027 18.75 4.78027 16.13 4.78027 12.65V7.65C4.78027 4.12 8.03027 1.25 12.0303 1.25C13.9503 1.25 15.7503 1.9 17.1203 3.08C18.5103 4.31 19.2803 5.93 19.2803 7.65V12.65C19.2803 16.13 16.1603 18.75 12.0303 18.75ZM12.0303 2.75C8.86027 2.75 6.28027 4.95 6.28027 7.65V8.65C6.28027 11.27 8.75027 13.25 12.0303 13.25C15.3103 13.25 17.7803 11.27 17.7803 8.65V7.65C17.7803 6.37 17.2003 5.15 16.1303 4.21C15.0403 3.27 13.5903 2.75 12.0303 2.75Z" fill="#171717"/>
</svg>
