<svg width="25" height="24" viewBox="0 0 25 24" fill="none" xmlns="http://www.w3.org/2000/svg">
<path d="M22.04 15C22.04 18.87 18.91 22 15.04 22L16.09 20.25" stroke="#171717" stroke-width="1.5" stroke-linecap="round" stroke-linejoin="round"/>
<path d="M2.04004 9C2.04004 5.13 5.17004 2 9.04004 2L7.99004 3.75" stroke="#171717" stroke-width="1.5" stroke-linecap="round" stroke-linejoin="round"/>
<path d="M22.04 4.2V4.31C22.04 4.59 21.82 4.81 21.54 4.81H12.54C12.26 4.81 12.04 4.59 12.04 4.31V4.2C12.04 2.44 12.48 2 14.26 2H19.82C21.6 2 22.04 2.44 22.04 4.2Z" fill="#171717"/>
<path d="M12.54 5.81006C12.26 5.81006 12.04 6.03006 12.04 6.31006V7.31006V8.30006C12.04 10.0601 12.48 10.5001 14.26 10.5001H19.82C21.6 10.5001 22.04 10.0601 22.04 8.30006V7.31006V6.31006C22.04 6.03006 21.82 5.81006 21.54 5.81006H12.54Z" fill="#171717"/>
<path d="M12.04 15.7V15.81C12.04 16.09 11.82 16.31 11.54 16.31H2.54004C2.26004 16.31 2.04004 16.09 2.04004 15.81V15.7C2.04004 13.94 2.48004 13.5 4.26004 13.5H9.82004C11.6 13.5 12.04 13.94 12.04 15.7Z" fill="#171717"/>
<path d="M2.54004 17.3101C2.26004 17.3101 2.04004 17.5301 2.04004 17.8101V18.8101V19.8001C2.04004 21.5601 2.48004 22.0001 4.26004 22.0001H9.82004C11.6 22.0001 12.04 21.5601 12.04 19.8001V18.8101V17.8101C12.04 17.5301 11.82 17.3101 11.54 17.3101H2.54004Z" fill="#171717"/>
</svg>
