<svg width="24" height="24" viewBox="0 0 24 24" fill="none" xmlns="http://www.w3.org/2000/svg">
<path d="M15.0031 22.75C14.7331 22.75 14.4831 22.6 14.3531 22.37C14.2231 22.14 14.2231 21.85 14.3631 21.62L15.4131 19.87C15.6231 19.51 16.0831 19.4 16.4431 19.61C16.8031 19.82 16.9131 20.28 16.7031 20.64L16.4331 21.09C19.1931 20.44 21.2631 17.96 21.2631 15C21.2631 14.59 21.6031 14.25 22.0131 14.25C22.4231 14.25 22.7631 14.59 22.7631 15C22.7531 19.27 19.2731 22.75 15.0031 22.75Z" fill="#171717"/>
<path d="M2.00293 9.75C1.59293 9.75 1.25293 9.41 1.25293 9C1.25293 4.73 4.73293 1.25 9.00293 1.25C9.27293 1.25 9.52293 1.4 9.65293 1.63C9.78293 1.86 9.78293 2.15 9.64293 2.38L8.59293 4.14C8.38293 4.49 7.92293 4.61 7.56293 4.39C7.21293 4.18 7.09293 3.72 7.31293 3.36L7.58293 2.91C4.81293 3.56 2.75293 6.04 2.75293 9C2.75293 9.41 2.41293 9.75 2.00293 9.75Z" fill="#171717"/>
<path d="M10.6729 13.85L7.53289 12.16C7.20289 11.98 6.80289 11.98 6.47289 12.16L3.33289 13.85C3.10289 13.97 2.96289 14.22 2.96289 14.49C2.96289 14.76 3.10289 15.01 3.33289 15.13L6.47289 16.82C6.64289 16.91 6.82289 16.95 7.00289 16.95C7.18289 16.95 7.36289 16.91 7.53289 16.82L10.6729 15.13C10.9029 15.01 11.0429 14.76 11.0429 14.49C11.0429 14.22 10.8929 13.98 10.6729 13.85Z" fill="#171717"/>
<path d="M5.95293 17.41L3.03293 15.95C2.81293 15.84 2.55293 15.85 2.33293 15.98C2.13293 16.11 2.00293 16.34 2.00293 16.59V19.35C2.00293 19.83 2.26293 20.26 2.69293 20.47L5.61293 21.93C5.71293 21.97 5.82293 22 5.93293 22C6.06293 22 6.19293 21.96 6.31293 21.89C6.52293 21.76 6.65293 21.53 6.65293 21.28V18.52C6.65293 18.05 6.38293 17.62 5.95293 17.41Z" fill="#171717"/>
<path d="M11.663 15.98C11.453 15.85 11.193 15.84 10.963 15.95L8.04303 17.41C7.61303 17.62 7.35303 18.05 7.35303 18.53V21.29C7.35303 21.54 7.48303 21.77 7.69303 21.9C7.81303 21.96 7.94303 22 8.07303 22C8.18303 22 8.29303 21.97 8.39303 21.92L11.313 20.46C11.743 20.25 12.003 19.82 12.003 19.34V16.58C12.003 16.34 11.873 16.11 11.663 15.98Z" fill="#171717"/>
<path d="M20.6729 3.83L17.5329 2.14C17.2029 1.96 16.8029 1.96 16.4729 2.14L13.3329 3.83C13.1029 3.95 12.9629 4.2 12.9629 4.47C12.9629 4.74 13.1029 4.99001 13.3329 5.11L16.4729 6.8C16.6429 6.89001 16.8229 6.93 17.0029 6.93C17.1829 6.93 17.3629 6.89001 17.5329 6.8L20.6729 5.11C20.9029 4.99001 21.0429 4.74 21.0429 4.47C21.0429 4.19 20.8929 3.95 20.6729 3.83Z" fill="#171717"/>
<path d="M15.9529 7.37999L13.0329 5.91999C12.8129 5.80999 12.5529 5.81999 12.3329 5.94999C12.1329 6.07999 12.0029 6.30999 12.0029 6.55999V9.31999C12.0029 9.79999 12.2629 10.23 12.6929 10.44L15.6129 11.9C15.7129 11.95 15.8229 11.98 15.9329 11.98C16.0629 11.98 16.1929 11.94 16.3129 11.87C16.5229 11.74 16.6529 11.51 16.6529 11.26V8.49999C16.6529 8.01999 16.3829 7.58999 15.9529 7.37999Z" fill="#171717"/>
<path d="M21.663 5.94999C21.453 5.81999 21.193 5.80999 20.963 5.91999L18.043 7.37999C17.613 7.58999 17.353 8.01999 17.353 8.49999V11.26C17.353 11.51 17.483 11.74 17.693 11.87C17.813 11.94 17.943 11.98 18.073 11.98C18.183 11.98 18.293 11.95 18.393 11.9L21.313 10.44C21.743 10.22 22.003 9.78999 22.003 9.31999V6.55999C22.003 6.30999 21.873 6.07999 21.663 5.94999Z" fill="#171717"/>
</svg>
