<svg width="25" height="24" viewBox="0 0 25 24" fill="none" xmlns="http://www.w3.org/2000/svg">
<path d="M12.5 2C6.98 2 2.5 6.48 2.5 12C2.5 17.52 6.98 22 12.5 22C18.02 22 22.5 17.52 22.5 12C22.5 6.48 18.02 2 12.5 2ZM9.49 14.12C10 14.12 10.5 13.93 10.89 13.59C11.2 13.32 11.68 13.35 11.95 13.66C12.22 13.97 12.19 14.45 11.88 14.72C11.22 15.3 10.37 15.62 9.49 15.62C7.49 15.62 5.87 14 5.87 12C5.87 10 7.49 8.38 9.49 8.38C10.37 8.38 11.21 8.7 11.88 9.28C12.19 9.55 12.22 10.03 11.95 10.34C11.68 10.65 11.2 10.68 10.89 10.41C10.5 10.07 10 9.88 9.49 9.88C8.32 9.88 7.37 10.83 7.37 12C7.37 13.17 8.32 14.12 9.49 14.12ZM16.49 14.12C17 14.12 17.5 13.93 17.89 13.59C18.2 13.32 18.68 13.35 18.95 13.66C19.22 13.97 19.19 14.45 18.88 14.72C18.22 15.3 17.37 15.62 16.49 15.62C14.49 15.62 12.87 14 12.87 12C12.87 10 14.49 8.38 16.49 8.38C17.37 8.38 18.21 8.7 18.88 9.28C19.19 9.55 19.22 10.03 18.95 10.34C18.68 10.65 18.2 10.68 17.89 10.41C17.5 10.07 17.01 9.88 16.49 9.88C15.32 9.88 14.37 10.83 14.37 12C14.37 13.17 15.32 14.12 16.49 14.12Z" fill="#171717"/>
</svg>
