<svg width="25" height="24" viewBox="0 0 25 24" fill="none" xmlns="http://www.w3.org/2000/svg">
<path d="M16.22 9.69002C14.17 7.63002 10.83 7.63002 8.77999 9.69002C6.71999 11.75 6.71999 15.08 8.77999 17.13C10.84 19.19 14.17 19.19 16.22 17.13C18.28 15.07 18.28 11.74 16.22 9.69002ZM13.03 13.94L11.44 15.53C11.29 15.68 11.1 15.75 10.91 15.75C10.72 15.75 10.52 15.68 10.38 15.53C10.09 15.24 10.09 14.76 10.38 14.46L11.97 12.87C12.26 12.58 12.74 12.58 13.04 12.87C13.33 13.17 13.33 13.65 13.03 13.94Z" fill="#171717"/>
<path d="M20.1 5.80997C19.88 5.58997 19.6 5.46997 19.29 5.46997C18.98 5.46997 18.7 5.58997 18.48 5.79997C18.03 6.24997 18.03 6.96997 18.48 7.41997C18.7 7.63997 18.98 7.75997 19.29 7.75997C19.6 7.75997 19.88 7.63997 20.1 7.42997C20.32 7.20997 20.44 6.92997 20.44 6.61997C20.44 6.30997 20.32 6.01997 20.1 5.80997Z" fill="#171717"/>
<path d="M6.52006 19.39C6.30006 19.17 6.02006 19.05 5.71006 19.05C5.40006 19.05 5.12006 19.17 4.90006 19.38C4.68006 19.6 4.56006 19.8801 4.56006 20.1901C4.56006 20.5001 4.68006 20.78 4.90006 21C5.12006 21.22 5.42006 21.33 5.71006 21.33C6.00006 21.33 6.30006 21.22 6.52006 20.99C6.96006 20.56 6.96006 19.83 6.52006 19.39Z" fill="#171717"/>
<path d="M22.91 12.6C22.7 12.38 22.41 12.27 22.1 12.26C21.79 12.26 21.51 12.38 21.29 12.6C20.84 13.05 20.84 13.77 21.29 14.22C21.51 14.44 21.81 14.55 22.1 14.55C22.39 14.55 22.69 14.44 22.91 14.22C23.36 13.77 23.36 13.04 22.91 12.6Z" fill="#171717"/>
<path d="M3.70994 12.6001C3.26994 12.1601 2.53994 12.1501 2.08994 12.6001C1.63994 13.0501 1.63994 13.7701 2.08994 14.2201C2.30994 14.4401 2.60994 14.5501 2.89994 14.5501C3.18994 14.5501 3.48994 14.4401 3.70994 14.2201C4.14994 13.7701 4.14994 13.0401 3.70994 12.6001Z" fill="#171717"/>
<path d="M20.1 19.39C19.65 18.94 18.93 18.94 18.48 19.39C18.03 19.84 18.03 20.56 18.48 21.01C18.7 21.23 19 21.34 19.29 21.34C19.58 21.34 19.88 21.23 20.1 21.01C20.32 20.79 20.44 20.5 20.44 20.2C20.44 19.89 20.32 19.6 20.1 19.39Z" fill="#171717"/>
<path d="M6.52006 5.80997C6.30006 5.58997 6.02006 5.46997 5.71006 5.46997C5.40006 5.46997 5.12006 5.58997 4.90006 5.79997C4.68006 6.01997 4.56006 6.29997 4.56006 6.60997C4.56006 6.91997 4.68006 7.20997 4.90006 7.41997C5.12006 7.63997 5.40006 7.75997 5.71006 7.75997C6.02006 7.75997 6.30006 7.63997 6.52006 7.42997C6.96006 6.97997 6.96006 6.24997 6.52006 5.80997Z" fill="#171717"/>
<path d="M13.31 3.0001C13.31 2.9901 13.31 2.9901 13.31 3.0001C12.86 2.5501 12.14 2.5501 11.69 3.0001C11.47 3.2201 11.35 3.5101 11.35 3.8101C11.35 4.1201 11.47 4.4001 11.68 4.6201C11.9 4.8401 12.18 4.9601 12.49 4.9601C12.8 4.9601 13.08 4.8401 13.3 4.6201C13.76 4.1701 13.76 3.4401 13.31 3.0001Z" fill="#171717"/>
</svg>
