<svg width="25" height="24" viewBox="0 0 25 24" fill="none" xmlns="http://www.w3.org/2000/svg">
<path d="M22.0156 22.75H5.01562C2.94563 22.75 1.26562 21.07 1.26562 19V2C1.26562 1.59 1.60563 1.25 2.01562 1.25C2.42562 1.25 2.76562 1.59 2.76562 2V19C2.76562 20.24 3.77562 21.25 5.01562 21.25H22.0156C22.4256 21.25 22.7656 21.59 22.7656 22C22.7656 22.41 22.4256 22.75 22.0156 22.75Z" fill="#171717"/>
<path d="M5.01569 17.7499C4.84569 17.7499 4.66569 17.6899 4.52569 17.5699C4.21569 17.2999 4.17569 16.8299 4.44569 16.5099L9.03569 11.1499C9.53569 10.5699 10.2557 10.2199 11.0157 10.1899C11.7757 10.1699 12.5257 10.4499 13.0657 10.9899L14.0157 11.9399C14.2657 12.1899 14.5857 12.3099 14.9457 12.3099C15.2957 12.2999 15.6157 12.1399 15.8457 11.8699L20.4357 6.50994C20.7057 6.19994 21.1757 6.15994 21.4957 6.42994C21.8057 6.69994 21.8457 7.16994 21.5757 7.48994L16.9857 12.8499C16.4857 13.4299 15.7657 13.7799 15.0057 13.8099C14.2357 13.8299 13.4957 13.5499 12.9557 13.0099L12.0157 12.0599C11.7657 11.8099 11.4357 11.6799 11.0857 11.6899C10.7357 11.6999 10.4157 11.8599 10.1857 12.1299L5.59569 17.4899C5.43569 17.6599 5.22569 17.7499 5.01569 17.7499Z" fill="#171717"/>
</svg>
