<svg width="25" height="24" viewBox="0 0 25 24" fill="none" xmlns="http://www.w3.org/2000/svg">
<path d="M12.0417 2C6.52175 2 2.04175 6.48 2.04175 12C2.04175 17.52 6.52175 22 12.0417 22C17.5617 22 22.0417 17.52 22.0417 12C22.0417 6.48 17.5617 2 12.0417 2ZM9.04175 8C9.59175 8 10.0417 8.45 10.0417 9C10.0417 9.55 9.60175 10 9.04175 10C8.49175 10 8.04175 9.55 8.04175 9C8.04175 8.45 8.49175 8 9.04175 8ZM9.57175 15.53C9.42175 15.68 9.23175 15.75 9.04175 15.75C8.85175 15.75 8.66175 15.68 8.51175 15.53C8.22175 15.24 8.22175 14.76 8.51175 14.47L14.5117 8.47C14.8017 8.18 15.2817 8.18 15.5717 8.47C15.8617 8.76 15.8617 9.24 15.5717 9.53L9.57175 15.53ZM15.0417 16C14.4817 16 14.0317 15.55 14.0317 15C14.0317 14.45 14.4817 14 15.0317 14C15.5817 14 16.0317 14.45 16.0317 15C16.0317 15.55 15.5917 16 15.0417 16Z" fill="#171717"/>
</svg>
