<svg width="25" height="24" viewBox="0 0 25 24" fill="none" xmlns="http://www.w3.org/2000/svg">
<path d="M15.6256 5.50002V15.66C15.6256 16.06 15.5056 16.45 15.2856 16.78L12.5556 20.84C12.1256 21.49 11.0556 21.95 10.1456 21.61C9.16564 21.28 8.51564 20.18 8.72564 19.2L9.24564 15.93C9.28564 15.63 9.20564 15.36 9.03564 15.15C8.86564 14.96 8.61564 14.84 8.34564 14.84H4.23564C3.44564 14.84 2.76564 14.52 2.36564 13.96C1.98564 13.42 1.91564 12.72 2.16564 12.01L4.62564 4.52002C4.93564 3.28002 6.28564 2.27002 7.62564 2.27002H11.5256C12.1956 2.27002 13.1356 2.50002 13.5656 2.93002L14.8456 3.92002C15.3356 4.30002 15.6256 4.88002 15.6256 5.50002Z" fill="#171717"/>
<path d="M18.8056 17.61H19.8356C21.3856 17.61 22.0156 17.01 22.0156 15.53V5.48002C22.0156 4.00002 21.3856 3.40002 19.8356 3.40002H18.8056C17.2556 3.40002 16.6256 4.00002 16.6256 5.48002V15.54C16.6256 17.01 17.2556 17.61 18.8056 17.61Z" fill="#171717"/>
</svg>
