<svg width="25" height="24" viewBox="0 0 25 24" fill="none" xmlns="http://www.w3.org/2000/svg">
<path d="M16.2999 2.20999C15.8899 1.79999 15.1799 2.07999 15.1799 2.64999V6.13999C15.1799 7.59999 16.4199 8.80999 17.9299 8.80999C18.8799 8.81999 20.1999 8.81999 21.3299 8.81999C21.8999 8.81999 22.1999 8.14999 21.7999 7.74999C20.3599 6.29999 17.7799 3.68999 16.2999 2.20999Z" fill="#171717"/>
<path d="M15.2601 19.2599C12.9101 19.4299 12.9101 22.8299 15.2601 22.9999H20.8201C21.4901 22.9999 22.1501 22.7499 22.6401 22.2999C24.2901 20.8599 23.4101 17.9799 21.2401 17.7099C20.4601 13.0199 13.6801 14.7999 15.2801 19.2699" fill="#171717"/>
<path d="M22 11.19V14.44C22 14.74 21.56 14.88 21.34 14.67C20.86 14.2 20.27 13.84 19.59 13.63C17.91 13.11 15.96 13.62 14.75 14.9C13.94 15.74 13.53 16.81 13.54 17.97C13.54 18.16 13.45 18.33 13.3 18.44C12.5 19.05 12 20.01 12 21.12C12 21.2 12 21.28 12.01 21.36C12.03 21.68 11.8 21.99 11.47 21.99H8.57C5.49 21.99 3 19.99 3 16.42V7.57C3 4 5.49 2 8.57 2H12.81C13.36 2 13.81 2.45 13.81 3V5.89C13.81 8.27 15.73 10.19 18.11 10.19H21C21.55 10.19 22 10.64 22 11.19Z" fill="#171717"/>
</svg>
