<svg width="25" height="24" viewBox="0 0 25 24" fill="none" xmlns="http://www.w3.org/2000/svg">
<path d="M16.5 2H8.5C5 2 3.5 4 3.5 7V17C3.5 20 5 22 8.5 22H16.5C20 22 21.5 20 21.5 17V7C21.5 4 20 2 16.5 2ZM13.57 15.49C13.06 17.12 11.27 17.97 10.77 17.97C10.28 17.96 8.51 17.13 7.98 15.49C7.65 14.46 8.04 13.19 9.11 12.84C9.68 12.66 10.38 12.81 10.77 13.36C11.14 12.79 11.87 12.66 12.43 12.84C13.51 13.19 13.89 14.46 13.57 15.49ZM19 9.25H17C15.48 9.25 14.25 8.02 14.25 6.5V4.5C14.25 4.09 14.59 3.75 15 3.75C15.41 3.75 15.75 4.09 15.75 4.5V6.5C15.75 7.19 16.31 7.75 17 7.75H19C19.41 7.75 19.75 8.09 19.75 8.5C19.75 8.91 19.41 9.25 19 9.25Z" fill="#171717"/>
</svg>
