<svg width="25" height="24" viewBox="0 0 25 24" fill="none" xmlns="http://www.w3.org/2000/svg">
<path d="M3.73 1H11.86C12.54 1 13.09 1.56 13.09 2.25V3.62C13.09 4.12 12.78 4.74 12.47 5.05L9.83 7.43C9.46 7.74 9.22 8.36 9.22 8.86V11.54C9.22 11.91 8.97 12.41 8.67 12.6L7.8 13.17C7 13.67 5.89 13.11 5.89 12.11V8.8C5.89 8.36 5.64 7.8 5.4 7.49L3.06 4.99C2.75 4.68 2.5 4.12 2.5 3.75V2.31C2.5 1.56 3.05 1 3.73 1Z" fill="#171717"/>
<path d="M17.5 2H15.1C14.82 2 14.6 2.22 14.6 2.5C14.6 2.98 14.6 3.62 14.6 3.62C14.6 4.61 14.07 5.58 13.55 6.11L10.83 8.54C10.8 8.61 10.75 8.71 10.72 8.79V11.54C10.72 12.45 10.18 13.44 9.44 13.89L8.62 14.42C8.16 14.71 7.65 14.85 7.14 14.85C6.68 14.85 6.22 14.73 5.8 14.5C5.28254 14.2134 4.89183 13.781 4.6531 13.2736C4.53113 13.0143 4.5 12.7245 4.5 12.438V10.21C4.5 10.08 4.45 9.95 4.35 9.86L3.35 8.86C3.04 8.54 2.5 8.76 2.5 9.21V17C2.5 19.76 4.74 22 7.5 22H17.5C20.26 22 22.5 19.76 22.5 17V7C22.5 4.24 20.26 2 17.5 2ZM18.5 17.75H11.5C11.09 17.75 10.75 17.41 10.75 17C10.75 16.59 11.09 16.25 11.5 16.25H18.5C18.91 16.25 19.25 16.59 19.25 17C19.25 17.41 18.91 17.75 18.5 17.75ZM18.5 13.75H13.5C13.09 13.75 12.75 13.41 12.75 13C12.75 12.59 13.09 12.25 13.5 12.25H18.5C18.91 12.25 19.25 12.59 19.25 13C19.25 13.41 18.91 13.75 18.5 13.75Z" fill="#171717"/>
</svg>
