<svg width="25" height="24" viewBox="0 0 25 24" fill="none" xmlns="http://www.w3.org/2000/svg">
<path d="M21.21 8.11998V17.53C21.21 19.99 19.2 22 16.74 22H8.26004C5.80004 22 3.79004 19.99 3.79004 17.53V8.11998C3.79004 6.40998 4.75004 4.91998 6.16004 4.16998C6.65004 3.90998 7.26004 4.25998 7.26004 4.81998C7.26004 6.40998 8.56004 7.70998 10.15 7.70998H14.85C16.44 7.70998 17.74 6.40998 17.74 4.81998C17.74 4.25998 18.34 3.90998 18.84 4.16998C20.25 4.91998 21.21 6.40998 21.21 8.11998Z" fill="#171717"/>
<path d="M14.85 2H10.15C9.11001 2 8.26001 2.84 8.26001 3.88V4.82C8.26001 5.86 9.10001 6.7 10.14 6.7H14.85C15.89 6.7 16.73 5.86 16.73 4.82V3.88C16.74 2.84 15.89 2 14.85 2Z" fill="#171717"/>
</svg>
