<svg width="25" height="24" viewBox="0 0 25 24" fill="none" xmlns="http://www.w3.org/2000/svg">
<path d="M16 13.15H13.83C12.05 13.15 10.6 11.71 10.6 9.92V7.75C10.6 7.34 10.27 7 9.85 7H6.68C4.37 7 2.5 8.5 2.5 11.18V17.82C2.5 20.5 4.37 22 6.68 22H12.57C14.88 22 16.75 20.5 16.75 17.82V13.9C16.75 13.48 16.41 13.15 16 13.15Z" fill="#171717"/>
<path d="M18.32 2H16.35H15.26H12.43C10.17 2 8.34001 3.44 8.26001 6.01C8.32001 6.01 8.37001 6 8.43001 6H11.26H12.35H14.32C16.63 6 18.5 7.5 18.5 10.18V12.15V14.86V16.83C18.5 16.89 18.49 16.94 18.49 16.99C20.72 16.92 22.5 15.44 22.5 12.83V10.86V8.15V6.18C22.5 3.5 20.63 2 18.32 2Z" fill="#171717"/>
<path d="M12.4799 7.14999C12.1699 6.83999 11.6399 7.04999 11.6399 7.47999V10.1C11.6399 11.2 12.5699 12.1 13.7099 12.1C14.4199 12.11 15.4099 12.11 16.2599 12.11C16.6899 12.11 16.9099 11.61 16.6099 11.31C15.5199 10.22 13.5799 8.26999 12.4799 7.14999Z" fill="#171717"/>
</svg>
