<svg width="25" height="24" viewBox="0 0 25 24" fill="none" xmlns="http://www.w3.org/2000/svg">
<path d="M11.2904 8.07996V10.94L10.2804 10.59C9.77045 10.41 9.46045 10.24 9.46045 9.36996C9.46045 8.65996 9.99045 8.07996 10.6404 8.07996H11.2904Z" fill="#171717"/>
<path d="M14.6205 14.6301C14.6205 15.3401 14.0905 15.9201 13.4405 15.9201H12.7905V13.0601L13.8005 13.4101C14.3105 13.5901 14.6205 13.7601 14.6205 14.6301Z" fill="#171717"/>
<path d="M16.2305 2H7.85053C4.21053 2 2.04053 4.17 2.04053 7.81V16.19C2.04053 19.83 4.21053 22 7.85053 22H16.2305C19.8705 22 22.0405 19.83 22.0405 16.19V7.81C22.0405 4.17 19.8705 2 16.2305 2ZM14.3005 12C15.0805 12.27 16.1205 12.84 16.1205 14.63C16.1205 16.17 14.9205 17.42 13.4405 17.42H12.7905V18C12.7905 18.41 12.4505 18.75 12.0405 18.75C11.6305 18.75 11.2905 18.41 11.2905 18V17.42H10.9305C9.29053 17.42 7.96053 16.03 7.96053 14.33C7.96053 13.92 8.29053 13.58 8.71053 13.58C9.12053 13.58 9.46053 13.92 9.46053 14.33C9.46053 15.21 10.1205 15.92 10.9305 15.92H11.2905V12.53L9.78053 12C9.00053 11.73 7.96053 11.16 7.96053 9.37C7.96053 7.83 9.16053 6.58 10.6405 6.58H11.2905V6C11.2905 5.59 11.6305 5.25 12.0405 5.25C12.4505 5.25 12.7905 5.59 12.7905 6V6.58H13.1505C14.7905 6.58 16.1205 7.97 16.1205 9.67C16.1205 10.08 15.7905 10.42 15.3705 10.42C14.9605 10.42 14.6205 10.08 14.6205 9.67C14.6205 8.79 13.9605 8.08 13.1505 8.08H12.7905V11.47L14.3005 12Z" fill="#171717"/>
</svg>
