<svg width="25" height="24" viewBox="0 0 25 24" fill="none" xmlns="http://www.w3.org/2000/svg">
<path d="M12.7925 15.9199H13.4425C14.0925 15.9199 14.6325 15.3399 14.6325 14.6399C14.6325 13.7699 14.3225 13.5999 13.8125 13.4199L12.8025 13.0699V15.9199H12.7925Z" fill="#171717"/>
<path d="M12.0125 1.90004C6.49255 1.92004 2.02255 6.41004 2.04255 11.93C2.06255 17.45 6.55255 21.92 12.0725 21.9C17.5925 21.88 22.0625 17.39 22.0425 11.87C22.0225 6.35004 17.5325 1.89004 12.0125 1.90004ZM14.3025 12C15.0825 12.27 16.1325 12.85 16.1325 14.64C16.1325 16.18 14.9225 17.42 13.4425 17.42H12.7925V18C12.7925 18.41 12.4525 18.75 12.0425 18.75C11.6325 18.75 11.2925 18.41 11.2925 18V17.42H10.9325C9.29255 17.42 7.96255 16.04 7.96255 14.34C7.96255 13.93 8.30255 13.59 8.71255 13.59C9.12255 13.59 9.46255 13.93 9.46255 14.34C9.46255 15.21 10.1225 15.92 10.9325 15.92H11.2925V12.54L9.78255 12C9.00255 11.73 7.95255 11.15 7.95255 9.36004C7.95255 7.82004 9.16255 6.58004 10.6425 6.58004H11.2925V6.00004C11.2925 5.59004 11.6325 5.25004 12.0425 5.25004C12.4525 5.25004 12.7925 5.59004 12.7925 6.00004V6.58004H13.1525C14.7925 6.58004 16.1225 7.96004 16.1225 9.66004C16.1225 10.07 15.7825 10.41 15.3725 10.41C14.9625 10.41 14.6225 10.07 14.6225 9.66004C14.6225 8.79004 13.9625 8.08004 13.1525 8.08004H12.7925V11.46L14.3025 12Z" fill="#171717"/>
<path d="M9.4624 9.36996C9.4624 10.24 9.7724 10.41 10.2824 10.59L11.2924 10.94V8.07996H10.6424C9.9924 8.07996 9.4624 8.65996 9.4624 9.36996Z" fill="#171717"/>
</svg>
