<svg width="24" height="24" viewBox="0 0 24 24" fill="none" xmlns="http://www.w3.org/2000/svg">
<path d="M12.001 18.75C11.591 18.75 11.251 18.41 11.251 18V17C11.251 16.59 11.591 16.25 12.001 16.25C12.411 16.25 12.751 16.59 12.751 17V18C12.751 18.41 12.411 18.75 12.001 18.75Z" fill="#171717"/>
<path d="M12.001 22.75C11.591 22.75 11.251 22.41 11.251 22V21C11.251 20.59 11.591 20.25 12.001 20.25C12.411 20.25 12.751 20.59 12.751 21V22C12.751 22.41 12.411 22.75 12.001 22.75Z" fill="#171717"/>
<path d="M2.00107 22.75C1.94107 22.75 1.88107 22.74 1.82107 22.73C1.42107 22.63 1.17107 22.22 1.27107 21.82L2.27107 17.82C2.37107 17.42 2.77107 17.17 3.18107 17.27C3.58107 17.37 3.83107 17.78 3.73107 18.18L2.73107 22.18C2.64107 22.52 2.34107 22.75 2.00107 22.75Z" fill="#171717"/>
<path d="M21.7536 22.5026C21.4136 22.5026 21.1136 22.2726 21.0236 21.9326L20.0236 17.9326C19.9236 17.5326 20.1636 17.1226 20.5736 17.0226C20.9736 16.9226 21.3836 17.1626 21.4836 17.5726L22.4836 21.5726C22.5836 21.9726 22.3436 22.3826 21.9336 22.4826C21.8736 22.4926 21.8136 22.5026 21.7536 22.5026Z" fill="#171717"/>
<path d="M19.141 5.3C19.141 5.6 18.891 5.84 18.601 5.84H5.53097C5.23097 5.84 4.99097 5.59 4.99097 5.3C4.99097 5 5.24097 4.76 5.53097 4.76H6.27097L6.55097 3.45C6.81097 2.17 7.35097 1 9.51097 1H14.601C16.761 1 17.311 2.17 17.571 3.44L17.851 4.75H18.591C18.891 4.75 19.141 5 19.141 5.3Z" fill="#171717"/>
<path d="M19.4509 9.4C19.3409 8.2 19.0209 6.93 16.6909 6.93H7.43088C5.10088 6.93 4.79088 8.21 4.67088 9.4L4.26088 13.82C4.21088 14.37 4.39088 14.92 4.77088 15.34C5.16088 15.76 5.70088 16 6.28088 16H7.64088C8.82088 16 9.04088 15.33 9.19088 14.88L9.34088 14.44C9.51088 13.94 9.55088 13.82 10.2009 13.82H13.9209C14.5709 13.82 14.5909 13.89 14.7809 14.44L14.9309 14.88C15.0709 15.33 15.3009 16 16.4709 16H17.8309C18.4009 16 18.9509 15.76 19.3409 15.34C19.7209 14.93 19.9009 14.37 19.8509 13.82L19.4509 9.4ZM9.88088 10.92H7.71088C7.41088 10.92 7.17088 10.67 7.17088 10.38C7.17088 10.09 7.42088 9.84 7.71088 9.84H9.89088C10.1909 9.84 10.4309 10.09 10.4309 10.38C10.4309 10.67 10.1809 10.92 9.88088 10.92ZM16.4109 10.92H14.2309C13.9309 10.92 13.6909 10.67 13.6909 10.38C13.6909 10.09 13.9409 9.84 14.2309 9.84H16.4109C16.7109 9.84 16.9509 10.09 16.9509 10.38C16.9509 10.67 16.7109 10.92 16.4109 10.92Z" fill="#171717"/>
</svg>
