<svg width="25" height="24" viewBox="0 0 25 24" fill="none" xmlns="http://www.w3.org/2000/svg">
<path d="M5.01758 15C4.07758 15 3.20758 15.33 2.51758 15.88C1.59758 16.61 1.01758 17.74 1.01758 19C1.01758 21.21 2.80758 23 5.01758 23C6.02758 23 6.94758 22.62 7.65758 22C8.48758 21.27 9.01758 20.2 9.01758 19C9.01758 16.79 7.22758 15 5.01758 15ZM6.01758 19.25C6.01758 19.51 5.87758 19.76 5.65758 19.89L4.40758 20.64C4.28758 20.72 4.14758 20.75 4.01758 20.75C3.76758 20.75 3.51758 20.62 3.37758 20.39C3.16758 20.03 3.27758 19.57 3.63758 19.36L4.52758 18.83V17.75C4.51758 17.34 4.85758 17 5.26758 17C5.67758 17 6.01758 17.34 6.01758 17.75V19.25Z" fill="#171717"/>
<path d="M14.8676 3.95005V7.75005H13.3676V3.95005C13.3676 3.68005 13.1276 3.55005 12.9676 3.55005C12.9176 3.55005 12.8676 3.56005 12.8176 3.58005L4.88758 6.57005C4.35758 6.77005 4.01758 7.27005 4.01758 7.84005V8.51005C3.10758 9.19005 2.51758 10.28 2.51758 11.51V7.84005C2.51758 6.65005 3.24758 5.59005 4.35758 5.17005L12.2976 2.17005C12.5176 2.09005 12.7476 2.05005 12.9676 2.05005C13.9676 2.05005 14.8676 2.86005 14.8676 3.95005Z" fill="#171717"/>
<path d="M21.5178 14.5V15.5C21.5178 15.77 21.3078 15.99 21.0278 16H19.5678C19.0378 16 18.5578 15.61 18.5178 15.09C18.4878 14.78 18.6078 14.49 18.8078 14.29C18.9878 14.1 19.2378 14 19.5078 14H21.0178C21.3078 14.01 21.5178 14.23 21.5178 14.5Z" fill="#171717"/>
<path d="M19.4976 12.95H20.5176C21.0676 12.95 21.5176 12.5 21.5176 11.95V11.51C21.5176 9.44 19.8276 7.75 17.7576 7.75H6.27758C5.42758 7.75 4.64758 8.03 4.01758 8.51C3.10758 9.19 2.51758 10.28 2.51758 11.51V13.29C2.51758 13.67 2.91758 13.91 3.27758 13.79C3.83758 13.6 4.42758 13.5 5.01758 13.5C8.04758 13.5 10.5176 15.97 10.5176 19C10.5176 19.72 10.3276 20.51 10.0276 21.21C9.86758 21.57 10.1176 22 10.5076 22H17.7576C19.8276 22 21.5176 20.31 21.5176 18.24V18.05C21.5176 17.5 21.0676 17.05 20.5176 17.05H19.6476C18.6876 17.05 17.7676 16.46 17.5176 15.53C17.3176 14.77 17.5576 14.03 18.0576 13.55C18.4276 13.17 18.9376 12.95 19.4976 12.95ZM14.0176 12.75H9.01758C8.60758 12.75 8.26758 12.41 8.26758 12C8.26758 11.59 8.60758 11.25 9.01758 11.25H14.0176C14.4276 11.25 14.7676 11.59 14.7676 12C14.7676 12.41 14.4276 12.75 14.0176 12.75Z" fill="#171717"/>
</svg>
