<svg width="25" height="24" viewBox="0 0 25 24" fill="none" xmlns="http://www.w3.org/2000/svg">
<path d="M5.02148 15C4.00148 15 3.06148 15.39 2.35148 16.03C2.19148 16.17 2.04148 16.32 1.91148 16.49C1.35148 17.18 1.02148 18.05 1.02148 19C1.02148 21.21 2.82148 23 5.02148 23C5.98148 23 6.85148 22.66 7.54148 22.11C8.10148 21.64 8.54148 21.03 8.78148 20.33C8.94148 19.92 9.02148 19.47 9.02148 19C9.02148 16.8 7.23148 15 5.02148 15ZM7.42148 18.23C7.42148 18.51 7.20148 18.72 6.93148 18.72C6.66148 18.72 6.44148 18.51 6.44148 18.23V18.13C6.44148 18.02 6.36148 17.93 6.25148 17.93H4.25148C4.35148 18.12 4.33148 18.35 4.17148 18.51C4.08148 18.6 3.96148 18.65 3.82148 18.65C3.70148 18.65 3.57148 18.6 3.48148 18.51L2.76148 17.79C2.72148 17.75 2.68148 17.69 2.65148 17.63C2.61148 17.51 2.61148 17.38 2.65148 17.26C2.68148 17.21 2.71148 17.14 2.76148 17.1L3.48148 16.39C3.67148 16.19 3.98148 16.19 4.16148 16.39C4.32148 16.54 4.34148 16.78 4.24148 16.96H6.25148C6.89148 16.96 7.41148 17.48 7.41148 18.13V18.23H7.42148ZM6.22148 21.76C6.09148 21.76 5.96148 21.72 5.87148 21.62C5.71148 21.47 5.69148 21.23 5.79148 21.05H3.78148C3.14148 21.05 2.62148 20.53 2.62148 19.88V19.78C2.62148 19.5 2.84148 19.29 3.11148 19.29C3.38148 19.29 3.60148 19.5 3.60148 19.78V19.88C3.60148 19.99 3.68148 20.08 3.79148 20.08H5.80148C5.70148 19.89 5.72148 19.66 5.88148 19.5C6.07148 19.31 6.38148 19.31 6.56148 19.5L7.28148 20.22C7.32148 20.26 7.36148 20.32 7.39148 20.38C7.43148 20.5 7.43148 20.63 7.39148 20.75C7.36148 20.8 7.32148 20.86 7.28148 20.9L6.56148 21.61C6.47148 21.71 6.34148 21.76 6.22148 21.76Z" fill="#171717"/>
<path d="M14.8715 3.95005V7.75005H13.3715V3.95005C13.3715 3.68005 13.1315 3.55005 12.9715 3.55005C12.9215 3.55005 12.8715 3.56005 12.8215 3.58005L4.89148 6.57005C4.36148 6.77005 4.02148 7.27005 4.02148 7.84005V8.51005C3.11148 9.19005 2.52148 10.28 2.52148 11.51V7.84005C2.52148 6.65005 3.25148 5.59005 4.36148 5.17005L12.3015 2.17005C12.5215 2.09005 12.7515 2.05005 12.9715 2.05005C13.9715 2.05005 14.8715 2.86005 14.8715 3.95005Z" fill="#171717"/>
<path d="M21.5217 14.5V15.5C21.5217 15.77 21.3117 15.99 21.0317 16H19.5717C19.0417 16 18.5617 15.61 18.5217 15.09C18.4917 14.78 18.6117 14.49 18.8117 14.29C18.9917 14.1 19.2417 14 19.5117 14H21.0217C21.3117 14.01 21.5217 14.23 21.5217 14.5Z" fill="#171717"/>
<path d="M19.5015 12.95H20.5215C21.0715 12.95 21.5215 12.5 21.5215 11.95V11.51C21.5215 9.44 19.8315 7.75 17.7615 7.75H6.28148C5.43148 7.75 4.65148 8.03 4.02148 8.51C3.11148 9.19 2.52148 10.28 2.52148 11.51V13.29C2.52148 13.67 2.92148 13.91 3.28148 13.79C3.84148 13.6 4.43148 13.5 5.02148 13.5C8.05148 13.5 10.5215 15.97 10.5215 19C10.5215 19.72 10.3315 20.51 10.0315 21.21C9.87148 21.57 10.1215 22 10.5115 22H17.7615C19.8315 22 21.5215 20.31 21.5215 18.24V18.05C21.5215 17.5 21.0715 17.05 20.5215 17.05H19.6515C18.6915 17.05 17.7715 16.46 17.5215 15.53C17.3215 14.77 17.5615 14.03 18.0615 13.55C18.4315 13.17 18.9415 12.95 19.5015 12.95ZM14.0215 12.75H9.02148C8.61148 12.75 8.27148 12.41 8.27148 12C8.27148 11.59 8.61148 11.25 9.02148 11.25H14.0215C14.4315 11.25 14.7715 11.59 14.7715 12C14.7715 12.41 14.4315 12.75 14.0215 12.75Z" fill="#171717"/>
</svg>
