<svg width="24" height="24" viewBox="0 0 24 24" fill="none" xmlns="http://www.w3.org/2000/svg">
<path d="M8.25884 21.2477C8.90577 20.6006 9.27741 19.7747 9.37376 18.9211C9.50452 17.7854 9.126 16.6084 8.25884 15.7411C7.74268 15.2249 7.10952 14.8807 6.44195 14.7224C5.16874 14.3989 3.7579 14.7362 2.7531 15.7411C2.058 16.4363 1.67948 17.3242 1.6313 18.2397C1.59689 18.632 1.6313 19.0382 1.73453 19.4305C1.89282 20.0982 2.23693 20.7314 2.7531 21.2477C4.27406 22.7689 6.73788 22.7689 8.25884 21.2477ZM6.96499 17.7785C7.36416 17.7785 7.69451 18.1089 7.69451 18.5082C7.68762 18.9143 7.36416 19.2378 6.95811 19.2447L6.23548 19.2378L6.24236 19.933C6.23548 20.3391 5.91202 20.6626 5.50597 20.6695C5.09992 20.6626 4.77646 20.3391 4.76958 19.933L4.77646 19.2378L4.05383 19.2447C3.64778 19.2378 3.32432 18.9143 3.31744 18.5082C3.32432 18.3085 3.4069 18.1296 3.53766 17.9988C3.66843 17.868 3.84736 17.7854 4.04695 17.7785L4.77646 17.7785L4.77646 17.0214C4.77646 16.8149 4.85905 16.6359 4.98981 16.5051C5.12057 16.3744 5.2995 16.2918 5.50597 16.2918C5.90514 16.2918 6.23548 16.6222 6.23548 17.0214L6.23548 17.7785L6.96499 17.7785Z" fill="#171717"/>
<path d="M15.0952 3.84645V7.54522H13.6352V3.84645C13.6352 3.58365 13.4016 3.45711 13.2458 3.45711C13.1972 3.45711 13.1485 3.46684 13.0998 3.48631L5.38108 6.39666C4.8652 6.59133 4.53426 7.07801 4.53426 7.63283V8.28498C3.6485 8.94686 3.07422 10.0078 3.07422 11.2051V7.63283C3.07422 6.47453 3.78477 5.44277 4.8652 5.03395L12.5937 2.11387C12.8078 2.036 13.0317 1.99707 13.2458 1.99707C14.2192 1.99707 15.0952 2.78549 15.0952 3.84645Z" fill="#171717"/>
<path d="M21.5681 14.1174V15.0908C21.5681 15.3536 21.3637 15.5677 21.0911 15.5775H19.67C19.1542 15.5775 18.6869 15.1978 18.648 14.6917C18.6188 14.39 18.7356 14.1077 18.9303 13.913C19.1055 13.7281 19.3488 13.6307 19.6116 13.6307H21.0814C21.3637 13.6405 21.5681 13.8546 21.5681 14.1174Z" fill="#171717"/>
<path d="M19.6009 12.6071H20.5936C21.129 12.6071 21.5669 12.169 21.5669 11.6336V11.2053C21.5669 9.19029 19.9221 7.54517 17.9073 7.54517H6.73383C5.90653 7.54517 5.14735 7.81773 4.53417 8.28498C3.64847 8.94693 3.07422 10.008 3.07422 11.2053V12.9381C3.07422 13.308 3.46354 13.5416 3.81393 13.4248C4.35898 13.2398 4.93322 13.1425 5.50747 13.1425C8.45658 13.1425 10.8606 15.5469 10.8606 18.4964C10.8606 19.1973 10.6757 19.9663 10.3837 20.6477C10.228 20.9982 10.4713 21.4168 10.8509 21.4168H17.9073C19.9221 21.4168 21.5669 19.7716 21.5669 17.7566V17.5717C21.5669 17.0363 21.129 16.5982 20.5936 16.5982H19.7469C18.8125 16.5982 17.9171 16.0239 17.6737 15.1186C17.4791 14.3788 17.7127 13.6584 18.1993 13.1912C18.5594 12.8212 19.0558 12.6071 19.6009 12.6071ZM14.2672 12.4124H9.40068C9.00162 12.4124 8.6707 12.0814 8.6707 11.6823C8.6707 11.2832 9.00162 10.9522 9.40068 10.9522H14.2672C14.6662 10.9522 14.9972 11.2832 14.9972 11.6823C14.9972 12.0814 14.6662 12.4124 14.2672 12.4124Z" fill="#171717"/>
</svg>
