<svg width="24" height="24" viewBox="0 0 24 24" fill="none" xmlns="http://www.w3.org/2000/svg">
<path d="M5.00781 15C4.06781 15 3.19781 15.33 2.50781 15.88C1.58781 16.61 1.00781 17.74 1.00781 19C1.00781 19.75 1.21781 20.46 1.58781 21.06C2.27781 22.22 3.54781 23 5.00781 23C6.01781 23 6.93781 22.63 7.63781 22C7.94781 21.74 8.21781 21.42 8.42781 21.06C8.79781 20.46 9.00781 19.75 9.00781 19C9.00781 16.79 7.21781 15 5.00781 15ZM7.07781 18.57L4.94781 20.54C4.80781 20.67 4.61781 20.74 4.43781 20.74C4.24781 20.74 4.05781 20.67 3.90781 20.52L2.91781 19.53C2.62781 19.24 2.62781 18.76 2.91781 18.47C3.20781 18.18 3.68781 18.18 3.97781 18.47L4.45781 18.95L6.05781 17.47C6.35781 17.19 6.83781 17.21 7.11781 17.51C7.39781 17.81 7.37781 18.29 7.07781 18.57Z" fill="#171717"/>
<path d="M14.8578 3.95005V7.75005H13.3578V3.95005C13.3578 3.68005 13.1178 3.55005 12.9578 3.55005C12.9078 3.55005 12.8578 3.56005 12.8078 3.58005L4.87781 6.57005C4.34781 6.77005 4.00781 7.27005 4.00781 7.84005V8.51005C3.09781 9.19005 2.50781 10.28 2.50781 11.51V7.84005C2.50781 6.65005 3.23781 5.59005 4.34781 5.17005L12.2878 2.17005C12.5078 2.09005 12.7378 2.05005 12.9578 2.05005C13.9578 2.05005 14.8578 2.86005 14.8578 3.95005Z" fill="#171717"/>
<path d="M21.508 14.5V15.5C21.508 15.77 21.298 15.99 21.018 16H19.558C19.028 16 18.548 15.61 18.508 15.09C18.478 14.78 18.598 14.49 18.798 14.29C18.978 14.1 19.228 14 19.498 14H21.008C21.298 14.01 21.508 14.23 21.508 14.5Z" fill="#171717"/>
<path d="M19.4878 12.95H20.5078C21.0578 12.95 21.5078 12.5 21.5078 11.95V11.51C21.5078 9.44 19.8178 7.75 17.7478 7.75H6.26781C5.41781 7.75 4.63781 8.03 4.00781 8.51C3.09781 9.19 2.50781 10.28 2.50781 11.51V13.29C2.50781 13.67 2.90781 13.91 3.26781 13.79C3.82781 13.6 4.41781 13.5 5.00781 13.5C8.03781 13.5 10.5078 15.97 10.5078 19C10.5078 19.72 10.3178 20.51 10.0178 21.21C9.85781 21.57 10.1078 22 10.4978 22H17.7478C19.8178 22 21.5078 20.31 21.5078 18.24V18.05C21.5078 17.5 21.0578 17.05 20.5078 17.05H19.6378C18.6778 17.05 17.7578 16.46 17.5078 15.53C17.3078 14.77 17.5478 14.03 18.0478 13.55C18.4178 13.17 18.9278 12.95 19.4878 12.95ZM14.0078 12.75H9.00781C8.59781 12.75 8.25781 12.41 8.25781 12C8.25781 11.59 8.59781 11.25 9.00781 11.25H14.0078C14.4178 11.25 14.7578 11.59 14.7578 12C14.7578 12.41 14.4178 12.75 14.0078 12.75Z" fill="#171717"/>
</svg>
