<svg width="24" height="24" viewBox="0 0 24 24" fill="none" xmlns="http://www.w3.org/2000/svg">
<path d="M21.14 9.90002H12.75V15.38C12.75 15.79 12.41 16.13 12 16.13C11.59 16.13 11.25 15.79 11.25 15.38V9.90002H2.86C2.38 9.90002 2 10.28 2 10.76C2 16.65 6.11 20.76 12 20.76C17.89 20.76 22 16.65 22 10.76C22 10.28 21.62 9.90002 21.14 9.90002Z" fill="#171717"/>
<path d="M12.75 5.80005L14.31 7.36005C14.6 7.65005 15.08 7.65005 15.37 7.36005C15.66 7.07005 15.66 6.59005 15.37 6.30005L12.52 3.46005C12.23 3.17005 11.75 3.17005 11.46 3.46005L8.62002 6.31005C8.48002 6.46005 8.40002 6.65005 8.40002 6.84005C8.40002 7.03005 8.47002 7.22005 8.62002 7.37005C8.91002 7.66005 9.39003 7.66005 9.68003 7.37005L11.24 5.81005V9.90005H12.74V5.80005H12.75Z" fill="#171717"/>
</svg>
