<svg width="24" height="24" viewBox="0 0 24 24" fill="none" xmlns="http://www.w3.org/2000/svg">
<path d="M15.5805 19.7C13.4705 19.85 13.4705 22.91 15.5805 23.06H20.5905C21.2005 23.06 21.7805 22.84 22.2305 22.43C23.7105 21.14 22.9205 18.54 20.9705 18.3C20.2705 14.08 14.1605 15.68 15.6105 19.7" fill="#171717"/>
<path d="M15.5805 19.7C13.4705 19.85 13.4705 22.91 15.5805 23.06H20.5905C21.2005 23.06 21.7805 22.84 22.2305 22.43C23.7105 21.14 22.9205 18.54 20.9705 18.3C20.2705 14.08 14.1605 15.68 15.6105 19.7" fill="#171717"/>
<path d="M22.0005 11.07V15.34C22.0005 15.66 21.4905 15.8 21.2705 15.57C20.8005 15.08 20.2105 14.71 19.5305 14.5C17.9605 14.01 16.1505 14.49 15.0105 15.67C14.2905 16.44 13.9005 17.4 13.8805 18.44C13.8805 18.62 13.7905 18.78 13.6505 18.89C12.9305 19.46 12.4905 20.35 12.4905 21.37V21.38C12.4905 21.7 12.2605 21.99 11.9405 21.99H7.34049C4.40049 22 2.00049 19.6 2.00049 16.65V6.42C2.00049 3.98 3.98049 2 6.42049 2H8.74049C10.3705 2 10.8805 2.53 11.5305 3.4L12.9305 5.26C13.2405 5.67 13.2805 5.72 13.8605 5.72H16.6505C19.0305 5.72 21.0505 7.28 21.7405 9.44C21.8905 9.89 21.9705 10.35 21.9905 10.84C22.0005 10.91 22.0005 11 22.0005 11.07Z" fill="#171717"/>
</svg>
