<svg width="25" height="24" viewBox="0 0 25 24" fill="none" xmlns="http://www.w3.org/2000/svg">
<path d="M20.19 7.34996C19.94 7.01996 19.47 6.94996 19.14 7.19996C18.81 7.44996 18.74 7.91996 18.99 8.24996C20.07 9.68996 20.64 11.37 20.64 13.11C20.64 17.6 16.99 21.25 12.5 21.25C8.00998 21.25 4.35998 17.6 4.35998 13.11C4.35998 8.61996 8.00998 4.97996 12.5 4.97996C13.08 4.97996 13.67 5.04996 14.31 5.19996C14.34 5.20996 14.37 5.19996 14.41 5.19996C14.43 5.19996 14.46 5.21996 14.48 5.21996C14.51 5.21996 14.53 5.20996 14.56 5.20996C14.6 5.20996 14.63 5.19996 14.66 5.18996C14.71 5.17996 14.76 5.15996 14.81 5.12996C14.84 5.10996 14.88 5.09996 14.91 5.07996C14.92 5.06996 14.94 5.06996 14.95 5.05996C14.98 5.03996 14.99 5.00996 15.01 4.98996C15.05 4.94996 15.08 4.91996 15.11 4.86996C15.14 4.82996 15.15 4.77996 15.17 4.73996C15.18 4.70996 15.2 4.67996 15.21 4.64996C15.21 4.62996 15.21 4.61996 15.21 4.59996C15.22 4.54996 15.22 4.49996 15.21 4.44996C15.21 4.39996 15.21 4.35996 15.2 4.30996C15.19 4.26996 15.17 4.22996 15.15 4.17996C15.13 4.12996 15.11 4.07996 15.08 4.03996C15.07 4.01996 15.07 4.00996 15.06 3.99996L13.08 1.52996C12.82 1.20996 12.35 1.15996 12.03 1.40996C11.71 1.66996 11.66 2.13996 11.91 2.45996L12.73 3.47996C12.65 3.47996 12.57 3.46996 12.49 3.46996C7.17998 3.46996 2.84998 7.78996 2.84998 13.11C2.84998 18.43 7.16997 22.75 12.49 22.75C17.81 22.75 22.13 18.43 22.13 13.11C22.14 11.04 21.46 9.04996 20.19 7.34996Z" fill="#171717"/>
<path d="M10.04 16.6701C9.63004 16.6701 9.29004 16.3301 9.29004 15.9201V12.5301L9.10004 12.7501C8.82004 13.0601 8.35004 13.0801 8.04004 12.8101C7.73004 12.5301 7.71004 12.0601 7.98004 11.7501L9.48004 10.0801C9.69004 9.85008 10.02 9.77008 10.31 9.88008C10.6 9.99008 10.79 10.2701 10.79 10.5801V15.9301C10.79 16.3401 10.46 16.6701 10.04 16.6701Z" fill="#171717"/>
<path d="M14.5 16.6701C12.98 16.6701 11.75 15.4401 11.75 13.9201V12.5701C11.75 11.0501 12.98 9.82007 14.5 9.82007C16.02 9.82007 17.25 11.0501 17.25 12.5701V13.9201C17.25 15.4401 16.02 16.6701 14.5 16.6701ZM14.5 11.3301C13.81 11.3301 13.25 11.8901 13.25 12.5801V13.9301C13.25 14.6201 13.81 15.1801 14.5 15.1801C15.19 15.1801 15.75 14.6201 15.75 13.9301V12.5801C15.75 11.8901 15.19 11.3301 14.5 11.3301Z" fill="#171717"/>
</svg>
