<svg width="25" height="24" viewBox="0 0 25 24" fill="none" xmlns="http://www.w3.org/2000/svg">
<path d="M19.98 7.09003C19.72 6.77003 19.25 6.72003 18.93 6.98003C18.61 7.24003 18.56 7.71003 18.82 8.03003C19.95 9.43003 20.58 11.09 20.64 12.83C20.8 17.31 17.28 21.09 12.79 21.24C8.30003 21.4 4.53003 17.88 4.37003 13.4C4.21003 8.92003 7.73003 5.14003 12.22 4.99003C12.79 4.97003 13.39 5.02003 14.04 5.15003C14.08 5.16003 14.12 5.15003 14.16 5.15003C14.26 5.20003 14.38 5.23003 14.49 5.23003C14.66 5.23003 14.82 5.18003 14.96 5.06003C15.28 4.80003 15.33 4.33003 15.08 4.01003L13.1 1.54003C12.84 1.22003 12.37 1.16003 12.05 1.42003C11.73 1.68003 11.68 2.15003 11.93 2.47003L12.76 3.50003C12.57 3.49003 12.37 3.48003 12.18 3.49003C6.87003 3.67003 2.70003 8.15003 2.89003 13.46C3.08003 18.77 7.55003 22.94 12.86 22.75C18.17 22.56 22.34 18.09 22.15 12.78C22.06 10.71 21.32 8.74003 19.98 7.09003Z" fill="#171717"/>
<path d="M12.88 16.9201H10.59C10.18 16.9201 9.84001 16.5801 9.84001 16.1701C9.84001 15.7601 10.18 15.4201 10.59 15.4201H12.88C13.31 15.4201 13.66 15.0701 13.66 14.6401C13.66 14.2101 13.31 13.8601 12.88 13.8601H10.59C10.35 13.8601 10.12 13.7401 9.98001 13.5501C9.84001 13.3601 9.80001 13.1001 9.88001 12.8701L10.64 10.5801C10.74 10.2701 11.03 10.0701 11.35 10.0701H14.41C14.82 10.0701 15.16 10.4101 15.16 10.8201C15.16 11.2301 14.82 11.5701 14.41 11.5701H11.89L11.63 12.3601H12.88C14.14 12.3601 15.16 13.3801 15.16 14.6401C15.16 15.9001 14.14 16.9201 12.88 16.9201Z" fill="#171717"/>
</svg>
