<svg width="25" height="24" viewBox="0 0 25 24" fill="none" xmlns="http://www.w3.org/2000/svg">
<path d="M14.9301 16.9201H12.6401C12.2301 16.9201 11.8901 16.5801 11.8901 16.1701C11.8901 15.7601 12.2301 15.4201 12.6401 15.4201H14.9301C15.3601 15.4201 15.7101 15.0701 15.7101 14.6401C15.7101 14.2101 15.3601 13.8601 14.9301 13.8601H12.6401C12.4001 13.8601 12.1701 13.7401 12.0301 13.5501C11.8901 13.3601 11.8501 13.1001 11.9301 12.8701L12.6901 10.5801C12.7901 10.2701 13.0801 10.0701 13.4001 10.0701H16.4601C16.8701 10.0701 17.2101 10.4101 17.2101 10.8201C17.2101 11.2301 16.8701 11.5701 16.4601 11.5701H13.9401L13.6801 12.3601H14.9301C16.1901 12.3601 17.2101 13.3801 17.2101 14.6401C17.2101 15.9001 16.1801 16.9201 14.9301 16.9201Z" fill="#171717"/>
<path d="M10.04 16.9201C9.63004 16.9201 9.29004 16.5801 9.29004 16.1701V12.7801L9.10004 13.0001C8.82004 13.3101 8.35004 13.3301 8.04004 13.0601C7.74004 12.7801 7.71004 12.3101 7.99004 12.0001L9.49004 10.3301C9.70004 10.1001 10.03 10.0201 10.32 10.1301C10.61 10.2401 10.8 10.5201 10.8 10.8301V16.1801C10.79 16.5901 10.46 16.9201 10.04 16.9201Z" fill="#171717"/>
<path d="M20.19 7.35002C19.94 7.02002 19.47 6.95002 19.14 7.20002C18.81 7.45002 18.74 7.92002 18.99 8.25002C20.07 9.69002 20.64 11.37 20.64 13.11C20.64 17.6 16.99 21.25 12.5 21.25C8.00998 21.25 4.35998 17.6 4.35998 13.11C4.35998 8.62002 8.00998 4.98002 12.5 4.98002C13.08 4.98002 13.67 5.05002 14.31 5.20002C14.34 5.21002 14.37 5.20002 14.4 5.20002C14.43 5.20002 14.45 5.22002 14.47 5.22002C14.5 5.22002 14.52 5.21002 14.55 5.21002C14.58 5.21002 14.61 5.20002 14.65 5.19002C14.71 5.18002 14.76 5.15002 14.81 5.13002C14.84 5.11002 14.87 5.10002 14.9 5.08002C14.91 5.07002 14.93 5.07002 14.94 5.06002C14.97 5.04002 14.98 5.01002 15 4.99002C15.04 4.95002 15.07 4.92002 15.1 4.87002C15.13 4.83002 15.14 4.78002 15.16 4.73002C15.17 4.70002 15.19 4.67002 15.2 4.64002C15.2 4.62002 15.2 4.61002 15.2 4.59002C15.21 4.54002 15.21 4.49002 15.2 4.44002C15.2 4.39002 15.2 4.35002 15.19 4.30002C15.18 4.26002 15.16 4.22002 15.14 4.17002C15.12 4.12002 15.1 4.07002 15.07 4.03002C15.07 4.02002 15.07 4.01002 15.06 4.00002L13.08 1.53002C12.82 1.21002 12.35 1.15002 12.03 1.41002C11.71 1.67002 11.66 2.14002 11.91 2.46002L12.73 3.48002C12.65 3.48002 12.57 3.47002 12.49 3.47002C7.17998 3.47002 2.84998 7.79002 2.84998 13.11C2.84998 18.43 7.16997 22.75 12.49 22.75C17.81 22.75 22.13 18.43 22.13 13.11C22.14 11.04 21.46 9.05002 20.19 7.35002Z" fill="#171717"/>
</svg>
