<svg width="25" height="24" viewBox="0 0 25 24" fill="none" xmlns="http://www.w3.org/2000/svg">
<path d="M19.0156 8C20.6725 8 22.0156 6.65685 22.0156 5C22.0156 3.34315 20.6725 2 19.0156 2C17.3588 2 16.0156 3.34315 16.0156 5C16.0156 6.65685 17.3588 8 19.0156 8Z" fill="#171717"/>
<path d="M17.8056 9.34C16.2956 8.94 15.0756 7.72 14.6756 6.21C14.4156 5.25 14.4756 4.33 14.7656 3.51C14.9656 2.95 14.6256 2.33 14.0456 2.21C12.5756 1.9 10.9856 1.91 9.32559 2.36C5.54559 3.42 2.65559 6.69 2.11559 10.58C1.19559 17.2 6.80559 22.81 13.4256 21.9C17.3256 21.36 20.5856 18.47 21.6356 14.68C22.0956 13.03 22.1056 11.44 21.7956 9.96C21.6756 9.38 21.0556 9.05 20.4956 9.24C19.6856 9.53 18.7656 9.59 17.8056 9.34Z" fill="#171717"/>
</svg>
