<svg width="25" height="24" viewBox="0 0 25 24" fill="none" xmlns="http://www.w3.org/2000/svg">
<path d="M21.47 8H18.53C17.26 8 16.5 7.24 16.5 5.97V3.03C16.5 1.76 17.26 1 18.53 1H21.47C22.74 1 23.5 1.76 23.5 3.03V5.97C23.5 7.24 22.74 8 21.47 8ZM21.69 4.69C21.57 4.57 21.41 4.51 21.25 4.51C21.09 4.51 20.93 4.57 20.81 4.69L20.63 4.87V2.63C20.63 2.28 20.35 2 20 2C19.65 2 19.37 2.28 19.37 2.63V4.87L19.19 4.69C18.95 4.45 18.55 4.45 18.31 4.69C18.07 4.93 18.07 5.33 18.31 5.57L19.56 6.82C19.61 6.87 19.68 6.91 19.75 6.94C19.77 6.95 19.79 6.95 19.81 6.96C19.86 6.98 19.91 6.99 19.97 6.99C19.99 6.99 20.01 6.99 20.03 6.99C20.1 6.99 20.16 6.98 20.23 6.95C20.24 6.95 20.24 6.95 20.25 6.95C20.32 6.92 20.38 6.88 20.43 6.83C20.44 6.82 20.44 6.82 20.45 6.82L21.7 5.57C21.94 5.33 21.94 4.93 21.69 4.69Z" fill="#171717"/>
<path d="M9.5 10.3801C10.8144 10.3801 11.88 9.31456 11.88 8.00012C11.88 6.68568 10.8144 5.62012 9.5 5.62012C8.18556 5.62012 7.12 6.68568 7.12 8.00012C7.12 9.31456 8.18556 10.3801 9.5 10.3801Z" fill="#171717"/>
<path d="M21.47 8H21V12.61L20.87 12.5C20.09 11.83 18.83 11.83 18.05 12.5L13.89 16.07C13.11 16.74 11.85 16.74 11.07 16.07L10.73 15.79C10.02 15.17 8.89 15.11 8.09 15.65L4.35 18.16C4.13 17.6 4 16.95 4 16.19V7.81C4 4.99 5.49 3.5 8.31 3.5H16.5V3.03C16.5 2.63 16.57 2.29 16.73 2H8.31C4.67 2 2.5 4.17 2.5 7.81V16.19C2.5 17.28 2.69 18.23 3.06 19.03C3.92 20.93 5.76 22 8.31 22H16.69C20.33 22 22.5 19.83 22.5 16.19V7.77C22.21 7.93 21.87 8 21.47 8Z" fill="#171717"/>
</svg>
