<svg width="25" height="24" viewBox="0 0 25 24" fill="none" xmlns="http://www.w3.org/2000/svg">
<path d="M21.47 1H18.53C17.26 1 16.5 1.76 16.5 3.03V5.97C16.5 7.24 17.26 8 18.53 8H21.47C22.74 8 23.5 7.24 23.5 5.97V3.03C23.5 1.76 22.74 1 21.47 1ZM22.13 3.45L19.76 6.22C19.67 6.33 19.53 6.4 19.39 6.4C19.38 6.4 19.38 6.4 19.37 6.4C19.23 6.4 19.1 6.35 19 6.25L17.9 5.17C17.7 4.97 17.7 4.64 17.9 4.44C18.1 4.24 18.43 4.23 18.63 4.44L19.33 5.13L21.33 2.79C21.52 2.57 21.84 2.55 22.06 2.73C22.29 2.91 22.31 3.24 22.13 3.45Z" fill="#171717"/>
<path d="M9.5 10.3801C10.8144 10.3801 11.88 9.31456 11.88 8.00012C11.88 6.68568 10.8144 5.62012 9.5 5.62012C8.18556 5.62012 7.12 6.68568 7.12 8.00012C7.12 9.31456 8.18556 10.3801 9.5 10.3801Z" fill="#171717"/>
<path d="M21.47 8H21V12.61L20.87 12.5C20.09 11.83 18.83 11.83 18.05 12.5L13.89 16.07C13.11 16.74 11.85 16.74 11.07 16.07L10.73 15.79C10.02 15.17 8.89 15.11 8.09 15.65L4.35 18.16C4.13 17.6 4 16.95 4 16.19V7.81C4 4.99 5.49 3.5 8.31 3.5H16.5V3.03C16.5 2.63 16.57 2.29 16.73 2H8.31C4.67 2 2.5 4.17 2.5 7.81V16.19C2.5 17.28 2.69 18.23 3.06 19.03C3.92 20.93 5.76 22 8.31 22H16.69C20.33 22 22.5 19.83 22.5 16.19V7.77C22.21 7.93 21.87 8 21.47 8Z" fill="#171717"/>
</svg>
