<svg width="25" height="24" viewBox="0 0 25 24" fill="none" xmlns="http://www.w3.org/2000/svg">
<path d="M21.47 1H18.53C17.26 1 16.5 1.76 16.5 3.03V5.97C16.5 7.24 17.26 8 18.53 8H21.47C22.74 8 23.5 7.24 23.5 5.97V3.03C23.5 1.76 22.74 1 21.47 1ZM19.51 6.57C19.48 6.6 19.41 6.64 19.36 6.64L18.32 6.79C18.29 6.8 18.25 6.8 18.22 6.8C18.07 6.8 17.94 6.75 17.85 6.65C17.73 6.53 17.68 6.36 17.71 6.18L17.86 5.14C17.87 5.09 17.9 5.02 17.93 4.99L19.63 3.29C19.66 3.36 19.69 3.44 19.72 3.52C19.76 3.6 19.8 3.67 19.84 3.74C19.87 3.8 19.91 3.86 19.95 3.9C19.99 3.96 20.03 4.02 20.06 4.05C20.08 4.08 20.09 4.09 20.1 4.1C20.19 4.21 20.29 4.31 20.38 4.38C20.4 4.4 20.42 4.42 20.43 4.42C20.48 4.46 20.54 4.51 20.58 4.54C20.64 4.58 20.69 4.62 20.75 4.65C20.82 4.69 20.9 4.73 20.98 4.77C21.06 4.81 21.14 4.84 21.21 4.86L19.51 6.57ZM21.9 4.18L21.58 4.5C21.56 4.53 21.53 4.54 21.5 4.54C21.49 4.54 21.48 4.54 21.47 4.54C20.75 4.33 20.18 3.76 19.97 3.04C19.96 3 19.97 2.96 20 2.93L20.33 2.6C20.87 2.06 21.38 2.07 21.91 2.6C22.18 2.87 22.31 3.13 22.31 3.39C22.3 3.65 22.17 3.91 21.9 4.18Z" fill="#171717"/>
<path d="M9.5 10.3801C10.8144 10.3801 11.88 9.31456 11.88 8.00012C11.88 6.68568 10.8144 5.62012 9.5 5.62012C8.18556 5.62012 7.12 6.68568 7.12 8.00012C7.12 9.31456 8.18556 10.3801 9.5 10.3801Z" fill="#171717"/>
<path d="M21.47 8H21V12.61L20.87 12.5C20.09 11.83 18.83 11.83 18.05 12.5L13.89 16.07C13.11 16.74 11.85 16.74 11.07 16.07L10.73 15.79C10.02 15.17 8.89 15.11 8.09 15.65L4.35 18.16C4.13 17.6 4 16.95 4 16.19V7.81C4 4.99 5.49 3.5 8.31 3.5H16.5V3.03C16.5 2.63 16.57 2.29 16.73 2H8.31C4.67 2 2.5 4.17 2.5 7.81V16.19C2.5 17.28 2.69 18.23 3.06 19.03C3.92 20.93 5.76 22 8.31 22H16.69C20.33 22 22.5 19.83 22.5 16.19V7.77C22.21 7.93 21.87 8 21.47 8Z" fill="#171717"/>
</svg>
