<svg width="25" height="24" viewBox="0 0 25 24" fill="none" xmlns="http://www.w3.org/2000/svg">
<path d="M21.47 1H18.53C17.26 1 16.5 1.76 16.5 3.03V5.97C16.5 7.24 17.26 8 18.53 8H21.47C22.74 8 23.5 7.24 23.5 5.97V3.03C23.5 1.76 22.74 1 21.47 1ZM21.97 5.56C22.22 5.81 22.22 6.22 21.97 6.47C21.84 6.59 21.68 6.65 21.51 6.65C21.35 6.65 21.19 6.59 21.06 6.47L20 5.41L18.95 6.47C18.82 6.59 18.66 6.65 18.49 6.65C18.33 6.65 18.17 6.59 18.04 6.47C17.79 6.22 17.79 5.81 18.04 5.56L19.1 4.5L18.04 3.45C17.79 3.2 17.79 2.79 18.04 2.54C18.29 2.29 18.7 2.29 18.95 2.54L20 3.6L21.06 2.54C21.31 2.29 21.72 2.29 21.97 2.54C22.22 2.79 22.22 3.2 21.97 3.45L20.91 4.5L21.97 5.56Z" fill="#171717"/>
<path d="M9.5 10.3801C10.8144 10.3801 11.88 9.31456 11.88 8.00012C11.88 6.68568 10.8144 5.62012 9.5 5.62012C8.18556 5.62012 7.12 6.68568 7.12 8.00012C7.12 9.31456 8.18556 10.3801 9.5 10.3801Z" fill="#171717"/>
<path d="M21.47 8H21V12.61L20.87 12.5C20.09 11.83 18.83 11.83 18.05 12.5L13.89 16.07C13.11 16.74 11.85 16.74 11.07 16.07L10.73 15.79C10.02 15.17 8.89 15.11 8.09 15.65L4.35 18.16C4.13 17.6 4 16.95 4 16.19V7.81C4 4.99 5.49 3.5 8.31 3.5H16.5V3.03C16.5 2.63 16.57 2.29 16.73 2H8.31C4.67 2 2.5 4.17 2.5 7.81V16.19C2.5 17.28 2.69 18.23 3.06 19.03C3.92 20.93 5.76 22 8.31 22H16.69C20.33 22 22.5 19.83 22.5 16.19V7.77C22.21 7.93 21.87 8 21.47 8Z" fill="#171717"/>
</svg>
