<svg width="25" height="24" viewBox="0 0 25 24" fill="none" xmlns="http://www.w3.org/2000/svg">
<path d="M22.27 2.22988C21.97 1.92988 21.48 1.92988 21.18 2.22988L2.73 20.6899C2.43 20.9899 2.43 21.4799 2.73 21.7799C2.88 21.9199 3.07 21.9999 3.27 21.9999C3.47 21.9999 3.66 21.9199 3.81 21.7699L22.27 3.30988C22.58 3.00988 22.58 2.52988 22.27 2.22988Z" fill="#171717"/>
<path d="M9.5 10.3801C10.8144 10.3801 11.88 9.31456 11.88 8.00012C11.88 6.68568 10.8144 5.62012 9.5 5.62012C8.18556 5.62012 7.12 6.68568 7.12 8.00012C7.12 9.31456 8.18556 10.3801 9.5 10.3801Z" fill="#171717"/>
<path d="M22.11 5.38989L20.89 6.60989C20.97 6.97989 21 7.37989 21 7.80989V12.6099L20.87 12.4999C20.09 11.8299 18.83 11.8299 18.05 12.4999L13.89 16.0699C13.18 16.6799 12.06 16.7399 11.28 16.2199L5.89999 21.5999C5.93999 21.6199 5.97999 21.6299 6.01999 21.6399C6.28999 21.7299 6.55999 21.7999 6.84999 21.8599C6.94999 21.8799 7.04999 21.8999 7.15999 21.9099C7.52999 21.9599 7.90999 21.9999 8.30999 21.9999H16.69C20.33 21.9999 22.5 19.8299 22.5 16.1899V7.80989C22.5 6.90989 22.37 6.09989 22.11 5.38989Z" fill="#171717"/>
<path d="M22.11 5.38989L20.89 6.60989C20.97 6.97989 21 7.37989 21 7.80989V12.6099L20.87 12.4999C20.09 11.8299 18.83 11.8299 18.05 12.4999L13.89 16.0699C13.18 16.6799 12.06 16.7399 11.28 16.2199L5.89001 21.6099C6.60001 21.8699 7.41001 21.9999 8.31001 21.9999H16.69C20.33 21.9999 22.5 19.8299 22.5 16.1899V7.80989C22.5 6.90989 22.37 6.09989 22.11 5.38989Z" fill="#171717"/>
<path d="M20.96 3.54L19.9 4.6C19.18 3.87 18.1 3.5 16.69 3.5H8.31C5.49 3.5 4 4.99 4 7.81V16.19C4 16.95 4.13 17.6 4.35 18.16L8.09 15.65C8.43 15.42 8.82 15.3 9.21 15.29L4.04 20.46C3.64 20.06 3.31 19.58 3.06 19.03C2.69 18.23 2.5 17.28 2.5 16.19V7.81C2.5 4.17 4.67 2 8.31 2H16.69C18.51 2 19.96 2.54 20.96 3.54Z" fill="#171717"/>
</svg>
