<svg width="25" height="24" viewBox="0 0 25 24" fill="none" xmlns="http://www.w3.org/2000/svg">
<path d="M21.47 1H18.53C17.26 1 16.5 1.76 16.5 3.03V5.97C16.5 7.24 17.26 8 18.53 8H21.47C22.74 8 23.5 7.24 23.5 5.97V3.03C23.5 1.76 22.74 1 21.47 1ZM21.69 4.31C21.57 4.43 21.41 4.49 21.25 4.49C21.09 4.49 20.93 4.43 20.81 4.31L20.63 4.13V6.37C20.63 6.72 20.35 7 20 7C19.65 7 19.37 6.72 19.37 6.37V4.13L19.19 4.31C18.95 4.55 18.55 4.55 18.31 4.31C18.07 4.07 18.07 3.67 18.31 3.43L19.56 2.18C19.61 2.13 19.68 2.09 19.75 2.06C19.77 2.05 19.79 2.05 19.81 2.04C19.86 2.02 19.91 2.01 19.97 2.01C19.99 2.01 20.01 2.01 20.03 2.01C20.1 2.01 20.16 2.02 20.23 2.05C20.24 2.05 20.24 2.05 20.25 2.05C20.32 2.08 20.38 2.12 20.43 2.17C20.44 2.18 20.44 2.18 20.45 2.18L21.7 3.43C21.94 3.67 21.94 4.07 21.69 4.31Z" fill="#171717"/>
<path d="M9.5 10.3801C10.8144 10.3801 11.88 9.31456 11.88 8.00012C11.88 6.68568 10.8144 5.62012 9.5 5.62012C8.18556 5.62012 7.12 6.68568 7.12 8.00012C7.12 9.31456 8.18556 10.3801 9.5 10.3801Z" fill="#171717"/>
<path d="M21.47 8H21V12.61L20.87 12.5C20.09 11.83 18.83 11.83 18.05 12.5L13.89 16.07C13.11 16.74 11.85 16.74 11.07 16.07L10.73 15.79C10.02 15.17 8.89 15.11 8.09 15.65L4.35 18.16C4.13 17.6 4 16.95 4 16.19V7.81C4 4.99 5.49 3.5 8.31 3.5H16.5V3.03C16.5 2.63 16.57 2.29 16.73 2H8.31C4.67 2 2.5 4.17 2.5 7.81V16.19C2.5 17.28 2.69 18.23 3.06 19.03C3.92 20.93 5.76 22 8.31 22H16.69C20.33 22 22.5 19.83 22.5 16.19V7.77C22.21 7.93 21.87 8 21.47 8Z" fill="#171717"/>
</svg>
