<svg width="25" height="24" viewBox="0 0 25 24" fill="none" xmlns="http://www.w3.org/2000/svg">
<path d="M9.5 10.3801C10.8144 10.3801 11.88 9.31456 11.88 8.00012C11.88 6.68568 10.8144 5.62012 9.5 5.62012C8.18556 5.62012 7.12 6.68568 7.12 8.00012C7.12 9.31456 8.18556 10.3801 9.5 10.3801Z" fill="#171717"/>
<path d="M21.47 8H21V12.61L20.87 12.5C20.09 11.83 18.83 11.83 18.05 12.5L13.89 16.07C13.11 16.74 11.85 16.74 11.07 16.07L10.73 15.79C10.02 15.17 8.89 15.11 8.09 15.65L4.35 18.16C4.13 17.6 4 16.95 4 16.19V7.81C4 4.99 5.49 3.5 8.31 3.5H16.5V3.03C16.5 2.63 16.57 2.29 16.73 2H8.31C4.67 2 2.5 4.17 2.5 7.81V16.19C2.5 17.28 2.69 18.23 3.06 19.03C3.92 20.93 5.76 22 8.31 22H16.69C20.33 22 22.5 19.83 22.5 16.19V7.77C22.21 7.93 21.87 8 21.47 8Z" fill="#171717"/>
<path d="M21.47 1H18.53C17.66 1 17.02 1.36 16.73 2C16.57 2.29 16.5 2.63 16.5 3.03V3.5V5.97C16.5 7.24 17.26 8 18.53 8H21H21.47C21.87 8 22.21 7.93 22.5 7.77C23.14 7.48 23.5 6.84 23.5 5.97V3.03C23.5 1.76 22.74 1 21.47 1ZM20.8 6.21C20.48 6.4 20.17 6.5 20 6.5C19.55 6.5 18.27 5.88 17.89 4.68C17.83 4.5 17.8 4.3 17.8 4.11C17.8 3.94 17.82 3.77 17.87 3.61C18 3.14 18.31 2.73 18.83 2.56C19.03 2.5 19.24 2.48 19.43 2.52C19.63 2.55 19.82 2.63 19.99 2.76C20.31 2.51 20.75 2.43 21.17 2.56C22.08 2.86 22.37 3.89 22.11 4.68C22.07 4.8 22.02 4.92 21.96 5.03C21.69 5.57 21.23 5.97 20.8 6.21Z" fill="#171717"/>
</svg>
