<svg width="24" height="24" viewBox="0 0 24 24" fill="none" xmlns="http://www.w3.org/2000/svg">
<path d="M22.341 9.33L20.341 8.33C19.971 8.15 19.511 8.29 19.331 8.66C19.141 9.04 19.291 9.49 19.661 9.67L21.251 10.46V15.25L17.501 15.26V5C17.501 3 16.161 2 14.501 2H6.50098C4.84098 2 3.50098 3 3.50098 5V21.25H2.00098C1.59098 21.25 1.25098 21.59 1.25098 22C1.25098 22.41 1.59098 22.75 2.00098 22.75H19.001C19.411 22.75 19.751 22.41 19.751 22C19.751 21.59 19.411 21.25 19.001 21.25H17.501V16.76L22.001 16.75C22.421 16.75 22.751 16.41 22.751 16V10C22.751 9.72 22.591 9.46 22.341 9.33ZM6.00098 6.89C6.00098 5.5 6.85098 5 7.89098 5H13.121C14.151 5 15.001 5.5 15.001 6.89V8.12C15.001 9.5 14.151 10 13.111 10H7.89098C6.85098 10 6.00098 9.5 6.00098 8.11V6.89ZM6.50098 12.25H9.50098C9.91098 12.25 10.251 12.59 10.251 13C10.251 13.41 9.91098 13.75 9.50098 13.75H6.50098C6.09098 13.75 5.75098 13.41 5.75098 13C5.75098 12.59 6.09098 12.25 6.50098 12.25Z" fill="#171717"/>
</svg>
