<svg width="24" height="24" viewBox="0 0 24 24" fill="none" xmlns="http://www.w3.org/2000/svg">
<path d="M8.5 12.75C8.09 12.75 7.75 12.41 7.75 12V6C7.75 5.59 8.09 5.25 8.5 5.25C8.91 5.25 9.25 5.59 9.25 6V12C9.25 12.41 8.91 12.75 8.5 12.75Z" fill="#171717"/>
<path d="M8.5 22.75C8.09 22.75 7.75 22.41 7.75 22V18C7.75 17.59 8.09 17.25 8.5 17.25C8.91 17.25 9.25 17.59 9.25 18V22C9.25 22.41 8.91 22.75 8.5 22.75Z" fill="#171717"/>
<path d="M15.5 22.75C15.09 22.75 14.75 22.41 14.75 22V6C14.75 5.59 15.09 5.25 15.5 5.25C15.91 5.25 16.25 5.59 16.25 6V22C16.25 22.41 15.91 22.75 15.5 22.75Z" fill="#171717"/>
<path d="M10.1 5.3C10.1 5.79 9.90005 6.24 9.57005 6.57C9.24005 6.9 8.79005 7.1 8.30005 7.1H6.05005C6.33005 6.73 6.50005 6.25 6.50005 5.75V4.85C6.50005 4.35 6.33005 3.87 6.05005 3.5H8.30005C9.29005 3.5 10.1 4.31 10.1 5.3Z" fill="#171717"/>
<path d="M6.5 4.84999V5.74999C6.5 6.24999 6.33 6.72999 6.05 7.09999C5.29 8.10999 3.73 8.44999 2.28 7.15999C2.12 7.01999 2 6.71999 2 6.50999V4.16999C2 3.96999 2.1 3.69999 2.23 3.55999C3.49 2.23999 5.01 2.42999 5.84 3.25999C5.91 3.32999 5.99 3.40999 6.05 3.49999C6.33 3.86999 6.5 4.34999 6.5 4.84999Z" fill="#171717"/>
<path d="M13.8999 5.3C13.8999 5.79 14.0999 6.24 14.4299 6.57C14.7599 6.9 15.2099 7.1 15.6999 7.1H17.9499C17.6699 6.73 17.4999 6.25 17.4999 5.75V4.85C17.4999 4.35 17.6699 3.87 17.9499 3.5H15.6999C14.7099 3.5 13.8999 4.31 13.8999 5.3Z" fill="#171717"/>
<path d="M17.5 4.84999V5.74999C17.5 6.24999 17.67 6.72999 17.95 7.09999C18.71 8.10999 20.27 8.44999 21.72 7.15999C21.88 7.01999 22 6.71999 22 6.50999V4.16999C22 3.97999 21.9 3.69999 21.77 3.55999C20.51 2.23999 18.99 2.42999 18.16 3.25999C18.09 3.32999 18.02 3.40999 17.95 3.49999C17.67 3.86999 17.5 4.34999 17.5 4.84999Z" fill="#171717"/>
<path d="M10 13.5V17.5C10 18.33 9.33 19 8.5 19C7.67 19 7 18.33 7 17.5V13.5C7 12.67 7.67 12 8.5 12C9.33 12 10 12.67 10 13.5Z" fill="#171717"/>
</svg>
