<svg width="25" height="24" viewBox="0 0 25 24" fill="none" xmlns="http://www.w3.org/2000/svg">
<path d="M22.0156 7.81V12.5H17.9356C17.8156 12.49 17.5556 12.34 17.4956 12.23L16.4556 10.26C16.0456 9.48 15.3356 9.04 14.5756 9.08C13.8156 9.12 13.1656 9.63 12.8356 10.46L11.4556 13.92L11.2556 13.4C10.7656 12.13 9.36562 11.17 7.98562 11.17L2.01562 11.2V7.81C2.01562 4.17 4.18562 2 7.82562 2H16.2056C19.8456 2 22.0156 4.17 22.0156 7.81Z" fill="#171717"/>
<path d="M22.0156 16.19V14H17.9356C17.2656 14 16.4756 13.52 16.1656 12.93L15.1256 10.96C14.8456 10.43 14.4456 10.46 14.2256 11.01L11.9256 16.82C11.6756 17.47 11.2556 17.47 10.9956 16.82L9.85563 13.94C9.58563 13.24 8.74563 12.67 7.99563 12.67L2.01562 12.7V16.19C2.01562 19.77 4.11563 21.93 7.64563 21.99C7.75563 22 7.87562 22 7.98562 22H15.9856C16.1356 22 16.2856 22 16.4256 21.99C19.9356 21.91 22.0156 19.76 22.0156 16.19Z" fill="#171717"/>
<path d="M2.0156 12.7V16.01C1.9956 15.69 1.9856 15.35 1.9856 15V12.7H2.0156Z" fill="#171717"/>
</svg>
