<svg width="25" height="24" viewBox="0 0 25 24" fill="none" xmlns="http://www.w3.org/2000/svg">
<path d="M12.0156 2C6.49563 2 2.01562 6.48 2.01562 12C2.01562 17.52 6.49563 22 12.0156 22C17.5356 22 22.0156 17.52 22.0156 12C22.0156 6.48 17.5356 2 12.0156 2ZM12.3456 17C12.1656 17.06 11.8556 17.06 11.6756 17C10.1156 16.47 6.61562 14.24 6.61562 10.46C6.61562 8.79 7.95563 7.44 9.61563 7.44C10.5956 7.44 11.4656 7.91 12.0156 8.65C12.5556 7.92 13.4356 7.44 14.4156 7.44C16.0756 7.44 17.4156 8.79 17.4156 10.46C17.4156 14.24 13.9156 16.47 12.3456 17Z" fill="#171717"/>
</svg>
