<svg width="25" height="24" viewBox="0 0 25 24" fill="none" xmlns="http://www.w3.org/2000/svg">
<path d="M20.7057 13.92C20.6957 13.92 20.6957 13.91 20.6957 13.91V13.9C19.8156 12.98 18.5857 12.4 17.2157 12.4C14.5657 12.4 12.4156 14.55 12.4156 17.2C12.4156 18.43 12.8856 19.55 13.6456 20.4C14.5257 21.38 15.7957 22 17.2157 22C19.8657 22 22.0156 19.85 22.0156 17.2C22.0156 15.93 21.5157 14.78 20.7057 13.92ZM19.0257 19.07C18.8857 19.21 18.6856 19.29 18.4956 19.29C18.3056 19.29 18.1157 19.21 17.9657 19.07L17.2256 18.33L16.4657 19.1C16.3157 19.24 16.1256 19.32 15.9356 19.32C15.8356 19.32 15.7457 19.3 15.6557 19.26C15.5657 19.23 15.4757 19.17 15.4057 19.1C15.1057 18.8 15.1057 18.33 15.4057 18.04L16.1656 17.27L15.4356 16.53C15.1356 16.24 15.1356 15.76 15.4356 15.47C15.7256 15.18 16.1956 15.18 16.4956 15.47L17.2256 16.21L17.9356 15.5C18.2357 15.21 18.7056 15.21 18.9956 15.5C19.1656 15.67 19.2357 15.89 19.2057 16.11C19.1957 16.28 19.1256 16.44 18.9956 16.56L18.2857 17.27L19.0257 18.01C19.3257 18.3 19.3257 18.77 19.0257 19.07Z" fill="#171717"/>
<path d="M22.0156 8.73001C22.0156 9.92001 21.8256 11.02 21.4956 12.04C21.4356 12.25 21.1856 12.31 21.0056 12.18C19.9156 11.37 18.5856 10.94 17.2156 10.94C13.7456 10.94 10.9156 13.77 10.9156 17.24C10.9156 18.32 11.1956 19.38 11.7256 20.32C11.8856 20.6 11.6956 20.96 11.3956 20.85C8.98563 20.03 4.11562 17.04 2.53562 12.04C2.20562 11.02 2.01562 9.92001 2.01562 8.73001C2.01562 5.64001 4.50563 3.14001 7.57562 3.14001C9.38562 3.14001 11.0056 4.02001 12.0156 5.37001C13.0256 4.02001 14.6456 3.14001 16.4556 3.14001C19.5256 3.14001 22.0156 5.64001 22.0156 8.73001Z" fill="#171717"/>
</svg>
