<svg width="25" height="24" viewBox="0 0 25 24" fill="none" xmlns="http://www.w3.org/2000/svg">
<path d="M16.4556 3.09998C14.6456 3.09998 13.0256 3.97998 12.0156 5.32998C11.0056 3.97998 9.38562 3.09998 7.57562 3.09998C4.50563 3.09998 2.01562 5.59998 2.01562 8.68998C2.01562 9.87998 2.20562 10.98 2.53562 12C4.11562 17 8.98563 19.99 11.3956 20.81C11.7356 20.93 12.2956 20.93 12.6356 20.81C15.0456 19.99 19.9156 17 21.4956 12C21.8256 10.98 22.0156 9.87998 22.0156 8.68998C22.0156 5.59998 19.5256 3.09998 16.4556 3.09998ZM14.8556 11.38L11.3156 14.92C11.1756 15.06 10.9156 15.19 10.7256 15.22L9.37562 15.4C8.88562 15.47 8.54563 15.13 8.61563 14.64L8.80562 13.29C8.83563 13.1 8.96563 12.83 9.10563 12.7L12.6456 9.15998C13.2556 8.54998 13.9656 8.25998 14.8656 9.15998C15.7556 10.06 15.4656 10.77 14.8556 11.38Z" fill="#171717"/>
</svg>
