<svg width="25" height="24" viewBox="0 0 25 24" fill="none" xmlns="http://www.w3.org/2000/svg">
<path d="M20.6957 13.91V13.9C19.8156 12.97 18.5857 12.4 17.2157 12.4C14.5657 12.4 12.4156 14.55 12.4156 17.2C12.4156 18.43 12.8856 19.55 13.6456 20.4C14.5257 21.38 15.7957 22 17.2157 22C19.8657 22 22.0156 19.85 22.0156 17.2C22.0156 15.93 21.5156 14.77 20.6957 13.91ZM19.0056 18.01H17.9657V19.1C17.9657 19.51 17.6257 19.85 17.2157 19.85C16.8057 19.85 16.4657 19.51 16.4657 19.1V18.01H15.4256C15.0056 18.01 14.6756 17.68 14.6756 17.26C14.6756 16.85 14.9956 16.52 15.4156 16.51H16.4657V15.51C16.4657 15.49 16.4656 15.47 16.4756 15.45C16.4956 15.07 16.8257 14.76 17.2157 14.76C17.6157 14.76 17.9457 15.08 17.9657 15.48V16.51H19.0056C19.4256 16.51 19.7556 16.85 19.7556 17.26C19.7556 17.68 19.4256 18.01 19.0056 18.01Z" fill="#171717"/>
<path d="M22.0156 8.73001C22.0156 9.92001 21.8256 11.02 21.4956 12.04C21.4356 12.25 21.1856 12.31 21.0056 12.18C19.9156 11.37 18.5856 10.94 17.2156 10.94C13.7456 10.94 10.9156 13.77 10.9156 17.24C10.9156 18.32 11.1956 19.38 11.7256 20.32C11.8856 20.6 11.6956 20.96 11.3956 20.85C8.98563 20.03 4.11562 17.04 2.53562 12.04C2.20562 11.02 2.01562 9.92001 2.01562 8.73001C2.01562 5.64001 4.50563 3.14001 7.57562 3.14001C9.38562 3.14001 11.0056 4.02001 12.0156 5.37001C13.0256 4.02001 14.6456 3.14001 16.4556 3.14001C19.5256 3.14001 22.0156 5.64001 22.0156 8.73001Z" fill="#171717"/>
</svg>
