<svg width="25" height="24" viewBox="0 0 25 24" fill="none" xmlns="http://www.w3.org/2000/svg">
<path d="M22.0156 8.68996C22.0156 9.87996 21.8256 10.98 21.4956 12C19.9156 17 15.0456 19.99 12.6356 20.81C12.2956 20.93 11.7356 20.93 11.3956 20.81C10.7556 20.59 9.94562 20.22 9.07562 19.7C8.51562 19.37 8.42562 18.59 8.88562 18.13L20.1656 6.84996C20.7056 6.30996 21.6556 6.53996 21.8456 7.27996C21.9556 7.72996 22.0156 8.19996 22.0156 8.68996Z" fill="#171717"/>
<path d="M22.5456 1.46994C22.2556 1.17994 21.7756 1.17994 21.4856 1.46994L19.1456 3.80994C18.3556 3.35994 17.4356 3.09994 16.4556 3.09994C14.6456 3.09994 13.0256 3.97994 12.0156 5.32994C11.0056 3.97994 9.38563 3.09994 7.57563 3.09994C4.50563 3.09994 2.01563 5.59994 2.01563 8.68994C2.01563 9.87994 2.20563 10.9799 2.53563 11.9999C3.18563 14.0699 4.40563 15.7999 5.78563 17.1699L1.48563 21.4699C1.19563 21.7599 1.19563 22.2399 1.48563 22.5299C1.63563 22.6799 1.82563 22.7499 2.01563 22.7499C2.20563 22.7499 2.39563 22.6799 2.54563 22.5299L22.5456 2.52994C22.8356 2.23994 22.8356 1.75994 22.5456 1.46994Z" fill="#171717"/>
</svg>
