<svg width="25" height="24" viewBox="0 0 25 24" fill="none" xmlns="http://www.w3.org/2000/svg">
<path d="M21.7556 20.51L20.8956 19.65C21.3456 18.97 21.6056 18.16 21.6056 17.29C21.6056 14.92 19.6856 12.99 17.3056 12.99C14.9256 12.99 13.0156 14.92 13.0156 17.3C13.0156 19.68 14.9356 21.6 17.3156 21.6C18.1856 21.6 18.9956 21.34 19.6756 20.89L20.5356 21.75C20.7056 21.92 20.9256 22.01 21.1556 22.01C21.3856 22.01 21.6056 21.92 21.7756 21.75C22.1056 21.4 22.1056 20.85 21.7556 20.51Z" fill="#171717"/>
<path d="M22.0156 8.73001C22.0156 9.92001 21.8256 11.02 21.4956 12.04C21.4356 12.25 21.1856 12.31 21.0056 12.18C19.9156 11.37 18.5856 10.94 17.2156 10.94C13.7456 10.94 10.9156 13.77 10.9156 17.24C10.9156 18.32 11.1956 19.38 11.7256 20.32C11.8856 20.6 11.6956 20.96 11.3956 20.85C8.98563 20.03 4.11562 17.04 2.53562 12.04C2.20562 11.02 2.01562 9.92001 2.01562 8.73001C2.01562 5.64001 4.50563 3.14001 7.57562 3.14001C9.38562 3.14001 11.0056 4.02001 12.0156 5.37001C13.0256 4.02001 14.6456 3.14001 16.4556 3.14001C19.5256 3.14001 22.0156 5.64001 22.0156 8.73001Z" fill="#171717"/>
</svg>
