<svg width="25" height="24" viewBox="0 0 25 24" fill="none" xmlns="http://www.w3.org/2000/svg">
<path d="M20.0556 6.82006L14.2956 2.79006C12.7256 1.69006 10.3156 1.75006 8.80562 2.92006L3.79562 6.83006C2.79562 7.61006 2.00562 9.21006 2.00562 10.4701V17.3701C2.00562 19.9201 4.07562 22.0001 6.62562 22.0001H17.4056C19.9556 22.0001 22.0256 19.9301 22.0256 17.3801V10.6001C22.0256 9.25006 21.1556 7.59006 20.0556 6.82006ZM16.8956 16.1901C16.8956 16.2801 16.8756 16.3701 16.8456 16.4601C16.7756 16.6301 16.6356 16.7701 16.4656 16.8401C16.3756 16.8801 16.2856 16.8901 16.1956 16.8901H14.3356C13.9456 16.8901 13.6356 16.5801 13.6356 16.1901C13.6356 15.8001 13.9456 15.4901 14.3356 15.4901H14.5156L12.4056 13.3801L11.3856 14.9001C11.2656 15.0701 11.0856 15.1901 10.8756 15.2101C10.6556 15.2301 10.4656 15.1601 10.3156 15.0101L7.33562 12.0301C7.06562 11.7601 7.06562 11.3201 7.33562 11.0401C7.60562 10.7601 8.04562 10.7701 8.32562 11.0401L10.7056 13.4201L11.7256 11.9001C11.8456 11.7301 12.0256 11.6101 12.2356 11.5901C12.4556 11.5701 12.6456 11.6401 12.7956 11.7901L15.5156 14.5101V14.3301C15.5156 13.9401 15.8256 13.6301 16.2156 13.6301C16.6056 13.6301 16.9156 13.9401 16.9156 14.3301V16.1901H16.8956Z" fill="#171717"/>
</svg>
