<svg width="25" height="24" viewBox="0 0 25 24" fill="none" xmlns="http://www.w3.org/2000/svg">
<path d="M22.52 16.82L19.39 9.50002C18.82 8.16002 17.97 7.40002 17 7.35002C16.04 7.30002 15.11 7.97002 14.4 9.25002L12.5 12.66C12.1 13.38 11.53 13.81 10.91 13.86C10.28 13.92 9.64999 13.59 9.13999 12.94L8.91999 12.66C8.20999 11.77 7.32999 11.34 6.42999 11.43C5.52998 11.52 4.75998 12.14 4.24998 13.15L2.51999 16.6C1.89999 17.85 1.95999 19.3 2.68999 20.48C3.41999 21.66 4.68998 22.37 6.07998 22.37H18.84C20.18 22.37 21.43 21.7 22.17 20.58C22.93 19.46 23.05 18.05 22.52 16.82Z" fill="#171717"/>
<path d="M7.47 8.38012C9.33672 8.38012 10.85 6.86684 10.85 5.00012C10.85 3.13339 9.33672 1.62012 7.47 1.62012C5.60327 1.62012 4.09 3.13339 4.09 5.00012C4.09 6.86684 5.60327 8.38012 7.47 8.38012Z" fill="#171717"/>
</svg>
