<svg width="25" height="24" viewBox="0 0 25 24" fill="none" xmlns="http://www.w3.org/2000/svg">
<path d="M15.2755 22C15.2155 22 15.1455 21.99 15.0855 21.97C13.0755 21.4 10.9655 21.4 8.95553 21.97C8.58553 22.07 8.19553 21.86 8.09553 21.49C7.98553 21.12 8.20554 20.73 8.57554 20.63C10.8355 19.99 13.2155 19.99 15.4755 20.63C15.8455 20.74 16.0655 21.12 15.9555 21.49C15.8555 21.8 15.5755 22 15.2755 22Z" fill="#171717"/>
<path d="M19.2256 6.36001C18.1856 4.26001 16.1756 2.71001 13.8456 2.20001C11.4056 1.66001 8.9056 2.24001 6.9956 3.78001C5.0756 5.31001 3.9856 7.60001 3.9856 10.05C3.9856 12.64 5.5356 15.35 7.8756 16.92V17.75C7.8656 18.03 7.8556 18.46 8.1956 18.81C8.5456 19.17 9.0656 19.21 9.4756 19.21H14.6056C15.1456 19.21 15.5556 19.06 15.8356 18.78C16.2156 18.39 16.2056 17.89 16.1956 17.62V16.92C19.2956 14.83 21.2456 10.42 19.2256 6.36001ZM13.7356 11.62L12.6656 13.48C12.5256 13.72 12.2756 13.86 12.0156 13.86C11.8856 13.86 11.7556 13.83 11.6456 13.76C11.2856 13.55 11.1656 13.09 11.3656 12.74L12.2156 11.26H11.3756C10.8756 11.26 10.4656 11.04 10.2456 10.67C10.0256 10.29 10.0456 9.83001 10.2956 9.39001L11.3656 7.53001C11.5756 7.17001 12.0356 7.05001 12.3856 7.25001C12.7456 7.46001 12.8656 7.92001 12.6656 8.27001L11.8156 9.75001H12.6556C13.1556 9.75001 13.5656 9.97001 13.7856 10.34C14.0056 10.72 13.9856 11.19 13.7356 11.62Z" fill="#171717"/>
</svg>
