<svg width="25" height="24" viewBox="0 0 25 24" fill="none" xmlns="http://www.w3.org/2000/svg">
<path d="M15.7156 4.34994L6.4156 13.6499C5.9456 14.1199 5.1256 14.0199 4.8256 13.4199C4.2856 12.3499 3.9856 11.1799 3.9856 10.0499C3.9856 7.59994 5.0756 5.30994 6.9856 3.76994C8.8956 2.22994 11.3956 1.65994 13.8456 2.19994C14.3856 2.31994 14.9156 2.48994 15.4156 2.71994C16.0556 3.00994 16.2156 3.84994 15.7156 4.34994Z" fill="#171717"/>
<path d="M15.4655 20.63C13.2055 19.99 10.8255 19.99 8.56553 20.63C8.19553 20.74 7.97552 21.12 8.08552 21.49C8.19552 21.86 8.57553 22.07 8.94553 21.97C10.9555 21.4 13.0655 21.4 15.0755 21.97C15.1355 21.99 15.2055 22 15.2655 22C15.5655 22 15.8455 21.8 15.9355 21.49C16.0455 21.12 15.8355 20.74 15.4655 20.63Z" fill="#171717"/>
<path d="M20.5757 1.95004C20.2857 1.66004 19.8057 1.66004 19.5157 1.95004L3.66574 17.8C3.37574 18.09 3.37574 18.57 3.66574 18.86C3.81574 19.01 4.00574 19.08 4.19574 19.08C4.38574 19.08 4.57574 19.01 4.72574 18.86L7.18574 16.4C7.40574 16.58 7.63574 16.76 7.87574 16.92V17.75C7.86574 18.03 7.85574 18.46 8.18574 18.81C8.53574 19.16 9.05574 19.21 9.46574 19.21H14.5957C15.1357 19.21 15.5457 19.06 15.8257 18.78C16.2157 18.38 16.1957 17.88 16.1857 17.62V16.92C19.2957 14.83 21.2457 10.42 19.2257 6.36004C19.0057 5.93004 18.7357 5.52004 18.4357 5.14004L20.5657 3.01004C20.8657 2.72004 20.8657 2.24004 20.5757 1.95004Z" fill="#171717"/>
</svg>
