<svg width="25" height="24" viewBox="0 0 25 24" fill="none" xmlns="http://www.w3.org/2000/svg">
<path d="M8.40564 18.49V8.32998C8.40564 7.92998 8.52564 7.53998 8.74564 7.20998L11.4756 3.14998C11.9056 2.49998 12.9756 2.03998 13.8856 2.37998C14.8656 2.70998 15.5156 3.80997 15.3056 4.78997L14.7856 8.05998C14.7456 8.35998 14.8256 8.62998 14.9956 8.83998C15.1656 9.02998 15.4156 9.14997 15.6856 9.14997H19.7956C20.5856 9.14997 21.2656 9.46997 21.6656 10.03C22.0456 10.57 22.1156 11.27 21.8656 11.98L19.4056 19.47C19.0956 20.71 17.7456 21.72 16.4056 21.72H12.5056C11.8356 21.72 10.8956 21.49 10.4656 21.06L9.18564 20.07C8.69564 19.7 8.40564 19.11 8.40564 18.49Z" fill="#171717"/>
<path d="M5.22563 6.38H4.19562C2.64562 6.38 2.01562 6.98 2.01562 8.46V18.52C2.01562 20 2.64562 20.6 4.19562 20.6H5.22563C6.77563 20.6 7.40562 20 7.40562 18.52V8.46C7.40562 6.98 6.77563 6.38 5.22563 6.38Z" fill="#171717"/>
</svg>
