<svg width="25" height="24" viewBox="0 0 25 24" fill="none" xmlns="http://www.w3.org/2000/svg">
<path d="M21.5756 10.7401L20.2156 9.16006C19.9556 8.86006 19.7456 8.30006 19.7456 7.90006V6.20006C19.7456 5.14006 18.8756 4.27006 17.8156 4.27006H16.1156C15.7256 4.27006 15.1556 4.06006 14.8556 3.80006L13.2756 2.44006C12.5856 1.85006 11.4556 1.85006 10.7556 2.44006L9.18562 3.81006C8.88562 4.06006 8.31562 4.27006 7.92562 4.27006H6.19562C5.13562 4.27006 4.26562 5.14006 4.26562 6.20006V7.91006C4.26562 8.30006 4.05562 8.86006 3.80562 9.16006L2.45562 10.7501C1.87562 11.4401 1.87562 12.5601 2.45562 13.2501L3.80562 14.8401C4.05562 15.1401 4.26562 15.7001 4.26562 16.0901V17.8001C4.26562 18.8601 5.13562 19.7301 6.19562 19.7301H7.92562C8.31562 19.7301 8.88562 19.9401 9.18562 20.2001L10.7656 21.5601C11.4556 22.1501 12.5856 22.1501 13.2856 21.5601L14.8656 20.2001C15.1656 19.9401 15.7256 19.7301 16.1256 19.7301H17.8256C18.8856 19.7301 19.7556 18.8601 19.7556 17.8001V16.1001C19.7556 15.7101 19.9656 15.1401 20.2256 14.8401L21.5856 13.2601C22.1656 12.5701 22.1656 11.4301 21.5756 10.7401ZM16.6956 12.0001L15.5256 15.5601C15.3756 16.1501 14.7456 16.6301 14.1056 16.6301H12.2556C11.9356 16.6301 11.4856 16.5201 11.2856 16.3201L9.81562 15.1701C9.78562 15.8101 9.49562 16.0801 8.78562 16.0801H8.30562C7.56562 16.0801 7.26562 15.7901 7.26562 15.0901V10.3101C7.26562 9.61006 7.56562 9.32006 8.30562 9.32006H8.79562C9.53562 9.32006 9.83562 9.61006 9.83562 10.3101V10.6701L11.7756 7.79006C11.9756 7.48006 12.4856 7.26006 12.9156 7.43006C13.3856 7.59006 13.6856 8.11006 13.5856 8.57006L13.3456 10.1301C13.3256 10.2701 13.3556 10.4001 13.4456 10.5001C13.5256 10.5901 13.6456 10.6501 13.7756 10.6501H15.7256C16.1056 10.6501 16.4256 10.8001 16.6156 11.0701C16.7856 11.3301 16.8156 11.6601 16.6956 12.0001Z" fill="#171717"/>
</svg>
