<svg width="25" height="24" viewBox="0 0 25 24" fill="none" xmlns="http://www.w3.org/2000/svg">
<path d="M13.1656 15.37C12.9456 15.05 12.5556 14.87 12.1056 14.87H9.77563C9.62563 14.87 9.47563 14.81 9.38562 14.69C9.28562 14.57 9.24563 14.42 9.26562 14.25L9.55562 12.39C9.67562 11.84 9.30562 11.21 8.75562 11.02C8.23562 10.83 7.63562 11.09 7.38562 11.46L5.07562 14.9V14.47C5.07562 13.63 4.71562 13.29 3.83562 13.29H3.25563C2.37563 13.3 2.01562 13.64 2.01562 14.48V20.19C2.01562 21.03 2.37563 21.37 3.25563 21.37H3.83562C4.67562 21.37 5.02562 21.04 5.05562 20.28L6.80562 21.63C7.05562 21.87 7.58562 22 7.96562 22H10.1756C10.9356 22 11.6956 21.43 11.8756 20.73L13.2756 16.48C13.4256 16.07 13.3856 15.68 13.1656 15.37Z" fill="#171717"/>
<path d="M21.1256 2.60998H20.5456C19.7056 2.60998 19.3556 2.93998 19.3156 3.69998L17.5656 2.34998C17.3256 2.10998 16.7856 1.97998 16.4056 1.97998H14.1956C13.4356 1.97998 12.6756 2.54998 12.4956 3.24998L11.0956 7.49998C10.9456 7.90998 10.9956 8.29998 11.2056 8.60998C11.4256 8.92998 11.8156 9.10998 12.2656 9.10998H14.5956C14.7456 9.10998 14.8956 9.16998 14.9856 9.28998C15.0856 9.40998 15.1256 9.55998 15.1056 9.72998L14.8156 11.59C14.6956 12.14 15.0656 12.77 15.6156 12.96C16.1356 13.15 16.7356 12.89 16.9856 12.52L19.2956 9.07998V9.50998C19.2956 10.35 19.6556 10.69 20.5356 10.69H21.1156C21.9956 10.69 22.3556 10.35 22.3556 9.50998V3.77998C22.3656 2.94998 22.0056 2.60998 21.1256 2.60998Z" fill="#171717"/>
</svg>
