<svg width="25" height="24" viewBox="0 0 25 24" fill="none" xmlns="http://www.w3.org/2000/svg">
<path d="M18.0156 2H6.01562C4.35563 2 3.01562 3.33 3.01562 4.97V15.88C3.01562 17.52 4.35563 18.85 6.01562 18.85H6.77563C7.57563 18.85 8.33563 19.16 8.89563 19.72L10.6056 21.41C11.3856 22.18 12.6556 22.18 13.4356 21.41L15.1456 19.72C15.7056 19.16 16.4756 18.85 17.2656 18.85H18.0156C19.6756 18.85 21.0156 17.52 21.0156 15.88V4.97C21.0156 3.33 19.6756 2 18.0156 2ZM16.6956 10.5L15.5256 14.06C15.3756 14.65 14.7456 15.13 14.1056 15.13H12.2556C11.9356 15.13 11.4856 15.02 11.2856 14.82L9.81563 13.67C9.78562 14.31 9.49563 14.58 8.78563 14.58H8.30562C7.56563 14.58 7.26562 14.29 7.26562 13.59V8.82C7.26562 8.12 7.56563 7.83 8.30562 7.83H8.79562C9.53562 7.83 9.83562 8.12 9.83562 8.82V9.18L11.7756 6.3C11.9756 5.99 12.4856 5.77 12.9156 5.94C13.3856 6.1 13.6856 6.62 13.5856 7.08L13.3456 8.64C13.3156 8.77 13.3456 8.91 13.4356 9C13.5156 9.09 13.6356 9.15 13.7656 9.15H15.7156C16.0956 9.15 16.4156 9.3 16.6056 9.57C16.7856 9.83 16.8156 10.16 16.6956 10.5Z" fill="#171717"/>
</svg>
