<svg width="25" height="24" viewBox="0 0 25 24" fill="none" xmlns="http://www.w3.org/2000/svg">
<path d="M18.8156 9.91003C17.6856 9.91003 16.6756 10.46 16.0456 11.3C15.4156 10.46 14.4056 9.91003 13.2756 9.91003C11.3656 9.91003 9.81563 11.47 9.81563 13.39C9.81563 14.13 9.93563 14.82 10.1356 15.45C11.1156 18.56 14.1556 20.43 15.6556 20.94C15.8656 21.01 16.2156 21.01 16.4256 20.94C17.9256 20.43 20.9656 18.57 21.9456 15.45C22.1556 14.81 22.2656 14.13 22.2656 13.39C22.2756 11.47 20.7256 9.91003 18.8156 9.91003Z" fill="#171717"/>
<path d="M20.7656 8.33998C20.7656 8.56998 20.5356 8.71998 20.3156 8.65998C18.9656 8.30998 17.4856 8.59998 16.3656 9.39998C16.1456 9.55998 15.8456 9.55998 15.6356 9.39998C14.8456 8.81998 13.8856 8.49998 12.8756 8.49998C10.2956 8.49998 8.19563 10.61 8.19563 13.21C8.19563 16.03 9.54563 18.14 10.9056 19.55C10.9756 19.62 10.9156 19.74 10.8256 19.7C8.09563 18.77 2.01562 14.91 2.01562 8.33998C2.01562 5.43998 4.34562 3.09998 7.22563 3.09998C8.93563 3.09998 10.4456 3.91998 11.3956 5.18998C12.3556 3.91998 13.8656 3.09998 15.5656 3.09998C18.4356 3.09998 20.7656 5.43998 20.7656 8.33998Z" fill="#171717"/>
</svg>
