<svg width="25" height="24" viewBox="0 0 25 24" fill="none" xmlns="http://www.w3.org/2000/svg">
<path d="M22.2056 2.21C22.1356 2.03 21.9856 1.88 21.8056 1.81C21.7056 1.77 21.6156 1.75 21.5156 1.75H15.0156C14.6056 1.75 14.2656 2.09 14.2656 2.5C14.2656 2.91 14.6056 3.25 15.0156 3.25H19.7056L15.1956 7.77H15.1856C13.8456 6.66 12.1356 6 10.2656 6C5.98562 6 2.51562 9.47 2.51562 13.75C2.51562 18.03 5.98562 21.5 10.2656 21.5C14.5456 21.5 18.0156 18.03 18.0156 13.75C18.0156 11.88 17.3556 10.17 16.2456 8.83L20.7656 4.31V9C20.7656 9.41 21.1056 9.75 21.5156 9.75C21.9256 9.75 22.2656 9.41 22.2656 9V2.5C22.2656 2.4 22.2456 2.31 22.2056 2.21Z" fill="#171717"/>
</svg>
