<svg width="24" height="24" viewBox="0 0 24 24" fill="none" xmlns="http://www.w3.org/2000/svg">
<path d="M18.6498 4.59C16.8898 2.99 14.5598 2.03 11.9998 2.03C6.49979 2.03 2.02979 6.5 2.02979 12C2.02979 17.5 6.49979 21.97 11.9998 21.97C14.5598 21.97 16.8898 21.01 18.6498 19.41C20.6898 17.6 21.9698 14.94 21.9698 12C21.9698 9.06 20.6898 6.4 18.6498 4.59ZM11.9698 16.39C11.9498 18.04 10.7198 18.44 9.56979 17.98C7.19979 17.03 5.52979 14.71 5.52979 12C5.52979 9.29 7.19979 6.97 9.56979 6.01C10.7198 5.55 11.9498 5.96 11.9698 7.6V16.39Z" fill="#171717"/>
</svg>
