<svg width="25" height="24" viewBox="0 0 25 24" fill="none" xmlns="http://www.w3.org/2000/svg">
<path d="M16.2454 2H7.86542C4.22542 2 2.05542 4.17 2.05542 7.81V16.18C2.05542 19.83 4.22542 22 7.86542 22H16.2354C19.8754 22 22.0454 19.83 22.0454 16.19V7.81C22.0554 4.17 19.8854 2 16.2454 2ZM11.0854 17.66C11.3754 17.95 11.3754 18.43 11.0854 18.72C10.9354 18.87 10.7454 18.94 10.5554 18.94C10.3654 18.94 10.1754 18.87 10.0254 18.72L8.30542 17L6.58542 18.72C6.43542 18.86 6.24542 18.94 6.05542 18.94C5.86542 18.94 5.67542 18.87 5.52542 18.72C5.23542 18.43 5.23542 17.95 5.52542 17.66L7.24542 15.94L5.52542 14.22C5.23542 13.93 5.23542 13.45 5.52542 13.16C5.81542 12.87 6.29542 12.87 6.58542 13.16L8.30542 14.88L10.0254 13.16C10.3154 12.87 10.7954 12.87 11.0854 13.16C11.3754 13.45 11.3754 13.93 11.0854 14.22L9.36542 15.94L11.0854 17.66ZM10.5554 8.81H6.05542C5.64542 8.81 5.30542 8.47 5.30542 8.06C5.30542 7.65 5.64542 7.31 6.05542 7.31H10.5554C10.9654 7.31 11.3054 7.65 11.3054 8.06C11.3054 8.47 10.9654 8.81 10.5554 8.81ZM18.0554 18.56H13.5554C13.1454 18.56 12.8054 18.22 12.8054 17.81C12.8054 17.4 13.1454 17.06 13.5554 17.06H18.0554C18.4654 17.06 18.8054 17.4 18.8054 17.81C18.8054 18.22 18.4654 18.56 18.0554 18.56ZM18.0554 14.81H13.5554C13.1454 14.81 12.8054 14.47 12.8054 14.06C12.8054 13.65 13.1454 13.31 13.5554 13.31H18.0554C18.4654 13.31 18.8054 13.65 18.8054 14.06C18.8054 14.47 18.4654 14.81 18.0554 14.81ZM18.0554 8.81H16.5754V10.31C16.5754 10.72 16.2354 11.06 15.8254 11.06C15.4154 11.06 15.0754 10.72 15.0754 10.31V8.81H13.5554C13.1454 8.81 12.8054 8.47 12.8054 8.06C12.8054 7.65 13.1454 7.31 13.5554 7.31H15.0754V5.81C15.0754 5.4 15.4154 5.06 15.8254 5.06C16.2354 5.06 16.5754 5.4 16.5754 5.81V7.31H18.0554C18.4654 7.31 18.8054 7.65 18.8054 8.06C18.8054 8.47 18.4654 8.81 18.0554 8.81Z" fill="#171717"/>
</svg>
