<svg width="25" height="24" viewBox="0 0 25 24" fill="none" xmlns="http://www.w3.org/2000/svg">
<path d="M22.19 2.71C22.11 2.53 21.97 2.38 21.78 2.3C21.69 2.27 21.6 2.25 21.5 2.25H17.5C17.09 2.25 16.75 2.59 16.75 3C16.75 3.41 17.09 3.75 17.5 3.75H19.69L14.97 8.47C14.68 8.76 14.68 9.24 14.97 9.53C15.12 9.68 15.31 9.75 15.5 9.75C15.69 9.75 15.88 9.68 16.03 9.53L20.75 4.81V7C20.75 7.41 21.09 7.75 21.5 7.75C21.91 7.75 22.25 7.41 22.25 7V3C22.25 2.9 22.23 2.81 22.19 2.71Z" fill="#171717"/>
<path d="M8.97 14.4699L4.25 19.1899V16.9999C4.25 16.5899 3.91 16.2499 3.5 16.2499C3.09 16.2499 2.75 16.5899 2.75 16.9999V20.9999C2.75 21.0999 2.77 21.1899 2.81 21.2899C2.89 21.4699 3.03 21.6199 3.22 21.6999C3.3 21.7299 3.4 21.7499 3.5 21.7499H7.5C7.91 21.7499 8.25 21.4099 8.25 20.9999C8.25 20.5899 7.91 20.2499 7.5 20.2499H5.31L10.03 15.5299C10.32 15.2399 10.32 14.7599 10.03 14.4699C9.74 14.1799 9.26 14.1799 8.97 14.4699Z" fill="#171717"/>
<path d="M2.7 14.75C2.35 14.75 2.04 14.5 1.97 14.15C1.83 13.45 1.75 12.72 1.75 12C1.75 6.07 6.57 1.25 12.5 1.25C13.23 1.25 13.96 1.32 14.67 1.47C15.08 1.55 15.34 1.95 15.26 2.35C15.18 2.76 14.77 3.01 14.38 2.94C13.75 2.81 13.13 2.75 12.5 2.75C7.4 2.75 3.25 6.9 3.25 12C3.25 12.62 3.31 13.25 3.44 13.85C3.52 14.26 3.26 14.65 2.85 14.73C2.8 14.75 2.75 14.75 2.7 14.75Z" fill="#171717"/>
<path d="M12.5 22.7501C11.77 22.7501 11.04 22.6801 10.33 22.5301C9.92 22.4501 9.66 22.0501 9.74 21.6501C9.82 21.2401 10.23 20.9901 10.62 21.0601C11.23 21.1801 11.86 21.2501 12.49 21.2501C17.59 21.2501 21.74 17.1001 21.74 12.0001C21.74 11.3801 21.68 10.7601 21.56 10.1501C21.48 9.74006 21.74 9.35006 22.15 9.27006C22.56 9.19006 22.95 9.45006 23.03 9.86006C23.17 10.5601 23.24 11.2801 23.24 12.0001C23.25 17.9301 18.43 22.7501 12.5 22.7501Z" fill="#171717"/>
</svg>
