<svg width="25" height="24" viewBox="0 0 25 24" fill="none" xmlns="http://www.w3.org/2000/svg">
<path d="M12.0156 15C15.7435 15 18.7656 12.0899 18.7656 8.5C18.7656 4.91015 15.7435 2 12.0156 2C8.2877 2 5.26562 4.91015 5.26562 8.5C5.26562 12.0899 8.2877 15 12.0156 15Z" fill="#171717"/>
<path d="M15.8056 15.61C16.1356 15.44 16.5156 15.69 16.5156 16.06V20.91C16.5156 21.81 15.8856 22.25 15.1056 21.88L12.4256 20.61C12.1956 20.51 11.8356 20.51 11.6056 20.61L8.92562 21.88C8.14562 22.24 7.51562 21.8 7.51562 20.9L7.53562 16.06C7.53562 15.69 7.92562 15.45 8.24562 15.61C9.37562 16.18 10.6556 16.5 12.0156 16.5C13.3756 16.5 14.6656 16.18 15.8056 15.61Z" fill="#171717"/>
</svg>
