<svg width="25" height="24" viewBox="0 0 25 24" fill="none" xmlns="http://www.w3.org/2000/svg">
<path d="M17.5557 8.81001C19.1905 8.81001 20.5157 7.48478 20.5157 5.85001C20.5157 4.21525 19.1905 2.89001 17.5557 2.89001C15.9209 2.89001 14.5957 4.21525 14.5957 5.85001C14.5957 7.48478 15.9209 8.81001 17.5557 8.81001Z" fill="#171717"/>
<path d="M6.47563 8.81001C8.11039 8.81001 9.43563 7.48478 9.43563 5.85001C9.43563 4.21525 8.11039 2.89001 6.47563 2.89001C4.84086 2.89001 3.51562 4.21525 3.51562 5.85001C3.51562 7.48478 4.84086 8.81001 6.47563 8.81001Z" fill="#171717"/>
<path d="M17.5557 21.1099C19.1905 21.1099 20.5157 19.7847 20.5157 18.1499C20.5157 16.5152 19.1905 15.1899 17.5557 15.1899C15.9209 15.1899 14.5957 16.5152 14.5957 18.1499C14.5957 19.7847 15.9209 21.1099 17.5557 21.1099Z" fill="#171717"/>
<path d="M6.47563 21.1099C8.11039 21.1099 9.43563 19.7847 9.43563 18.1499C9.43563 16.5152 8.11039 15.1899 6.47563 15.1899C4.84086 15.1899 3.51562 16.5152 3.51562 18.1499C3.51562 19.7847 4.84086 21.1099 6.47563 21.1099Z" fill="#171717"/>
</svg>
