<svg width="25" height="24" viewBox="0 0 25 24" fill="none" xmlns="http://www.w3.org/2000/svg">
<path d="M21.3999 9.85L21.9899 19.74C22.0099 20.01 21.8799 20.19 21.8099 20.27C21.7299 20.36 21.5599 20.5 21.2799 20.5H18.5499L20.7099 9.85H21.3999ZM22.4999 6L22.4899 6.02C22.5099 6.26 22.4899 6.51 22.4299 6.76L15.0599 20.29C14.8199 21.3 13.9199 22 12.8799 22H21.2799C22.5699 22 23.5899 20.91 23.4899 19.62L22.4999 6Z" fill="#171717"/>
<path d="M11.95 2.24002C12.05 1.84002 11.8 1.43002 11.4 1.33002C11 1.24002 10.59 1.48002 10.49 1.88002L9.98999 3.95002H11.53L11.95 2.24002Z" fill="#171717"/>
<path d="M18.5499 2.21005C18.6399 1.80005 18.3799 1.41005 17.9699 1.32005C17.5699 1.23005 17.1699 1.49005 17.0799 1.90005L16.6299 3.97005H18.1699L18.5499 2.21005Z" fill="#171717"/>
<path d="M22.32 5.32994C21.99 4.52994 21.21 3.95994 20.25 3.95994H18.17L17.61 6.54994C17.53 6.89994 17.22 7.13994 16.88 7.13994C16.83 7.13994 16.77 7.13994 16.72 7.11994C16.32 7.02994 16.06 6.62994 16.14 6.22994L16.63 3.94994H11.53L10.9 6.54994C10.82 6.88994 10.51 7.11994 10.17 7.11994C10.11 7.11994 10.05 7.10994 9.99 7.09994C9.59 6.99994 9.34 6.59994 9.44 6.18994L9.98 3.93994H7.95C6.97 3.93994 6.1 4.57994 5.81 5.51994L1.6 19.0699C1.16 20.5199 2.23 21.9999 3.74 21.9999H16.88C17.92 21.9999 18.82 21.2999 19.06 20.2899L22.43 6.75994C22.49 6.50994 22.51 6.25994 22.49 6.01994C22.47 5.77994 22.42 5.53994 22.32 5.32994ZM15.2 16.7499H7.2C6.79 16.7499 6.45 16.4099 6.45 15.9999C6.45 15.5899 6.79 15.2499 7.2 15.2499H15.2C15.61 15.2499 15.95 15.5899 15.95 15.9999C15.95 16.4099 15.61 16.7499 15.2 16.7499ZM16.2 12.7499H8.2C7.79 12.7499 7.45 12.4099 7.45 11.9999C7.45 11.5899 7.79 11.2499 8.2 11.2499H16.2C16.61 11.2499 16.95 11.5899 16.95 11.9999C16.95 12.4099 16.61 12.7499 16.2 12.7499Z" fill="#171717"/>
</svg>
