<svg width="25" height="24" viewBox="0 0 25 24" fill="none" xmlns="http://www.w3.org/2000/svg">
<path d="M18.12 5.72L7.51 16.33C6.78 15.34 6.38 14.13 6.38 12.82V8.11C6.38 6.27 7.2 4.62 8.5 3.5V7.64C8.5 8.03 8.82 8.35 9.2 8.35C9.59 8.35 9.91 8.03 9.91 7.64V2.57C10.37 2.34 10.86 2.18 11.37 2.09V5.75C11.37 6.15 11.69 6.46 12.08 6.46C12.47 6.46 12.79 6.15 12.79 5.75V2C15.18 2.11 17.24 3.61 18.12 5.72Z" fill="#171717"/>
<path d="M18.62 8.87988V12.8199C18.62 16.1899 15.87 18.9399 12.5 18.9399C12.32 18.9399 12.14 18.9299 11.96 18.9099C11.88 18.9099 11.8 18.8999 11.73 18.8899C11.6 18.8699 11.47 18.8499 11.35 18.8299C11.3 18.8299 11.26 18.8099 11.2 18.7999C11.06 18.7699 10.92 18.7299 10.79 18.6899C10.57 18.6299 10.36 18.5499 10.16 18.4699C10.03 18.4199 9.91003 18.3699 9.79003 18.2999C9.76003 18.2899 9.74003 18.2699 9.71003 18.2599C9.61003 18.2099 9.51003 18.1599 9.41003 18.0899L18.62 8.87988Z" fill="#171717"/>
<path d="M22.2501 11V13C22.2501 18.38 17.8801 22.75 12.5001 22.75C10.3801 22.75 8.35005 22.07 6.68005 20.82L7.76005 19.74C9.14005 20.72 10.7801 21.25 12.5001 21.25C17.0501 21.25 20.7501 17.55 20.7501 13V11C20.7501 10.59 21.0901 10.25 21.5001 10.25C21.9101 10.25 22.2501 10.59 22.2501 11Z" fill="#171717"/>
<path d="M22.27 2.22988C21.97 1.92988 21.48 1.92988 21.18 2.22988L2.73 20.6899C2.43 20.9899 2.43 21.4799 2.73 21.7799C2.88 21.9199 3.07 21.9999 3.27 21.9999C3.47 21.9999 3.66 21.9199 3.81 21.7699L22.27 3.30988C22.58 3.00988 22.58 2.52988 22.27 2.22988Z" fill="#171717"/>
</svg>
