<svg width="25" height="24" viewBox="0 0 25 24" fill="none" xmlns="http://www.w3.org/2000/svg">
<path opacity="0.4" d="M21.21 17.52C20.84 18.74 20.11 19.68 19.07 20.26C19.03 20.1 19.01 19.93 19.01 19.76C19.01 18.54 20 17.54 21.21 17.52Z" fill="#171717"/>
<path d="M21.5 7.52V9.48397C21.5 10.0065 21.086 10.4294 20.58 10.56L17.63 11.38C16.07 11.78 15.03 13.13 15.03 14.74V16.2849C15.03 16.7595 14.6873 17.1556 14.2612 17.3644C13.2457 17.8619 12.4698 18.8714 12.177 20.0107C12.0395 20.5456 11.6023 21 11.05 21H8.02C4.57 21 2.5 18.94 2.5 15.48V7.52C2.5 4.06 4.57 2 8.02 2H15.98C19.43 2 21.5 4.06 21.5 7.52Z" fill="#171717"/>
<path d="M22.81 12.25C22.55 12.06 22.13 11.86 21.5 11.92C21.34 11.93 21.17 11.96 20.98 12.01L18 12.83C17.11 13.06 16.53 13.81 16.53 14.74V18.65C16.3 18.57 16.05 18.52 15.79 18.52C14.55 18.52 13.54 19.52 13.54 20.76C13.54 20.84 13.54 20.92 13.55 21C13.67 22.12 14.63 23 15.79 23C17.01 23 18 22.01 18.02 20.8C18.02 20.78 18.03 20.77 18.03 20.76V17.07L21.48 16.12L22 15.98V17.66C21.77 17.58 21.52 17.52 21.25 17.52H21.21C20 17.54 19.01 18.54 19.01 19.76C19.01 19.93 19.03 20.1 19.07 20.26C19.3 21.26 20.19 22.01 21.25 22.01C22.48 22.01 23.47 21.02 23.49 19.8C23.49 19.79 23.5 19.78 23.5 19.76V13.93C23.5 13.17 23.27 12.61 22.81 12.25ZM15.79 21.5C15.46 21.5 15.18 21.29 15.09 21C15.05 20.93 15.04 20.84 15.04 20.76C15.04 20.35 15.38 20.02 15.79 20.02C16.19 20.02 16.53 20.35 16.53 20.76C16.53 20.84 16.52 20.91 16.49 20.98C16.4 21.28 16.12 21.5 15.79 21.5ZM21.25 20.51C20.85 20.51 20.51 20.17 20.51 19.76C20.51 19.36 20.85 19.02 21.25 19.02C21.66 19.02 22 19.36 22 19.76C22 20.17 21.66 20.51 21.25 20.51Z" fill="#171717"/>
</svg>
