<svg width="25" height="24" viewBox="0 0 25 24" fill="none" xmlns="http://www.w3.org/2000/svg">
<path d="M17.0332 4H7.0332C4.0332 4 2.0332 5.5 2.0332 9V12.56C2.0332 12.93 2.4132 13.16 2.7432 13.01C3.7232 12.56 4.8532 12.39 6.0432 12.6C8.6732 13.07 10.6032 15.51 10.5332 18.18C10.5232 18.6 10.4632 19.01 10.3532 19.41C10.2732 19.72 10.5232 20.01 10.8432 20.01H17.0332C20.0332 20.01 22.0332 18.51 22.0332 15.01V9C22.0332 5.5 20.0332 4 17.0332 4ZM12.0332 14.5C10.6532 14.5 9.5332 13.38 9.5332 12C9.5332 10.62 10.6532 9.5 12.0332 9.5C13.4132 9.5 14.5332 10.62 14.5332 12C14.5332 13.38 13.4132 14.5 12.0332 14.5ZM19.2832 14C19.2832 14.41 18.9432 14.75 18.5332 14.75C18.1232 14.75 17.7832 14.41 17.7832 14V10C17.7832 9.59 18.1232 9.25 18.5332 9.25C18.9432 9.25 19.2832 9.59 19.2832 10V14Z" fill="#171717"/>
<path d="M5.0332 14C2.8232 14 1.0332 15.79 1.0332 18C1.0332 18.75 1.2432 19.46 1.6132 20.06C2.3032 21.22 3.5732 22 5.0332 22C6.4932 22 7.7632 21.22 8.4532 20.06C8.8232 19.46 9.0332 18.75 9.0332 18C9.0332 15.79 7.2432 14 5.0332 14ZM7.0032 17.67L4.8732 19.64C4.7332 19.77 4.5432 19.84 4.3632 19.84C4.1732 19.84 3.9832 19.77 3.8332 19.62L2.8432 18.63C2.5532 18.34 2.5532 17.86 2.8432 17.57C3.1332 17.28 3.6132 17.28 3.9032 17.57L4.3832 18.05L5.9832 16.57C6.2832 16.29 6.7632 16.31 7.0432 16.61C7.3232 16.91 7.3032 17.39 7.0032 17.67Z" fill="#171717"/>
</svg>
