<svg width="24" height="24" viewBox="0 0 24 24" fill="none" xmlns="http://www.w3.org/2000/svg">
<path d="M5.00488 14C2.79488 14 1.00488 15.79 1.00488 18C1.00488 20.21 2.79488 22 5.00488 22C7.21488 22 9.00488 20.21 9.00488 18C9.00488 15.79 7.21488 14 5.00488 14ZM6.00488 17.68C6.00488 18.29 5.67488 18.87 5.15488 19.18L4.39488 19.64C4.27488 19.72 4.13488 19.75 4.00488 19.75C3.75488 19.75 3.50488 19.62 3.36488 19.39C3.15488 19.04 3.26488 18.57 3.62488 18.36L4.38488 17.9C4.45488 17.86 4.50488 17.77 4.50488 17.69V16.76C4.50488 16.34 4.84488 16 5.25488 16C5.66488 16 6.00488 16.34 6.00488 16.75V17.68Z" fill="#171717"/>
<path d="M17.0049 4H7.00488C4.00488 4 2.00488 5.5 2.00488 9V12.56C2.00488 12.93 2.38488 13.16 2.71488 13.01C3.69488 12.56 4.82488 12.39 6.01488 12.6C8.64488 13.07 10.5749 15.51 10.5049 18.18C10.4949 18.6 10.4349 19.01 10.3249 19.41C10.2449 19.72 10.4949 20.01 10.8149 20.01H17.0049C20.0049 20.01 22.0049 18.51 22.0049 15.01V9C22.0049 5.5 20.0049 4 17.0049 4ZM12.0049 14.5C10.6249 14.5 9.50488 13.38 9.50488 12C9.50488 10.62 10.6249 9.5 12.0049 9.5C13.3849 9.5 14.5049 10.62 14.5049 12C14.5049 13.38 13.3849 14.5 12.0049 14.5ZM19.2549 14C19.2549 14.41 18.9149 14.75 18.5049 14.75C18.0949 14.75 17.7549 14.41 17.7549 14V10C17.7549 9.59 18.0949 9.25 18.5049 9.25C18.9149 9.25 19.2549 9.59 19.2549 10V14Z" fill="#171717"/>
</svg>
