<svg width="25" height="24" viewBox="0 0 25 24" fill="none" xmlns="http://www.w3.org/2000/svg">
<path d="M17.0381 4H7.03809C4.03809 4 2.03809 5.5 2.03809 9V12.56C2.03809 12.93 2.41809 13.16 2.74809 13.01C3.72809 12.56 4.85809 12.39 6.04809 12.6C8.67809 13.07 10.6081 15.51 10.5381 18.18C10.5281 18.6 10.4681 19.01 10.3581 19.41C10.2781 19.72 10.5281 20.01 10.8481 20.01H17.0381C20.0381 20.01 22.0381 18.51 22.0381 15.01V9C22.0381 5.5 20.0381 4 17.0381 4ZM12.0381 14.5C10.6581 14.5 9.53809 13.38 9.53809 12C9.53809 10.62 10.6581 9.5 12.0381 9.5C13.4181 9.5 14.5381 10.62 14.5381 12C14.5381 13.38 13.4181 14.5 12.0381 14.5ZM19.2881 14C19.2881 14.41 18.9481 14.75 18.5381 14.75C18.1281 14.75 17.7881 14.41 17.7881 14V10C17.7881 9.59 18.1281 9.25 18.5381 9.25C18.9481 9.25 19.2881 9.59 19.2881 10V14Z" fill="#171717"/>
<path d="M5.03809 14C2.82809 14 1.03809 15.79 1.03809 18C1.03809 18.75 1.24809 19.46 1.61809 20.06C2.30809 21.22 3.57809 22 5.03809 22C6.49809 22 7.76809 21.22 8.45809 20.06C8.82809 19.46 9.03809 18.75 9.03809 18C9.03809 15.79 7.24809 14 5.03809 14ZM6.52809 18.73H5.78809V19.51C5.78809 19.92 5.44809 20.26 5.03809 20.26C4.62809 20.26 4.28809 19.92 4.28809 19.51V18.73H3.54809C3.13809 18.73 2.79809 18.39 2.79809 17.98C2.79809 17.57 3.13809 17.23 3.54809 17.23H4.28809V16.52C4.28809 16.11 4.62809 15.77 5.03809 15.77C5.44809 15.77 5.78809 16.11 5.78809 16.52V17.23H6.52809C6.93809 17.23 7.27809 17.57 7.27809 17.98C7.27809 18.39 6.94809 18.73 6.52809 18.73Z" fill="#171717"/>
</svg>
