<svg width="25" height="24" viewBox="0 0 25 24" fill="none" xmlns="http://www.w3.org/2000/svg">
<path d="M17.0107 3.5H7.01074C4.01074 3.5 2.01074 5 2.01074 8.5V15.5C2.01074 19 4.01074 20.5 7.01074 20.5H17.0107C20.0107 20.5 22.0107 19 22.0107 15.5V8.5C22.0107 5 20.0107 3.5 17.0107 3.5ZM6.26074 14.5C6.26074 14.91 5.92074 15.25 5.51074 15.25C5.10074 15.25 4.76074 14.91 4.76074 14.5V9.5C4.76074 9.09 5.10074 8.75 5.51074 8.75C5.92074 8.75 6.26074 9.09 6.26074 9.5V14.5ZM12.0107 15C10.3507 15 9.01074 13.66 9.01074 12C9.01074 10.34 10.3507 9 12.0107 9C13.6707 9 15.0107 10.34 15.0107 12C15.0107 13.66 13.6707 15 12.0107 15ZM19.2607 14.5C19.2607 14.91 18.9207 15.25 18.5107 15.25C18.1007 15.25 17.7607 14.91 17.7607 14.5V9.5C17.7607 9.09 18.1007 8.75 18.5107 8.75C18.9207 8.75 19.2607 9.09 19.2607 9.5V14.5Z" fill="#171717"/>
</svg>
