<svg width="25" height="24" viewBox="0 0 25 24" fill="none" xmlns="http://www.w3.org/2000/svg">
<path d="M19.1983 6.64002C18.7683 4.47002 17.1583 3.52002 14.9183 3.52002H6.13828C3.49828 3.52002 1.73828 4.84002 1.73828 7.92002V13.07C1.73828 15.29 2.64828 16.59 4.14828 17.15C4.36828 17.23 4.60828 17.3 4.85828 17.34C5.25828 17.43 5.68828 17.47 6.13828 17.47H14.9283C17.5683 17.47 19.3283 16.15 19.3283 13.07V7.92002C19.3283 7.45002 19.2883 7.03002 19.1983 6.64002ZM5.55828 12C5.55828 12.41 5.21828 12.75 4.80828 12.75C4.39828 12.75 4.05828 12.41 4.05828 12V9.00002C4.05828 8.59002 4.39828 8.25002 4.80828 8.25002C5.21828 8.25002 5.55828 8.59002 5.55828 9.00002V12ZM10.5283 13.14C9.06828 13.14 7.88828 11.96 7.88828 10.5C7.88828 9.04002 9.06828 7.86002 10.5283 7.86002C11.9883 7.86002 13.1683 9.04002 13.1683 10.5C13.1683 11.96 11.9883 13.14 10.5283 13.14ZM16.9883 12C16.9883 12.41 16.6483 12.75 16.2383 12.75C15.8283 12.75 15.4883 12.41 15.4883 12V9.00002C15.4883 8.59002 15.8283 8.25002 16.2383 8.25002C16.6483 8.25002 16.9883 8.59002 16.9883 9.00002V12Z" fill="#171717"/>
<path d="M22.3281 10.92V16.07C22.3281 19.15 20.5681 20.48 17.9181 20.48H9.13809C8.38809 20.48 7.71809 20.37 7.13809 20.15C6.66809 19.98 6.25809 19.73 5.92809 19.41C5.74809 19.24 5.88809 18.97 6.13809 18.97H14.9181C18.6181 18.97 20.8181 16.77 20.8181 13.08V7.92003C20.8181 7.68003 21.0881 7.53003 21.2581 7.71003C21.9381 8.43003 22.3281 9.48003 22.3281 10.92Z" fill="#171717"/>
</svg>
