<svg width="25" height="24" viewBox="0 0 25 24" fill="none" xmlns="http://www.w3.org/2000/svg">
<path d="M10.2642 10.03C10.2642 10.57 10.4142 10.65 10.7542 10.77L11.2642 10.95V9.25H10.9642C10.5842 9.25 10.2642 9.6 10.2642 10.03Z" fill="#171717"/>
<path d="M12.7642 14.75H13.0642C13.4542 14.75 13.7642 14.4 13.7642 13.97C13.7642 13.43 13.6142 13.35 13.2742 13.23L12.7642 13.05V14.75Z" fill="#171717"/>
<path d="M19.5942 5.48L17.5442 7.53C17.3942 7.68 17.2042 7.75 17.0142 7.75C16.8242 7.75 16.6342 7.68 16.4842 7.53C16.1942 7.24 16.1942 6.76 16.4842 6.47L18.5342 4.42C16.7742 2.92 14.5042 2 12.0142 2C6.49416 2 2.01416 6.48 2.01416 12C2.01416 17.52 6.49416 22 12.0142 22C17.5342 22 22.0142 17.52 22.0142 12C22.0142 9.51 21.0942 7.24 19.5942 5.48ZM13.7642 11.82C14.4042 12.05 15.2642 12.51 15.2642 13.98C15.2642 15.23 14.2742 16.26 13.0642 16.26H12.7642V16.51C12.7642 16.92 12.4242 17.26 12.0142 17.26C11.6042 17.26 11.2642 16.92 11.2642 16.51V16.26H11.1842C9.85416 16.26 8.76416 15.14 8.76416 13.76C8.76416 13.34 9.10416 13 9.51416 13C9.92416 13 10.2642 13.34 10.2642 13.75C10.2642 14.3 10.6742 14.75 11.1842 14.75H11.2642V12.53L10.2642 12.18C9.62416 11.95 8.76416 11.49 8.76416 10.02C8.76416 8.77 9.75416 7.74 10.9642 7.74H11.2642V7.5C11.2642 7.09 11.6042 6.75 12.0142 6.75C12.4242 6.75 12.7642 7.09 12.7642 7.5V7.75H12.8442C14.1742 7.75 15.2642 8.87 15.2642 10.25C15.2642 10.66 14.9242 11 14.5142 11C14.1042 11 13.7642 10.66 13.7642 10.25C13.7642 9.7 13.3542 9.25 12.8442 9.25H12.7642V11.47L13.7642 11.82Z" fill="#171717"/>
<path d="M22.7042 1.71C22.6242 1.53 22.4842 1.38 22.2942 1.3C22.2042 1.27 22.1142 1.25 22.0142 1.25H18.0142C17.6042 1.25 17.2642 1.59 17.2642 2C17.2642 2.41 17.6042 2.75 18.0142 2.75H20.2042L18.5342 4.42C18.9142 4.75 19.2642 5.1 19.5942 5.48L21.2642 3.81V6C21.2642 6.41 21.6042 6.75 22.0142 6.75C22.4242 6.75 22.7642 6.41 22.7642 6V2C22.7642 1.9 22.7442 1.81 22.7042 1.71Z" fill="#171717"/>
</svg>
