<svg width="25" height="24" viewBox="0 0 25 24" fill="none" xmlns="http://www.w3.org/2000/svg">
<path d="M12.0127 15C13.6695 15 15.0127 13.6569 15.0127 12C15.0127 10.3431 13.6695 9 12.0127 9C10.3558 9 9.0127 10.3431 9.0127 12C9.0127 13.6569 10.3558 15 12.0127 15Z" fill="#171717"/>
<path d="M17.0127 3.5H7.0127C4.0127 3.5 2.0127 5 2.0127 8.5V9V15V15.5C2.0127 19 4.0127 20.5 7.0127 20.5H17.0127C20.0127 20.5 22.0127 19 22.0127 15.5V15V9V8.5C22.0127 5 20.0127 3.5 17.0127 3.5ZM7.0127 19C7.0127 16.18 6.1027 15.14 3.5127 15.02V15V9V8.98C6.1027 8.86 7.0127 7.82 7.0127 5H17.0127C17.0127 7.82 17.9227 8.86 20.5127 8.98V9V15V15.02C17.9227 15.14 17.0127 16.18 17.0127 19H7.0127Z" fill="#171717"/>
</svg>
