<svg width="25" height="24" viewBox="0 0 25 24" fill="none" xmlns="http://www.w3.org/2000/svg">
<path d="M1.75225 20.24C1.76225 20.23 1.76225 20.22 1.76225 20.22L7.26225 14.72C7.27225 14.71 7.28225 14.71 7.29225 14.7C6.66225 14.26 5.89225 14 5.05225 14C2.84225 14 1.05225 15.79 1.05225 18C1.05225 18.75 1.26225 19.46 1.63225 20.06C1.67225 20.12 1.71225 20.18 1.75225 20.24Z" fill="#171717"/>
<path d="M8.35225 15.75C8.34225 15.76 8.34225 15.77 8.33225 15.78L2.83225 21.28C2.82225 21.29 2.81225 21.29 2.80225 21.3C3.44225 21.74 4.21225 22 5.05225 22C6.51225 22 7.78225 21.22 8.47225 20.06C8.84225 19.46 9.05225 18.75 9.05225 18C9.05225 17.16 8.79225 16.39 8.35225 15.75Z" fill="#171717"/>
<path d="M17.0522 4H7.05225C4.05225 4 2.05225 5.5 2.05225 9V12.56C2.05225 12.93 2.43225 13.16 2.76225 13.01C3.74225 12.56 4.87225 12.39 6.06225 12.6C8.69225 13.07 10.6222 15.51 10.5522 18.18C10.5422 18.6 10.4822 19.01 10.3722 19.41C10.2922 19.72 10.5422 20.01 10.8622 20.01H17.0522C20.0522 20.01 22.0522 18.51 22.0522 15.01V9C22.0522 5.5 20.0522 4 17.0522 4ZM12.0522 14.5C10.6722 14.5 9.55225 13.38 9.55225 12C9.55225 10.62 10.6722 9.5 12.0522 9.5C13.4322 9.5 14.5522 10.62 14.5522 12C14.5522 13.38 13.4322 14.5 12.0522 14.5ZM19.3022 14C19.3022 14.41 18.9622 14.75 18.5522 14.75C18.1422 14.75 17.8022 14.41 17.8022 14V10C17.8022 9.59 18.1422 9.25 18.5522 9.25C18.9622 9.25 19.3022 9.59 19.3022 10V14Z" fill="#171717"/>
</svg>
