<svg width="25" height="24" viewBox="0 0 25 24" fill="none" xmlns="http://www.w3.org/2000/svg">
<path d="M17.0146 3.5H7.01465C4.01465 3.5 2.01465 5 2.01465 8.5V15.5C2.01465 19 4.01465 20.5 7.01465 20.5H17.0146C20.0146 20.5 22.0146 19 22.0146 15.5V8.5C22.0146 5 20.0146 3.5 17.0146 3.5ZM3.76465 8.5C3.76465 6.71 5.22465 5.25 7.01465 5.25H8.51465C8.92465 5.25 9.26465 5.59 9.26465 6C9.26465 6.41 8.92465 6.75 8.51465 6.75H7.01465C6.05465 6.75 5.26465 7.54 5.26465 8.5V10C5.26465 10.41 4.92465 10.75 4.51465 10.75C4.10465 10.75 3.76465 10.41 3.76465 10V8.5ZM8.51465 18.75H7.01465C5.22465 18.75 3.76465 17.29 3.76465 15.5V14C3.76465 13.59 4.10465 13.25 4.51465 13.25C4.92465 13.25 5.26465 13.59 5.26465 14V15.5C5.26465 16.46 6.05465 17.25 7.01465 17.25H8.51465C8.92465 17.25 9.26465 17.59 9.26465 18C9.26465 18.41 8.92465 18.75 8.51465 18.75ZM12.0146 15C10.3546 15 9.01465 13.66 9.01465 12C9.01465 10.34 10.3546 9 12.0146 9C13.6746 9 15.0146 10.34 15.0146 12C15.0146 13.66 13.6746 15 12.0146 15ZM20.2646 15.5C20.2646 17.29 18.8046 18.75 17.0146 18.75H15.5146C15.1046 18.75 14.7646 18.41 14.7646 18C14.7646 17.59 15.1046 17.25 15.5146 17.25H17.0146C17.9746 17.25 18.7646 16.46 18.7646 15.5V14C18.7646 13.59 19.1046 13.25 19.5146 13.25C19.9246 13.25 20.2646 13.59 20.2646 14V15.5ZM20.2646 10C20.2646 10.41 19.9246 10.75 19.5146 10.75C19.1046 10.75 18.7646 10.41 18.7646 10V8.5C18.7646 7.54 17.9746 6.75 17.0146 6.75H15.5146C15.1046 6.75 14.7646 6.41 14.7646 6C14.7646 5.59 15.1046 5.25 15.5146 5.25H17.0146C18.8046 5.25 20.2646 6.71 20.2646 8.5V10Z" fill="#171717"/>
</svg>
