<svg width="25" height="24" viewBox="0 0 25 24" fill="none" xmlns="http://www.w3.org/2000/svg">
<path d="M18.8232 6.24998H20.1832C19.9932 5.97998 19.7932 5.72998 19.5832 5.47998L18.8232 6.24998Z" fill="#171717"/>
<path d="M18.5332 4.41995C18.2832 4.20995 18.0332 4.00995 17.7632 3.81995V5.17995L18.5332 4.41995Z" fill="#171717"/>
<path d="M19.5932 5.47994L22.5432 2.52994C22.8332 2.23994 22.8332 1.75994 22.5432 1.46994C22.2532 1.17994 21.7732 1.17994 21.4832 1.46994L18.5332 4.41994C18.9132 4.74994 19.2632 5.10994 19.5932 5.47994Z" fill="#171717"/>
<path d="M17.7629 3C17.7629 2.59 17.4229 2.25 17.0129 2.25C16.6129 2.25 16.2929 2.57 16.2729 2.96C16.7929 3.21 17.2929 3.49 17.7629 3.82V3Z" fill="#171717"/>
<path d="M21.7631 7C21.7631 6.59 21.4231 6.25 21.0131 6.25H20.1831C20.5131 6.72 20.8031 7.22 21.0431 7.74C21.4431 7.72 21.7631 7.4 21.7631 7Z" fill="#171717"/>
<path d="M12.7632 14.75H13.0632C13.4532 14.75 13.7632 14.4 13.7632 13.97C13.7632 13.43 13.6132 13.35 13.2732 13.23L12.7632 13.05V14.75Z" fill="#171717"/>
<path d="M21.0532 7.74C21.0432 7.74 21.0332 7.75 21.0132 7.75H17.0132C16.9132 7.75 16.8232 7.73 16.7232 7.69C16.5432 7.61 16.3932 7.47 16.3132 7.28C16.2832 7.19 16.2632 7.1 16.2632 7V3C16.2632 2.99 16.2732 2.98 16.2732 2.96C14.9732 2.35 13.5332 2 12.0132 2C6.49318 2 2.01318 6.48 2.01318 12C2.01318 17.52 6.49318 22 12.0132 22C17.5332 22 22.0132 17.52 22.0132 12C22.0132 10.48 21.6632 9.04 21.0532 7.74ZM13.7632 11.82C14.4032 12.04 15.2632 12.51 15.2632 13.98C15.2632 15.23 14.2732 16.26 13.0632 16.26H12.7632V16.51C12.7632 16.92 12.4232 17.26 12.0132 17.26C11.6032 17.26 11.2632 16.92 11.2632 16.51V16.26H11.1832C9.85318 16.26 8.76318 15.14 8.76318 13.76C8.76318 13.34 9.10318 13 9.51318 13C9.92318 13 10.2632 13.34 10.2632 13.75C10.2632 14.3 10.6732 14.75 11.1832 14.75H11.2632V12.53L10.2632 12.18C9.62318 11.96 8.76318 11.49 8.76318 10.02C8.76318 8.77 9.75318 7.74 10.9632 7.74H11.2632V7.5C11.2632 7.09 11.6032 6.75 12.0132 6.75C12.4232 6.75 12.7632 7.09 12.7632 7.5V7.75H12.8432C14.1732 7.75 15.2632 8.87 15.2632 10.25C15.2632 10.66 14.9232 11 14.5132 11C14.1032 11 13.7632 10.66 13.7632 10.25C13.7632 9.7 13.3532 9.25 12.8432 9.25H12.7632V11.47L13.7632 11.82Z" fill="#171717"/>
<path d="M10.2632 10.03C10.2632 10.57 10.4132 10.65 10.7532 10.77L11.2632 10.95V9.25H10.9632C10.5832 9.25 10.2632 9.6 10.2632 10.03Z" fill="#171717"/>
</svg>
