<svg width="25" height="24" viewBox="0 0 25 24" fill="none" xmlns="http://www.w3.org/2000/svg">
<path d="M17.0452 4H7.04517C4.04517 4 2.04517 5.5 2.04517 9V12.56C2.04517 12.93 2.42517 13.16 2.75517 13.01C3.73517 12.56 4.86517 12.39 6.05517 12.6C8.68517 13.07 10.6152 15.51 10.5452 18.18C10.5352 18.6 10.4752 19.01 10.3652 19.41C10.2852 19.72 10.5352 20.01 10.8552 20.01H17.0452C20.0452 20.01 22.0452 18.51 22.0452 15.01V9C22.0452 5.5 20.0452 4 17.0452 4ZM12.0452 14.5C10.6652 14.5 9.54517 13.38 9.54517 12C9.54517 10.62 10.6652 9.5 12.0452 9.5C13.4252 9.5 14.5452 10.62 14.5452 12C14.5452 13.38 13.4252 14.5 12.0452 14.5ZM19.2952 14C19.2952 14.41 18.9552 14.75 18.5452 14.75C18.1352 14.75 17.7952 14.41 17.7952 14V10C17.7952 9.59 18.1352 9.25 18.5452 9.25C18.9552 9.25 19.2952 9.59 19.2952 10V14Z" fill="#171717"/>
<path d="M5.04517 14C3.84517 14 2.77517 14.53 2.04517 15.36C1.42517 16.07 1.04517 16.99 1.04517 18C1.04517 18.75 1.25517 19.46 1.62517 20.06C2.31517 21.22 3.58517 22 5.04517 22C6.05517 22 6.97517 21.63 7.67517 21C7.98517 20.74 8.25517 20.42 8.46517 20.06C8.83517 19.46 9.04517 18.75 9.04517 18C9.04517 15.79 7.25517 14 5.04517 14ZM6.64517 19.58C6.49517 19.73 6.30517 19.8 6.11517 19.8C5.92517 19.8 5.73517 19.73 5.58517 19.58L5.05517 19.05L4.50517 19.6C4.35517 19.75 4.16517 19.82 3.97517 19.82C3.78517 19.82 3.59517 19.75 3.44517 19.6C3.15517 19.31 3.15517 18.83 3.44517 18.54L3.99517 17.99L3.46517 17.46C3.17517 17.17 3.17517 16.69 3.46517 16.4C3.75517 16.11 4.23517 16.11 4.52517 16.4L5.05517 16.93L5.55517 16.43C5.84517 16.14 6.32517 16.14 6.61517 16.43C6.90517 16.72 6.90517 17.2 6.61517 17.49L6.11517 17.99L6.64517 18.52C6.93517 18.81 6.93517 19.28 6.64517 19.58Z" fill="#171717"/>
</svg>
