<svg width="25" height="24" viewBox="0 0 25 24" fill="none" xmlns="http://www.w3.org/2000/svg">
<path d="M17.0166 3.5H7.0166C4.0166 3.5 2.0166 5 2.0166 8.5V15.5C2.0166 19 4.0166 20.5 7.0166 20.5H17.0166C20.0166 20.5 22.0166 19 22.0166 15.5V8.5C22.0166 5 20.0166 3.5 17.0166 3.5ZM8.0166 17.75H5.0166C4.6066 17.75 4.2666 17.41 4.2666 17C4.2666 16.59 4.6066 16.25 5.0166 16.25H8.0166C8.4266 16.25 8.7666 16.59 8.7666 17C8.7666 17.41 8.4266 17.75 8.0166 17.75ZM12.0166 15C10.3566 15 9.0166 13.66 9.0166 12C9.0166 10.34 10.3566 9 12.0166 9C13.6766 9 15.0166 10.34 15.0166 12C15.0166 13.66 13.6766 15 12.0166 15ZM19.0166 7.75H16.0166C15.6066 7.75 15.2666 7.41 15.2666 7C15.2666 6.59 15.6066 6.25 16.0166 6.25H19.0166C19.4266 6.25 19.7666 6.59 19.7666 7C19.7666 7.41 19.4266 7.75 19.0166 7.75Z" fill="#171717"/>
</svg>
