<svg width="24" height="24" viewBox="0 0 24 24" fill="none" xmlns="http://www.w3.org/2000/svg">
<path d="M17.002 4H7.00195C4.00195 4 2.00195 5.5 2.00195 9V12.56C2.00195 12.93 2.38195 13.16 2.71195 13.01C3.69195 12.56 4.82195 12.39 6.01195 12.6C8.64195 13.07 10.572 15.51 10.502 18.18C10.492 18.6 10.432 19.01 10.322 19.41C10.242 19.72 10.492 20.01 10.812 20.01H17.002C20.002 20.01 22.002 18.51 22.002 15.01V9C22.002 5.5 20.002 4 17.002 4ZM12.002 14.5C10.622 14.5 9.50195 13.38 9.50195 12C9.50195 10.62 10.622 9.5 12.002 9.5C13.382 9.5 14.502 10.62 14.502 12C14.502 13.38 13.382 14.5 12.002 14.5ZM19.252 14C19.252 14.41 18.912 14.75 18.502 14.75C18.092 14.75 17.752 14.41 17.752 14V10C17.752 9.59 18.092 9.25 18.502 9.25C18.912 9.25 19.252 9.59 19.252 10V14Z" fill="#171717"/>
<path d="M5.00195 14C3.75195 14 2.62195 14.59 1.89195 15.49C1.33195 16.18 1.00195 17.05 1.00195 18C1.00195 20.21 2.80195 22 5.00195 22C6.74195 22 8.23195 20.89 8.77195 19.33C8.92195 18.92 9.00195 18.47 9.00195 18C9.00195 15.8 7.21195 14 5.00195 14ZM7.36195 19.74C7.34195 19.8 7.30195 19.86 7.26195 19.9L6.54195 20.61C6.45195 20.71 6.33195 20.75 6.20195 20.75C6.07195 20.75 5.94195 20.71 5.85195 20.61C5.69195 20.46 5.67195 20.22 5.77195 20.04H3.76195C3.12195 20.04 2.60195 19.52 2.60195 18.87V18.77C2.60195 18.49 2.82195 18.28 3.09195 18.28C3.36195 18.28 3.58195 18.49 3.58195 18.77V18.87C3.58195 18.98 3.66195 19.07 3.77195 19.07H5.78195C5.68195 18.88 5.70195 18.65 5.86195 18.49C6.05195 18.3 6.36195 18.3 6.54195 18.49L7.26195 19.21C7.30195 19.25 7.34195 19.31 7.37195 19.37C7.41195 19.48 7.41195 19.62 7.36195 19.74ZM7.40195 17.23C7.40195 17.51 7.18195 17.72 6.91195 17.72C6.64195 17.72 6.42195 17.51 6.42195 17.23V17.13C6.42195 17.02 6.34195 16.93 6.23195 16.93H4.23195C4.33195 17.12 4.31195 17.35 4.15195 17.51C4.06195 17.6 3.94195 17.65 3.80195 17.65C3.68195 17.65 3.55195 17.6 3.46195 17.51L2.74195 16.79C2.70195 16.75 2.66195 16.69 2.63195 16.63C2.59195 16.51 2.59195 16.38 2.63195 16.26C2.66195 16.21 2.69195 16.14 2.74195 16.1L3.46195 15.39C3.65195 15.19 3.96195 15.19 4.14195 15.39C4.30195 15.54 4.32195 15.78 4.22195 15.96H6.23195C6.87195 15.96 7.39195 16.48 7.39195 17.13V17.23H7.40195Z" fill="#171717"/>
</svg>
