<svg width="25" height="24" viewBox="0 0 25 24" fill="none" xmlns="http://www.w3.org/2000/svg">
<path d="M16.2056 2H7.82562C4.18562 2 2.01562 4.17 2.01562 7.81V16.18C2.01562 19.83 4.18562 22 7.82562 22H16.1956C19.8356 22 22.0056 19.83 22.0056 16.19V7.81C22.0156 4.17 19.8456 2 16.2056 2ZM7.01562 13.31C6.29562 13.31 5.70563 12.72 5.70563 12C5.70563 11.28 6.29562 10.69 7.01562 10.69C7.73563 10.69 8.32563 11.28 8.32563 12C8.32563 12.72 7.73563 13.31 7.01562 13.31ZM12.0156 13.31C11.2956 13.31 10.7056 12.72 10.7056 12C10.7056 11.28 11.2956 10.69 12.0156 10.69C12.7356 10.69 13.3256 11.28 13.3256 12C13.3256 12.72 12.7356 13.31 12.0156 13.31ZM17.0156 13.31C16.2956 13.31 15.7056 12.72 15.7056 12C15.7056 11.28 16.2956 10.69 17.0156 10.69C17.7356 10.69 18.3256 11.28 18.3256 12C18.3256 12.72 17.7356 13.31 17.0156 13.31Z" fill="#171717"/>
</svg>
