<svg width="25" height="24" viewBox="0 0 25 24" fill="none" xmlns="http://www.w3.org/2000/svg">
<path opacity="0.97" d="M16.2056 2H7.82562C4.18562 2 2.01562 4.17 2.01562 7.81V16.18C2.01562 19.83 4.18562 22 7.82562 22H16.1956C19.8356 22 22.0056 19.83 22.0056 16.19V7.81C22.0156 4.17 19.8456 2 16.2056 2ZM8.32563 16.31C7.60563 16.31 7.01562 15.72 7.01562 15C7.01562 14.28 7.60563 13.69 8.32563 13.69C9.04563 13.69 9.63562 14.28 9.63562 15C9.63562 15.72 9.04563 16.31 8.32563 16.31ZM12.0156 10.31C11.2956 10.31 10.7056 9.72 10.7056 9C10.7056 8.28 11.2956 7.69 12.0156 7.69C12.7356 7.69 13.3256 8.28 13.3256 9C13.3256 9.72 12.7356 10.31 12.0156 10.31ZM15.7056 16.31C14.9856 16.31 14.3956 15.72 14.3956 15C14.3956 14.28 14.9856 13.69 15.7056 13.69C16.4256 13.69 17.0156 14.28 17.0156 15C17.0156 15.72 16.4256 16.31 15.7056 16.31Z" fill="#171717"/>
</svg>
