<svg width="24" height="24" viewBox="0 0 24 24" fill="none" xmlns="http://www.w3.org/2000/svg">
<path d="M13.2978 2.11561C13.0064 2.06433 12.75 2.29687 12.75 2.59279V5.45356C12.75 5.65192 12.8709 5.82658 13.0359 5.93677C13.5391 6.27295 13.87 6.84691 13.87 7.5V9.5C13.87 10.53 13.03 11.38 12 11.38C10.96 11.38 10.12 10.53 10.12 9.5V7.5C10.12 6.84672 10.4583 6.27261 10.9639 5.93647C11.1291 5.82666 11.25 5.65192 11.25 5.45356V2.59343C11.25 2.29728 10.9935 2.06464 10.7019 2.11607C9.15243 2.38928 7.76579 3.13421 6.7 4.2C5.34 5.56 4.5 7.44 4.5 9.5V14.5C4.5 18.63 7.87 22 12 22C16.13 22 19.5 18.63 19.5 14.5V9.5C19.5 5.80951 16.813 2.73422 13.2978 2.11561Z" fill="#171717"/>
</svg>
