<svg width="25" height="24" viewBox="0 0 25 24" fill="none" xmlns="http://www.w3.org/2000/svg">
<path d="M15.04 13.6699C14.68 13.6699 14.39 13.9599 14.39 14.3199C14.39 14.6799 14.68 14.9699 15.04 14.9699C15.4 14.9699 15.69 14.6799 15.69 14.3199C15.68 13.9599 15.39 13.6699 15.04 13.6699Z" fill="#171717"/>
<path d="M9.55997 14.6599C9.19997 14.6599 8.90997 14.9499 8.90997 15.3099C8.90997 15.6699 9.19997 15.9599 9.55997 15.9599C9.91997 15.9599 10.21 15.6699 10.21 15.3099C10.21 14.9499 9.91997 14.6599 9.55997 14.6599Z" fill="#171717"/>
<path d="M16.69 2H8.31C4.67 2 2.5 4.17 2.5 7.81V16.18C2.5 19.83 4.67 22 8.31 22H16.68C20.32 22 22.49 19.83 22.49 16.19V7.81C22.5 4.17 20.33 2 16.69 2ZM17.38 9.55V14.31C17.38 15.6 16.33 16.65 15.04 16.65C13.75 16.65 12.7 15.6 12.7 14.31C12.7 13.02 13.75 11.97 15.04 11.97C15.27 11.97 15.48 12.01 15.69 12.07V10.65L11.91 11.68V15.3C11.91 15.31 11.9 15.32 11.9 15.33C11.89 16.61 10.84 17.64 9.56 17.64C8.27 17.64 7.22 16.59 7.22 15.3C7.22 14.01 8.27 12.96 9.56 12.96C9.79 12.96 10 13 10.21 13.06V11.03V9.29C10.21 8.32 10.81 7.53 11.75 7.28L14.74 6.46C15.7 6.2 16.3 6.45 16.64 6.71C16.97 6.97 17.38 7.48 17.38 8.48V9.55Z" fill="#171717"/>
</svg>
