<svg width="25" height="24" viewBox="0 0 25 24" fill="none" xmlns="http://www.w3.org/2000/svg">
<path d="M22.47 16.33C21.75 15.51 20.68 15 19.5 15C17.29 15 15.5 16.79 15.5 19C15.5 19.75 15.71 20.46 16.08 21.06C16.28 21.4 16.54 21.71 16.84 21.97C17.54 22.61 18.47 23 19.5 23C20.96 23 22.23 22.22 22.92 21.06C23.29 20.46 23.5 19.75 23.5 19C23.5 17.98 23.11 17.04 22.47 16.33ZM21.1 20.58C20.95 20.73 20.76 20.8 20.57 20.8C20.38 20.8 20.19 20.73 20.04 20.58L19.51 20.05L18.96 20.6C18.81 20.75 18.62 20.82 18.43 20.82C18.24 20.82 18.05 20.75 17.9 20.6C17.61 20.31 17.61 19.83 17.9 19.54L18.45 18.99L17.92 18.46C17.63 18.17 17.63 17.69 17.92 17.4C18.21 17.11 18.69 17.11 18.98 17.4L19.51 17.93L20.01 17.43C20.3 17.14 20.78 17.14 21.07 17.43C21.36 17.72 21.36 18.2 21.07 18.49L20.57 18.99L21.1 19.52C21.39 19.81 21.39 20.28 21.1 20.58Z" fill="#171717"/>
<path d="M12.73 12.0701C12.32 12.0701 11.99 12.4001 11.99 12.8101C11.99 13.2201 12.32 13.5501 12.73 13.5501C13.14 13.5501 13.47 13.2201 13.47 12.8101C13.47 12.4001 13.14 12.0701 12.73 12.0701Z" fill="#171717"/>
<path d="M7.26002 13.0601C6.85002 13.0601 6.52002 13.3901 6.52002 13.8001C6.52002 14.2101 6.85002 14.5401 7.26002 14.5401C7.67002 14.5401 8.00002 14.2101 8.00002 13.8001C8.00002 13.3901 7.67002 13.0601 7.26002 13.0601Z" fill="#171717"/>
<path d="M16.69 2H8.31C8.03 2 7.76 2.01 7.5 2.05C4.35 2.34 2.5 4.45 2.5 7.81V16.19C2.5 19.55 4.35 21.66 7.5 21.95C7.76 21.99 8.03 22 8.31 22H14C14.39 22 14.64 21.56 14.49 21.2C14.2 20.51 14 19.71 14 19C14 15.97 16.47 13.5 19.5 13.5C20.26 13.5 21 13.65 21.68 13.95C22.05 14.11 22.5 13.86 22.5 13.46V7.81C22.5 4.17 20.33 2 16.69 2ZM14.98 8.05V12.81C14.98 12.82 14.97 12.83 14.97 12.85C14.95 14.07 13.96 15.06 12.73 15.06C11.49 15.06 10.49 14.05 10.49 12.82C10.49 11.58 11.5 10.58 12.73 10.58C12.99 10.58 13.24 10.63 13.48 10.72V9.03L9.51 10.11V13.81C9.51 13.82 9.5 13.83 9.5 13.84C9.48 15.06 8.49 16.04 7.26 16.04C6.02 16.04 5.02 15.03 5.02 13.8C5.02 12.57 6.03 11.56 7.26 11.56C7.52 11.56 7.77 11.61 8 11.7V9.54V7.79C8 6.86 8.58 6.11 9.47 5.87L12.45 5.05C13.38 4.8 13.95 5.05 14.27 5.29C14.73 5.64 14.96 6.21 14.96 6.97V8.05H14.98Z" fill="#171717"/>
</svg>
