<svg width="25" height="24" viewBox="0 0 25 24" fill="none" xmlns="http://www.w3.org/2000/svg">
<path d="M23.29 21.76L22.57 21.04C22.94 20.48 23.16 19.8 23.16 19.08C23.16 17.1 21.56 15.5 19.58 15.5C17.6 15.5 16 17.1 16 19.08C16 21.06 17.6 22.66 19.58 22.66C20.31 22.66 20.98 22.44 21.54 22.07L22.26 22.79C22.4 22.93 22.59 23 22.77 23C22.96 23 23.14 22.93 23.28 22.79C23.57 22.5 23.57 22.04 23.29 21.76Z" fill="#171717"/>
<path d="M12.73 12.0701C12.32 12.0701 11.99 12.4001 11.99 12.8101C11.99 13.2201 12.32 13.5501 12.73 13.5501C13.14 13.5501 13.47 13.2201 13.47 12.8101C13.47 12.4001 13.14 12.0701 12.73 12.0701Z" fill="#171717"/>
<path d="M7.26002 13.0601C6.85002 13.0601 6.52002 13.3901 6.52002 13.8001C6.52002 14.2101 6.85002 14.5401 7.26002 14.5401C7.67002 14.5401 8.00002 14.2101 8.00002 13.8001C8.00002 13.3901 7.67002 13.0601 7.26002 13.0601Z" fill="#171717"/>
<path d="M16.69 2H8.31C8.03 2 7.76 2.01 7.5 2.05C4.35 2.34 2.5 4.45 2.5 7.81V16.19C2.5 19.55 4.35 21.66 7.5 21.95C7.76 21.99 8.03 22 8.31 22H14C14.39 22 14.64 21.56 14.49 21.2C14.2 20.51 14 19.71 14 19C14 15.97 16.47 13.5 19.5 13.5C20.26 13.5 21 13.65 21.68 13.95C22.05 14.11 22.5 13.86 22.5 13.46V7.81C22.5 4.17 20.33 2 16.69 2ZM14.98 8.05V12.81C14.98 12.82 14.97 12.83 14.97 12.85C14.95 14.07 13.96 15.06 12.73 15.06C11.49 15.06 10.49 14.05 10.49 12.82C10.49 11.58 11.5 10.58 12.73 10.58C12.99 10.58 13.24 10.63 13.48 10.72V9.03L9.51 10.11V13.81C9.51 13.82 9.5 13.83 9.5 13.84C9.48 15.06 8.49 16.04 7.26 16.04C6.02 16.04 5.02 15.03 5.02 13.8C5.02 12.57 6.03 11.56 7.26 11.56C7.52 11.56 7.77 11.61 8 11.7V9.54V7.79C8 6.86 8.58 6.11 9.47 5.87L12.45 5.05C13.38 4.8 13.95 5.05 14.27 5.29C14.73 5.64 14.96 6.21 14.96 6.97V8.05H14.98Z" fill="#171717"/>
</svg>
