<svg width="25" height="24" viewBox="0 0 25 24" fill="none" xmlns="http://www.w3.org/2000/svg">
<path d="M3.08 9.42001C3 9.42001 2.91 9.41001 2.83 9.38001C2.44 9.24001 2.24 8.81001 2.37 8.42001C3.04 6.54001 4.2 4.89001 5.75 3.64001C6.07 3.38001 6.54 3.43001 6.8 3.75001C7.06 4.07001 7.01 4.54001 6.69 4.81001C5.37 5.88001 4.36 7.30001 3.79 8.92001C3.68 9.23001 3.39 9.42001 3.08 9.42001Z" fill="#171717"/>
<path d="M3.08 16.08C2.77 16.08 2.48 15.89 2.37 15.58C1.96 14.42 1.75 13.21 1.75 12C1.75 11.59 2.09 11.25 2.5 11.25C2.91 11.25 3.25 11.59 3.25 12C3.25 13.04 3.43 14.08 3.79 15.08C3.93 15.47 3.72 15.9 3.33 16.04C3.25 16.07 3.16 16.08 3.08 16.08Z" fill="#171717"/>
<path d="M12.5 22.75C11.44 22.75 10.39 22.59 9.36998 22.28C8.96998 22.16 8.74998 21.74 8.86998 21.34C8.98998 20.94 9.40998 20.72 9.80998 20.84C10.68 21.11 11.59 21.24 12.5 21.24C17.6 21.24 21.75 17.09 21.75 11.99C21.75 11.47 21.7 10.93 21.6 10.36C21.53 9.95004 21.8 9.56004 22.21 9.49004C22.61 9.42004 23.01 9.69004 23.08 10.1C23.2 10.76 23.26 11.38 23.26 12C23.25 17.93 18.43 22.75 12.5 22.75Z" fill="#171717"/>
<path d="M6.21997 20.5001C6.04997 20.5001 5.88997 20.4501 5.74997 20.3301C5.17997 19.8701 4.71997 19.4301 4.32997 18.9801C4.05997 18.6701 4.09997 18.1901 4.40997 17.9201C4.72997 17.6501 5.19997 17.6901 5.46997 18.0001C5.79997 18.3801 6.19997 18.7601 6.68997 19.1601C7.00997 19.4201 7.05997 19.8901 6.79997 20.2101C6.65997 20.4001 6.43997 20.5001 6.21997 20.5001Z" fill="#171717"/>
<path d="M20.74 7.09C20.5 7.09 20.27 6.98 20.12 6.76C18.4 4.25 15.54 2.75 12.5 2.75C11.59 2.75 10.68 2.88 9.81003 3.15C9.42003 3.27 9.00003 3.05 8.87003 2.65C8.74003 2.25 8.97003 1.83 9.37003 1.71C10.39 1.41 11.44 1.25 12.5 1.25C16.04 1.25 19.35 3 21.36 5.92C21.59 6.26 21.51 6.73 21.17 6.96C21.04 7.05 20.89 7.09 20.74 7.09Z" fill="#171717"/>
<path d="M16.53 6.49997C16.2 6.24997 15.6 5.99997 14.64 6.25997L11.45 7.11997C10.53 7.37997 9.93 8.15997 9.93 9.11997V10.76V13.34C9.67 13.24 9.39 13.18 9.09 13.18C7.8 13.18 6.75 14.23 6.75 15.52C6.75 16.81 7.8 17.86 9.09 17.86C10.37 17.86 11.4 16.83 11.42 15.56C11.42 15.55 11.43 15.54 11.43 15.52V11.33L15.75 10.15V12.28C15.49 12.18 15.21 12.12 14.91 12.12C13.62 12.12 12.57 13.17 12.57 14.46C12.57 15.75 13.62 16.8 14.91 16.8C16.2 16.8 17.25 15.75 17.25 14.46V9.16997V8.24997C17.25 7.44997 17.01 6.85997 16.53 6.49997ZM9.09 16.36C8.63 16.36 8.25 15.98 8.25 15.52C8.25 15.06 8.63 14.68 9.09 14.68C9.55 14.68 9.93 15.06 9.93 15.52C9.93 15.98 9.55 16.36 9.09 16.36ZM14.91 15.3C14.45 15.3 14.07 14.92 14.07 14.46C14.07 14 14.45 13.62 14.91 13.62C15.37 13.62 15.75 14 15.75 14.46C15.75 14.92 15.37 15.3 14.91 15.3Z" fill="#171717"/>
</svg>
