<svg width="25" height="24" viewBox="0 0 25 24" fill="none" xmlns="http://www.w3.org/2000/svg">
<path d="M7.5 3.25007V20.7501C7.5 21.3901 6.89 21.9001 6.27 21.7301C3.87 21.0501 2.5 19.0901 2.5 16.1901V7.81007C2.5 4.91007 3.87 2.95007 6.27 2.27007C6.89 2.10007 7.5 2.60007 7.5 3.25007Z" fill="#171717"/>
<path d="M12.97 14.3701C12.59 14.3701 12.29 14.6801 12.29 15.0501C12.29 15.4201 12.6 15.7301 12.97 15.7301C13.35 15.7301 13.66 15.4201 13.66 15.0501C13.66 14.6801 13.35 14.3701 12.97 14.3701Z" fill="#171717"/>
<path d="M18.02 13.45C17.64 13.45 17.33 13.76 17.33 14.14C17.33 14.52 17.64 14.82 18.02 14.82C18.4 14.82 18.71 14.51 18.71 14.14C18.71 13.77 18.4 13.45 18.02 13.45Z" fill="#171717"/>
<path d="M16.69 2H10C9.45 2 9 2.45 9 3V21C9 21.55 9.45 22 10 22H16.69C19.9 22 22.5 19.4 22.5 16.19V7.81C22.5 4.6 19.9 2 16.69 2ZM20.1 9.74V14.14C20.1 14.15 20.09 14.16 20.09 14.17C20.07 15.3 19.15 16.21 18.02 16.21C16.88 16.21 15.95 15.28 15.95 14.14C15.95 13 16.88 12.07 18.02 12.07C18.26 12.07 18.49 12.12 18.71 12.2V10.65L15.04 11.65V15.07C15.04 15.08 15.03 15.09 15.03 15.1C15.01 16.23 14.09 17.14 12.96 17.14C11.82 17.14 10.89 16.21 10.89 15.07C10.89 13.93 11.82 13 12.96 13C13.2 13 13.43 13.05 13.65 13.13V11.13V9.5C13.65 8.64 14.18 7.94 15.01 7.73L17.76 6.97C18.62 6.74 19.15 6.97 19.45 7.2C19.88 7.53 20.09 8.05 20.09 8.75V9.74H20.1Z" fill="#171717"/>
</svg>
