<svg width="25" height="24" viewBox="0 0 25 24" fill="none" xmlns="http://www.w3.org/2000/svg">
<path d="M21.39 5.18007V16.4801C21.39 18.4601 19.78 20.0701 17.8 20.0701C15.83 20.0701 14.21 18.4601 14.21 16.4801C14.21 14.5101 15.83 12.9001 17.8 12.9001C18.64 12.9001 19.39 13.1901 20 13.6701V7.72007L10.79 10.3401V18.4101C10.79 20.3901 9.16999 22.0001 7.19999 22.0001C5.21999 22.0001 3.60999 20.3901 3.60999 18.4101C3.60999 16.4401 5.21999 14.8301 7.19999 14.8301C8.02999 14.8301 8.77999 15.1201 9.38999 15.5901V6.75007C9.38999 5.28007 10.28 4.14007 11.69 3.76007L17.47 2.18007C18.64 1.86007 19.63 1.97007 20.33 2.51007C21.04 3.04007 21.39 3.94007 21.39 5.18007Z" fill="#171717"/>
</svg>
