<svg width="25" height="24" viewBox="0 0 25 24" fill="none" xmlns="http://www.w3.org/2000/svg">
<path d="M17.5 4.75H16.5V3.26C16.5 2.43 15.82 1.75 14.99 1.75H10.01C9.18 1.75 8.5 2.43 8.5 3.26V4.75H7.5C6.4 4.75 5.5 5.65 5.5 6.75V6.88C5.82 6.79 6.15 6.75 6.5 6.75H18.5C18.85 6.75 19.18 6.79 19.5 6.88V6.75C19.5 5.65 18.6 4.75 17.5 4.75Z" fill="#171717"/>
<path d="M14.43 16.9299C14.11 16.9299 13.86 17.1899 13.86 17.4999C13.86 17.8099 14.12 18.0699 14.43 18.0699C14.74 18.0699 15 17.8099 15 17.4999C15 17.1899 14.74 16.9299 14.43 16.9299Z" fill="#171717"/>
<path d="M9.57 17.8101C9.25 17.8101 9 18.0701 9 18.3801C9 18.6901 9.26 18.9501 9.57 18.9501C9.88 18.9501 10.14 18.6901 10.14 18.3801C10.14 18.0701 9.89 17.8101 9.57 17.8101Z" fill="#171717"/>
<path d="M19.5 8.38C19.18 8.29 18.85 8.25 18.5 8.25H6.5C6.15 8.25 5.82 8.29 5.5 8.38C3.78 8.83 2.5 10.4 2.5 12.25V18.25C2.5 20.45 4.3 22.25 6.5 22.25H18.5C20.7 22.25 22.5 20.45 22.5 18.25V12.25C22.5 10.4 21.22 8.83 19.5 8.38ZM16.5 13.28V17.5C16.5 18.64 15.57 19.57 14.43 19.57C13.29 19.57 12.36 18.64 12.36 17.5C12.36 16.36 13.29 15.43 14.43 15.43C14.63 15.43 14.82 15.47 15 15.52V14.26L11.65 15.17V18.38C11.65 18.39 11.65 18.4 11.64 18.41C11.63 19.54 10.7 20.46 9.57 20.46C8.43 20.46 7.5 19.53 7.5 18.38C7.5 17.23 8.43 16.31 9.57 16.31C9.77 16.31 9.96 16.35 10.15 16.4V14.6V13.05C10.15 12.19 10.69 11.49 11.51 11.27L14.16 10.54C15.01 10.31 15.55 10.53 15.85 10.76C16.15 10.99 16.5 11.44 16.5 12.33V13.28Z" fill="#171717"/>
</svg>
