<svg width="25" height="24" viewBox="0 0 25 24" fill="none" xmlns="http://www.w3.org/2000/svg">
<path d="M22.22 6.28001V7.45001C22.22 8.43001 21.83 9.27001 21.14 9.76001C20.71 10.08 20.18 10.23 19.63 10.23C19.29 10.23 18.95 10.18 18.6 10.06L13.22 8.27001V18C13.22 20.62 11.09 22.75 8.46997 22.75C5.84997 22.75 3.71997 20.62 3.71997 18C3.71997 15.38 5.84997 13.25 8.46997 13.25C9.72997 13.25 10.87 13.75 11.72 14.55V4.00001C11.72 3.03001 12.12 2.19001 12.81 1.69001C13.5 1.20001 14.42 1.09001 15.34 1.39001L19.76 2.87001C21.12 3.32001 22.22 4.85001 22.22 6.28001Z" fill="#171717"/>
</svg>
