<svg width="25" height="24" viewBox="0 0 25 24" fill="none" xmlns="http://www.w3.org/2000/svg">
<path d="M8.25 3.5V2C8.25 1.59 7.91 1.25 7.5 1.25C7.09 1.25 6.75 1.59 6.75 2V3.56C7 3.53 7.23 3.5 7.5 3.5H8.25Z" fill="#171717"/>
<path d="M16.25 3.56V2C16.25 1.59 15.91 1.25 15.5 1.25C15.09 1.25 14.75 1.59 14.75 2V3.5H15.5C15.77 3.5 16 3.53 16.25 3.56Z" fill="#171717"/>
<path d="M21.79 14.97C21.02 14.36 20.05 14 19 14C17.95 14 16.96 14.37 16.19 14.99C15.15 15.81 14.5 17.09 14.5 18.5C14.5 19.34 14.74 20.15 15.15 20.81C15.47 21.33 15.88 21.79 16.37 22.14C17.11 22.68 18.01 23 19 23C20.14 23 21.17 22.58 21.96 21.88C22.31 21.59 22.61 21.23 22.85 20.82C23.26 20.15 23.5 19.34 23.5 18.5C23.5 17.07 22.83 15.79 21.79 14.97ZM19 20.64C19 19.46 18.04 18.5 16.86 18.5C18.04 18.5 19 17.54 19 16.36C19 17.54 19.96 18.5 21.14 18.5C19.96 18.5 19 19.46 19 20.64Z" fill="#171717"/>
<path d="M16.25 3.56V5C16.25 5.41 15.91 5.75 15.5 5.75C15.09 5.75 14.75 5.41 14.75 5V3.5H8.25V5C8.25 5.41 7.91 5.75 7.5 5.75C7.09 5.75 6.75 5.41 6.75 5V3.56C3.8 3.83 2.5 5.73 2.5 8.5V17C2.5 20 4 22 7.5 22H11.63C12.39 22 12.9 21.15 12.71 20.41C12.57 19.87 12.5 19.31 12.5 18.75C12.5 16.67 13.43 14.75 15.04 13.48C16.21 12.53 17.71 12 19.25 12H19.29C19.92 12 20.5 11.54 20.5 10.91V8.5C20.5 5.73 19.2 3.83 16.25 3.56ZM9.5 16.75H7.5C7.09 16.75 6.75 16.41 6.75 16C6.75 15.59 7.09 15.25 7.5 15.25H9.5C9.91 15.25 10.25 15.59 10.25 16C10.25 16.41 9.91 16.75 9.5 16.75ZM12.5 11.75H7.5C7.09 11.75 6.75 11.41 6.75 11C6.75 10.59 7.09 10.25 7.5 10.25H12.5C12.91 10.25 13.25 10.59 13.25 11C13.25 11.41 12.91 11.75 12.5 11.75Z" fill="#171717"/>
</svg>
