<svg width="25" height="24" viewBox="0 0 25 24" fill="none" xmlns="http://www.w3.org/2000/svg">
<path d="M6.47 1H3.53C2.26 1 1.5 1.76 1.5 3.03V5.97C1.5 7.24 2.26 8 3.53 8H6.47C7.74 8 8.5 7.24 8.5 5.97V3.03C8.5 1.76 7.74 1 6.47 1ZM6.97 5.56C7.22 5.81 7.22 6.22 6.97 6.47C6.84 6.59 6.67 6.65 6.51 6.65C6.35 6.65 6.19 6.59 6.06 6.47L4.99 5.41L3.95 6.47C3.82 6.59 3.66 6.65 3.48 6.65C3.32 6.65 3.16 6.59 3.03 6.47C2.78 6.22 2.78 5.81 3.03 5.56L4.1 4.5L3.04 3.45C2.79 3.2 2.79 2.79 3.04 2.54C3.29 2.29 3.7 2.29 3.95 2.54L4.99 3.6L6.05 2.54C6.3 2.29 6.71 2.29 6.96 2.54C7.21 2.79 7.21 3.2 6.96 3.45L5.91 4.5L6.97 5.56Z" fill="#171717"/>
<path d="M21.9999 15.8201C21.9999 15.9701 21.9499 16.1201 21.8199 16.2501C20.3699 17.7101 17.7899 20.3101 16.3099 21.8001C16.1799 21.9401 16.0099 22.0001 15.8399 22.0001C15.5099 22.0001 15.1899 21.7401 15.1899 21.3601V17.8601C15.1899 16.4001 16.4299 15.1901 17.9499 15.1901C18.8999 15.1801 20.2199 15.1801 21.3499 15.1801C21.7399 15.1801 21.9999 15.4901 21.9999 15.8201Z" fill="#171717"/>
<path d="M21.9999 15.8201C21.9999 15.9701 21.9499 16.1201 21.8199 16.2501C20.3699 17.7101 17.7899 20.3101 16.3099 21.8001C16.1799 21.9401 16.0099 22.0001 15.8399 22.0001C15.5099 22.0001 15.1899 21.7401 15.1899 21.3601V17.8601C15.1899 16.4001 16.4299 15.1901 17.9499 15.1901C18.8999 15.1801 20.2199 15.1801 21.3499 15.1801C21.7399 15.1801 21.9999 15.4901 21.9999 15.8201Z" fill="#171717"/>
<path d="M17.13 2H11C10.45 2 10 2.45 10 3V6.5C10 8.16 8.66 9.5 7 9.5H4C3.45 9.5 3 9.95 3 10.5V17.13C3 19.82 5.18 22 7.87 22H12.69C13.24 22 13.69 21.55 13.69 21V17.86C13.69 15.56 15.6 13.69 17.95 13.69C18.48 13.68 19.77 13.68 21 13.68C21.55 13.68 22 13.24 22 12.68V6.87C22 4.18 19.82 2 17.13 2ZM9.22 17.01H6.58C6.17 17.01 5.83 16.67 5.83 16.26C5.83 15.84 6.17 15.5 6.58 15.5H9.22C9.65 15.5 9.97 15.84 9.97 16.26C9.97 16.67 9.65 17.01 9.22 17.01ZM12.01 13.3H6.58C6.17 13.3 5.83 12.96 5.83 12.55C5.83 12.13 6.17 11.79 6.58 11.79H12.01C12.42 11.79 12.77 12.13 12.77 12.55C12.77 12.96 12.42 13.3 12.01 13.3Z" fill="#171717"/>
</svg>
