<svg width="25" height="24" viewBox="0 0 25 24" fill="none" xmlns="http://www.w3.org/2000/svg">
<path d="M19.0156 8C20.6725 8 22.0156 6.65685 22.0156 5C22.0156 3.34315 20.6725 2 19.0156 2C17.3588 2 16.0156 3.34315 16.0156 5C16.0156 6.65685 17.3588 8 19.0156 8Z" fill="#171717"/>
<path d="M19.8156 9.42C19.7856 9.43 19.7556 9.43 19.7256 9.44C19.6456 9.45 19.5756 9.46 19.4856 9.47C19.3356 9.49 19.1756 9.5 19.0156 9.5C18.5856 9.5 18.1756 9.44 17.7856 9.32C17.6156 9.28 17.4556 9.23 17.3056 9.16C17.1556 9.1 16.9956 9.02 16.8556 8.94C16.1056 8.53 15.4856 7.91 15.0756 7.16C14.9956 7.02 14.9156 6.86 14.8556 6.71C14.7856 6.56 14.7356 6.4 14.6956 6.23C14.5756 5.84 14.5156 5.43 14.5156 5C14.5156 4.84 14.5256 4.68 14.5456 4.53C14.5556 4.44 14.5656 4.37 14.5756 4.29C14.5856 4.26 14.5856 4.23 14.5956 4.2C14.7156 3.58 14.2556 3 13.6156 3H7.53562C7.39563 3 7.25563 3.01 7.12563 3.02C7.00563 3.03 6.89563 3.04 6.77563 3.06C6.65563 3.07 6.53562 3.09 6.42562 3.11C4.01562 3.46 2.47562 4.99 2.12562 7.41C2.10562 7.52 2.08562 7.64 2.07562 7.76C2.05562 7.88 2.04562 7.99 2.03562 8.11C2.02562 8.24 2.01562 8.38 2.01562 8.52V16.48C2.01562 16.62 2.02562 16.76 2.03562 16.89C2.04562 17.01 2.05562 17.12 2.07562 17.24C2.08562 17.36 2.10562 17.48 2.12562 17.59C2.47562 20.01 4.01562 21.54 6.42562 21.89C6.53562 21.91 6.65563 21.93 6.77563 21.94C6.89563 21.96 7.00563 21.97 7.12563 21.98C7.25563 21.99 7.39563 22 7.53562 22H15.4956C15.6356 22 15.7756 21.99 15.9056 21.98C16.0256 21.97 16.1356 21.96 16.2556 21.94C16.3756 21.93 16.4956 21.91 16.6056 21.89C19.0156 21.54 20.5556 20.01 20.9056 17.59C20.9256 17.48 20.9456 17.36 20.9556 17.24C20.9756 17.12 20.9856 17.01 20.9956 16.89C21.0056 16.76 21.0156 16.62 21.0156 16.48V10.4C21.0156 9.76 20.4356 9.3 19.8156 9.42ZM12.2956 15.25C11.7656 16.92 9.94563 17.82 9.31563 17.82C8.67563 17.82 6.88562 16.94 6.34562 15.25H6.33563C5.98563 14.14 6.38562 12.69 7.65562 12.28C8.23562 12.09 8.85563 12.2 9.30562 12.55C9.75562 12.2 10.3856 12.09 10.9756 12.28C12.2456 12.69 12.6456 14.14 12.2956 15.25Z" fill="#171717"/>
</svg>
