<svg width="25" height="24" viewBox="0 0 25 24" fill="none" xmlns="http://www.w3.org/2000/svg">
<path d="M19.0156 8C20.6725 8 22.0156 6.65685 22.0156 5C22.0156 3.34315 20.6725 2 19.0156 2C17.3588 2 16.0156 3.34315 16.0156 5C16.0156 6.65685 17.3588 8 19.0156 8Z" fill="#171717"/>
<path d="M21.0156 10.4V16.48C21.0156 16.62 21.0056 16.76 20.9956 16.89C20.9856 17.01 20.9756 17.12 20.9556 17.24C20.9456 17.36 20.9256 17.48 20.9056 17.59C20.5556 20.01 19.0156 21.54 16.6056 21.89C16.4956 21.91 16.3756 21.93 16.2556 21.94C16.1356 21.96 16.0256 21.97 15.9056 21.98C15.7756 21.99 15.6356 22 15.4956 22H7.53562C7.39563 22 7.25563 21.99 7.12563 21.98C7.00563 21.97 6.89563 21.96 6.77563 21.94C6.65563 21.93 6.53562 21.91 6.42562 21.89C4.01562 21.54 2.47562 20.01 2.12562 17.59C2.10562 17.48 2.08562 17.36 2.07562 17.24C2.05562 17.12 2.04562 17.01 2.03562 16.89C2.02562 16.76 2.01562 16.62 2.01562 16.48V8.52C2.01562 8.38 2.02562 8.24 2.03562 8.11C2.04562 7.99 2.05562 7.88 2.07562 7.76C2.08562 7.64 2.10562 7.52 2.12562 7.41C2.47562 4.99 4.01562 3.46 6.42562 3.11C6.53562 3.09 6.65563 3.07 6.77563 3.06C6.89563 3.04 7.00563 3.03 7.12563 3.02C7.25563 3.01 7.39563 3 7.53562 3H13.6156C14.2556 3 14.7156 3.58 14.5956 4.2C14.5956 4.22 14.5856 4.24 14.5856 4.26C14.5656 4.36 14.5556 4.46 14.5356 4.57C14.4956 4.99 14.5156 5.44 14.6056 5.9C14.6356 6.02 14.6556 6.12 14.6956 6.23C14.7756 6.56 14.9056 6.87 15.0756 7.16C15.1356 7.28 15.2156 7.4 15.2856 7.51C15.6156 7.99 16.0256 8.4 16.5056 8.73C16.6156 8.8 16.7356 8.88 16.8556 8.94C17.1456 9.11 17.4556 9.24 17.7856 9.32C17.8956 9.36 17.9956 9.38 18.1156 9.41C18.5756 9.5 19.0256 9.52 19.4456 9.48C19.5556 9.46 19.6556 9.45 19.7556 9.43C19.7756 9.43 19.7956 9.42 19.8156 9.42C20.4356 9.3 21.0156 9.76 21.0156 10.4Z" fill="#171717"/>
</svg>
