<svg width="24" height="24" viewBox="0 0 24 24" fill="none" xmlns="http://www.w3.org/2000/svg">
<path d="M14.15 22H9.82998C8.28998 22 7.14998 20.75 7.44998 19.42L7.96998 17.1C8.06998 16.64 8.47998 16.32 8.94998 16.32H15.04C15.51 16.32 15.91 16.64 16.02 17.1L16.54 19.41C16.86 20.84 15.79 22 14.15 22Z" fill="#171717"/>
<path d="M18.8198 13.69L17.7498 14.63C17.3798 14.95 16.9098 15.13 16.4298 15.13H7.58983C7.09983 15.13 6.61983 14.95 6.25983 14.62L5.20983 13.68C3.48983 12.27 3.47983 11.19 4.79983 9.53L10.0298 2.92C10.0664 2.87094 10.1039 2.82374 10.1423 2.77836C10.5832 2.25735 11.2698 2.70487 11.2698 3.38743V6.86C11.2598 7.29 11.5998 7.63 12.0198 7.62C12.4398 7.63 12.7698 7.29 12.7798 6.86V3.38743C12.7798 2.70487 13.4562 2.2676 13.9088 2.77848C13.9463 2.82077 13.9833 2.8646 14.0198 2.91L19.2298 9.53C20.5298 11.19 20.4798 12.22 18.8198 13.69Z" fill="#171717"/>
</svg>
