<svg width="25" height="24" viewBox="0 0 25 24" fill="none" xmlns="http://www.w3.org/2000/svg">
<path d="M12.47 2C6.94997 2 2.46997 6.48 2.46997 12C2.46997 17.52 6.94997 22 12.47 22C17.99 22 22.47 17.52 22.47 12C22.47 6.48 18 2 12.47 2ZM11.22 15.03C11.22 15.51 11.02 15.7 10.51 15.7H9.20997C8.69997 15.7 8.49997 15.51 8.49997 15.03V8.97C8.49997 8.49 8.69997 8.3 9.20997 8.3H10.5C11.01 8.3 11.21 8.49 11.21 8.97V15.03H11.22ZM16.5 15.03C16.5 15.51 16.3 15.7 15.79 15.7H14.5C13.99 15.7 13.79 15.51 13.79 15.03V8.97C13.79 8.49 13.99 8.3 14.5 8.3H15.79C16.3 8.3 16.5 8.49 16.5 8.97V15.03Z" fill="#171717"/>
</svg>
