<svg width="24" height="24" viewBox="0 0 24 24" fill="none" xmlns="http://www.w3.org/2000/svg">
<path d="M19.0002 7C19.0002 7.18 18.9902 7.34999 18.9702 7.51999C18.8502 8.96999 18.2102 10.28 17.2402 11.24C16.1602 12.33 14.6602 13 13.0002 13H9.87021C9.37021 13 8.95022 13.37 8.88022 13.86L8.12021 19.14C8.06021 19.53 7.78022 19.85 7.41022 19.95C7.32022 19.99 7.23022 20 7.13022 20H5.1802C4.5602 20 4.09021 19.45 4.19021 18.84L6.5802 4.51001C6.8202 3.06001 8.07022 2 9.54022 2H14.0002C16.7602 2 19.0002 4.24 19.0002 7Z" fill="#171717"/>
<path d="M21.0002 10.9999C21.0002 12.3799 20.4402 13.6299 19.5402 14.5399C18.6302 15.4399 17.3802 15.9999 16.0002 15.9999H13.8502C13.3602 15.9999 12.9402 16.3499 12.8602 16.8399L12.1402 21.1599C12.0602 21.6499 11.6402 21.9999 11.1502 21.9999H8.22023C8.04023 21.9999 7.88022 21.9599 7.74022 21.8799C7.52022 21.7599 7.66022 21.4699 7.90022 21.3699C8.80022 21.0799 9.46023 20.3099 9.60023 19.3499L10.2402 14.9299C10.2802 14.6799 10.4902 14.4999 10.7302 14.4999H13.0002C15.0102 14.4999 16.9002 13.7199 18.3002 12.3099C19.1302 11.4899 19.7502 10.4799 20.1102 9.38992C20.1902 9.13992 20.5202 9.08991 20.6302 9.31991C20.8702 9.83991 21.0002 10.3999 21.0002 10.9999Z" fill="#171717"/>
</svg>
