<svg width="25" height="24" viewBox="0 0 25 24" fill="none" xmlns="http://www.w3.org/2000/svg">
<path d="M16.2134 2H7.83344C4.19344 2 2.02344 4.17 2.02344 7.81V16.18C2.02344 19.83 4.19344 22 7.83344 22H16.2034C19.8434 22 22.0134 19.83 22.0134 16.19V7.81C22.0234 4.17 19.8534 2 16.2134 2ZM7.77344 9.14C7.77344 8.33 8.43344 7.66 9.25344 7.66C10.0634 7.66 10.7334 8.32 10.7334 9.14C10.7334 9.95 10.0734 10.62 9.25344 10.62C8.43344 10.61 7.77344 9.95 7.77344 9.14ZM8.84344 16.02C8.65344 16.02 8.46344 15.95 8.31344 15.8C8.02344 15.51 8.02344 15.04 8.31344 14.74L14.8634 8.19C15.1534 7.9 15.6334 7.9 15.9234 8.19C16.2134 8.48 16.2134 8.96 15.9234 9.25L9.37344 15.8C9.22344 15.95 9.03344 16.02 8.84344 16.02ZM15.7934 16.34C14.9834 16.34 14.3134 15.68 14.3134 14.86C14.3134 14.05 14.9734 13.38 15.7934 13.38C16.6034 13.38 17.2734 14.04 17.2734 14.86C17.2734 15.68 16.6134 16.34 15.7934 16.34Z" fill="#171717"/>
</svg>
