<svg width="25" height="24" viewBox="0 0 25 24" fill="none" xmlns="http://www.w3.org/2000/svg">
<path d="M12.0244 2C6.50441 2 2.02441 6.48 2.02441 12C2.02441 17.52 6.50441 22 12.0244 22C17.5444 22 22.0244 17.52 22.0244 12C22.0244 6.48 17.5444 2 12.0244 2ZM8.75441 7.66C9.56441 7.66 10.2344 8.32 10.2344 9.14C10.2344 9.95 9.57441 10.62 8.75441 10.62C7.94441 10.62 7.27441 9.96 7.27441 9.14C7.27441 8.32 7.93441 7.66 8.75441 7.66ZM8.87441 15.8C8.72441 15.95 8.53441 16.02 8.34441 16.02C8.15441 16.02 7.96441 15.95 7.81441 15.8C7.52441 15.51 7.52441 15.03 7.81441 14.74L14.3644 8.19C14.6544 7.9 15.1344 7.9 15.4244 8.19C15.7144 8.48 15.7144 8.96 15.4244 9.25L8.87441 15.8ZM15.2944 16.34C14.4844 16.34 13.8144 15.68 13.8144 14.86C13.8144 14.05 14.4744 13.38 15.2944 13.38C16.1044 13.38 16.7744 14.04 16.7744 14.86C16.7744 15.68 16.1144 16.34 15.2944 16.34Z" fill="#171717"/>
</svg>
