<svg width="25" height="24" viewBox="0 0 25 24" fill="none" xmlns="http://www.w3.org/2000/svg">
<path d="M18.0156 3H6.01562C3.80562 3 2.01562 4.78 2.01562 6.97V17.03C2.01562 19.22 3.80562 21 6.01562 21H18.0156C20.2256 21 22.0156 19.22 22.0156 17.03V6.97C22.0156 4.78 20.2256 3 18.0156 3ZM8.51562 7.17C9.78562 7.17 10.8256 8.21 10.8256 9.48C10.8256 10.75 9.78562 11.79 8.51562 11.79C7.24563 11.79 6.20563 10.75 6.20563 9.48C6.20563 8.21 7.24563 7.17 8.51562 7.17ZM12.3856 16.66C12.2956 16.76 12.1556 16.82 12.0156 16.82H5.01562C4.87562 16.82 4.73563 16.76 4.64563 16.66C4.55563 16.56 4.50563 16.42 4.51562 16.28C4.68563 14.6 6.02563 13.27 7.70563 13.11C8.23563 13.06 8.78563 13.06 9.31563 13.11C10.9956 13.27 12.3456 14.6 12.5056 16.28C12.5256 16.42 12.4756 16.56 12.3856 16.66ZM19.0156 16.75H17.0156C16.6056 16.75 16.2656 16.41 16.2656 16C16.2656 15.59 16.6056 15.25 17.0156 15.25H19.0156C19.4256 15.25 19.7656 15.59 19.7656 16C19.7656 16.41 19.4256 16.75 19.0156 16.75ZM19.0156 12.75H15.0156C14.6056 12.75 14.2656 12.41 14.2656 12C14.2656 11.59 14.6056 11.25 15.0156 11.25H19.0156C19.4256 11.25 19.7656 11.59 19.7656 12C19.7656 12.41 19.4256 12.75 19.0156 12.75ZM19.0156 8.75H14.0156C13.6056 8.75 13.2656 8.41 13.2656 8C13.2656 7.59 13.6056 7.25 14.0156 7.25H19.0156C19.4256 7.25 19.7656 7.59 19.7656 8C19.7656 8.41 19.4256 8.75 19.0156 8.75Z" fill="#171717"/>
</svg>
