<svg width="25" height="24" viewBox="0 0 25 24" fill="none" xmlns="http://www.w3.org/2000/svg">
<path d="M21.78 15.72C21.13 15.27 20.34 15 19.5 15C18.56 15 17.69 15.33 17 15.88C16.08 16.61 15.5 17.74 15.5 19C15.5 19.75 15.71 20.46 16.08 21.06C16.12 21.13 16.17 21.2 16.23 21.27C16.93 22.31 18.13 23 19.5 23C20.51 23 21.43 22.63 22.13 22C22.44 21.74 22.71 21.42 22.92 21.06C23.29 20.46 23.5 19.75 23.5 19C23.5 17.64 22.82 16.44 21.78 15.72ZM21.1 20.58C20.95 20.73 20.76 20.8 20.57 20.8C20.38 20.8 20.19 20.73 20.04 20.58L19.51 20.05L18.96 20.6C18.81 20.75 18.62 20.82 18.43 20.82C18.24 20.82 18.05 20.75 17.9 20.6C17.61 20.31 17.61 19.83 17.9 19.54L18.45 18.99L17.92 18.46C17.63 18.17 17.63 17.69 17.92 17.4C18.21 17.11 18.69 17.11 18.98 17.4L19.51 17.93L20.01 17.43C20.3 17.14 20.78 17.14 21.07 17.43C21.36 17.72 21.36 18.2 21.07 18.49L20.57 18.99L21.1 19.52C21.39 19.81 21.39 20.28 21.1 20.58Z" fill="#171717"/>
<path d="M22.35 10.2499C21.57 5.79992 17.74 2.34992 13.23 2.02992C7.12996 1.58992 2.08996 6.63991 2.52996 12.7299C2.84996 17.2399 6.29996 21.0599 10.75 21.8399C11.9 22.0399 13.02 22.0399 14.09 21.8599C14.4 21.8099 14.58 21.4699 14.46 21.1899C14.16 20.5099 14 19.7599 14 18.9899C14 17.2999 14.75 15.7399 16.07 14.6999C17.04 13.9199 18.26 13.4899 19.5 13.4899C20.28 13.4899 21.02 13.6499 21.69 13.9499C21.98 14.0799 22.31 13.8899 22.37 13.5799C22.55 12.5199 22.55 11.3999 22.35 10.2499ZM15 13.5699L13.8 14.2599L12.6 14.9499C11.11 15.8099 9.88996 15.1099 9.88996 13.3799V11.9999V10.6099C9.88996 8.88991 11.11 8.17992 12.6 9.03992L13.8 9.72992L15 10.4199C16.49 11.2999 16.49 12.6999 15 13.5699Z" fill="#171717"/>
</svg>
