<svg width="25" height="24" viewBox="0 0 25 24" fill="none" xmlns="http://www.w3.org/2000/svg">
<path d="M17.99 9.59989L6.1 16.7699C5.4 17.1899 4.5 16.6899 4.5 15.8699V7.86989C4.5 4.37989 8.27 2.19989 11.3 3.93989L15.89 6.57989L17.98 7.77989C18.67 8.18989 18.68 9.18989 17.99 9.59989Z" fill="#171717"/>
<path d="M18.5901 15.4599L14.5401 17.7999L10.5001 20.1299C9.05005 20.9599 7.41005 20.7899 6.22005 19.9499C5.64005 19.5499 5.71006 18.6599 6.32006 18.2999L19.0301 10.6799C19.6301 10.3199 20.4201 10.6599 20.5301 11.3499C20.7801 12.8999 20.1401 14.5699 18.5901 15.4599Z" fill="#171717"/>
</svg>
