<svg width="25" height="24" viewBox="0 0 25 24" fill="none" xmlns="http://www.w3.org/2000/svg">
<path d="M22.0156 2.75H2.01562C1.60563 2.75 1.26562 2.41 1.26562 2C1.26562 1.59 1.60563 1.25 2.01562 1.25H22.0156C22.4256 1.25 22.7656 1.59 22.7656 2C22.7656 2.41 22.4256 2.75 22.0156 2.75Z" fill="#171717"/>
<path d="M16.6856 22.34C16.5556 22.6 16.2856 22.75 16.0156 22.75C15.9056 22.75 15.7856 22.72 15.6856 22.67L12.0156 20.84L8.34564 22.67C8.24564 22.72 8.12564 22.75 8.01564 22.75C7.74564 22.75 7.47564 22.6 7.34564 22.34C7.15564 21.96 7.30564 21.51 7.68564 21.33L11.2656 19.54V17H12.7656V19.54L16.3456 21.33C16.7256 21.51 16.8756 21.96 16.6856 22.34Z" fill="#171717"/>
<path d="M3.01562 2V14.1C3.01562 16 4.01563 17 5.91563 17H18.1156C20.0156 17 21.0156 16 21.0156 14.1V2H3.01562ZM16.9956 8.58L13.8456 11.21C13.5556 11.45 13.1856 11.55 12.8356 11.49C12.4756 11.43 12.1656 11.21 11.9756 10.89L10.9256 9.14L7.99563 11.58C7.85563 11.7 7.68563 11.75 7.51562 11.75C7.30562 11.75 7.08563 11.66 6.93563 11.48C6.66563 11.16 6.71563 10.69 7.03562 10.42L10.1856 7.79C10.4756 7.55 10.8456 7.45 11.1956 7.51C11.5556 7.57 11.8656 7.79 12.0556 8.11L13.1056 9.86L16.0356 7.42C16.3556 7.15 16.8256 7.2 17.0956 7.52C17.3556 7.84 17.3156 8.31 16.9956 8.58Z" fill="#171717"/>
</svg>
