<svg width="25" height="24" viewBox="0 0 25 24" fill="none" xmlns="http://www.w3.org/2000/svg">
<path d="M8.25 2V5H7.5C7.24 5 6.99 5.01 6.75 5.05V2C6.75 1.59 7.09 1.25 7.5 1.25C7.91 1.25 8.25 1.59 8.25 2Z" fill="#171717"/>
<path d="M17.5 5H7.5C7.24 5 6.99 5.01 6.75 5.05C4.17 5.35 2.5 7.26 2.5 10V17C2.5 20 4.5 22 7.5 22H17.5C20.5 22 22.5 20 22.5 17V10C22.5 7 20.5 5 17.5 5ZM8.38 16C7 16 5.88 14.88 5.88 13.5C5.88 12.12 7 11 8.38 11C9.76 11 10.88 12.12 10.88 13.5C10.88 14.88 9.76 16 8.38 16ZM14.88 16.25H14.38C13.97 16.25 13.63 15.91 13.63 15.5C13.63 15.09 13.97 14.75 14.38 14.75H14.88C15.29 14.75 15.63 15.09 15.63 15.5C15.63 15.91 15.29 16.25 14.88 16.25ZM18.38 16.25H17.88C17.47 16.25 17.13 15.91 17.13 15.5C17.13 15.09 17.47 14.75 17.88 14.75H18.38C18.79 14.75 19.13 15.09 19.13 15.5C19.13 15.91 18.79 16.25 18.38 16.25ZM18.38 12.25H14.38C13.97 12.25 13.63 11.91 13.63 11.5C13.63 11.09 13.97 10.75 14.38 10.75H18.38C18.79 10.75 19.13 11.09 19.13 11.5C19.13 11.91 18.79 12.25 18.38 12.25Z" fill="#171717"/>
</svg>
