<svg width="25" height="24" viewBox="0 0 25 24" fill="none" xmlns="http://www.w3.org/2000/svg">
<path d="M13.3156 8.10995L14.6356 10.7499C14.8156 11.1099 15.2956 11.4699 15.6956 11.5299L18.0856 11.93C19.6156 12.1899 19.9756 13.29 18.8756 14.39L17.0156 16.2599C16.7056 16.57 16.5256 17.18 16.6256 17.62L17.1556 19.9299C17.5756 21.7499 16.6056 22.4599 14.9956 21.5099L12.7556 20.1799C12.3456 19.9399 11.6856 19.9399 11.2756 20.1799L9.0256 21.4999C7.4156 22.4499 6.4456 21.7399 6.8656 19.9199L7.3956 17.61C7.4956 17.1799 7.3156 16.5699 7.0056 16.2499L5.1556 14.3999C4.0556 13.2999 4.4156 12.1899 5.9456 11.9399L8.3356 11.5399C8.7356 11.4699 9.2156 11.1199 9.3956 10.7599L10.7156 8.11995C11.4256 6.67995 12.6056 6.67995 13.3156 8.10995Z" fill="#171717"/>
<path d="M6.01562 9.75C5.60563 9.75 5.26562 9.41 5.26562 9V2C5.26562 1.59 5.60563 1.25 6.01562 1.25C6.42562 1.25 6.76562 1.59 6.76562 2V9C6.76562 9.41 6.42562 9.75 6.01562 9.75Z" fill="#171717"/>
<path d="M18.0156 9.75C17.6056 9.75 17.2656 9.41 17.2656 9V2C17.2656 1.59 17.6056 1.25 18.0156 1.25C18.4256 1.25 18.7656 1.59 18.7656 2V9C18.7656 9.41 18.4256 9.75 18.0156 9.75Z" fill="#171717"/>
<path d="M12.0156 4.75C11.6056 4.75 11.2656 4.41 11.2656 4V2C11.2656 1.59 11.6056 1.25 12.0156 1.25C12.4256 1.25 12.7656 1.59 12.7656 2V4C12.7656 4.41 12.4256 4.75 12.0156 4.75Z" fill="#171717"/>
</svg>
