<svg width="24" height="24" viewBox="0 0 24 24" fill="none" xmlns="http://www.w3.org/2000/svg">
<path d="M7.00293 2H6.00293C3.00293 2 2.00293 3.79 2.00293 6V7V21C2.00293 21.83 2.94293 22.3 3.60293 21.8L5.31293 20.52C5.71293 20.22 6.27293 20.26 6.63293 20.62L8.29293 22.29C8.68293 22.68 9.32293 22.68 9.71293 22.29L11.3929 20.61C11.7429 20.26 12.3029 20.22 12.6929 20.52L14.4029 21.8C15.0629 22.29 16.0029 21.82 16.0029 21V4C16.0029 2.9 16.9029 2 18.0029 2H7.00293ZM11.7529 10.75H6.25293C5.84293 10.75 5.50293 10.41 5.50293 10C5.50293 9.59 5.84293 9.25 6.25293 9.25H11.7529C12.1629 9.25 12.5029 9.59 12.5029 10C12.5029 10.41 12.1629 10.75 11.7529 10.75Z" fill="#171717"/>
<path d="M18.0129 2V3.5C18.6729 3.5 19.3029 3.77 19.7629 4.22C20.2429 4.71 20.5029 5.34 20.5029 6V8.42C20.5029 9.16 20.1729 9.5 19.4229 9.5H17.5029V4.01C17.5029 3.73 17.7329 3.5 18.0129 3.5V2ZM18.0129 2C16.9029 2 16.0029 2.9 16.0029 4.01V11H19.4229C21.0029 11 22.0029 10 22.0029 8.42V6C22.0029 4.9 21.5529 3.9 20.8329 3.17C20.1029 2.45 19.1129 2.01 18.0129 2C18.0229 2 18.0129 2 18.0129 2Z" fill="#171717"/>
</svg>
