<svg width="25" height="24" viewBox="0 0 25 24" fill="none" xmlns="http://www.w3.org/2000/svg">
<path d="M15.8235 2H8.26346C4.48346 2 3.54346 3.01 3.54346 7.04V18.3C3.54346 20.96 5.00346 21.59 6.77346 19.69L6.78346 19.68C7.60346 18.81 8.85346 18.88 9.56346 19.83L10.5735 21.18C11.3835 22.25 12.6935 22.25 13.5035 21.18L14.5135 19.83C15.2335 18.87 16.4835 18.8 17.3035 19.68C19.0835 21.58 20.5335 20.95 20.5335 18.29V7.04C20.5435 3.01 19.6035 2 15.8235 2ZM15.0435 11.75H9.04346C8.63346 11.75 8.29346 11.41 8.29346 11C8.29346 10.59 8.63346 10.25 9.04346 10.25H15.0435C15.4535 10.25 15.7935 10.59 15.7935 11C15.7935 11.41 15.4535 11.75 15.0435 11.75ZM16.0435 7.75H8.04346C7.63346 7.75 7.29346 7.41 7.29346 7C7.29346 6.59 7.63346 6.25 8.04346 6.25H16.0435C16.4535 6.25 16.7935 6.59 16.7935 7C16.7935 7.41 16.4535 7.75 16.0435 7.75Z" fill="#171717"/>
</svg>
