<svg width="25" height="24" viewBox="0 0 25 24" fill="none" xmlns="http://www.w3.org/2000/svg">
<path d="M16.2056 2H7.82562C4.18562 2 2.01562 4.17 2.01562 7.81V16.18C2.01562 19.83 4.18562 22 7.82562 22H16.1956C19.8356 22 22.0056 19.83 22.0056 16.19V7.81C22.0156 4.17 19.8456 2 16.2056 2ZM17.0156 15.71C17.0156 17.28 16.1556 17.65 15.1156 16.53C14.6356 16.02 13.8956 16.06 13.4756 16.62L12.8856 17.41C12.4156 18.04 11.6356 18.04 11.1656 17.41L10.5656 16.61C10.1456 16.05 9.40562 16.01 8.92562 16.52C7.87562 17.64 7.01562 17.27 7.01562 15.71V9.08C7.01562 6.71 7.57562 6.12 9.79562 6.12H14.2356C16.4556 6.12 17.0156 6.71 17.0156 9.08V15.71Z" fill="#171717"/>
</svg>
