<svg width="24" height="24" viewBox="0 0 24 24" fill="none" xmlns="http://www.w3.org/2000/svg">
<path d="M18.0198 2V3.5C18.6798 3.5 19.3098 3.77 19.7698 4.22C20.2498 4.71 20.5098 5.34 20.5098 6V8.42C20.5098 9.16 20.1798 9.5 19.4298 9.5H17.5098V4.01C17.5098 3.73 17.7398 3.5 18.0198 3.5V2ZM18.0198 2C16.9098 2 16.0098 2.9 16.0098 4.01V11H19.4298C21.0098 11 22.0098 10 22.0098 8.42V6C22.0098 4.9 21.5598 3.9 20.8398 3.17C20.1098 2.45 19.1198 2.01 18.0198 2C18.0298 2 18.0198 2 18.0198 2Z" fill="#171717"/>
<path d="M7.00977 2H6.00977C3.00977 2 2.00977 3.79 2.00977 6V7V21C2.00977 21.83 2.94977 22.3 3.60977 21.8L5.31977 20.52C5.71977 20.22 6.27977 20.26 6.63977 20.62L8.29977 22.29C8.68977 22.68 9.32977 22.68 9.71977 22.29L11.3998 20.61C11.7498 20.26 12.3098 20.22 12.6998 20.52L14.4098 21.8C15.0698 22.29 16.0098 21.82 16.0098 21V4C16.0098 2.9 16.9098 2 18.0098 2H7.00977ZM11.7598 10.75H9.75977V12.75C9.75977 13.16 9.41977 13.5 9.00977 13.5C8.59977 13.5 8.25977 13.16 8.25977 12.75V10.75H6.25977C5.84977 10.75 5.50977 10.41 5.50977 10C5.50977 9.59 5.84977 9.25 6.25977 9.25H8.25977V7.25C8.25977 6.84 8.59977 6.5 9.00977 6.5C9.41977 6.5 9.75977 6.84 9.75977 7.25V9.25H11.7598C12.1698 9.25 12.5098 9.59 12.5098 10C12.5098 10.41 12.1698 10.75 11.7598 10.75Z" fill="#171717"/>
</svg>
