<svg width="25" height="24" viewBox="0 0 25 24" fill="none" xmlns="http://www.w3.org/2000/svg">
<path d="M15.8252 2H8.26517C4.48517 2 3.54517 3.01 3.54517 7.04V18.3C3.54517 20.96 5.00517 21.59 6.77517 19.69L6.78517 19.68C7.60517 18.81 8.85517 18.88 9.56517 19.83L10.5752 21.18C11.3852 22.25 12.6952 22.25 13.5052 21.18L14.5152 19.83C15.2352 18.87 16.4852 18.8 17.3052 19.68C19.0852 21.58 20.5352 20.95 20.5352 18.29V7.04C20.5452 3.01 19.6052 2 15.8252 2ZM7.82517 12C7.27517 12 6.82517 11.55 6.82517 11C6.82517 10.45 7.27517 10 7.82517 10C8.37517 10 8.82517 10.45 8.82517 11C8.82517 11.55 8.37517 12 7.82517 12ZM7.82517 8C7.27517 8 6.82517 7.55 6.82517 7C6.82517 6.45 7.27517 6 7.82517 6C8.37517 6 8.82517 6.45 8.82517 7C8.82517 7.55 8.37517 8 7.82517 8ZM16.2752 11.75H10.7752C10.3652 11.75 10.0252 11.41 10.0252 11C10.0252 10.59 10.3652 10.25 10.7752 10.25H16.2752C16.6852 10.25 17.0252 10.59 17.0252 11C17.0252 11.41 16.6852 11.75 16.2752 11.75ZM16.2752 7.75H10.7752C10.3652 7.75 10.0252 7.41 10.0252 7C10.0252 6.59 10.3652 6.25 10.7752 6.25H16.2752C16.6852 6.25 17.0252 6.59 17.0252 7C17.0252 7.41 16.6852 7.75 16.2752 7.75Z" fill="#171717"/>
</svg>
