<svg width="25" height="24" viewBox="0 0 25 24" fill="none" xmlns="http://www.w3.org/2000/svg">
<path d="M15.8171 2H8.25711C4.47711 2 3.53711 3.01 3.53711 7.04V18.3C3.53711 20.96 4.99711 21.59 6.76711 19.69L6.77711 19.68C7.59711 18.81 8.84711 18.88 9.55711 19.83L10.5671 21.18C11.3771 22.25 12.6871 22.25 13.4971 21.18L14.5071 19.83C15.2271 18.87 16.4771 18.8 17.2971 19.68C19.0771 21.58 20.5271 20.95 20.5271 18.29V7.04C20.5371 3.01 19.5971 2 15.8171 2ZM15.6971 14.53C15.5471 14.68 15.3571 14.75 15.1671 14.75C14.9771 14.75 14.7871 14.68 14.6371 14.53L13.8971 13.79C13.3171 14.17 12.6171 14.4 11.8671 14.4C9.82711 14.4 8.16711 12.74 8.16711 10.7C8.16711 8.66 9.81711 7 11.8671 7C13.9171 7 15.5671 8.66 15.5671 10.7C15.5671 11.45 15.3371 12.15 14.9571 12.73L15.6971 13.47C15.9871 13.76 15.9871 14.24 15.6971 14.53Z" fill="#171717"/>
</svg>
