<svg width="25" height="24" viewBox="0 0 25 24" fill="none" xmlns="http://www.w3.org/2000/svg">
<path d="M19.5574 3.67C19.5574 3.66 19.5574 3.65 19.5374 3.64C19.3174 3.36 19.0274 3.21 18.6874 3.21C18.1574 3.21 17.5174 3.56 16.8274 4.3C16.0074 5.18 14.7474 5.11 14.0274 4.15L13.0174 2.81C12.6174 2.27 12.0874 2 11.5574 2C11.0274 2 10.4974 2.27 10.0974 2.81L9.07737 4.16C8.36737 5.11 7.11737 5.18 6.29737 4.31L6.28737 4.3C5.15737 3.09 4.14737 2.91 3.57737 3.64C3.55737 3.65 3.55737 3.66 3.55737 3.67C3.19737 4.44 3.05737 5.52 3.05737 7.04V16.96C3.05737 18.48 3.19737 19.56 3.55737 20.33C3.55737 20.34 3.56737 20.36 3.57737 20.37C4.15737 21.09 5.15737 20.91 6.28737 19.7L6.29737 19.69C7.11737 18.82 8.36737 18.89 9.07737 19.84L10.0974 21.19C10.4974 21.73 11.0274 22 11.5574 22C12.0874 22 12.6174 21.73 13.0174 21.19L14.0274 19.85C14.7474 18.89 16.0074 18.82 16.8274 19.7C17.5174 20.44 18.1574 20.79 18.6874 20.79C19.0274 20.79 19.3174 20.65 19.5374 20.37C19.5474 20.36 19.5574 20.34 19.5574 20.33C19.9174 19.56 20.0574 18.48 20.0574 16.96V7.04C20.0574 5.52 19.9174 4.44 19.5574 3.67ZM14.0574 14.5H8.05737C7.64737 14.5 7.30737 14.16 7.30737 13.75C7.30737 13.34 7.64737 13 8.05737 13H14.0574C14.4674 13 14.8074 13.34 14.8074 13.75C14.8074 14.16 14.4674 14.5 14.0574 14.5ZM16.0574 11H8.05737C7.64737 11 7.30737 10.66 7.30737 10.25C7.30737 9.84 7.64737 9.5 8.05737 9.5H16.0574C16.4674 9.5 16.8074 9.84 16.8074 10.25C16.8074 10.66 16.4674 11 16.0574 11Z" fill="#171717"/>
</svg>
