<svg width="25" height="24" viewBox="0 0 25 24" fill="none" xmlns="http://www.w3.org/2000/svg">
<path d="M2.05908 7V21C2.05908 21.83 2.99908 22.3 3.65908 21.8L5.36908 20.52C5.76908 20.22 6.32908 20.26 6.68908 20.62L8.34908 22.29C8.73908 22.68 9.37908 22.68 9.76908 22.29L11.4491 20.61C11.7991 20.26 12.3591 20.22 12.7491 20.52L14.4591 21.8C15.1191 22.29 16.0591 21.82 16.0591 21V4C16.0591 2.9 16.9591 2 18.0591 2H7.05908H6.05908C3.05908 2 2.05908 3.79 2.05908 6V7Z" fill="#171717"/>
<path d="M18.0691 2V3.5C18.7291 3.5 19.3591 3.77 19.8191 4.22C20.2991 4.71 20.5591 5.34 20.5591 6V8.42C20.5591 9.16 20.2291 9.5 19.4791 9.5H17.5591V4.01C17.5591 3.73 17.7891 3.5 18.0691 3.5V2ZM18.0691 2C16.9591 2 16.0591 2.9 16.0591 4.01V11H19.4791C21.0591 11 22.0591 10 22.0591 8.42V6C22.0591 4.9 21.6091 3.9 20.8891 3.17C20.1591 2.45 19.1691 2.01 18.0691 2C18.0791 2 18.0691 2 18.0691 2Z" fill="#171717"/>
</svg>
