<svg width="24" height="24" viewBox="0 0 24 24" fill="none" xmlns="http://www.w3.org/2000/svg">
<path d="M7.00684 2H6.00684C3.00684 2 2.00684 3.79 2.00684 6V7V21C2.00684 21.83 2.94684 22.3 3.60684 21.8L5.31684 20.52C5.71684 20.22 6.27684 20.26 6.63684 20.62L8.29684 22.29C8.68684 22.68 9.32684 22.68 9.71684 22.29L11.3968 20.61C11.7468 20.26 12.3068 20.22 12.6968 20.52L14.4068 21.8C15.0668 22.29 16.0068 21.82 16.0068 21V4C16.0068 2.9 16.9068 2 18.0068 2H7.00684ZM11.2568 13.75H6.75684C6.34684 13.75 6.00684 13.41 6.00684 13C6.00684 12.59 6.34684 12.25 6.75684 12.25H11.2568C11.6668 12.25 12.0068 12.59 12.0068 13C12.0068 13.41 11.6668 13.75 11.2568 13.75ZM12.0068 9.75H6.00684C5.59684 9.75 5.25684 9.41 5.25684 9C5.25684 8.59 5.59684 8.25 6.00684 8.25H12.0068C12.4168 8.25 12.7568 8.59 12.7568 9C12.7568 9.41 12.4168 9.75 12.0068 9.75Z" fill="#171717"/>
<path d="M18.0168 2V3.5C18.6768 3.5 19.3068 3.77 19.7668 4.22C20.2468 4.71 20.5068 5.34 20.5068 6V8.42C20.5068 9.16 20.1768 9.5 19.4268 9.5H17.5068V4.01C17.5068 3.73 17.7368 3.5 18.0168 3.5V2ZM18.0168 2C16.9068 2 16.0068 2.9 16.0068 4.01V11H19.4268C21.0068 11 22.0068 10 22.0068 8.42V6C22.0068 4.9 21.5568 3.9 20.8368 3.17C20.1068 2.45 19.1168 2.01 18.0168 2C18.0268 2 18.0168 2 18.0168 2Z" fill="#171717"/>
</svg>
