<svg width="25" height="24" viewBox="0 0 25 24" fill="none" xmlns="http://www.w3.org/2000/svg">
<path d="M15.8266 2H8.26663C4.48663 2 3.54663 3.01 3.54663 7.04V18.3C3.54663 20.96 5.00663 21.59 6.77663 19.69L6.78663 19.68C7.60663 18.81 8.85663 18.88 9.56663 19.83L10.5766 21.18C11.3866 22.25 12.6966 22.25 13.5066 21.18L14.5166 19.83C15.2366 18.87 16.4866 18.8 17.3066 19.68C19.0866 21.58 20.5366 20.95 20.5366 18.29V7.04C20.5466 3.01 19.6066 2 15.8266 2ZM9.04663 7C9.59663 7 10.0466 7.45 10.0466 8C10.0466 8.55 9.60663 9 9.04663 9C8.48663 9 8.04663 8.55 8.04663 8C8.04663 7.45 8.48663 7 9.04663 7ZM15.0466 14C14.4866 14 14.0466 13.55 14.0466 13C14.0466 12.45 14.4966 12 15.0466 12C15.5966 12 16.0466 12.45 16.0466 13C16.0466 13.55 15.6066 14 15.0466 14ZM15.9466 7.59L9.21663 14.32C9.06663 14.47 8.87663 14.54 8.68663 14.54C8.49663 14.54 8.30663 14.47 8.15663 14.32C7.86663 14.03 7.86663 13.55 8.15663 13.26L14.8866 6.53C15.1766 6.24 15.6566 6.24 15.9466 6.53C16.2366 6.82 16.2366 7.3 15.9466 7.59Z" fill="#171717"/>
</svg>
