<svg width="25" height="24" viewBox="0 0 25 24" fill="none" xmlns="http://www.w3.org/2000/svg">
<path d="M15.8112 2H8.25125C4.47125 2 3.53125 3.01 3.53125 7.04V18.3C3.53125 20.96 4.99125 21.59 6.76125 19.69L6.77125 19.68C7.59125 18.81 8.84125 18.88 9.55125 19.83L10.5612 21.18C11.3712 22.25 12.6812 22.25 13.4913 21.18L14.5013 19.83C15.2213 18.87 16.4713 18.8 17.2913 19.68C19.0712 21.58 20.5212 20.95 20.5212 18.29V7.04C20.5312 3.01 19.5912 2 15.8112 2ZM14.8713 9.99L14.3713 10.5H14.3612L11.3313 13.53C11.2013 13.66 10.9313 13.8 10.7413 13.82L9.39125 14.02C8.90125 14.09 8.56125 13.74 8.63125 13.26L8.82125 11.9C8.85125 11.71 8.98125 11.45 9.11125 11.31L12.1512 8.28L12.6512 7.77C12.9812 7.44 13.3513 7.2 13.7513 7.2C14.0913 7.2 14.4613 7.36 14.8713 7.77C15.7712 8.67 15.4812 9.38 14.8713 9.99Z" fill="#171717"/>
</svg>
