<svg width="25" height="24" viewBox="0 0 25 24" fill="none" xmlns="http://www.w3.org/2000/svg">
<path d="M20.13 7.23991C20.43 7.70991 20.27 8.33991 19.79 8.62991L19.2 8.97991L6.09004 16.8399C5.61004 17.1299 4.98003 16.9699 4.70003 16.4799C3.70003 14.7399 3.25004 12.6199 3.64004 10.3999C4.30004 6.62991 7.40003 3.62991 11.19 3.08991C14.94 2.55991 18.33 4.35991 20.13 7.23991Z" fill="#171717"/>
<path d="M21.39 13.4301C20.71 17.6801 16.95 20.9301 12.64 21.0001C10.74 21.0301 8.98003 20.4801 7.52003 19.4901C6.90003 19.0801 6.92003 18.1601 7.56003 17.7801L19.97 10.4901C20.62 10.1101 21.42 10.5501 21.48 11.3001C21.53 12.0001 21.5 12.7101 21.39 13.4301Z" fill="#171717"/>
</svg>
