<svg width="25" height="24" viewBox="0 0 25 24" fill="none" xmlns="http://www.w3.org/2000/svg">
<path d="M4.41 17.1799C4.22 17.1799 4.03 17.1099 3.88 16.9599C2.51 15.5799 1.75 13.7599 1.75 11.8299C1.75 7.81993 5 4.55993 9 4.55993L15.07 4.57993L13.98 3.53993C13.68 3.24993 13.67 2.77993 13.96 2.47993C14.25 2.17993 14.72 2.16993 15.02 2.45993L17.46 4.79993C17.68 5.00993 17.75 5.33993 17.64 5.61993C17.53 5.89993 17.25 6.08993 16.94 6.08993L9 6.06993C5.83 6.06993 3.25 8.65993 3.25 11.8399C3.25 13.3699 3.85 14.8199 4.94 15.9099C5.23 16.1999 5.23 16.6799 4.94 16.9699C4.79 17.1099 4.6 17.1799 4.41 17.1799Z" fill="#171717"/>
<path d="M10.5 21.75C10.31 21.75 10.13 21.68 9.98002 21.54L7.54002 19.2C7.32002 18.99 7.25002 18.66 7.36002 18.38C7.48002 18.1 7.76002 17.95 8.06002 17.91L16.01 17.93C19.18 17.93 21.76 15.34 21.76 12.16C21.76 10.63 21.16 9.18 20.07 8.09C19.78 7.8 19.78 7.32 20.07 7.03C20.36 6.74 20.84 6.74 21.13 7.03C22.5 8.41 23.26 10.23 23.26 12.16C23.26 16.17 20.01 19.43 16.01 19.43L9.94002 19.41L11.03 20.45C11.33 20.74 11.34 21.21 11.05 21.51C10.89 21.67 10.7 21.75 10.5 21.75Z" fill="#171717"/>
<path d="M12.75 15.4201C12.34 15.4201 12 15.0801 12 14.6701V11.2801L11.81 11.4901C11.53 11.8001 11.06 11.8201 10.75 11.5501C10.44 11.2801 10.42 10.8001 10.69 10.4901L12.19 8.82007C12.4 8.59007 12.73 8.51007 13.02 8.62007C13.31 8.74007 13.5 9.01007 13.5 9.33007V14.6801C13.5 15.0901 13.16 15.4201 12.75 15.4201Z" fill="#171717"/>
</svg>
