<svg width="25" height="24" viewBox="0 0 25 24" fill="none" xmlns="http://www.w3.org/2000/svg">
<path d="M21.7056 2.71C21.6256 2.53 21.4856 2.38 21.2956 2.3C21.2056 2.27 21.1156 2.25 21.0156 2.25H12.0156C11.6056 2.25 11.2656 2.59 11.2656 3C11.2656 3.41 11.6056 3.75 12.0156 3.75H19.2056L2.48557 20.47C2.19557 20.76 2.19557 21.24 2.48557 21.53C2.63557 21.68 2.82557 21.75 3.01557 21.75C3.20557 21.75 3.39557 21.68 3.54557 21.53L20.2656 4.81V12C20.2656 12.41 20.6056 12.75 21.0156 12.75C21.4256 12.75 21.7656 12.41 21.7656 12V3C21.7656 2.9 21.7456 2.81 21.7056 2.71Z" fill="#171717"/>
<path d="M17.4157 18.15C17.2257 18.15 17.0357 18.08 16.8857 17.93L6.08566 7.13004C5.79566 6.84004 5.79566 6.36004 6.08566 6.07004C6.37566 5.78004 6.85566 5.78004 7.14566 6.07004L17.9457 16.87C18.2357 17.16 18.2357 17.64 17.9457 17.93C17.7957 18.08 17.6057 18.15 17.4157 18.15Z" fill="#171717"/>
</svg>
