<svg width="25" height="24" viewBox="0 0 25 24" fill="none" xmlns="http://www.w3.org/2000/svg">
<path d="M22.0157 5.11V16.47C22.0157 17.92 20.9757 18.53 19.7057 17.83L17.7757 16.75C17.6157 16.66 17.5157 16.49 17.5157 16.31V8.99C17.5157 6.45 15.4457 4.38 12.9057 4.38H8.83571C8.46571 4.38 8.20571 3.99 8.37571 3.67C8.89571 2.68 9.93571 2 11.1257 2H18.9057C20.6157 2 22.0157 3.4 22.0157 5.11Z" fill="#171717"/>
<path d="M12.9056 5.88H5.12563C3.41563 5.88 2.01562 7.28 2.01562 8.99V20.35C2.01562 21.8 3.05562 22.41 4.32562 21.71L8.25562 19.52C8.67562 19.29 9.35563 19.29 9.77563 19.52L13.7056 21.71C14.9756 22.41 16.0156 21.8 16.0156 20.35V8.99C16.0156 7.28 14.6156 5.88 12.9056 5.88ZM10.9556 12.88C11.2456 13.17 11.2456 13.65 10.9556 13.94C10.8056 14.09 10.6156 14.16 10.4256 14.16C10.2356 14.16 10.0456 14.09 9.89563 13.94L9.01562 13.06L8.13562 13.94C7.98562 14.09 7.79563 14.16 7.60563 14.16C7.41563 14.16 7.22563 14.09 7.07562 13.94C6.78562 13.65 6.78562 13.17 7.07562 12.88L7.95563 12L7.07562 11.12C6.78562 10.83 6.78562 10.35 7.07562 10.06C7.36562 9.77001 7.84562 9.77001 8.13562 10.06L9.01562 10.94L9.89563 10.06C10.1856 9.77001 10.6656 9.77001 10.9556 10.06C11.2456 10.35 11.2456 10.83 10.9556 11.12L10.0756 12L10.9556 12.88Z" fill="#171717"/>
</svg>
