<svg width="25" height="24" viewBox="0 0 25 24" fill="none" xmlns="http://www.w3.org/2000/svg">
<path d="M16.69 2H8.31C4.67 2 2.5 4.17 2.5 7.81V16.18C2.5 19.83 4.67 22 8.31 22H16.68C20.32 22 22.49 19.83 22.49 16.19V7.81C22.5 4.17 20.33 2 16.69 2ZM18.26 14.68C18.59 14.93 18.66 15.4 18.41 15.73C18.26 15.93 18.04 16.03 17.81 16.03C17.65 16.03 17.5 15.98 17.36 15.88L13.41 12.93L11 14.73C11.01 14.83 11.03 14.93 11.03 15.03C11.03 16.3 10 17.33 8.73 17.33C7.46 17.33 6.43 16.3 6.43 15.03C6.43 13.76 7.46 12.73 8.73 12.73C9.35 12.73 9.9 12.98 10.31 13.37L12.15 11.99L10.32 10.62C9.91 11.02 9.34 11.27 8.72 11.27C7.45 11.27 6.42 10.24 6.42 8.97C6.42 7.7 7.45 6.67 8.72 6.67C9.99 6.67 11.02 7.7 11.02 8.97C11.02 9.07 11 9.16 10.99 9.25L13.39 11.05L17.34 8.1C17.67 7.85 18.14 7.92 18.39 8.25C18.64 8.58 18.57 9.05 18.24 9.3L14.64 11.99L18.26 14.68Z" fill="#171717"/>
</svg>
