<svg width="25" height="24" viewBox="0 0 25 24" fill="none" xmlns="http://www.w3.org/2000/svg">
<path d="M13.5012 13.38H11.0112C10.7112 13.38 10.4712 13.62 10.4712 13.92C10.4712 14.22 10.7112 14.46 11.0112 14.46H13.5012C13.8012 14.46 14.0412 14.22 14.0412 13.92C14.0412 13.62 13.8012 13.38 13.5012 13.38Z" fill="#171717"/>
<path d="M9.45113 13.38H8.20113C7.90113 13.38 7.66113 13.62 7.66113 13.92C7.66113 14.22 7.90113 14.46 8.20113 14.46H9.45113C9.75113 14.46 9.99113 14.22 9.99113 13.92C9.99113 13.62 9.75113 13.38 9.45113 13.38Z" fill="#171717"/>
<path d="M18.551 4.21994L13.051 2.15994C12.481 1.94994 11.551 1.94994 10.981 2.15994L5.48103 4.21994C4.42104 4.61994 3.56104 5.85994 3.56104 6.98994V15.0899C3.56104 15.8999 4.09104 16.9699 4.74104 17.4499L10.241 21.5599C11.211 22.2899 12.801 22.2899 13.771 21.5599L19.271 17.4499C19.921 16.9599 20.451 15.8999 20.451 15.0899V6.98994C20.461 5.85994 19.601 4.61994 18.551 4.21994ZM18.181 13.6499C18.161 15.7199 17.591 16.2399 15.441 16.2399H8.59103C6.40103 16.2399 5.85104 15.6999 5.85104 13.5299V11.1999C5.85104 10.9199 6.07104 10.6999 6.35104 10.6999H17.681C17.961 10.6999 18.181 10.9199 18.181 11.1999V13.6499ZM18.181 9.10994C18.181 9.38994 17.961 9.60994 17.681 9.60994H6.35104C6.07104 9.60994 5.85104 9.38994 5.85104 9.10994V8.46994C5.85104 6.50994 6.31104 5.87994 8.02104 5.76994C8.20104 5.76994 8.39104 5.75994 8.59103 5.75994H15.441C17.631 5.75994 18.181 6.29994 18.181 8.46994V9.10994Z" fill="#171717"/>
</svg>
