<svg width="25" height="24" viewBox="0 0 25 24" fill="none" xmlns="http://www.w3.org/2000/svg">
<path d="M21.3156 7.58005H15.7356C15.3456 7.58005 15.0356 7.27005 15.0356 6.88005C15.0356 6.49005 15.3456 6.18005 15.7356 6.18005H21.3156C21.7056 6.18005 22.0156 6.49005 22.0156 6.88005C22.0156 7.27005 21.7056 7.58005 21.3156 7.58005Z" fill="#171717"/>
<path d="M6.43563 7.58005H2.71563C2.32563 7.58005 2.01562 7.27005 2.01562 6.88005C2.01562 6.49005 2.32563 6.18005 2.71563 6.18005H6.43563C6.82562 6.18005 7.13562 6.49005 7.13562 6.88005C7.13562 7.27005 6.81563 7.58005 6.43563 7.58005Z" fill="#171717"/>
<path d="M10.1556 10.8301C12.3371 10.8301 14.1056 9.06158 14.1056 6.88005C14.1056 4.69853 12.3371 2.93005 10.1556 2.93005C7.97404 2.93005 6.20557 4.69853 6.20557 6.88005C6.20557 9.06158 7.97404 10.8301 10.1556 10.8301Z" fill="#171717"/>
<path d="M21.3155 17.81H17.5955C17.2055 17.81 16.8955 17.5 16.8955 17.11C16.8955 16.72 17.2055 16.41 17.5955 16.41H21.3155C21.7055 16.41 22.0155 16.72 22.0155 17.11C22.0155 17.5 21.7055 17.81 21.3155 17.81Z" fill="#171717"/>
<path d="M8.29562 17.81H2.71563C2.32563 17.81 2.01562 17.5 2.01562 17.11C2.01562 16.72 2.32563 16.41 2.71563 16.41H8.29562C8.68562 16.41 8.99562 16.72 8.99562 17.11C8.99562 17.5 8.67562 17.81 8.29562 17.81Z" fill="#171717"/>
<path d="M13.8758 21.07C16.0573 21.07 17.8258 19.3016 17.8258 17.12C17.8258 14.9385 16.0573 13.17 13.8758 13.17C11.6943 13.17 9.92578 14.9385 9.92578 17.12C9.92578 19.3016 11.6943 21.07 13.8758 21.07Z" fill="#171717"/>
</svg>
