<svg width="25" height="24" viewBox="0 0 25 24" fill="none" xmlns="http://www.w3.org/2000/svg">
<path d="M12.0156 16.5C14.5009 16.5 16.5156 14.4853 16.5156 12C16.5156 9.51472 14.5009 7.5 12.0156 7.5C9.53034 7.5 7.51562 9.51472 7.51562 12C7.51562 14.4853 9.53034 16.5 12.0156 16.5Z" fill="#171717"/>
<path d="M10.0156 12.75H2.01562C1.60563 12.75 1.26562 12.41 1.26562 12C1.26562 11.59 1.60563 11.25 2.01562 11.25H10.0156C10.4256 11.25 10.7656 11.59 10.7656 12C10.7656 12.41 10.4256 12.75 10.0156 12.75Z" fill="#171717"/>
<path d="M22.0156 12.75H14.0156C13.6056 12.75 13.2656 12.41 13.2656 12C13.2656 11.59 13.6056 11.25 14.0156 11.25H22.0156C22.4256 11.25 22.7656 11.59 22.7656 12C22.7656 12.41 22.4256 12.75 22.0156 12.75Z" fill="#171717"/>
</svg>
