<svg width="25" height="24" viewBox="0 0 25 24" fill="none" xmlns="http://www.w3.org/2000/svg">
<path d="M18.5255 8.25005C19.0255 8.25005 19.4255 7.85005 19.4255 7.35005V2.70005C19.4255 2.20005 19.0255 1.80005 18.5255 1.80005C18.0255 1.80005 17.6255 2.20005 17.6255 2.70005V7.35005C17.6255 7.84005 18.0355 8.25005 18.5255 8.25005Z" fill="#171717"/>
<path d="M12.0157 15.75C11.5157 15.75 11.1157 16.15 11.1157 16.65V21.3C11.1157 21.8 11.5157 22.2 12.0157 22.2C12.5157 22.2 12.9157 21.8 12.9157 21.3V16.65C12.9157 16.16 12.5157 15.75 12.0157 15.75Z" fill="#171717"/>
<path d="M5.50547 8.25005C6.00547 8.25005 6.40547 7.85005 6.40547 7.35005V2.70005C6.40547 2.20005 6.00547 1.80005 5.50547 1.80005C5.00547 1.80005 4.60547 2.20005 4.60547 2.70005V7.35005C4.60547 7.84005 5.00547 8.25005 5.50547 8.25005Z" fill="#171717"/>
<path d="M7.36561 10.17H3.64561C3.14561 10.17 2.74561 10.57 2.74561 11.07C2.74561 11.57 3.14561 11.97 3.64561 11.97H4.60561V21.3C4.60561 21.8 5.00561 22.2 5.50561 22.2C6.00561 22.2 6.40561 21.8 6.40561 21.3V11.97H7.36561C7.86561 11.97 8.26561 11.57 8.26561 11.07C8.26561 10.57 7.85561 10.17 7.36561 10.17Z" fill="#171717"/>
<path d="M20.3856 10.17H16.6656C16.1656 10.17 15.7656 10.57 15.7656 11.07C15.7656 11.57 16.1656 11.97 16.6656 11.97H17.6256V21.3C17.6256 21.8 18.0256 22.2 18.5256 22.2C19.0256 22.2 19.4256 21.8 19.4256 21.3V11.97H20.3856C20.8856 11.97 21.2856 11.57 21.2856 11.07C21.2856 10.57 20.8856 10.17 20.3856 10.17Z" fill="#171717"/>
<path d="M13.8759 12.03H12.9159V2.70005C12.9159 2.20005 12.5159 1.80005 12.0159 1.80005C11.5159 1.80005 11.1159 2.20005 11.1159 2.70005V12.03H10.1559C9.65586 12.03 9.25586 12.43 9.25586 12.93C9.25586 13.43 9.65586 13.83 10.1559 13.83H13.8759C14.3759 13.83 14.7759 13.43 14.7759 12.93C14.7759 12.43 14.3759 12.03 13.8759 12.03Z" fill="#171717"/>
</svg>
