<svg width="25" height="24" viewBox="0 0 25 24" fill="none" xmlns="http://www.w3.org/2000/svg">
<path d="M18.9557 5.41994L13.7857 2.42994C12.7957 1.85994 11.2457 1.85994 10.2557 2.42994L5.0357 5.43994C2.9657 6.83994 2.8457 7.04994 2.8457 9.27994V14.7099C2.8457 16.9399 2.9657 17.1599 5.0757 18.5799L10.2457 21.5699C10.7457 21.8599 11.3857 21.9999 12.0157 21.9999C12.6457 21.9999 13.2857 21.8599 13.7757 21.5699L18.9957 18.5599C21.0657 17.1599 21.1857 16.9499 21.1857 14.7199V9.27994C21.1857 7.04994 21.0657 6.83994 18.9557 5.41994ZM12.0157 15.2499C10.2257 15.2499 8.7657 13.7899 8.7657 11.9999C8.7657 10.2099 10.2257 8.74994 12.0157 8.74994C13.8057 8.74994 15.2657 10.2099 15.2657 11.9999C15.2657 13.7899 13.8057 15.2499 12.0157 15.2499Z" fill="#171717"/>
</svg>
