<svg width="24" height="24" viewBox="0 0 24 24" fill="none" xmlns="http://www.w3.org/2000/svg">
<path d="M21.631 14.66L21.221 16.52C20.511 19.72 18.001 22 14.381 22H9.62096C6.00096 22 3.49096 19.72 2.78096 16.52L2.37096 14.66C2.17096 13.75 2.71096 12.72 3.58096 12.37L5.00096 11.8L10.511 9.59C10.991 9.4 11.501 9.3 12.001 9.3C12.501 9.3 13.011 9.4 13.491 9.59L19.001 11.8L20.421 12.37C21.291 12.72 21.831 13.75 21.631 14.66Z" fill="#171717"/>
<path d="M19.001 8V9.44C19.001 9.79 18.641 10.04 18.311 9.9L14.041 8.19C12.731 7.68 11.271 7.68 9.95098 8.2L5.69098 9.91C5.36098 10.05 5.00098 9.8 5.00098 9.45V8C5.00098 6.35 6.35098 5 8.00098 5H16.001C17.651 5 19.001 6.35 19.001 8Z" fill="#171717"/>
<path d="M14.501 5H9.50098V3C9.50098 2.45 9.95098 2 10.501 2H13.501C14.051 2 14.501 2.45 14.501 3V5Z" fill="#171717"/>
</svg>
