<svg width="24" height="24" viewBox="0 0 24 24" fill="none" xmlns="http://www.w3.org/2000/svg">
<path d="M18.7109 9.49C18.6109 9.49 18.5109 9.47 18.4109 9.43C18.0309 9.26 17.8609 8.82 18.0209 8.44C18.2109 8.01 18.1009 7.38 17.7509 6.86C17.4009 6.33 16.8709 5.97 16.3909 6C15.9509 6 15.6409 5.67 15.6309 5.26C15.6309 4.84 15.9609 4.51 16.3709 4.5C17.4009 4.48 18.3709 5.07 19.0009 6.02C19.6409 6.98 19.7909 8.13 19.4009 9.03C19.2809 9.32 19.0009 9.49 18.7109 9.49Z" fill="#171717"/>
<path d="M21.8209 10.48C21.7509 10.48 21.6909 10.47 21.6209 10.45C21.2209 10.34 20.9909 9.93 21.1009 9.53C21.4809 8.17 21.1609 6.55 20.2509 5.19C19.3409 3.83 17.9609 2.92 16.5509 2.75C16.1409 2.7 15.8509 2.33 15.9009 1.92C15.9509 1.51 16.3309 1.21 16.7309 1.27C18.5609 1.49 20.3409 2.65 21.4909 4.37C22.6409 6.09 23.0309 8.17 22.5409 9.95C22.4509 10.26 22.1509 10.48 21.8209 10.48Z" fill="#171717"/>
<path d="M17.1211 11.78C17.1211 12.08 16.8711 12.33 16.5711 12.33H3.4311C3.1311 12.33 2.8811 12.08 2.8811 11.78C2.8811 11.48 3.1311 11.23 3.4311 11.23H4.1711L4.4511 9.91C4.7111 8.63 5.2611 7.46 7.4411 7.46H12.5711C14.7511 7.46 15.2911 8.64 15.5611 9.91L15.8411 11.23H16.5811C16.8711 11.23 17.1211 11.48 17.1211 11.78Z" fill="#171717"/>
<path d="M17.431 15.91C17.321 14.71 17.001 13.42 14.661 13.42H5.34102C3.00102 13.42 2.68102 14.71 2.57102 15.91L2.16102 20.36C2.11102 20.91 2.29102 21.47 2.67102 21.89C3.06102 22.31 3.60102 22.55 4.19102 22.55H5.56102C6.74102 22.55 6.97102 21.87 7.12102 21.43L7.27102 20.99C7.44102 20.49 7.48102 20.36 8.14102 20.36H11.881C12.541 20.36 12.561 20.43 12.751 20.99L12.901 21.43C13.051 21.88 13.271 22.55 14.461 22.55H15.831C16.411 22.55 16.961 22.31 17.351 21.89C17.731 21.47 17.911 20.92 17.861 20.36L17.431 15.91ZM7.81102 17.43H5.62102C5.32102 17.43 5.07102 17.18 5.07102 16.88C5.07102 16.58 5.32102 16.33 5.62102 16.33H7.81102C8.11102 16.33 8.36102 16.58 8.36102 16.88C8.36102 17.18 8.11102 17.43 7.81102 17.43ZM14.381 17.43H12.191C11.891 17.43 11.641 17.18 11.641 16.88C11.641 16.58 11.891 16.33 12.191 16.33H14.381C14.681 16.33 14.931 16.58 14.931 16.88C14.931 17.18 14.681 17.43 14.381 17.43Z" fill="#171717"/>
</svg>
