<svg width="25" height="24" viewBox="0 0 25 24" fill="none" xmlns="http://www.w3.org/2000/svg">
<path d="M10.0156 1H4.01562C2.35563 1 1.01562 2.34 1.01562 4V10C1.01562 11.66 2.35563 13 4.01562 13H8.51562C8.51562 10.52 10.5356 8.5 13.0156 8.5V4C13.0156 2.34 11.6756 1 10.0156 1ZM3.78562 4.27C4.55562 3.72 5.60563 3.71 6.39563 4.25C6.73563 4.48 6.82562 4.95 6.59562 5.29C6.36562 5.63 5.89563 5.72 5.55562 5.49C5.28562 5.3 4.91563 5.3 4.64563 5.5C4.51562 5.59 4.36562 5.63 4.21562 5.63C3.98562 5.63 3.74563 5.52 3.60562 5.32C3.36562 4.98 3.44563 4.51 3.78562 4.27ZM9.28563 8.24C9.02563 8.57 8.55563 8.62 8.23563 8.36C7.88563 8.08 7.46562 7.93 7.01562 7.93C6.01562 7.93 5.18563 8.69 5.07562 9.67H7.17562C7.58562 9.67 7.92562 10.01 7.92562 10.42C7.92562 10.83 7.58562 11.17 7.17562 11.17H4.85563C4.14563 11.17 3.56562 10.59 3.56562 9.88C3.56562 7.98 5.11562 6.43 7.01562 6.43C7.79562 6.43 8.56562 6.7 9.17562 7.19C9.49562 7.45 9.54563 7.92 9.28563 8.24ZM10.5956 5.29C10.3656 5.63 9.89563 5.72 9.55562 5.49C9.28562 5.3 8.91563 5.3 8.64563 5.5C8.51562 5.59 8.36562 5.63 8.21562 5.63C7.98562 5.63 7.74563 5.52 7.60563 5.32C7.36563 4.98 7.44562 4.51 7.78562 4.27C8.55562 3.72 9.60563 3.71 10.3956 4.25C10.7356 4.48 10.8256 4.95 10.5956 5.29Z" fill="#171717"/>
<path d="M18.2356 16.6801C18.1656 16.6001 18.0656 16.5601 17.9556 16.5601H14.0756C13.9656 16.5601 13.8656 16.6001 13.7956 16.6801C13.7256 16.7601 13.6856 16.8701 13.7056 16.9701C13.8356 18.1501 14.8256 19.0501 16.0156 19.0501C17.2056 19.0501 18.1956 18.1601 18.3256 16.9701C18.3356 16.8601 18.3056 16.7601 18.2356 16.6801Z" fill="#171717"/>
<path d="M19.0156 10H13.0156C11.3656 10 10.0156 11.35 10.0156 13V19C10.0156 20.65 11.3656 22 13.0156 22H19.0156C20.6656 22 22.0156 20.65 22.0156 19V13C22.0156 11.35 20.6656 10 19.0156 10ZM12.6056 13.17C12.8456 12.83 13.3156 12.75 13.6556 12.99C13.9256 13.18 14.2856 13.18 14.5556 13C14.8956 12.76 15.3656 12.85 15.5956 13.2C15.8256 13.54 15.7456 14.01 15.3956 14.24C15.0056 14.5 14.5556 14.64 14.1056 14.64C13.6356 14.64 13.1756 14.5 12.7856 14.22C12.4456 13.97 12.3656 13.5 12.6056 13.17ZM16.0156 20.17C14.1156 20.17 12.5656 18.62 12.5656 16.72C12.5656 16.01 13.1456 15.43 13.8556 15.43H18.1756C18.8856 15.43 19.4656 16.01 19.4656 16.72C19.4656 18.62 17.9156 20.17 16.0156 20.17ZM19.3956 14.23C19.0056 14.49 18.5556 14.63 18.1056 14.63C17.6356 14.63 17.1756 14.49 16.7856 14.21C16.4456 13.97 16.3656 13.5 16.6056 13.16C16.8456 12.82 17.3156 12.74 17.6556 12.98C17.9256 13.17 18.2856 13.17 18.5556 12.99C18.8956 12.75 19.3656 12.84 19.5956 13.19C19.8256 13.54 19.7356 14 19.3956 14.23Z" fill="#171717"/>
</svg>
