<svg width="25" height="24" viewBox="0 0 25 24" fill="none" xmlns="http://www.w3.org/2000/svg">
<path d="M18.7156 14.46C18.3656 14.81 18.1656 15.51 18.2756 15.99L18.9656 19.01C19.2556 20.26 19.0756 21.2 18.4556 21.65C18.2056 21.83 17.9056 21.92 17.5556 21.92C17.0456 21.92 16.4456 21.73 15.7856 21.34L12.8556 19.6C12.3956 19.33 11.6356 19.33 11.1756 19.6L8.24558 21.34C7.13558 21.99 6.18558 22.1 5.57558 21.65C5.53558 21.62 5.49558 21.59 5.46558 21.55L18.0856 8.93003C18.5456 8.47003 19.1956 8.26003 19.8356 8.37003L19.9856 8.40003C21.0456 8.58003 21.7556 9.06003 21.9856 9.76003C22.2056 10.46 21.9056 11.27 21.1456 12.03L18.7156 14.46Z" fill="#171717"/>
<path d="M5.75561 16C5.86561 15.52 5.66561 14.81 5.31561 14.46L2.88561 12.03C2.12561 11.27 1.82561 10.46 2.04561 9.76C2.27561 9.06 2.98561 8.58 4.04561 8.4L7.16561 7.88C7.61561 7.8 8.16561 7.4 8.37561 6.99L10.0956 3.54C10.5956 2.55 11.2756 2 12.0156 2C12.7556 2 13.4356 2.55 13.9356 3.54L15.6556 6.99C15.7856 7.25 16.0556 7.5 16.3456 7.67L5.08561 18.93L5.75561 16Z" fill="#171717"/>
<path d="M21.7856 2.23C21.4856 1.93 20.9956 1.93 20.6956 2.23L2.24563 20.69C1.94563 20.99 1.94563 21.48 2.24563 21.78C2.39563 21.92 2.58563 22 2.78563 22C2.98563 22 3.17563 21.92 3.32563 21.77L21.7856 3.31C22.0956 3.01 22.0956 2.53 21.7856 2.23Z" fill="#171717"/>
</svg>
