<svg width="25" height="24" viewBox="0 0 25 24" fill="none" xmlns="http://www.w3.org/2000/svg">
<path d="M20.86 7.78L5.04 17.28C4.43 17.65 3.61 17.28 3.53 16.57C3.51 16.38 3.5 16.19 3.5 16V8C3.5 5 5.5 3 8.5 3H16.5C19.5 3 20.73 4.54 21.31 6.65C21.43 7.09 21.24 7.55 20.86 7.78Z" fill="#171717"/>
<path d="M21.5 11.09V16C21.5 19 19.5 21 16.5 21H8.50003C7.58003 21 6.71003 20.75 5.97003 20.31C5.33003 19.94 5.37003 19 6.00003 18.62L19.98 10.23C20.65 9.83001 21.5 10.31 21.5 11.09Z" fill="#171717"/>
</svg>
