<svg width="24" height="24" viewBox="0 0 24 24" fill="none" xmlns="http://www.w3.org/2000/svg">
<path d="M16.1959 2H7.81586C4.17586 2 2.00586 4.17 2.00586 7.81V16.18C2.00586 19.83 4.17586 22 7.81586 22H16.1859C19.8259 22 21.9959 19.83 21.9959 16.19V7.81C22.0059 4.17 19.8359 2 16.1959 2ZM19.0059 8.24C19.0059 8.79 18.5559 9.24 18.0059 9.24H16.0059C15.5959 9.24 15.2559 9.58 15.2559 9.99C15.2559 10.41 15.5959 10.74 16.0059 10.74H18.0059C18.5559 10.74 19.0059 11.19 19.0059 11.74V12.25C19.0059 12.8 18.5559 13.25 18.0059 13.25H16.0059C15.5959 13.25 15.2559 13.59 15.2559 14C15.2559 14.41 15.5959 14.75 16.0059 14.75H18.0059C18.5559 14.75 19.0059 15.2 19.0059 15.75V16C19.0059 17.66 17.6659 19 16.0059 19H8.00586C6.34586 19 5.00586 17.66 5.00586 16V15.5C5.00586 14.95 5.45586 14.5 6.00586 14.5H7.48586C8.95586 14.5 10.1259 13.24 9.97586 11.74C9.84586 10.44 8.65586 9.5 7.34586 9.5H6.00586C5.45586 9.5 5.00586 9.05 5.00586 8.5V8C5.00586 6.34 6.34586 5 8.00586 5H16.0059C17.6659 5 19.0059 6.34 19.0059 8V8.24ZM5.00586 12C5.00586 11.45 5.45586 11 6.00586 11H7.00586C7.55586 11 8.00586 11.45 8.00586 12C8.00586 12.55 7.55586 13 7.00586 13H6.00586C5.45586 13 5.00586 12.55 5.00586 12Z" fill="#171717"/>
</svg>
