<svg width="24" height="24" viewBox="0 0 24 24" fill="none" xmlns="http://www.w3.org/2000/svg">
<path d="M13.2588 12.58V14.56C13.2588 15.25 12.6988 15.81 12.0088 15.81C11.3188 15.81 10.7588 15.25 10.7588 14.56V12.58C10.3988 12.36 10.1188 12.04 9.91879 11.66H3.00879C2.45879 11.66 2.00879 12.11 2.00879 12.66V16.19C2.00879 19.4 4.60879 22 7.81879 22H16.1888C19.4088 22 22.0088 19.4 22.0088 16.19V12.66C22.0088 12.11 21.5588 11.66 21.0088 11.66H14.0988C13.8988 12.04 13.6188 12.36 13.2588 12.58Z" fill="#171717"/>
<path d="M16.1988 2H7.81879C4.60879 2 2.00879 4.6 2.00879 7.81V9.16C2.00879 9.71 2.45879 10.16 3.00879 10.16H9.67879C9.90879 8.84 11.2188 7.9 12.6488 8.28C13.4488 8.49 14.0988 9.14 14.3088 9.94C14.3288 10.01 14.3288 10.09 14.3388 10.16H21.0088C21.5588 10.16 22.0088 9.71 22.0088 9.16V7.81C22.0088 4.6 19.4088 2 16.1988 2Z" fill="#171717"/>
</svg>
