<svg width="25" height="24" viewBox="0 0 25 24" fill="none" xmlns="http://www.w3.org/2000/svg">
<path d="M16.69 2H8.31C4.67 2 2.5 4.17 2.5 7.81V16.18C2.5 19.83 4.67 22 8.31 22H16.68C20.32 22 22.49 19.83 22.49 16.19V7.81C22.5 4.17 20.33 2 16.69 2ZM7 12.57H9.77C10.18 12.57 10.52 12.91 10.52 13.32C10.52 13.73 10.18 14.07 9.77 14.07H7C6.59 14.07 6.25 13.73 6.25 13.32C6.25 12.91 6.59 12.57 7 12.57ZM13.47 17.83H7C6.59 17.83 6.25 17.49 6.25 17.08C6.25 16.67 6.59 16.33 7 16.33H13.47C13.88 16.33 14.22 16.67 14.22 17.08C14.22 17.49 13.89 17.83 13.47 17.83ZM18 17.83H16.15C15.74 17.83 15.4 17.49 15.4 17.08C15.4 16.67 15.74 16.33 16.15 16.33H18C18.41 16.33 18.75 16.67 18.75 17.08C18.75 17.49 18.41 17.83 18 17.83ZM18 14.07H12.47C12.06 14.07 11.72 13.73 11.72 13.32C11.72 12.91 12.06 12.57 12.47 12.57H18C18.41 12.57 18.75 12.91 18.75 13.32C18.75 13.73 18.41 14.07 18 14.07Z" fill="#171717"/>
</svg>
