<svg width="25" height="24" viewBox="0 0 25 24" fill="none" xmlns="http://www.w3.org/2000/svg">
<path d="M19.8471 8.70005L15.3171 4.17005C14.3671 3.22005 13.0571 2.71005 11.7171 2.78005L6.71706 3.02005C4.71706 3.11005 3.12707 4.70005 3.02707 6.69005L2.78707 11.69C2.72707 13.03 3.22706 14.34 4.17706 15.29L8.70706 19.82C10.5671 21.68 13.5871 21.68 15.4571 19.82L19.8471 15.43C21.7171 13.58 21.7171 10.56 19.8471 8.70005ZM9.51707 12.38C7.92706 12.38 6.63706 11.09 6.63706 9.50005C6.63706 7.91005 7.92706 6.62005 9.51707 6.62005C11.1071 6.62005 12.3971 7.91005 12.3971 9.50005C12.3971 11.09 11.1071 12.38 9.51707 12.38Z" fill="#171717"/>
</svg>
