<svg width="25" height="24" viewBox="0 0 25 24" fill="none" xmlns="http://www.w3.org/2000/svg">
<path d="M20.5001 19.26H11.4301C10.9801 19.26 10.6101 18.89 10.6101 18.44C10.6101 17.99 10.9801 17.62 11.4301 17.62H20.5001C20.9501 17.62 21.3201 17.99 21.3201 18.44C21.3201 18.9 20.9501 19.26 20.5001 19.26Z" fill="#171717"/>
<path d="M20.5001 12.97H11.4301C10.9801 12.97 10.6101 12.6 10.6101 12.15C10.6101 11.7 10.9801 11.33 11.4301 11.33H20.5001C20.9501 11.33 21.3201 11.7 21.3201 12.15C21.3201 12.6 20.9501 12.97 20.5001 12.97Z" fill="#171717"/>
<path d="M20.5001 6.67003H11.4301C10.9801 6.67003 10.6101 6.30003 10.6101 5.85003C10.6101 5.40003 10.9801 5.03003 11.4301 5.03003H20.5001C20.9501 5.03003 21.3201 5.40003 21.3201 5.85003C21.3201 6.30003 20.9501 6.67003 20.5001 6.67003Z" fill="#171717"/>
<path d="M5.40993 8.03004C5.18993 8.03004 4.97993 7.94004 4.82993 7.79004L3.91993 6.88004C3.59993 6.56004 3.59993 6.04004 3.91993 5.72004C4.23993 5.40004 4.75993 5.40004 5.07993 5.72004L5.40993 6.05004L7.54993 3.91004C7.86993 3.59004 8.38993 3.59004 8.70993 3.91004C9.02993 4.23004 9.02993 4.75004 8.70993 5.07004L5.98993 7.79004C5.82993 7.94004 5.62993 8.03004 5.40993 8.03004Z" fill="#171717"/>
<path d="M5.40993 14.33C5.19993 14.33 4.98993 14.25 4.82993 14.09L3.91993 13.18C3.59993 12.86 3.59993 12.34 3.91993 12.02C4.23993 11.7 4.75993 11.7 5.07993 12.02L5.40993 12.35L7.54993 10.21C7.86993 9.88997 8.38993 9.88997 8.70993 10.21C9.02993 10.53 9.02993 11.05 8.70993 11.37L5.98993 14.09C5.82993 14.25 5.61993 14.33 5.40993 14.33Z" fill="#171717"/>
<path d="M5.40993 20.33C5.19993 20.33 4.98993 20.25 4.82993 20.09L3.91993 19.18C3.59993 18.86 3.59993 18.34 3.91993 18.02C4.23993 17.7 4.75993 17.7 5.07993 18.02L5.40993 18.35L7.54993 16.21C7.86993 15.89 8.38993 15.89 8.70993 16.21C9.02993 16.53 9.02993 17.05 8.70993 17.37L5.98993 20.09C5.82993 20.25 5.61993 20.33 5.40993 20.33Z" fill="#171717"/>
</svg>
