<svg width="25" height="24" viewBox="0 0 25 24" fill="none" xmlns="http://www.w3.org/2000/svg">
<path d="M22.0481 10.75C22.4581 10.75 22.7981 10.41 22.7981 10V9C22.7981 4.59 21.4581 3.25 17.0481 3.25H10.7981V5.5C10.7981 5.91 10.4581 6.25 10.0481 6.25C9.6381 6.25 9.2981 5.91 9.2981 5.5V3.25H7.0481C2.6381 3.25 1.2981 4.59 1.2981 9V9.5C1.2981 9.91 1.6381 10.25 2.0481 10.25C3.0081 10.25 3.7981 11.04 3.7981 12C3.7981 12.96 3.0081 13.75 2.0481 13.75C1.6381 13.75 1.2981 14.09 1.2981 14.5V15C1.2981 19.41 2.6381 20.75 7.0481 20.75H9.2981V18.5C9.2981 18.09 9.6381 17.75 10.0481 17.75C10.4581 17.75 10.7981 18.09 10.7981 18.5V20.75H17.0481C21.4581 20.75 22.7981 19.41 22.7981 15C22.7981 14.59 22.4581 14.25 22.0481 14.25C21.0881 14.25 20.2981 13.46 20.2981 12.5C20.2981 11.54 21.0881 10.75 22.0481 10.75ZM10.7981 14.17C10.7981 14.58 10.4581 14.92 10.0481 14.92C9.6381 14.92 9.2981 14.58 9.2981 14.17V9.83C9.2981 9.42 9.6381 9.08 10.0481 9.08C10.4581 9.08 10.7981 9.42 10.7981 9.83V14.17Z" fill="#171717"/>
</svg>
