<svg width="25" height="24" viewBox="0 0 25 24" fill="none" xmlns="http://www.w3.org/2000/svg">
<path d="M21.354 10.84C21.744 10.84 22.054 10.53 22.054 10.14V9.20999C22.054 5.10999 20.804 3.85999 16.704 3.85999H7.40395C3.30396 3.85999 2.05396 5.10999 2.05396 9.20999V9.67999C2.05396 10.07 2.36396 10.38 2.75396 10.38C3.65396 10.38 4.38396 11.11 4.38396 12.01C4.38396 12.91 3.65396 13.63 2.75396 13.63C2.36396 13.63 2.05396 13.94 2.05396 14.33V14.8C2.05396 18.9 3.30396 20.15 7.40395 20.15H16.704C20.804 20.15 22.054 18.9 22.054 14.8C22.054 14.41 21.744 14.1 21.354 14.1C20.454 14.1 19.724 13.37 19.724 12.47C19.724 11.57 20.454 10.84 21.354 10.84ZM9.05396 8.87999C9.60396 8.87999 10.054 9.32999 10.054 9.87999C10.054 10.43 9.61396 10.88 9.05396 10.88C8.50395 10.88 8.05396 10.43 8.05396 9.87999C8.05396 9.32999 8.49396 8.87999 9.05396 8.87999ZM15.054 15.88C14.494 15.88 14.044 15.43 14.044 14.88C14.044 14.33 14.494 13.88 15.044 13.88C15.594 13.88 16.044 14.33 16.044 14.88C16.044 15.43 15.614 15.88 15.054 15.88ZM15.954 9.47999L9.22396 16.21C9.07396 16.36 8.88396 16.43 8.69396 16.43C8.50396 16.43 8.31395 16.36 8.16395 16.21C7.87395 15.92 7.87395 15.44 8.16395 15.15L14.894 8.41999C15.184 8.12999 15.664 8.12999 15.954 8.41999C16.244 8.70999 16.244 9.18999 15.954 9.47999Z" fill="#171717"/>
</svg>
