<svg width="25" height="24" viewBox="0 0 25 24" fill="none" xmlns="http://www.w3.org/2000/svg">
<path d="M16.6997 3.85999H9.95968V6.87999C9.95968 7.26999 9.63968 7.57999 9.25968 7.57999C8.87968 7.57999 8.55968 7.26999 8.55968 6.87999V3.85999H7.39968C3.44968 3.85999 2.14968 5.03999 2.05968 8.72999C2.04968 8.90999 2.12968 9.09999 2.25968 9.22999C2.38968 9.36999 2.55968 9.43999 2.75968 9.43999C4.15968 9.43999 5.30968 10.6 5.30968 12C5.30968 13.4 4.15968 14.56 2.75968 14.56C2.56968 14.56 2.38968 14.63 2.25968 14.77C2.12968 14.9 2.04968 15.09 2.05968 15.27C2.14968 18.96 3.44968 20.14 7.39968 20.14H8.55968V17.12C8.55968 16.73 8.87968 16.42 9.25968 16.42C9.63968 16.42 9.95968 16.73 9.95968 17.12V20.14H16.6997C20.7997 20.14 22.0497 18.89 22.0497 14.79V9.20999C22.0497 5.10999 20.7997 3.85999 16.6997 3.85999ZM18.5197 11.9L17.5897 12.8C17.5497 12.83 17.5397 12.89 17.5497 12.94L17.7697 14.21C17.8097 14.44 17.7197 14.68 17.5197 14.82C17.3297 14.96 17.0797 14.98 16.8697 14.87L15.7197 14.27C15.6797 14.25 15.6197 14.25 15.5797 14.27L14.4297 14.87C14.3397 14.92 14.2397 14.94 14.1397 14.94C14.0097 14.94 13.8897 14.9 13.7797 14.82C13.5897 14.68 13.4897 14.45 13.5297 14.21L13.7497 12.94C13.7597 12.89 13.7397 12.84 13.7097 12.8L12.7797 11.9C12.6097 11.74 12.5497 11.49 12.6197 11.27C12.6897 11.04 12.8797 10.88 13.1197 10.85L14.3997 10.66C14.4497 10.65 14.4897 10.62 14.5197 10.58L15.0897 9.41999C15.1997 9.20999 15.4097 9.07999 15.6497 9.07999C15.8897 9.07999 16.0997 9.20999 16.1997 9.41999L16.7697 10.58C16.7897 10.63 16.8297 10.66 16.8797 10.66L18.1597 10.85C18.3997 10.88 18.5897 11.05 18.6597 11.27C18.7497 11.49 18.6897 11.73 18.5197 11.9Z" fill="#171717"/>
</svg>
