<svg width="25" height="24" viewBox="0 0 25 24" fill="none" xmlns="http://www.w3.org/2000/svg">
<path d="M19.9011 12.9401C19.9011 13.7401 20.5511 14.4001 21.3511 14.4001C21.7311 14.4001 22.0511 14.7101 22.0511 15.0901C22.0511 18.9301 20.8911 20.0901 17.0511 20.0901H11.8011V18.5001C11.8011 18.1101 11.5011 17.7901 11.1211 17.7601C11.1011 17.7501 11.0711 17.7501 11.0511 17.7501C10.6411 17.7501 10.3011 18.0901 10.3011 18.5001V20.0901H8.54112C6.66112 20.0901 5.69112 18.6801 4.81112 16.5501L4.64112 16.1301C4.50112 15.7701 4.67112 15.3601 5.03112 15.2201C5.40112 15.0801 5.69112 14.7901 5.84112 14.4101C6.00112 14.0401 6.00112 13.6301 5.85112 13.2601C5.53112 12.4901 4.65112 12.1201 3.87112 12.4301C3.70112 12.5101 3.50112 12.5101 3.33112 12.4301C3.16112 12.3601 3.03112 12.2201 2.95112 12.0401L2.80112 11.6401C1.31112 8.02006 1.96112 6.47006 5.58112 4.97006L8.03112 3.96006C8.39112 3.81006 8.80112 3.98006 8.94112 4.34006L11.1211 9.09006C10.7111 9.09006 10.3011 9.42006 10.3011 9.83006V14.1701C10.3011 14.5801 10.6411 14.9201 11.0511 14.9201C11.0711 14.9201 11.1011 14.9201 11.1211 14.9101C11.5011 14.8801 11.8011 14.5601 11.8011 14.1701V9.83006C11.8011 9.44006 11.5011 9.12006 11.1211 9.09006V4.93006H17.0511C20.8911 4.93006 22.0511 6.09006 22.0511 9.93006V10.7801C22.0511 11.1701 21.7311 11.4801 21.3511 11.4801C20.5511 11.4801 19.9011 12.1301 19.9011 12.9401Z" fill="#171717"/>
</svg>
