<svg width="25" height="24" viewBox="0 0 25 24" fill="none" xmlns="http://www.w3.org/2000/svg">
<path d="M17.2425 4.96C17.2425 4.97 17.2425 4.97 17.2425 4.98C16.9925 4.97 16.7425 4.96 16.4725 4.96H8.77246L9.84246 3.9C10.8225 2.91 11.9025 2 13.1525 2C14.4125 2 15.4925 2.91 16.4725 3.9L17.0325 4.46C17.1725 4.59 17.2425 4.77 17.2425 4.96Z" fill="#171717"/>
<path d="M20.8925 13.17C21.2825 13.17 21.5925 12.85 21.5925 12.45V11.57C21.5925 7.63995 20.3925 6.44995 16.4725 6.44995H10.1725H7.63245C3.71245 6.44995 2.51245 7.64995 2.51245 11.57V12C2.51245 12.4 2.82245 12.71 3.21245 12.71C4.05245 12.71 4.72245 13.39 4.72245 14.22C4.72245 15.05 4.05245 15.74 3.21245 15.74C2.82245 15.74 2.51245 16.05 2.51245 16.45V16.88C2.51245 20.81 3.71245 22 7.63245 22H10.1625H16.4625C20.3825 22 21.5825 20.8 21.5825 16.88C21.5825 16.49 21.2724 16.17 20.8825 16.17C20.0424 16.17 19.3725 15.5 19.3725 14.67C19.3825 13.84 20.0525 13.17 20.8925 13.17ZM10.8725 18.86C10.8725 19.25 10.5525 19.57 10.1625 19.57C9.77245 19.57 9.45245 19.25 9.45245 18.86V16.18C9.45245 15.79 9.77245 15.47 10.1625 15.47C10.5525 15.47 10.8725 15.79 10.8725 16.18V18.86ZM10.8725 12.27C10.8725 12.66 10.5525 12.98 10.1625 12.98C9.77245 12.98 9.45245 12.66 9.45245 12.27V9.58995C9.45245 9.19995 9.77245 8.87995 10.1625 8.87995C10.5525 8.87995 10.8725 9.19995 10.8725 9.58995V12.27Z" fill="#171717"/>
</svg>
