<svg width="25" height="24" viewBox="0 0 25 24" fill="none" xmlns="http://www.w3.org/2000/svg">
<path d="M16.6656 3.85999H7.36562C3.26562 3.85999 2.01562 5.10999 2.01562 9.20999V14.79C2.01562 18.89 3.26562 20.14 7.36562 20.14H16.6656C20.7656 20.14 22.0156 18.89 22.0156 14.79V9.20999C22.0156 5.10999 20.7656 3.85999 16.6656 3.85999ZM18.7556 13.12C18.7556 15.37 17.7056 16.42 15.4556 16.42H13.2256C10.9756 16.42 9.92562 15.37 9.92562 13.12V10.89C9.92562 8.63999 10.9756 7.58999 13.2256 7.58999H15.4556C17.7056 7.58999 18.7556 8.63999 18.7556 10.89V13.12Z" fill="#171717"/>
</svg>
