<svg width="25" height="24" viewBox="0 0 25 24" fill="none" xmlns="http://www.w3.org/2000/svg">
<path d="M16.6656 3.85999H7.36562C3.26562 3.85999 2.01562 5.10999 2.01562 9.20999V14.79C2.01562 18.89 3.26562 20.14 7.36562 20.14H16.6656C20.7656 20.14 22.0156 18.89 22.0156 14.79V9.20999C22.0156 5.10999 20.7656 3.85999 16.6656 3.85999ZM14.1056 13.12C14.1056 15.37 13.0556 16.42 10.8056 16.42H8.57563C6.32563 16.42 5.27563 15.37 5.27563 13.12V10.89C5.27563 8.63999 6.32563 7.58999 8.57563 7.58999H10.8056C13.0556 7.58999 14.1056 8.63999 14.1056 10.89V13.12Z" fill="#171717"/>
</svg>
