<svg width="25" height="24" viewBox="0 0 25 24" fill="none" xmlns="http://www.w3.org/2000/svg">
<path d="M15.7995 2H8.23953C4.45953 2 3.51953 3.01 3.51953 7.04V18.3C3.51953 20.96 4.97953 21.59 6.74953 19.69L6.75953 19.68C7.57953 18.81 8.82953 18.88 9.53953 19.83L10.5495 21.18C11.3595 22.25 12.6695 22.25 13.4795 21.18L14.4895 19.83C15.2095 18.87 16.4595 18.8 17.2795 19.68C19.0595 21.58 20.5095 20.95 20.5095 18.29V7.04C20.5195 3.01 19.5795 2 15.7995 2ZM14.7695 10.75H9.26953C8.85953 10.75 8.51953 10.41 8.51953 10C8.51953 9.59 8.85953 9.25 9.26953 9.25H14.7695C15.1795 9.25 15.5195 9.59 15.5195 10C15.5195 10.41 15.1795 10.75 14.7695 10.75Z" fill="#171717"/>
</svg>
