<svg width="25" height="24" viewBox="0 0 25 24" fill="none" xmlns="http://www.w3.org/2000/svg">
<path d="M16.2056 2H7.82562C4.18562 2 2.01562 4.17 2.01562 7.81V16.18C2.01562 19.83 4.18562 22 7.82562 22H16.1956C19.8356 22 22.0056 19.83 22.0056 16.19V7.81C22.0156 4.17 19.8456 2 16.2056 2ZM16.8956 14.33C16.8956 14.42 16.8756 14.51 16.8456 14.6C16.7756 14.77 16.6356 14.91 16.4656 14.98C16.3756 15.02 16.2856 15.03 16.1956 15.03H14.3356C13.9456 15.03 13.6356 14.72 13.6356 14.33C13.6356 13.94 13.9456 13.63 14.3356 13.63H14.5156L12.4056 11.52L11.3856 13.04C11.2656 13.21 11.0856 13.33 10.8756 13.35C10.6656 13.37 10.4656 13.3 10.3156 13.15L7.33563 10.17C7.06563 9.9 7.06563 9.46 7.33563 9.18C7.60563 8.9 8.04563 8.91 8.32563 9.18L10.7056 11.56L11.7256 10.04C11.8456 9.87 12.0256 9.75 12.2356 9.73C12.4556 9.71 12.6456 9.78 12.7956 9.93L15.5156 12.65V12.47C15.5156 12.08 15.8256 11.77 16.2156 11.77C16.6056 11.77 16.9156 12.08 16.9156 12.47V14.33H16.8956Z" fill="#171717"/>
</svg>
