<svg width="25" height="24" viewBox="0 0 25 24" fill="none" xmlns="http://www.w3.org/2000/svg">
<path d="M16.2056 2H7.82562C4.18562 2 2.01562 4.17 2.01562 7.81V16.18C2.01562 19.83 4.18562 22 7.82562 22H16.1956C19.8356 22 22.0056 19.83 22.0056 16.19V7.81C22.0156 4.17 19.8456 2 16.2056 2ZM16.8956 11.53C16.8956 11.92 16.5856 12.23 16.1956 12.23C15.8056 12.23 15.4956 11.92 15.4956 11.53V11.35L12.7756 14.07C12.6256 14.22 12.4256 14.29 12.2156 14.27C12.0056 14.25 11.8156 14.14 11.7056 13.96L10.6856 12.44L8.30562 14.82C8.16563 14.96 7.99563 15.02 7.81563 15.02C7.63563 15.02 7.45563 14.95 7.32562 14.82C7.05562 14.55 7.05562 14.11 7.32562 13.83L10.3056 10.85C10.4556 10.7 10.6556 10.63 10.8656 10.65C11.0756 10.67 11.2656 10.78 11.3756 10.96L12.3956 12.48L14.5056 10.37H14.3256C13.9356 10.37 13.6256 10.06 13.6256 9.67C13.6256 9.28 13.9356 8.97 14.3256 8.97H16.1856C16.2756 8.97 16.3656 8.99 16.4556 9.02C16.6256 9.09 16.7656 9.23 16.8356 9.4C16.8756 9.49 16.8856 9.58 16.8856 9.67V11.53H16.8956Z" fill="#171717"/>
</svg>
