<svg width="25" height="24" viewBox="0 0 25 24" fill="none" xmlns="http://www.w3.org/2000/svg">
<path d="M21.5127 15.5C21.7927 15.5 22.0127 15.72 22.0127 16V17C22.0127 18.66 20.6727 20 19.0127 20C19.0127 18.35 17.6627 17 16.0127 17C14.3627 17 13.0127 18.35 13.0127 20H11.0127C11.0127 18.35 9.6627 17 8.0127 17C6.3627 17 5.0127 18.35 5.0127 20C3.3527 20 2.0127 18.66 2.0127 17V15C2.0127 14.45 2.4627 14 3.0127 14H12.5127C13.8927 14 15.0127 12.88 15.0127 11.5V6C15.0127 5.45 15.4627 5 16.0127 5H16.8527C17.5727 5 18.2327 5.39 18.5927 6.01L19.2327 7.13C19.3227 7.29 19.2027 7.5 19.0127 7.5C17.6327 7.5 16.5127 8.62 16.5127 10V13C16.5127 14.38 17.6327 15.5 19.0127 15.5H21.5127Z" fill="#171717"/>
<path d="M8.0127 22C9.11726 22 10.0127 21.1046 10.0127 20C10.0127 18.8954 9.11726 18 8.0127 18C6.90813 18 6.0127 18.8954 6.0127 20C6.0127 21.1046 6.90813 22 8.0127 22Z" fill="#171717"/>
<path d="M16.0127 22C17.1173 22 18.0127 21.1046 18.0127 20C18.0127 18.8954 17.1173 18 16.0127 18C14.9081 18 14.0127 18.8954 14.0127 20C14.0127 21.1046 14.9081 22 16.0127 22Z" fill="#171717"/>
<path d="M22.0127 12.53V14H19.0127C18.4627 14 18.0127 13.55 18.0127 13V10C18.0127 9.45 18.4627 9 19.0127 9H20.3027L21.7527 11.54C21.9227 11.84 22.0127 12.18 22.0127 12.53Z" fill="#171717"/>
<path d="M13.0927 2H5.7027C3.6627 2 2.0127 3.65 2.0127 5.69V12.08C2.0127 12.63 2.4627 13.08 3.0127 13.08H12.1627C13.1827 13.08 14.0127 12.25 14.0127 11.23V2.92C14.0127 2.41 13.6027 2 13.0927 2ZM9.3927 7.91C9.3927 8.17 9.2527 8.42 9.0327 8.55L7.7827 9.3C7.6527 9.38 7.5227 9.41 7.3927 9.41C7.1427 9.41 6.89269 9.28 6.7527 9.05C6.5327 8.69 6.6527 8.23 7.0027 8.02L7.8927 7.49V6.41C7.8927 6 8.2327 5.66 8.6427 5.66C9.0527 5.66 9.3927 6 9.3927 6.41V7.91Z" fill="#171717"/>
</svg>
