<svg width="24" height="24" viewBox="0 0 24 24" fill="none" xmlns="http://www.w3.org/2000/svg">
<path d="M14.0098 2.92V11.23C14.0098 12.25 13.1798 13.08 12.1598 13.08H3.00977C2.45977 13.08 2.00977 12.63 2.00977 12.08V5.69C2.00977 3.65 3.65977 2 5.69977 2H13.0798C13.5998 2 14.0098 2.41 14.0098 2.92Z" fill="#171717"/>
<path d="M21.5098 15.5C21.7898 15.5 22.0098 15.72 22.0098 16V17C22.0098 18.66 20.6698 20 19.0098 20C19.0098 18.35 17.6598 17 16.0098 17C14.3598 17 13.0098 18.35 13.0098 20H11.0098C11.0098 18.35 9.65977 17 8.00977 17C6.35977 17 5.00977 18.35 5.00977 20C3.34977 20 2.00977 18.66 2.00977 17V15C2.00977 14.45 2.45977 14 3.00977 14H12.5098C13.8898 14 15.0098 12.88 15.0098 11.5V6C15.0098 5.45 15.4598 5 16.0098 5H16.8498C17.5698 5 18.2298 5.39 18.5898 6.01L19.2298 7.13C19.3198 7.29 19.1998 7.5 19.0098 7.5C17.6298 7.5 16.5098 8.62 16.5098 10V13C16.5098 14.38 17.6298 15.5 19.0098 15.5H21.5098Z" fill="#171717"/>
<path d="M8.00977 22C9.11434 22 10.0098 21.1046 10.0098 20C10.0098 18.8954 9.11434 18 8.00977 18C6.9052 18 6.00977 18.8954 6.00977 20C6.00977 21.1046 6.9052 22 8.00977 22Z" fill="#171717"/>
<path d="M16.0098 22C17.1143 22 18.0098 21.1046 18.0098 20C18.0098 18.8954 17.1143 18 16.0098 18C14.9052 18 14.0098 18.8954 14.0098 20C14.0098 21.1046 14.9052 22 16.0098 22Z" fill="#171717"/>
<path d="M22.0098 12.53V14H19.0098C18.4598 14 18.0098 13.55 18.0098 13V10C18.0098 9.45 18.4598 9 19.0098 9H20.2998L21.7498 11.54C21.9198 11.84 22.0098 12.18 22.0098 12.53Z" fill="#171717"/>
</svg>
