<svg width="25" height="24" viewBox="0 0 25 24" fill="none" xmlns="http://www.w3.org/2000/svg">
<path d="M21.5117 15.5C21.7917 15.5 22.0117 15.72 22.0117 16V17C22.0117 18.66 20.6717 20 19.0117 20C19.0117 18.35 17.6617 17 16.0117 17C14.3617 17 13.0117 18.35 13.0117 20H11.0117C11.0117 18.35 9.66172 17 8.01172 17C6.36172 17 5.01172 18.35 5.01172 20C3.35172 20 2.01172 18.66 2.01172 17V15C2.01172 14.45 2.46172 14 3.01172 14H12.5117C13.8917 14 15.0117 12.88 15.0117 11.5V6C15.0117 5.45 15.4617 5 16.0117 5H16.8517C17.5717 5 18.2317 5.39 18.5917 6.01L19.2317 7.13C19.3217 7.29 19.2017 7.5 19.0117 7.5C17.6317 7.5 16.5117 8.62 16.5117 10V13C16.5117 14.38 17.6317 15.5 19.0117 15.5H21.5117Z" fill="#171717"/>
<path d="M8.01172 22C9.11629 22 10.0117 21.1046 10.0117 20C10.0117 18.8954 9.11629 18 8.01172 18C6.90715 18 6.01172 18.8954 6.01172 20C6.01172 21.1046 6.90715 22 8.01172 22Z" fill="#171717"/>
<path d="M16.0117 22C17.1163 22 18.0117 21.1046 18.0117 20C18.0117 18.8954 17.1163 18 16.0117 18C14.9071 18 14.0117 18.8954 14.0117 20C14.0117 21.1046 14.9071 22 16.0117 22Z" fill="#171717"/>
<path d="M22.0117 12.53V14H19.0117C18.4617 14 18.0117 13.55 18.0117 13V10C18.0117 9.45 18.4617 9 19.0117 9H20.3017L21.7517 11.54C21.9217 11.84 22.0117 12.18 22.0117 12.53Z" fill="#171717"/>
<path d="M13.0917 2H5.70172C3.66172 2 2.01172 3.65 2.01172 5.69V12.07C2.01172 12.62 2.46172 13.07 3.01172 13.07H12.1617C13.1817 13.07 14.0117 12.24 14.0117 11.22V2.92C14.0117 2.41 13.6017 2 13.0917 2ZM10.0817 7.07L7.99172 9.09C7.84172 9.23 7.65172 9.3 7.47172 9.3C7.28172 9.3 7.09172 9.23 6.95172 9.09L5.94172 8.13C5.64172 7.84 5.63172 7.36 5.92172 7.06C6.20172 6.76 6.68172 6.76 6.98172 7.04L7.47172 7.51L9.04172 5.99C9.34172 5.7 9.81172 5.71 10.1017 6.01C10.3917 6.31 10.3817 6.78 10.0817 7.07Z" fill="#171717"/>
</svg>
