<svg width="25" height="24" viewBox="0 0 25 24" fill="none" xmlns="http://www.w3.org/2000/svg">
<path d="M21.5137 15.5C21.7937 15.5 22.0137 15.72 22.0137 16V17C22.0137 18.66 20.6737 20 19.0137 20C19.0137 18.35 17.6637 17 16.0137 17C14.3637 17 13.0137 18.35 13.0137 20H11.0137C11.0137 18.35 9.66367 17 8.01367 17C6.36367 17 5.01367 18.35 5.01367 20C3.35367 20 2.01367 18.66 2.01367 17V15C2.01367 14.45 2.46367 14 3.01367 14H12.5137C13.8937 14 15.0137 12.88 15.0137 11.5V6C15.0137 5.45 15.4637 5 16.0137 5H16.8537C17.5737 5 18.2337 5.39 18.5937 6.01L19.2337 7.13C19.3237 7.29 19.2037 7.5 19.0137 7.5C17.6337 7.5 16.5137 8.62 16.5137 10V13C16.5137 14.38 17.6337 15.5 19.0137 15.5H21.5137Z" fill="#171717"/>
<path d="M8.01367 22C9.11824 22 10.0137 21.1046 10.0137 20C10.0137 18.8954 9.11824 18 8.01367 18C6.9091 18 6.01367 18.8954 6.01367 20C6.01367 21.1046 6.9091 22 8.01367 22Z" fill="#171717"/>
<path d="M16.0137 22C17.1182 22 18.0137 21.1046 18.0137 20C18.0137 18.8954 17.1182 18 16.0137 18C14.9091 18 14.0137 18.8954 14.0137 20C14.0137 21.1046 14.9091 22 16.0137 22Z" fill="#171717"/>
<path d="M22.0137 12.53V14H19.0137C18.4637 14 18.0137 13.55 18.0137 13V10C18.0137 9.45 18.4637 9 19.0137 9H20.3037L21.7537 11.54C21.9237 11.84 22.0137 12.18 22.0137 12.53Z" fill="#171717"/>
<path d="M13.0937 1.97998H5.70367C3.66367 1.97998 2.01367 3.62998 2.01367 5.66998V12.06C2.01367 12.61 2.46367 13.06 3.01367 13.06H12.1637C13.1837 13.06 14.0137 12.23 14.0137 11.21V2.89998C14.0137 2.38998 13.6037 1.97998 13.0937 1.97998ZM9.61367 9.09998C9.46367 9.23998 9.27367 9.30998 9.08367 9.30998C8.89367 9.30998 8.70367 9.23998 8.55367 9.09998L8.02367 8.56998L7.47367 9.11998C7.32367 9.26998 7.13367 9.33998 6.94367 9.33998C6.75367 9.33998 6.56367 9.26998 6.41367 9.11998C6.12367 8.82998 6.12367 8.34998 6.41367 8.05998L6.96367 7.50998L6.43367 6.97998C6.14367 6.68998 6.14367 6.20998 6.43367 5.91998C6.73367 5.62998 7.20367 5.62998 7.50367 5.91998L8.02367 6.44998L8.52367 5.93998C8.82367 5.64998 9.29367 5.64998 9.59367 5.93998C9.88367 6.23998 9.88367 6.70998 9.59367 7.00998L9.08367 7.50998L9.61367 8.02998C9.90367 8.32998 9.90367 8.79998 9.61367 9.09998Z" fill="#171717"/>
</svg>
