<svg width="25" height="24" viewBox="0 0 25 24" fill="none" xmlns="http://www.w3.org/2000/svg">
<path d="M21.5107 15.5C21.7907 15.5 22.0107 15.72 22.0107 16V17C22.0107 18.66 20.6707 20 19.0107 20C19.0107 18.35 17.6607 17 16.0107 17C14.3607 17 13.0107 18.35 13.0107 20H11.0107C11.0107 18.35 9.66074 17 8.01074 17C6.36074 17 5.01074 18.35 5.01074 20C3.35074 20 2.01074 18.66 2.01074 17V15C2.01074 14.45 2.46074 14 3.01074 14H12.5107C13.8907 14 15.0107 12.88 15.0107 11.5V6C15.0107 5.45 15.4607 5 16.0107 5H16.8507C17.5707 5 18.2307 5.39 18.5907 6.01L19.2307 7.13C19.3207 7.29 19.2007 7.5 19.0107 7.5C17.6307 7.5 16.5107 8.62 16.5107 10V13C16.5107 14.38 17.6307 15.5 19.0107 15.5H21.5107Z" fill="#171717"/>
<path d="M8.01074 22C9.11531 22 10.0107 21.1046 10.0107 20C10.0107 18.8954 9.11531 18 8.01074 18C6.90617 18 6.01074 18.8954 6.01074 20C6.01074 21.1046 6.90617 22 8.01074 22Z" fill="#171717"/>
<path d="M16.0107 22C17.1153 22 18.0107 21.1046 18.0107 20C18.0107 18.8954 17.1153 18 16.0107 18C14.9062 18 14.0107 18.8954 14.0107 20C14.0107 21.1046 14.9062 22 16.0107 22Z" fill="#171717"/>
<path d="M22.0107 12.53V14H19.0107C18.4607 14 18.0107 13.55 18.0107 13V10C18.0107 9.45 18.4607 9 19.0107 9H20.3007L21.7507 11.54C21.9207 11.84 22.0107 12.18 22.0107 12.53Z" fill="#171717"/>
<path d="M13.0907 2H5.70074C3.91074 2 2.41074 3.28 2.08074 4.98H6.45074C6.83074 4.98 7.13074 5.29 7.13074 5.67C7.13074 6.05 6.83074 6.35 6.45074 6.35H2.01074V7.73H4.61074C4.99074 7.73 5.30074 8.04 5.30074 8.42C5.30074 8.8 4.99074 9.1 4.61074 9.1H2.01074V10.48H2.78074C3.16074 10.48 3.47074 10.79 3.47074 11.17C3.47074 11.55 3.16074 11.85 2.78074 11.85H2.01074V12.08C2.01074 12.63 2.46074 13.08 3.01074 13.08H12.1607C13.1807 13.08 14.0107 12.25 14.0107 11.23V2.92C14.0107 2.41 13.6007 2 13.0907 2Z" fill="#171717"/>
<path d="M2.08074 4.97998H1.93074H0.950742C0.570742 4.97998 0.260742 5.28998 0.260742 5.66998C0.260742 6.04998 0.570742 6.34998 0.950742 6.34998H1.86074H2.01074V5.68998C2.01074 5.44998 2.04074 5.20998 2.08074 4.97998Z" fill="#171717"/>
<path d="M1.86074 7.72998H0.950742C0.570742 7.72998 0.260742 8.03998 0.260742 8.41998C0.260742 8.79998 0.570742 9.09998 0.950742 9.09998H1.86074H2.01074V7.72998H1.86074Z" fill="#171717"/>
<path d="M1.86074 10.48H0.950742C0.570742 10.48 0.260742 10.79 0.260742 11.17C0.260742 11.55 0.570742 11.85 0.950742 11.85H1.86074H2.01074V10.48H1.86074Z" fill="#171717"/>
</svg>
