<svg width="25" height="24" viewBox="0 0 25 24" fill="none" xmlns="http://www.w3.org/2000/svg">
<path d="M17.4656 17.3C15.7856 17.3 14.2356 16.51 13.2256 15.12C12.9856 14.79 13.0556 14.32 13.3856 14.07C13.7156 13.82 14.1856 13.9 14.4356 14.23C15.1656 15.22 16.2656 15.79 17.4656 15.79C19.5556 15.79 21.2656 14.09 21.2656 11.99C21.2656 9.89004 19.5656 8.19004 17.4656 8.19004C16.0456 8.19004 14.7056 8.95004 13.9756 10.16L11.3256 14.57C10.3256 16.24 8.49562 17.27 6.55562 17.27C3.63562 17.27 1.25562 14.89 1.25562 11.97C1.25562 9.05004 3.63562 6.67004 6.55562 6.67004C8.23562 6.67004 9.78561 7.46004 10.7956 8.85004C11.0356 9.18004 10.9656 9.65004 10.6356 9.90004C10.2956 10.15 9.83562 10.07 9.58562 9.74004C8.86561 8.77004 7.76562 8.20004 6.56562 8.20004C4.47562 8.20004 2.76562 9.90004 2.76562 12C2.76562 14.1 4.46562 15.8 6.56562 15.8C7.98562 15.8 9.32561 15.04 10.0556 13.83L12.7056 9.42004C13.7056 7.75004 15.5356 6.72004 17.4756 6.72004C20.3956 6.72004 22.7756 9.10004 22.7756 12.02C22.7756 14.94 20.3856 17.3 17.4656 17.3Z" fill="#171717"/>
<path d="M6.51562 14C7.62019 14 8.51562 13.1046 8.51562 12C8.51562 10.8954 7.62019 10 6.51562 10C5.41106 10 4.51562 10.8954 4.51562 12C4.51562 13.1046 5.41106 14 6.51562 14Z" fill="#171717"/>
<path d="M17.5156 14C18.6202 14 19.5156 13.1046 19.5156 12C19.5156 10.8954 18.6202 10 17.5156 10C16.4111 10 15.5156 10.8954 15.5156 12C15.5156 13.1046 16.4111 14 17.5156 14Z" fill="#171717"/>
</svg>
