<svg width="25" height="24" viewBox="0 0 25 24" fill="none" xmlns="http://www.w3.org/2000/svg">
<path d="M15.23 2H9.76999V6.36H15.23V2Z" fill="#171717"/>
<path d="M16.73 2V6.36H22.37C21.86 3.61 19.83 2.01 16.73 2Z" fill="#171717"/>
<path d="M2.5 7.86011V16.1901C2.5 19.8301 4.67 22.0001 8.31 22.0001H16.69C20.33 22.0001 22.5 19.8301 22.5 16.1901V7.86011H2.5ZM14.94 16.1801L12.86 17.3801C12.42 17.6301 11.99 17.7601 11.59 17.7601C11.29 17.7601 11.02 17.6901 10.77 17.5501C10.19 17.2201 9.87 16.5401 9.87 15.6601V13.2601C9.87 12.3801 10.19 11.7001 10.77 11.3701C11.35 11.0301 12.09 11.0901 12.86 11.5401L14.94 12.7401C15.71 13.1801 16.13 13.8001 16.13 14.4701C16.13 15.1401 15.7 15.7301 14.94 16.1801Z" fill="#171717"/>
<path d="M8.27 2C5.17 2.01 3.14 3.61 2.63 6.36H8.27V2Z" fill="#171717"/>
</svg>
