<svg width="25" height="24" viewBox="0 0 25 24" fill="none" xmlns="http://www.w3.org/2000/svg">
<path d="M11.75 7.86011H2.5V16.1901C2.5 16.2501 2.5 16.3101 2.51 16.3601H11.75V7.86011Z" fill="#171717"/>
<path d="M8.19 6.36H11.75V2H8.22V6.24C8.22 6.28 8.2 6.32 8.19 6.36Z" fill="#171717"/>
<path d="M6.72 6.23991V2.15991C4.5 2.61991 3.05 4.09991 2.63 6.35991H6.74C6.73 6.31991 6.72 6.27991 6.72 6.23991Z" fill="#171717"/>
<path d="M16.72 2H13.25V6.36H16.72V2Z" fill="#171717"/>
<path d="M18.21 6.3599H22.37C21.95 4.0799 20.48 2.5899 18.22 2.1499V6.3299C18.22 6.3399 18.21 6.3499 18.21 6.3599Z" fill="#171717"/>
<path d="M18.22 21.8501C20.41 21.4201 21.85 20.0201 22.32 17.8601H18.22V21.8501Z" fill="#171717"/>
<path d="M16.72 17.8601H13.25V22.0001H16.72V17.8601Z" fill="#171717"/>
<path d="M13.25 16.3601H22.49C22.5 16.3101 22.5 16.2501 22.5 16.1901V7.86011H13.25V16.3601Z" fill="#171717"/>
<path d="M11.75 17.8601H8.22V22.0001H11.75V17.8601Z" fill="#171717"/>
<path d="M2.67999 17.8601C3.14999 20.0001 4.56999 21.4001 6.71999 21.8401V17.8601H2.67999Z" fill="#171717"/>
</svg>
