<svg width="25" height="24" viewBox="0 0 25 24" fill="none" xmlns="http://www.w3.org/2000/svg">
<path d="M6.86 7.78003H2.5V11.25H6.86V7.78003Z" fill="#171717"/>
<path d="M6.85999 6.28988V2.12988C4.57999 2.54988 3.08999 4.01988 2.64999 6.27988H6.82999C6.83999 6.27988 6.84999 6.28988 6.85999 6.28988Z" fill="#171717"/>
<path d="M6.86 16.31V12.75H2.5V16.28H6.74C6.78 16.28 6.82 16.3 6.86 16.31Z" fill="#171717"/>
<path d="M22.35 6.27993C21.92 4.08993 20.52 2.64993 18.36 2.17993V6.27993H22.35Z" fill="#171717"/>
<path d="M16.86 11.25V2.01C16.81 2 16.75 2 16.69 2H8.36V11.25H16.86Z" fill="#171717"/>
<path d="M22.5 12.75H18.36V16.28H22.5V12.75Z" fill="#171717"/>
<path d="M18.36 21.82C20.5 21.35 21.9 19.93 22.34 17.78H18.36V21.82Z" fill="#171717"/>
<path d="M6.74 17.78H2.66C3.12 20 4.6 21.45 6.86 21.87V17.76C6.82 17.77 6.78 17.78 6.74 17.78Z" fill="#171717"/>
<path d="M22.5 7.78003H18.36V11.25H22.5V7.78003Z" fill="#171717"/>
<path d="M8.36 12.75V22H16.69C16.75 22 16.81 22 16.86 21.99V12.75H8.36Z" fill="#171717"/>
</svg>
