<svg width="25" height="24" viewBox="0 0 25 24" fill="none" xmlns="http://www.w3.org/2000/svg">
<path d="M22.48 15.65C21.66 14.64 20.41 14 19 14C17.94 14 16.96 14.37 16.19 14.99C15.15 15.81 14.5 17.08 14.5 18.5C14.5 19.91 15.14 21.16 16.15 21.98C16.92 22.62 17.92 23 19 23C20.14 23 21.17 22.57 21.97 21.88C22.9 21.05 23.5 19.85 23.5 18.5C23.5 17.42 23.12 16.42 22.48 15.65ZM20.03 18.78C20.03 19.04 19.89 19.29 19.67 19.42L18.26 20.26C18.14 20.33 18.01 20.37 17.87 20.37C17.62 20.37 17.37 20.24 17.23 20.01C17.02 19.65 17.13 19.19 17.49 18.98L18.53 18.36V17.1C18.53 16.69 18.87 16.35 19.28 16.35C19.69 16.35 20.03 16.69 20.03 17.1V18.78Z" fill="#171717"/>
<path d="M15.23 5.86V2.5C15.23 2.22 15.01 2 14.73 2H10.27C9.99 2 9.77 2.22 9.77 2.5V5.86C9.77 6.14 9.99 6.36 10.27 6.36H14.73C15.01 6.36 15.23 6.14 15.23 5.86Z" fill="#171717"/>
<path d="M7.75 2.01997C5.19 2.17997 3.44 3.49997 2.79 5.69997C2.69 6.02997 2.93 6.35997 3.27 6.35997H7.77C8.05 6.35997 8.27 6.13997 8.27 5.85997V2.51997C8.27 2.23997 8.03 1.99997 7.75 2.01997Z" fill="#171717"/>
<path d="M17.25 2.00996C19.81 2.16996 21.56 3.48996 22.21 5.68996C22.31 6.01996 22.07 6.34996 21.73 6.34996H17.23C16.95 6.34996 16.73 6.12996 16.73 5.84996V2.50996C16.73 2.22996 16.97 1.98996 17.25 2.00996Z" fill="#171717"/>
<path d="M22.5 8.36011V12.7401C22.5 13.1101 22.11 13.3501 21.78 13.1801C20.94 12.7401 19.98 12.5001 19 12.5001C17.39 12.5001 15.82 13.1601 14.7 14.3101C13.6 15.4301 13 16.9201 13 18.5001C13 19.3101 13.32 20.3501 13.72 21.2201C13.88 21.5701 13.64 22.0001 13.25 22.0001H8.31C5.1 22.0001 2.5 19.4001 2.5 16.1901V8.36011C2.5 8.08011 2.72 7.86011 3 7.86011H22C22.28 7.86011 22.5 8.08011 22.5 8.36011Z" fill="#171717"/>
</svg>
