<svg width="25" height="24" viewBox="0 0 25 24" fill="none" xmlns="http://www.w3.org/2000/svg">
<path d="M20.01 5.85L14.07 2.42C13.1 1.86 11.9 1.86 10.92 2.42L4.99 5.85C4.02 6.41 3.42 7.45 3.42 8.58V15.42C3.42 16.54 4.02 17.58 4.99 18.15L10.93 21.58C11.9 22.14 13.1 22.14 14.08 21.58L20.02 18.15C20.99 17.59 21.59 16.55 21.59 15.42V8.58C21.58 7.45 20.98 6.42 20.01 5.85ZM14.75 13.4L13.71 14L12.67 14.6C11.34 15.37 10.25 14.74 10.25 13.2V12V10.8C10.25 9.26 11.34 8.63 12.67 9.4L13.71 10L14.75 10.6C16.08 11.37 16.08 12.63 14.75 13.4Z" fill="#171717"/>
</svg>
