<svg width="25" height="24" viewBox="0 0 25 24" fill="none" xmlns="http://www.w3.org/2000/svg">
<path d="M12.5 2C6.98 2 2.5 6.48 2.5 12C2.5 17.52 6.98 22 12.5 22C18.02 22 22.5 17.52 22.5 12C22.5 6.48 18.02 2 12.5 2ZM7.25 14.14C7.25 14.55 6.91 14.89 6.5 14.89C6.09 14.89 5.75 14.55 5.75 14.14V9.86C5.75 9.45 6.09 9.11 6.5 9.11C6.91 9.11 7.25 9.45 7.25 9.86V14.14ZM10.25 15.57C10.25 15.98 9.91 16.32 9.5 16.32C9.09 16.32 8.75 15.98 8.75 15.57V8.43C8.75 8.02 9.09 7.68 9.5 7.68C9.91 7.68 10.25 8.02 10.25 8.43V15.57ZM13.25 17C13.25 17.41 12.91 17.75 12.5 17.75C12.09 17.75 11.75 17.41 11.75 17V7C11.75 6.59 12.09 6.25 12.5 6.25C12.91 6.25 13.25 6.59 13.25 7V17ZM16.25 15.57C16.25 15.98 15.91 16.32 15.5 16.32C15.09 16.32 14.75 15.98 14.75 15.57V8.43C14.75 8.02 15.09 7.68 15.5 7.68C15.91 7.68 16.25 8.02 16.25 8.43V15.57ZM19.25 14.14C19.25 14.55 18.91 14.89 18.5 14.89C18.09 14.89 17.75 14.55 17.75 14.14V9.86C17.75 9.45 18.09 9.11 18.5 9.11C18.91 9.11 19.25 9.45 19.25 9.86V14.14Z" fill="#171717"/>
</svg>
