<svg width="25" height="24" viewBox="0 0 25 24" fill="none" xmlns="http://www.w3.org/2000/svg">
<path d="M18.5 16.7501C18.34 16.7501 18.19 16.7001 18.05 16.6001C17.72 16.3501 17.65 15.8801 17.9 15.5501C19.16 13.8701 19.43 11.6401 18.62 9.71007C18.46 9.33007 18.64 8.89007 19.02 8.73007C19.4 8.57007 19.84 8.75007 20 9.13007C21.02 11.5501 20.67 14.3601 19.1 16.4601C18.95 16.6501 18.73 16.7501 18.5 16.7501Z" fill="#171717"/>
<path d="M20.33 19.25C20.17 19.25 20.02 19.2 19.88 19.1C19.55 18.85 19.48 18.38 19.73 18.05C21.87 15.2 22.34 11.38 20.96 8.08995C20.8 7.70995 20.98 7.26995 21.36 7.10995C21.74 6.94996 22.18 7.12996 22.34 7.50996C23.93 11.29 23.39 15.67 20.93 18.95C20.79 19.15 20.56 19.25 20.33 19.25Z" fill="#171717"/>
<path d="M14.54 12.96C15.17 12.33 16.25 12.78 16.25 13.67V16.6C16.25 18.32 15.63 19.61 14.52 20.23C14.07 20.48 13.57 20.6 13.05 20.6C12.25 20.6 11.39 20.33 10.51 19.78L9.86998 19.38C9.32998 19.04 9.23998 18.28 9.68998 17.83L14.54 12.96Z" fill="#171717"/>
<path d="M22.27 2.22988C21.97 1.92988 21.48 1.92988 21.18 2.22988L16.23 7.17988C16.17 5.57988 15.57 4.37988 14.51 3.78988C13.39 3.16988 11.96 3.32988 10.5 4.23988L7.59 6.05988C7.39 6.17988 7.16 6.24988 6.93 6.24988H6H5.5C3.08 6.24988 1.75 7.57988 1.75 9.99988V13.9999C1.75 16.4199 3.08 17.7499 5.5 17.7499H5.66L2.72 20.6899C2.42 20.9899 2.42 21.4799 2.72 21.7799C2.88 21.9199 3.07 21.9999 3.27 21.9999C3.47 21.9999 3.66 21.9199 3.81 21.7699L22.27 3.30988C22.58 3.00988 22.58 2.52988 22.27 2.22988Z" fill="#171717"/>
</svg>
