<svg width="25" height="24" viewBox="0 0 25 24" fill="none" xmlns="http://www.w3.org/2000/svg">
<path d="M18.5 16.75C18.34 16.75 18.19 16.7 18.05 16.6C17.72 16.35 17.65 15.88 17.9 15.55C19.47 13.46 19.47 10.54 17.9 8.45003C17.65 8.12003 17.72 7.65003 18.05 7.40003C18.38 7.15003 18.85 7.22003 19.1 7.55003C21.06 10.17 21.06 13.83 19.1 16.45C18.95 16.65 18.73 16.75 18.5 16.75Z" fill="#171717"/>
<path d="M20.33 19.25C20.17 19.25 20.02 19.2 19.88 19.1C19.55 18.85 19.48 18.38 19.73 18.05C22.4 14.49 22.4 9.51003 19.73 5.95003C19.48 5.62003 19.55 5.15003 19.88 4.90003C20.21 4.65003 20.68 4.72003 20.93 5.05003C24 9.14003 24 14.86 20.93 18.95C20.79 19.15 20.56 19.25 20.33 19.25Z" fill="#171717"/>
<path d="M14.52 3.77997C13.4 3.15997 11.97 3.31997 10.51 4.22997L7.59 6.05997C7.39 6.17997 7.16 6.24997 6.93 6.24997H6H5.5C3.08 6.24997 1.75 7.57997 1.75 9.99997V14C1.75 16.42 3.08 17.75 5.5 17.75H6H6.93C7.16 17.75 7.39 17.82 7.59 17.94L10.51 19.77C11.39 20.32 12.25 20.59 13.05 20.59C13.57 20.59 14.07 20.47 14.52 20.22C15.63 19.6 16.25 18.31 16.25 16.59V7.40997C16.25 5.68997 15.63 4.39997 14.52 3.77997Z" fill="#171717"/>
</svg>
