<svg width="25" height="24" viewBox="0 0 25 24" fill="none" xmlns="http://www.w3.org/2000/svg">
<path d="M19.83 16.75C19.67 16.75 19.52 16.7 19.38 16.6C19.05 16.35 18.98 15.88 19.23 15.55C20.8 13.46 20.8 10.54 19.23 8.45003C18.98 8.12003 19.05 7.65003 19.38 7.40003C19.71 7.15003 20.18 7.22003 20.43 7.55003C22.4 10.17 22.4 13.83 20.43 16.45C20.29 16.65 20.06 16.75 19.83 16.75Z" fill="#171717"/>
<path d="M15.85 3.77997C14.73 3.15997 13.3 3.31997 11.84 4.22997L8.91996 6.05997C8.71996 6.17997 8.48996 6.24997 8.25996 6.24997H7.32996H6.82996C4.40996 6.24997 3.07996 7.57997 3.07996 9.99997V14C3.07996 16.42 4.40996 17.75 6.82996 17.75H7.32996H8.25996C8.48996 17.75 8.71996 17.82 8.91996 17.94L11.84 19.77C12.72 20.32 13.58 20.59 14.38 20.59C14.9 20.59 15.4 20.47 15.85 20.22C16.96 19.6 17.58 18.31 17.58 16.59V7.40997C17.58 5.68997 16.96 4.39997 15.85 3.77997Z" fill="#171717"/>
</svg>
