<svg width="25" height="24" viewBox="0 0 25 24" fill="none" xmlns="http://www.w3.org/2000/svg">
<path d="M23.0299 13.4199L21.5799 11.9699L22.9799 10.5699C23.2699 10.2799 23.2699 9.79993 22.9799 9.50993C22.6899 9.21993 22.2099 9.21993 21.9199 9.50993L20.5199 10.9099L19.0699 9.45993C18.7799 9.16993 18.2999 9.16993 18.0099 9.45993C17.7199 9.74993 17.7199 10.2299 18.0099 10.5199L19.4599 11.9699L17.9699 13.4599C17.6799 13.7499 17.6799 14.2299 17.9699 14.5199C18.1199 14.6699 18.3099 14.7399 18.4999 14.7399C18.6899 14.7399 18.8799 14.6699 19.0299 14.5199L20.5199 13.0299L21.9699 14.4799C22.1199 14.6299 22.3099 14.6999 22.4999 14.6999C22.6899 14.6999 22.8799 14.6299 23.0299 14.4799C23.3199 14.1899 23.3199 13.7199 23.0299 13.4199Z" fill="#171717"/>
<path d="M14.52 3.77997C13.4 3.15997 11.97 3.31997 10.51 4.22997L7.59 6.05997C7.39 6.17997 7.16 6.24997 6.93 6.24997H6H5.5C3.08 6.24997 1.75 7.57997 1.75 9.99997V14C1.75 16.42 3.08 17.75 5.5 17.75H6H6.93C7.16 17.75 7.39 17.82 7.59 17.94L10.51 19.77C11.39 20.32 12.25 20.59 13.05 20.59C13.57 20.59 14.07 20.47 14.52 20.22C15.63 19.6 16.25 18.31 16.25 16.59V7.40997C16.25 5.68997 15.63 4.39997 14.52 3.77997Z" fill="#171717"/>
</svg>
