<svg width="25" height="24" viewBox="0 0 25 24" fill="none" xmlns="http://www.w3.org/2000/svg">
<path d="M22.5 12.75H18.5C18.09 12.75 17.75 12.41 17.75 12C17.75 11.59 18.09 11.25 18.5 11.25H22.5C22.91 11.25 23.25 11.59 23.25 12C23.25 12.41 22.91 12.75 22.5 12.75Z" fill="#171717"/>
<path d="M14.52 3.77997C13.4 3.15997 11.97 3.31997 10.51 4.22997L7.59 6.05997C7.39 6.17997 7.16 6.24997 6.93 6.24997H6H5.5C3.08 6.24997 1.75 7.57997 1.75 9.99997V14C1.75 16.42 3.08 17.75 5.5 17.75H6H6.93C7.16 17.75 7.39 17.82 7.59 17.94L10.51 19.77C11.39 20.32 12.25 20.59 13.05 20.59C13.57 20.59 14.07 20.47 14.52 20.22C15.63 19.6 16.25 18.31 16.25 16.59V7.40997C16.25 5.68997 15.63 4.39997 14.52 3.77997Z" fill="#171717"/>
</svg>
