<svg width="25" height="24" viewBox="0 0 25 24" fill="none" xmlns="http://www.w3.org/2000/svg">
<path d="M18.02 3.77997C16.9 3.15997 15.47 3.31997 14.01 4.22997L11.09 6.05997C10.89 6.17997 10.66 6.24997 10.43 6.24997H9.5H9C6.58 6.24997 5.25 7.57997 5.25 9.99997V14C5.25 16.42 6.58 17.75 9 17.75H9.5H10.43C10.66 17.75 10.89 17.82 11.09 17.94L14.01 19.77C14.89 20.32 15.75 20.59 16.55 20.59C17.07 20.59 17.57 20.47 18.02 20.22C19.13 19.6 19.75 18.31 19.75 16.59V7.40997C19.75 5.68997 19.13 4.39997 18.02 3.77997Z" fill="#171717"/>
</svg>
