<svg width="25" height="24" viewBox="0 0 25 24" fill="none" xmlns="http://www.w3.org/2000/svg">
<path d="M22.0434 10.97V13.03C22.0434 13.58 21.6034 14.03 21.0434 14.05H19.0834C18.0034 14.05 17.0134 13.26 16.9234 12.18C16.8634 11.55 17.1034 10.96 17.5234 10.55C17.8934 10.17 18.4034 9.94995 18.9634 9.94995H21.0434C21.6034 9.96995 22.0434 10.42 22.0434 10.97Z" fill="#171717"/>
<path d="M20.5135 15.55H19.0835C17.1835 15.55 15.5835 14.12 15.4235 12.3C15.3335 11.26 15.7135 10.22 16.4735 9.48C17.1135 8.82 18.0035 8.45 18.9635 8.45H20.5135C20.8035 8.45 21.0435 8.21 21.0135 7.92C20.7935 5.49 19.1835 3.83 16.7935 3.55C16.5535 3.51 16.3035 3.5 16.0435 3.5H7.04346C6.76346 3.5 6.49346 3.52 6.23346 3.56C3.68346 3.88 2.04346 5.78 2.04346 8.5V15.5C2.04346 18.26 4.28346 20.5 7.04346 20.5H16.0435C18.8435 20.5 20.7735 18.75 21.0135 16.08C21.0435 15.79 20.8035 15.55 20.5135 15.55ZM13.0435 9.75H7.04346C6.63346 9.75 6.29346 9.41 6.29346 9C6.29346 8.59 6.63346 8.25 7.04346 8.25H13.0435C13.4535 8.25 13.7935 8.59 13.7935 9C13.7935 9.41 13.4535 9.75 13.0435 9.75Z" fill="#171717"/>
</svg>
