<svg width="25" height="24" viewBox="0 0 25 24" fill="none" xmlns="http://www.w3.org/2000/svg">
<path d="M11.9778 2.20995L9.56779 7.81995H7.15779C6.75779 7.81995 6.36779 7.84995 5.98779 7.92995L6.98779 5.52995L7.02779 5.43995L7.08779 5.27995C7.11779 5.20995 7.13779 5.14995 7.16779 5.09995C8.32779 2.40995 9.62779 1.56995 11.9778 2.20995Z" fill="#171717"/>
<path d="M18.7677 8.09002L18.7477 8.08002C18.1477 7.91002 17.5377 7.82002 16.9177 7.82002H10.6577L12.9077 2.59002L12.9377 2.52002C13.0777 2.57002 13.2277 2.64002 13.3777 2.69002L15.5877 3.62002C16.8177 4.13002 17.6777 4.66002 18.2077 5.30002C18.2977 5.42002 18.3777 5.53002 18.4577 5.66002C18.5477 5.80002 18.6177 5.94002 18.6577 6.09002C18.6977 6.18002 18.7277 6.26002 18.7477 6.35002C18.8977 6.86002 18.9077 7.44002 18.7677 8.09002Z" fill="#171717"/>
<path d="M18.3278 9.51995C17.8778 9.38995 17.4078 9.31995 16.9178 9.31995H7.15783C6.47783 9.31995 5.83783 9.44995 5.23783 9.70995C3.49783 10.4599 2.27783 12.1899 2.27783 14.1999V16.1499C2.27783 16.3899 2.29783 16.6199 2.32783 16.8599C2.54783 20.0399 4.24783 21.7399 7.42783 21.9499C7.65783 21.9799 7.88783 21.9999 8.13783 21.9999H15.9378C19.6378 21.9999 21.5878 20.2399 21.7778 16.7399C21.7878 16.5499 21.7978 16.3499 21.7978 16.1499V14.1999C21.7978 11.9899 20.3278 10.1299 18.3278 9.51995ZM14.5378 16.7499H9.53783C9.12783 16.7499 8.78783 16.4099 8.78783 15.9999C8.78783 15.5899 9.12783 15.2499 9.53783 15.2499H14.5378C14.9478 15.2499 15.2878 15.5899 15.2878 15.9999C15.2878 16.4099 14.9478 16.7499 14.5378 16.7499Z" fill="#171717"/>
</svg>
