<svg width="25" height="24" viewBox="0 0 25 24" fill="none" xmlns="http://www.w3.org/2000/svg">
<path d="M11.9797 2.20995L9.56975 7.81995H7.15975C6.75975 7.81995 6.36975 7.84995 5.98975 7.92995L6.98975 5.52995L7.02975 5.43995L7.08975 5.27995C7.11975 5.20995 7.13975 5.14995 7.16975 5.09995C8.32975 2.40995 9.62975 1.56995 11.9797 2.20995Z" fill="#171717"/>
<path d="M18.7697 8.09002L18.7497 8.08002C18.1497 7.91002 17.5397 7.82002 16.9197 7.82002H10.6597L12.9097 2.59002L12.9397 2.52002C13.0797 2.57002 13.2297 2.64002 13.3797 2.69002L15.5897 3.62002C16.8197 4.13002 17.6797 4.66002 18.2097 5.30002C18.2997 5.42002 18.3797 5.53002 18.4597 5.66002C18.5497 5.80002 18.6197 5.94002 18.6597 6.09002C18.6997 6.18002 18.7297 6.26002 18.7497 6.35002C18.8997 6.86002 18.9097 7.44002 18.7697 8.09002Z" fill="#171717"/>
<path d="M18.3298 9.51995C17.8798 9.38995 17.4098 9.31995 16.9198 9.31995H7.15979C6.47979 9.31995 5.83979 9.44995 5.23978 9.70995C3.49978 10.4599 2.27979 12.1899 2.27979 14.1999V16.1499C2.27979 16.3899 2.29979 16.6199 2.32979 16.8599C2.54979 20.0399 4.24978 21.7399 7.42978 21.9499C7.65978 21.9799 7.88979 21.9999 8.13979 21.9999H15.9398C19.6398 21.9999 21.5898 20.2399 21.7798 16.7399C21.7898 16.5499 21.7998 16.3499 21.7998 16.1499V14.1999C21.7998 11.9899 20.3298 10.1299 18.3298 9.51995ZM14.5398 16.1899H12.7898V17.9999C12.7898 18.4099 12.4498 18.7499 12.0398 18.7499C11.6298 18.7499 11.2898 18.4099 11.2898 17.9999V16.1899H9.53979C9.12979 16.1899 8.78979 15.8599 8.78979 15.4399C8.78979 15.0299 9.12979 14.6899 9.53979 14.6899H11.2898V12.9999C11.2898 12.5899 11.6298 12.2499 12.0398 12.2499C12.4498 12.2499 12.7898 12.5899 12.7898 12.9999V14.6899H14.5398C14.9498 14.6899 15.2898 15.0299 15.2898 15.4399C15.2898 15.8599 14.9498 16.1899 14.5398 16.1899Z" fill="#171717"/>
</svg>
