<svg width="24" height="24" viewBox="0 0 24 24" fill="none" xmlns="http://www.w3.org/2000/svg">
<path d="M1.23425 21.6817L1.99425 20.9217C1.59425 20.3217 1.36425 19.6017 1.36425 18.8317C1.36425 16.7217 3.07425 15.0117 5.18425 15.0117C7.29425 15.0117 9.00425 16.7117 9.00425 18.8217C9.00425 20.9317 7.29425 22.6417 5.18425 22.6417C4.41425 22.6417 3.69425 22.4117 3.09425 22.0117L2.33425 22.7717C2.17425 22.9217 1.97425 23.0017 1.77425 23.0017C1.57425 23.0017 1.37425 22.9217 1.22425 22.7717C0.924254 22.4717 0.924254 21.9817 1.23425 21.6817Z" fill="#171717"/>
<path d="M21.5044 12.5H19.0044C17.9044 12.5 17.0044 13.4 17.0044 14.5C17.0044 15.6 17.9044 16.5 19.0044 16.5H21.5044C21.7844 16.5 22.0044 16.28 22.0044 16V13C22.0044 12.72 21.7844 12.5 21.5044 12.5Z" fill="#171717"/>
<path d="M16.5346 5.40003C16.8346 5.69003 16.5846 6.14003 16.1646 6.14003L7.8846 6.13003C7.4046 6.13003 7.1646 5.55003 7.5046 5.21003L9.2546 3.45003C10.7346 1.98003 13.1246 1.98003 14.6046 3.45003L16.4946 5.36003C16.5046 5.37003 16.5246 5.39003 16.5346 5.40003Z" fill="#171717"/>
<path d="M21.8743 18.66C21.2643 20.72 19.5043 22 17.1043 22H10.6043C10.2143 22 9.96426 21.57 10.1243 21.21C10.4243 20.51 10.6143 19.72 10.6143 19C10.6143 15.97 8.14426 13.5 5.11426 13.5C4.35426 13.5 3.61426 13.66 2.93426 13.96C2.56426 14.12 2.11426 13.87 2.11426 13.47V12C2.11426 9.28 3.75426 7.38 6.30426 7.06C6.55426 7.02 6.82426 7 7.10426 7H17.1043C17.3643 7 17.6143 7.01 17.8543 7.05C19.8743 7.28 21.3343 8.51 21.8743 10.34C21.9743 10.67 21.7343 11 21.3943 11H19.1043C16.9343 11 15.2143 12.98 15.6843 15.23C16.0143 16.87 17.5343 18 19.2043 18H21.3943C21.7443 18 21.9743 18.34 21.8743 18.66Z" fill="#171717"/>
</svg>
