<svg width="25" height="24" viewBox="0 0 25 24" fill="none" xmlns="http://www.w3.org/2000/svg">
<path d="M11.9631 2.20995L9.55314 7.81995H7.14314C6.74314 7.81995 6.35314 7.84995 5.97314 7.92995L6.97314 5.52995L7.01314 5.43995L7.07314 5.27995C7.10314 5.20995 7.12314 5.14995 7.15314 5.09995C8.31314 2.40995 9.61314 1.56995 11.9631 2.20995Z" fill="#171717"/>
<path d="M18.7531 8.09002L18.7331 8.08002C18.1331 7.91002 17.5231 7.82002 16.9031 7.82002H10.6431L12.8931 2.59002L12.9231 2.52002C13.0631 2.57002 13.2131 2.64002 13.3631 2.69002L15.5731 3.62002C16.8031 4.13002 17.6631 4.66002 18.1931 5.30002C18.2831 5.42002 18.3631 5.53002 18.4431 5.66002C18.5331 5.80002 18.6031 5.94002 18.6431 6.09002C18.6831 6.18002 18.7131 6.26002 18.7331 6.35002C18.8831 6.86002 18.8931 7.44002 18.7531 8.09002Z" fill="#171717"/>
<path d="M12.543 17.66H12.793C13.093 17.66 13.343 17.39 13.343 17.06C13.343 16.64 13.223 16.58 12.963 16.48L12.543 16.33V17.66Z" fill="#171717"/>
<path d="M18.3132 9.51995C17.8632 9.38995 17.3932 9.31995 16.9032 9.31995H7.14318C6.46318 9.31995 5.82318 9.44995 5.22318 9.70995C3.48318 10.4599 2.26318 12.1899 2.26318 14.1999V16.1499C2.26318 16.3899 2.28318 16.6199 2.31318 16.8599C2.53318 20.0399 4.23318 21.7399 7.41318 21.9499C7.64318 21.9799 7.87318 21.9999 8.12318 21.9999H15.9232C19.6232 21.9999 21.5732 20.2399 21.7632 16.7399C21.7732 16.5499 21.7832 16.3499 21.7832 16.1499V14.1999C21.7832 11.9899 20.3132 10.1299 18.3132 9.51995ZM13.3032 15.4999C13.7632 15.6599 14.3832 15.9999 14.3832 17.0599C14.3832 17.9699 13.6732 18.6999 12.7932 18.6999H12.5432V18.9199C12.5432 19.2099 12.3132 19.4399 12.0232 19.4399C11.7332 19.4399 11.5032 19.2099 11.5032 18.9199V18.6999H11.4132C10.4532 18.6999 9.66318 17.8899 9.66318 16.8899C9.66318 16.5999 9.89318 16.3699 10.1832 16.3699C10.4732 16.3699 10.7032 16.5999 10.7032 16.8899C10.7032 17.3099 11.0232 17.6599 11.4132 17.6599H11.5032V15.9699L10.7432 15.6999C10.2832 15.5399 9.66318 15.1999 9.66318 14.1399C9.66318 13.2299 10.3732 12.4999 11.2532 12.4999H11.5032V12.2799C11.5032 11.9899 11.7332 11.7599 12.0232 11.7599C12.3132 11.7599 12.5432 11.9899 12.5432 12.2799V12.4999H12.6332C13.5932 12.4999 14.3832 13.3099 14.3832 14.3099C14.3832 14.5999 14.1532 14.8299 13.8632 14.8299C13.5732 14.8299 13.3432 14.5999 13.3432 14.3099C13.3432 13.8899 13.0232 13.5399 12.6332 13.5399H12.5432V15.2299L13.3032 15.4999Z" fill="#171717"/>
<path d="M10.7031 14.14C10.7031 14.56 10.8231 14.62 11.0831 14.72L11.5031 14.87V13.54H11.2531C10.9431 13.54 10.7031 13.81 10.7031 14.14Z" fill="#171717"/>
</svg>
