<svg width="24" height="24" viewBox="0 0 24 24" fill="none" xmlns="http://www.w3.org/2000/svg">
<path d="M21.5039 12.5H19.0039C17.9039 12.5 17.0039 13.4 17.0039 14.5C17.0039 15.6 17.9039 16.5 19.0039 16.5H21.5039C21.7839 16.5 22.0039 16.28 22.0039 16V13C22.0039 12.72 21.7839 12.5 21.5039 12.5Z" fill="#171717"/>
<path d="M5.00391 15C3.80391 15 2.73391 15.53 2.00391 16.36C1.38391 17.07 1.00391 17.99 1.00391 19C1.00391 19.75 1.21391 20.46 1.58391 21.06C2.27391 22.22 3.54391 23 5.00391 23C6.01391 23 6.93391 22.63 7.63391 22C7.94391 21.74 8.21391 21.42 8.42391 21.06C8.79391 20.46 9.00391 19.75 9.00391 19C9.00391 16.79 7.21391 15 5.00391 15ZM6.60391 20.58C6.45391 20.73 6.26391 20.8 6.07391 20.8C5.88391 20.8 5.69391 20.73 5.54391 20.58L5.01391 20.05L4.46391 20.6C4.31391 20.75 4.12391 20.82 3.93391 20.82C3.74391 20.82 3.55391 20.75 3.40391 20.6C3.11391 20.31 3.11391 19.83 3.40391 19.54L3.95391 18.99L3.42391 18.46C3.13391 18.17 3.13391 17.69 3.42391 17.4C3.71391 17.11 4.19391 17.11 4.48391 17.4L5.01391 17.93L5.51391 17.43C5.80391 17.14 6.28391 17.14 6.57391 17.43C6.86391 17.72 6.86391 18.2 6.57391 18.49L6.07391 18.99L6.60391 19.52C6.89391 19.81 6.89391 20.28 6.60391 20.58Z" fill="#171717"/>
<path d="M16.5341 5.40003C16.8341 5.69003 16.5841 6.14003 16.1641 6.14003L7.88411 6.13003C7.40411 6.13003 7.16411 5.55003 7.50411 5.21003L9.25411 3.45003C10.7341 1.98003 13.1241 1.98003 14.6041 3.45003L16.4941 5.36003C16.5041 5.37003 16.5241 5.39003 16.5341 5.40003Z" fill="#171717"/>
<path d="M21.8738 18.66C21.2638 20.72 19.5038 22 17.1038 22H10.6038C10.2138 22 9.96377 21.57 10.1238 21.21C10.4238 20.51 10.6138 19.72 10.6138 19C10.6138 15.97 8.14377 13.5 5.11377 13.5C4.35377 13.5 3.61377 13.66 2.93377 13.96C2.56377 14.12 2.11377 13.87 2.11377 13.47V12C2.11377 9.28 3.75377 7.38 6.30377 7.06C6.55377 7.02 6.82377 7 7.10377 7H17.1038C17.3638 7 17.6138 7.01 17.8538 7.05C19.8738 7.28 21.3338 8.51 21.8738 10.34C21.9738 10.67 21.7338 11 21.3938 11H19.1038C16.9338 11 15.2138 12.98 15.6838 15.23C16.0138 16.87 17.5338 18 19.2038 18H21.3938C21.7438 18 21.9738 18.34 21.8738 18.66Z" fill="#171717"/>
</svg>
