<svg width="25" height="24" viewBox="0 0 25 24" fill="none" xmlns="http://www.w3.org/2000/svg">
<path d="M22.0539 12.62V14.68C22.0539 15.24 21.5939 15.7 21.0239 15.7H19.0939C18.0139 15.7 17.0239 14.91 16.9339 13.83C16.8739 13.2 17.1139 12.61 17.5339 12.2C17.9039 11.82 18.4139 11.6 18.9739 11.6H21.0239C21.5939 11.6 22.0539 12.06 22.0539 12.62Z" fill="#171717"/>
<path d="M15.434 13.96C15.344 12.91 15.724 11.88 16.484 11.13C17.124 10.48 18.014 10.1 18.974 10.1H19.544C19.824 10.1 20.054 9.87002 20.014 9.59002C19.744 7.65002 18.064 6.15002 16.054 6.15002H6.05396C3.84396 6.15002 2.05396 7.94002 2.05396 10.15V17.15C2.05396 19.36 3.84396 21.15 6.05396 21.15H16.054C18.074 21.15 19.744 19.65 20.014 17.71C20.054 17.43 19.824 17.2 19.544 17.2H19.094C17.194 17.2 15.594 15.78 15.434 13.96ZM13.054 11.9H7.05396C6.64396 11.9 6.30396 11.57 6.30396 11.15C6.30396 10.73 6.64396 10.4 7.05396 10.4H13.054C13.464 10.4 13.804 10.74 13.804 11.15C13.804 11.56 13.464 11.9 13.054 11.9Z" fill="#171717"/>
<path d="M14.2639 3.97998C14.5239 4.24998 14.2939 4.64998 13.9139 4.64998H6.08386C4.99386 4.64998 3.97386 4.96998 3.12386 5.51998C2.73386 5.76998 2.20386 5.49998 2.39386 5.06998C2.95386 3.75998 4.26386 2.84998 5.77386 2.84998H11.3939C12.5539 2.84998 13.5839 3.25998 14.2639 3.97998Z" fill="#171717"/>
</svg>
