<svg width="25" height="24" viewBox="0 0 25 24" fill="none" xmlns="http://www.w3.org/2000/svg">
<path d="M21.4601 13.64V14.64C21.4601 14.91 21.2501 15.13 20.9701 15.14H19.5101C18.9801 15.14 18.5001 14.75 18.4601 14.23C18.4301 13.92 18.5501 13.63 18.7501 13.43C18.9301 13.24 19.1801 13.14 19.4501 13.14H20.9601C21.2501 13.15 21.4601 13.37 21.4601 13.64Z" fill="#171717"/>
<path d="M18.0004 12.69C17.5004 13.18 17.2605 13.91 17.4605 14.67C17.7205 15.6 18.6304 16.19 19.5904 16.19H20.4604C21.0104 16.19 21.4604 16.64 21.4604 17.19V17.38C21.4604 19.45 19.7705 21.14 17.7004 21.14H6.22045C4.15045 21.14 2.46045 19.45 2.46045 17.38V10.65C2.46045 9.42001 3.05045 8.33001 3.96045 7.65001C4.59045 7.17001 5.37045 6.89001 6.22045 6.89001H17.7004C19.7705 6.89001 21.4604 8.58001 21.4604 10.65V11.09C21.4604 11.64 21.0104 12.09 20.4604 12.09H19.4404C18.8804 12.09 18.3704 12.31 18.0004 12.69Z" fill="#171717"/>
<path d="M16.2103 4.82C16.4803 5.09 16.2503 5.51 15.8703 5.51L8.19031 5.5C7.75031 5.5 7.52031 4.96 7.84031 4.65L9.46031 3.02C10.8303 1.66 13.0503 1.66 14.4203 3.02L16.1703 4.79C16.1803 4.8 16.2003 4.81 16.2103 4.82Z" fill="#171717"/>
</svg>
