<svg width="25" height="24" viewBox="0 0 25 24" fill="none" xmlns="http://www.w3.org/2000/svg">
<path d="M21.0171 16.08C20.7771 18.75 18.8471 20.5 16.0471 20.5H7.04712C4.28712 20.5 2.04712 18.26 2.04712 15.5V8.5C2.04712 5.78 3.68712 3.88 6.23712 3.56C6.49712 3.52 6.76712 3.5 7.04712 3.5H16.0471C16.3071 3.5 16.5571 3.51 16.7971 3.55C19.1871 3.83 20.8071 5.5 21.0171 7.92C21.0471 8.21 20.8071 8.45 20.5171 8.45H18.9671C18.0071 8.45 17.1171 8.82 16.4771 9.48C15.7171 10.22 15.3371 11.26 15.4271 12.3C15.5871 14.12 17.1871 15.55 19.0871 15.55H20.5171C20.8071 15.55 21.0471 15.79 21.0171 16.08Z" fill="#171717"/>
<path d="M22.0471 10.97V13.03C22.0471 13.58 21.6071 14.03 21.0471 14.05H19.0871C18.0071 14.05 17.0171 13.26 16.9271 12.18C16.8671 11.55 17.1071 10.96 17.5271 10.55C17.8971 10.17 18.4071 9.94995 18.9671 9.94995H21.0471C21.6071 9.96995 22.0471 10.42 22.0471 10.97Z" fill="#171717"/>
</svg>
