<svg width="25" height="24" viewBox="0 0 25 24" fill="none" xmlns="http://www.w3.org/2000/svg">
<path d="M19.0156 9C19.0156 5.13 15.8856 2 12.0156 2C8.14563 2 5.01562 5.13 5.01562 9C5.01562 12.62 7.75563 15.59 11.2656 15.96V18.25H9.01562C8.60562 18.25 8.26562 18.59 8.26562 19C8.26562 19.41 8.60562 19.75 9.01562 19.75H11.2656V22C11.2656 22.41 11.6056 22.75 12.0156 22.75C12.4256 22.75 12.7656 22.41 12.7656 22V19.75H15.0156C15.4256 19.75 15.7656 19.41 15.7656 19C15.7656 18.59 15.4256 18.25 15.0156 18.25H12.7656V15.96C16.2756 15.59 19.0156 12.62 19.0156 9Z" fill="#171717"/>
</svg>
