<svg width="24" height="24" viewBox="0 0 24 24" fill="none" xmlns="http://www.w3.org/2000/svg">
<path d="M20.66 8.04004C20.66 8.27004 20.6 8.51004 20.45 8.70004L11.07 20.64C10.73 21.07 10.33 21.22 9.98999 21.1L9.99999 21L11 10L20.04 8.19004L20.66 8.04004Z" fill="#171717"/>
<path opacity="0.4" d="M20.66 8.04005L20.04 8.19005L11 10L16.95 4.05005C17.07 4.10005 17.17 4.17005 17.24 4.24005L20.37 7.37005C20.55 7.55005 20.65 7.79005 20.66 8.04005Z" fill="#171717"/>
<path d="M16.9499 4.04995L10.9999 9.99995L3.00991 2.89995L2.65991 2.55995V2.54995C2.85991 2.28995 3.21991 2.15995 3.69991 2.22995L16.6599 3.95995C16.7499 3.96995 16.8499 3.99995 16.9499 4.04995Z" fill="#171717"/>
<path opacity="0.4" d="M10.9999 10.0001L9.99991 21.0001L9.98991 21.1001C9.73991 21.0101 9.50991 20.7701 9.35991 20.3901L2.63991 3.59006C2.46991 3.17006 2.48991 2.81006 2.65991 2.56006L3.00991 2.90006L10.9999 10.0001Z" fill="#171717"/>
</svg>
