<svg width="24" height="24" viewBox="0 0 24 24" fill="none" xmlns="http://www.w3.org/2000/svg">
<path opacity="0.4" d="M12 22C17.5228 22 22 17.5228 22 12C22 6.47715 17.5228 2 12 2C6.47715 2 2 6.47715 2 12C2 17.5228 6.47715 22 12 22Z" fill="#171717"/>
<path d="M16.9501 17.7C16.7601 17.7 16.5701 17.63 16.4201 17.48C16.1301 17.19 16.1301 16.71 16.4201 16.42C17.6001 15.24 18.2501 13.67 18.2501 12C18.2501 10.33 17.6001 8.75999 16.4201 7.57999C16.1301 7.28999 16.1301 6.80999 16.4201 6.51999C16.7101 6.22999 17.1901 6.22999 17.4801 6.51999C18.9401 7.97999 19.7501 9.92999 19.7501 12C19.7501 14.07 18.9401 16.02 17.4801 17.48C17.3301 17.63 17.1401 17.7 16.9501 17.7Z" fill="#171717"/>
<path d="M7.04999 17.7C6.85999 17.7 6.66999 17.63 6.51999 17.48C5.05999 16.02 4.25 14.07 4.25 12C4.25 9.92999 5.05999 7.97999 6.51999 6.51999C6.80999 6.22999 7.28999 6.22999 7.57999 6.51999C7.86999 6.80999 7.86999 7.28999 7.57999 7.57999C6.39999 8.75999 5.75 10.33 5.75 12C5.75 13.67 6.39999 15.24 7.57999 16.42C7.86999 16.71 7.86999 17.19 7.57999 17.48C7.42999 17.63 7.23999 17.7 7.04999 17.7Z" fill="#171717"/>
<path d="M13.6499 11.78L12.7499 11.46V9.48005H12.7799C13.2199 9.48005 13.5899 9.88005 13.5899 10.36C13.5899 10.77 13.9299 11.11 14.3399 11.11C14.7499 11.11 15.0899 10.77 15.0899 10.36C15.0899 9.05005 14.0599 7.98005 12.7799 7.98005H12.7499V7.80005C12.7499 7.39005 12.4099 7.05005 11.9999 7.05005C11.5899 7.05005 11.2499 7.39005 11.2499 7.80005V7.98005H11.0199C9.8599 7.98005 8.90991 8.96005 8.90991 10.15C8.90991 11.2 9.3799 11.87 10.3399 12.21L11.2399 12.53V14.51H11.2099C10.7699 14.51 10.3999 14.11 10.3999 13.63C10.3999 13.22 10.0599 12.88 9.6499 12.88C9.2399 12.88 8.8999 13.22 8.8999 13.63C8.8999 14.94 9.9299 16.01 11.2099 16.01H11.2399V16.19C11.2399 16.6 11.5799 16.94 11.9899 16.94C12.3999 16.94 12.7399 16.6 12.7399 16.19V16.01H12.9699C14.1299 16.01 15.0799 15.03 15.0799 13.84C15.0799 12.79 14.6199 12.12 13.6499 11.78ZM10.8399 10.8C10.5199 10.69 10.4099 10.63 10.4099 10.16C10.4099 9.79005 10.6799 9.49005 11.0199 9.49005H11.2499V10.95L10.8399 10.8ZM12.9799 14.52H12.7499V13.06L13.1599 13.2C13.4799 13.31 13.5899 13.37 13.5899 13.84C13.5799 14.21 13.3099 14.52 12.9799 14.52Z" fill="#171717"/>
</svg>
