<svg width="24" height="24" viewBox="0 0 24 24" fill="none" xmlns="http://www.w3.org/2000/svg">
<path opacity="0.4" d="M6.05984 15.58L11.6698 5.96995C11.8298 5.68995 12.2298 5.66995 12.4198 5.92995L13.9798 8.01995C14.4298 8.61995 14.4599 9.42995 14.0699 10.0699L10.7298 15.4199C10.3998 15.9499 9.81985 16.2699 9.18985 16.2699H6.44986C6.09986 16.2599 5.87984 15.88 6.05984 15.58Z" stroke="#171717" stroke-width="1.5" stroke-miterlimit="10" stroke-linecap="round" stroke-linejoin="round"/>
<path opacity="0.4" d="M15.2401 12.3701L13.3201 15.5701C13.1401 15.8701 13.3601 16.2601 13.7101 16.2601H17.5501C17.9001 16.2601 18.1201 15.8801 17.9401 15.5701L16.0201 12.3701C15.8501 12.0801 15.4201 12.0801 15.2401 12.3701Z" stroke="#171717" stroke-width="1.5" stroke-miterlimit="10" stroke-linecap="round" stroke-linejoin="round"/>
<path d="M12 22C17.5228 22 22 17.5228 22 12C22 6.47715 17.5228 2 12 2C6.47715 2 2 6.47715 2 12C2 17.5228 6.47715 22 12 22Z" stroke="#171717" stroke-width="1.5" stroke-miterlimit="10"/>
</svg>
